<svg xmlns="http://www.w3.org/2000/svg" viewBox="0 0 193.74 152.48"><defs><style>.cls-1{fill:#666;}</style></defs><title>brand_fonts</title><g id="Layer_2" data-name="Layer 2"><g id="Layer_1-2" data-name="Layer 1"><path class="cls-1" d="M1.29.47H4.63L9.58,15,14.5.47h3.31V17.68H15.59V7.52c0-.35,0-.93,0-1.74s0-1.69,0-2.62L10.72,17.68H8.41l-5-14.52v.53c0,.42,0,1.07,0,1.93s0,1.5,0,1.9V17.68H1.29Z"/><path class="cls-1" d="M28,.47h2.64l6.24,17.21H34.37l-1.8-5.15H25.82L24,17.68H21.56Zm3.87,10.16L29.26,3l-2.75,7.61Z"/><path class="cls-1" d="M41,.47h7.82A7.72,7.72,0,0,1,52,1a4.08,4.08,0,0,1,2.38,4.07,4.63,4.63,0,0,1-.63,2.53A4.67,4.67,0,0,1,52,9.22a3.65,3.65,0,0,1,1.52,1.08A3.9,3.9,0,0,1,54,12.47l.09,2.31a6.65,6.65,0,0,0,.16,1.46A1.45,1.45,0,0,0,55,17.3v.38H52.18a2.11,2.11,0,0,1-.19-.57,12.88,12.88,0,0,1-.11-1.36l-.14-2.87a2.43,2.43,0,0,0-1.22-2.26,5,5,0,0,0-2-.32H43.32v7.38H41Zm7.57,7.89a4.29,4.29,0,0,0,2.53-.66A2.71,2.71,0,0,0,52,5.33a2.58,2.58,0,0,0-1.3-2.51,4.25,4.25,0,0,0-1.86-.35H43.32V8.36Z"/><path class="cls-1" d="M59.72.47H62V8.9L70.61.47h3.26l-7.36,7L74,17.68H71L64.8,9,62,11.68v6H59.72Z"/><path class="cls-1" d="M77.63.47H90.12V2.58H79.9V7.8h9.45v2H79.9v5.83H90.3v2H77.63Z"/><path class="cls-1" d="M107.61.47V2.52h-5.8V17.68H99.46V2.52H93.65v-2Z"/><path class="cls-1" d="M111.66.47h7.7a5.25,5.25,0,0,1,3.69,1.29,4.71,4.71,0,0,1,1.41,3.64,5.25,5.25,0,0,1-1.26,3.51,4.7,4.7,0,0,1-3.83,1.5H114v7.27h-2.33Zm9,2.37a4.85,4.85,0,0,0-2.1-.37H114v6h4.61a4.42,4.42,0,0,0,2.53-.67,2.66,2.66,0,0,0,1-2.36A2.59,2.59,0,0,0,120.7,2.84Z"/><path class="cls-1" d="M129.12.47h2.34V15.63h8.63v2h-11Z"/><path class="cls-1" d="M149.17.47h2.64l6.25,17.21H155.5l-1.8-5.15H147l-1.87,5.15h-2.39ZM153,10.63,150.39,3l-2.75,7.61Z"/><path class="cls-1" d="M174,1.72a6.21,6.21,0,0,1,2,3.92h-2.28A4.77,4.77,0,0,0,172.21,3,4.74,4.74,0,0,0,169,2a5.05,5.05,0,0,0-4,1.79q-1.53,1.78-1.53,5.48a8.11,8.11,0,0,0,1.38,4.91A4.84,4.84,0,0,0,169,16.09a4.35,4.35,0,0,0,3.86-2,7.62,7.62,0,0,0,1-2.74h2.27a7.87,7.87,0,0,1-2,4.56,7.8,7.8,0,0,1-10.45.39q-2.66-2.4-2.65-7.42a9.56,9.56,0,0,1,2-6.25A7.22,7.22,0,0,1,169,0,6.94,6.94,0,0,1,174,1.72Z"/><path class="cls-1" d="M181.07.47h12.5V2.58H183.35V7.8h9.44v2h-9.44v5.83h10.39v2H181.07Z"/><path class="cls-1" d="M3.67,27a.49.49,0,0,1,.43-.36h.39a.49.49,0,0,1,.41.27l5,12.26H10l5-12.26a.46.46,0,0,1,.41-.27h.38a.49.49,0,0,1,.44.36l2.95,16.13a.41.41,0,0,1-.43.55H17.19a.49.49,0,0,1-.46-.33L15,32.62h-.07l-4.32,11a.41.41,0,0,1-.41.26H9.72a.44.44,0,0,1-.41-.26L5,32.62h-.1L3.14,43.35a.45.45,0,0,1-.43.33H1.15a.43.43,0,0,1-.45-.55Z"/><path class="cls-1" d="M21.89,43.06l7.37-16.15a.54.54,0,0,1,.4-.27h.24a.55.55,0,0,1,.41.27l7.32,16.15a.42.42,0,0,1-.4.62H35.71a.56.56,0,0,1-.55-.36L33.67,40H25.82c-.48,1.1-1,2.18-1.46,3.28a.59.59,0,0,1-.55.36H22.3A.42.42,0,0,1,21.89,43.06ZM32.76,38l-2.95-6.58h-.12L26.76,38Z"/><path class="cls-1" d="M41.47,27.34a.46.46,0,0,1,.46-.46h6.53A5.18,5.18,0,0,1,53.69,32a5.33,5.33,0,0,1-3.55,4.87L53.42,43a.45.45,0,0,1-.4.69H51.14a.45.45,0,0,1-.38-.21l-3.19-6.36H43.94v6.12a.46.46,0,0,1-.45.45H41.93a.45.45,0,0,1-.46-.45ZM48.26,35a3,3,0,0,0,2.93-3,3,3,0,0,0-2.93-2.86H44V35Z"/><path class="cls-1" d="M58.87,27.46a.57.57,0,0,1,.58-.58h1.39a.59.59,0,0,1,.58.58v6.65l6.76-7a.63.63,0,0,1,.46-.24h1.8a.5.5,0,0,1,.34.87l-6.94,7,7.34,8.09a.5.5,0,0,1-.43.79H68.83a.53.53,0,0,1-.43-.16l-7-7.88v7.47a.59.59,0,0,1-.58.57H59.45a.57.57,0,0,1-.58-.57Z"/><path class="cls-1" d="M75.46,27.34a.46.46,0,0,1,.45-.46h9.6a.46.46,0,0,1,.46.46v1.34a.46.46,0,0,1-.46.46H77.93V34h6.41a.47.47,0,0,1,.45.46v1.34a.45.45,0,0,1-.45.46H77.93v5.16h7.58a.46.46,0,0,1,.46.46v1.32a.45.45,0,0,1-.46.45h-9.6a.45.45,0,0,1-.45-.45Z"/><path class="cls-1" d="M93.34,29.14H89.42a.46.46,0,0,1-.45-.46V27.34a.46.46,0,0,1,.45-.46H99.74a.46.46,0,0,1,.46.46v1.34a.46.46,0,0,1-.46.46H95.83V43.23a.46.46,0,0,1-.45.45H93.79a.46.46,0,0,1-.45-.45Z"/><path class="cls-1" d="M104.23,27.34a.46.46,0,0,1,.46-.46h5.47a5.36,5.36,0,1,1,0,10.71H106.7v5.64a.46.46,0,0,1-.45.45h-1.56a.45.45,0,0,1-.46-.45ZM110,35.23a3.05,3.05,0,0,0,3-3.07,3,3,0,0,0-3-2.88H106.7v5.95Z"/><path class="cls-1" d="M119.93,27.34a.46.46,0,0,1,.45-.46H122a.47.47,0,0,1,.45.46V41.45h6.51a.46.46,0,0,1,.45.46v1.32a.45.45,0,0,1-.45.45h-8.55a.45.45,0,0,1-.45-.45Z"/><path class="cls-1" d="M131.83,43.06l7.37-16.15a.55.55,0,0,1,.41-.27h.24a.54.54,0,0,1,.4.27l7.33,16.15a.42.42,0,0,1-.41.62h-1.51a.57.57,0,0,1-.56-.36L143.62,40h-7.85c-.48,1.1-1,2.18-1.47,3.28a.59.59,0,0,1-.55.36h-1.51A.42.42,0,0,1,131.83,43.06ZM142.7,38l-2.95-6.58h-.12L136.7,38Z"/><path class="cls-1" d="M158.76,26.64a8.37,8.37,0,0,1,5.81,2.23.46.46,0,0,1,0,.68l-1.05,1.08a.36.36,0,0,1-.6,0A6.49,6.49,0,0,0,158.78,29a6.23,6.23,0,0,0,0,12.46,6.45,6.45,0,0,0,4.13-1.59.43.43,0,0,1,.57,0L164.62,41a.46.46,0,0,1,0,.65,8.23,8.23,0,0,1-5.83,2.32,8.64,8.64,0,1,1,0-17.28Z"/><path class="cls-1" d="M169.46,27.34a.46.46,0,0,1,.46-.46h9.6a.47.47,0,0,1,.46.46v1.34a.47.47,0,0,1-.46.46h-7.59V34h6.41a.48.48,0,0,1,.46.46v1.34a.46.46,0,0,1-.46.46h-6.41v5.16h7.59a.47.47,0,0,1,.46.46v1.32a.46.46,0,0,1-.46.45h-9.6a.45.45,0,0,1-.46-.45Z"/><path class="cls-1" d="M3.67,53a.49.49,0,0,1,.43-.36h.39a.49.49,0,0,1,.41.27l5,12.26H10l5-12.26a.46.46,0,0,1,.41-.27h.38a.49.49,0,0,1,.44.36l2.95,16.13a.41.41,0,0,1-.43.55H17.19a.49.49,0,0,1-.46-.33L15,58.62h-.07l-4.32,11a.41.41,0,0,1-.41.26H9.72a.44.44,0,0,1-.41-.26L5,58.62h-.1L3.14,69.35a.45.45,0,0,1-.43.33H1.15a.43.43,0,0,1-.45-.55Z"/><path class="cls-1" d="M21.53,69.06,28.9,52.91a.54.54,0,0,1,.4-.27h.24a.55.55,0,0,1,.41.27l7.32,16.15a.42.42,0,0,1-.4.62H35.35a.56.56,0,0,1-.55-.36L33.31,66H25.46c-.48,1.1-1,2.18-1.46,3.28a.59.59,0,0,1-.55.36H21.94A.42.42,0,0,1,21.53,69.06ZM32.4,64l-2.95-6.58h-.12L26.4,64Z"/><path class="cls-1" d="M40.75,53.34a.46.46,0,0,1,.46-.46h6.53A5.18,5.18,0,0,1,53,58a5.33,5.33,0,0,1-3.55,4.87L52.71,69a.45.45,0,0,1-.41.69H50.42a.45.45,0,0,1-.38-.21l-3.19-6.36H43.22v6.12a.46.46,0,0,1-.45.45H41.21a.45.45,0,0,1-.46-.45ZM47.54,61a3,3,0,0,0,2.93-3,3,3,0,0,0-2.93-2.86H43.27V61Z"/><path class="cls-1" d="M57.79,53.46a.57.57,0,0,1,.58-.58h1.39a.59.59,0,0,1,.58.58v6.65l6.76-7a.63.63,0,0,1,.46-.24h1.8a.5.5,0,0,1,.34.87l-6.94,7,7.34,8.09a.5.5,0,0,1-.43.79H67.75a.53.53,0,0,1-.43-.16l-7-7.88v7.47a.59.59,0,0,1-.58.57H58.37a.57.57,0,0,1-.58-.57Z"/><path class="cls-1" d="M74,53.34a.46.46,0,0,1,.45-.46h9.6a.46.46,0,0,1,.46.46v1.34a.46.46,0,0,1-.46.46H76.49V60H82.9a.47.47,0,0,1,.45.46v1.34a.45.45,0,0,1-.45.46H76.49v5.16h7.58a.46.46,0,0,1,.46.46v1.32a.45.45,0,0,1-.46.45h-9.6a.45.45,0,0,1-.45-.45Z"/><path class="cls-1" d="M91.54,55.14H87.62a.46.46,0,0,1-.45-.46V53.34a.46.46,0,0,1,.45-.46H97.94a.46.46,0,0,1,.46.46v1.34a.46.46,0,0,1-.46.46H94V69.23a.46.46,0,0,1-.45.45H92a.46.46,0,0,1-.45-.45Z"/><path class="cls-1" d="M102.07,53.34a.46.46,0,0,1,.46-.46H108a5.36,5.36,0,1,1,0,10.71h-3.48v5.64a.46.46,0,0,1-.45.45h-1.56a.45.45,0,0,1-.46-.45Zm5.79,7.89a3.05,3.05,0,0,0,3-3.07,3,3,0,0,0-3-2.88h-3.32v5.95Z"/><path class="cls-1" d="M117.41,53.34a.46.46,0,0,1,.45-.46h1.59a.47.47,0,0,1,.45.46V67.45h6.51a.46.46,0,0,1,.45.46v1.32a.45.45,0,0,1-.45.45h-8.55a.45.45,0,0,1-.45-.45Z"/><path class="cls-1" d="M129,69.06l7.37-16.15a.55.55,0,0,1,.41-.27H137a.57.57,0,0,1,.41.27l7.32,16.15a.42.42,0,0,1-.41.62h-1.51a.57.57,0,0,1-.56-.36L140.74,66h-7.85c-.48,1.1-1,2.18-1.47,3.28a.59.59,0,0,1-.55.36h-1.51A.42.42,0,0,1,129,69.06ZM139.82,64l-2.95-6.58h-.12L133.82,64Z"/><path class="cls-1" d="M155.52,52.64a8.37,8.37,0,0,1,5.81,2.23.46.46,0,0,1,0,.68l-1,1.08a.36.36,0,0,1-.6,0A6.49,6.49,0,0,0,155.54,55a6.23,6.23,0,0,0,0,12.46,6.45,6.45,0,0,0,4.13-1.59.43.43,0,0,1,.57,0L161.38,67a.46.46,0,0,1,0,.65,8.23,8.23,0,0,1-5.83,2.32,8.64,8.64,0,1,1,0-17.28Z"/><path class="cls-1" d="M165.86,53.34a.46.46,0,0,1,.46-.46h9.6a.47.47,0,0,1,.46.46v1.34a.47.47,0,0,1-.46.46h-7.59V60h6.41a.48.48,0,0,1,.46.46v1.34a.46.46,0,0,1-.46.46h-6.41v5.16h7.59a.47.47,0,0,1,.46.46v1.32a.46.46,0,0,1-.46.45h-9.6a.45.45,0,0,1-.46-.45Z"/><path class="cls-1" d="M.84,95.68,3.29,78.45h.29l7,14.14,6.94-14.14h.29l2.45,17.23H18.58L16.9,83.35,10.8,95.68h-.43L4.18,83.25,2.52,95.68Z"/><path class="cls-1" d="M34.49,82.94H36.1V95.68H34.49V93.5A6.47,6.47,0,0,1,29.35,96a6.7,6.7,0,0,1,0-13.4,6,6,0,0,1,5.09,2.67Zm-10,6.38a5.12,5.12,0,0,0,5,5.19,5.16,5.16,0,1,0-5-5.19Z"/><path class="cls-1" d="M40.87,84.79c1-1.4,2-2.19,3.29-2.19a2.58,2.58,0,0,1,1.46.43l-.86,1.4a1.87,1.87,0,0,0-.86-.24c-1.2,0-2.28,1-2.76,2.78a17.22,17.22,0,0,0-.27,3.86v4.85H39.14V82.94h1.73Z"/><path class="cls-1" d="M47,78h1.63v10l5.88-5.13H57L50,89l7.39,6.67H55.06L48.67,90v5.73H47Z"/><path class="cls-1" d="M60.14,89.44c.08,2.93,2.07,5.07,4.8,5.07a5.35,5.35,0,0,0,4.88-3.05l1.36.72A6.37,6.37,0,0,1,65.11,96a6.47,6.47,0,0,1-6.65-6.65A6.58,6.58,0,0,1,65,82.6c3.62,0,6.55,2.62,6.6,6.84ZM69.82,88A4.68,4.68,0,0,0,65,84.19c-2.28,0-4,1.22-4.73,3.81Z"/><path class="cls-1" d="M76.13,78.19h1.63v4.75h2.62v1.44H77.76v11.3H76.13V84.38H73.87V82.94h2.26Z"/><path class="cls-1" d="M84.46,85.27a6,6,0,0,1,5.06-2.67,6.7,6.7,0,0,1,0,13.4,6.41,6.41,0,0,1-5.11-2.5v6.84H82.82V82.94h1.64Zm-.13,4.1a5,5,0,0,0,5.07,5.14,5.14,5.14,0,0,0,5-5.19,5.06,5.06,0,1,0-10.11.05Z"/><path class="cls-1" d="M98.93,78h1.63V95.68H98.93Z"/><path class="cls-1" d="M115.06,82.94h1.6V95.68h-1.6V93.5a6.48,6.48,0,0,1-5.14,2.5,6.7,6.7,0,0,1,0-13.4,6,6,0,0,1,5.09,2.67Zm-10,6.38a5.12,5.12,0,0,0,5,5.19,5.16,5.16,0,1,0-5-5.19Z"/><path class="cls-1" d="M132.74,93.12a6.85,6.85,0,0,1-6,2.88,6.66,6.66,0,0,1-7-6.58,6.83,6.83,0,0,1,7.13-6.82,6.59,6.59,0,0,1,5.85,3l-1.32.82a5.47,5.47,0,0,0-4.61-2.21,5.16,5.16,0,1,0,0,10.32,5.66,5.66,0,0,0,4.58-2.23Z"/><path class="cls-1" d="M137,89.44a4.85,4.85,0,0,0,4.8,5.07c2.66,0,3.93-1.51,4.87-3.05l1.37.72A6.39,6.39,0,0,1,141.93,96a6.46,6.46,0,0,1-6.64-6.65,6.57,6.57,0,0,1,6.55-6.75c3.62,0,6.55,2.62,6.6,6.84ZM146.64,88a4.68,4.68,0,0,0-4.78-3.81c-2.28,0-4,1.22-4.73,3.81Z"/><path class="cls-1" d="M18.55,106.15c-1.27.27-1.44.75-1.44,2.67v9.72c0,1.94.17,2.4,1.44,2.66v.48H12v-.48c1.39-.19,1.54-.81,1.54-2.66V108.41l-5.09,9.27-4.78-9.27v10.13c0,1.82.12,2.5,1.59,2.66v.48H.46v-.48c1.29-.26,1.46-.74,1.46-2.66v-9.72c0-1.92-.17-2.4-1.46-2.67v-.48H7.34v.48a.64.64,0,0,0-.5.68,1.65,1.65,0,0,0,.24.79l2.47,4.61,2.5-4.52a2,2,0,0,0,.41-1,.57.57,0,0,0-.46-.58v-.48h6.55Z"/><path class="cls-1" d="M31.9,118.49c0,2.09.48,2.59,1.61,2.86v.33H29.67a3.46,3.46,0,0,1-.85-2A4.66,4.66,0,0,1,27.58,121a6.65,6.65,0,0,1-3.48,1c-2.45,0-3.8-1.3-3.8-3,0-3.36,4.42-4.53,8.4-5.28a3.58,3.58,0,0,0-.24-1.87,2.44,2.44,0,0,0-2.13-.89,5,5,0,0,0-4.85,3.22l-.24-.05.41-4.11a.85.85,0,0,0,.77.34c.43,0,1.94-.53,2.54-.65a13.15,13.15,0,0,1,2.59-.26c4,0,4.35,1.85,4.35,4Zm-8.33.07a1.71,1.71,0,0,0,1.8,1.66,3.34,3.34,0,0,0,2.83-1.66,8.3,8.3,0,0,0,.55-3.74C24.82,115.61,23.57,117.17,23.57,118.56Z"/><path class="cls-1" d="M43.9,112.32a2.65,2.65,0,0,0-1.61-.55A2.46,2.46,0,0,0,40,113.26a9.25,9.25,0,0,0-.48,3.67v1.95c0,1.53,0,2.35,1.56,2.47v.33h-6v-.33c1.35-.22,1.4-.89,1.4-2.47v-6.13c0-1.53,0-2.23-1.4-2.47V110l3.84-.32a5.16,5.16,0,0,1,.63,2.67,4.72,4.72,0,0,1,4-2.74,6.77,6.77,0,0,1,1,.1Z"/><path class="cls-1" d="M58.27,110a7.26,7.26,0,0,0-3.91,2l-1,.84a24.24,24.24,0,0,1,4.35,6.43c.86,1.66,1,1.87,1.82,2v.33H53.47v-.33c.36,0,.94-.19.94-.87,0-.84-1.2-3.48-3.36-5.64l-1.44,1.28v2.76c0,1.56,0,2.4,1.65,2.47v.33H45.12v-.33c1.34-.22,1.39-.89,1.39-2.47v-10.4c0-1.51,0-2.33-1.51-2.47v-.34l4.61-.55v9.7l3-2.83c.86-.82,1-1.08,1-1.35,0-.5-.65-.6-.84-.62v-.34h5.52Z"/><path class="cls-1" d="M63.17,116.16a4.63,4.63,0,0,0,7.8,3,5.14,5.14,0,0,0,1.1-1.68l.31.12L71,121.88a.88.88,0,0,0-.62-.24,27,27,0,0,1-3.24.31c-4.78,0-7.44-2.88-7.44-6.31,0-4,3.28-6.22,6.69-6.22a6.08,6.08,0,0,1,4.18,1.51,5.17,5.17,0,0,1,1.7,2.9Zm5.71-2.71c-.55-2.38-2.18-2.54-2.76-2.54a2.88,2.88,0,0,0-2.4,1.32,4.88,4.88,0,0,0-.67,2.73Z"/><path class="cls-1" d="M78,109.87h2.23a1.7,1.7,0,0,0,1.25-.36l-.7,1.83c-.19-.17-.28-.19-.76-.19H78v6.91c0,1.27.43,2.28,1.7,2.28A3,3,0,0,0,82,118.83l.26.09-1,2.5a8.72,8.72,0,0,1-3.24.58c-3.17,0-3.17-2.57-3.17-3.51v-7.27H73.27v-.31a3,3,0,0,0,2-3.1,4.8,4.8,0,0,0-.17-1.25A16.17,16.17,0,0,0,78,105.31Z"/><path class="cls-1" d="M89,109.66c3.29,0,5.21.43,6.65,2.33A6.71,6.71,0,0,1,97,116,5.35,5.35,0,0,1,94,121.13a12.37,12.37,0,0,1-4.58.7c-.63,0-1.25,0-1.88,0v2.3c0,1.52,0,2.33,1.54,2.48v.33H83v-.33c1.35-.22,1.4-.89,1.4-2.48V112.44c0-1.51,0-2.23-1.4-2.47v-.31ZM87.5,118c0,1.27.12,1.63.48,1.92a2.33,2.33,0,0,0,1.61.5c3,0,4.11-2.42,4.11-4.56a4.68,4.68,0,0,0-2.19-4.23,9.12,9.12,0,0,0-4-.62Z"/><path class="cls-1" d="M103.15,118.88c0,1.53,0,2.3,1.46,2.47v.33H98.69v-.33c1.32-.24,1.36-.87,1.36-2.47v-10.4c0-1.51,0-2.3-1.48-2.47v-.34l4.58-.55Z"/><path class="cls-1" d="M117.62,118.49c0,2.09.48,2.59,1.61,2.86v.33h-3.84a3.45,3.45,0,0,1-.84-2A4.7,4.7,0,0,1,113.3,121a6.65,6.65,0,0,1-3.48,1c-2.45,0-3.79-1.3-3.79-3,0-3.36,4.42-4.53,8.4-5.28a3.58,3.58,0,0,0-.24-1.87,2.46,2.46,0,0,0-2.14-.89,4.93,4.93,0,0,0-4.84,3.22l-.24-.05.4-4.11a.88.88,0,0,0,.77.34c.43,0,2-.53,2.55-.65a13.15,13.15,0,0,1,2.59-.26c4,0,4.34,1.85,4.34,4Zm-8.33.07a1.71,1.71,0,0,0,1.8,1.66,3.36,3.36,0,0,0,2.84-1.66,8.3,8.3,0,0,0,.55-3.74C110.54,115.61,109.29,117.17,109.29,118.56Z"/><path class="cls-1" d="M131.88,113.55l-.26.07a4.86,4.86,0,0,0-1.11-1.61,3.85,3.85,0,0,0-2.64-1.08c-2.11,0-3.82,1.8-3.82,4.47a4.76,4.76,0,0,0,4.54,5,5,5,0,0,0,2.91-1,4.19,4.19,0,0,0,1.15-1.39l.26.14-1.39,3.72a1.33,1.33,0,0,0-.67-.14,4.7,4.7,0,0,0-.53,0,18,18,0,0,1-2.19.17c-3.93,0-7.39-2.38-7.39-6.63,0-4,3.22-5.83,6.15-5.83a14.45,14.45,0,0,1,2.23.22,7.26,7.26,0,0,0,.89.07,1.55,1.55,0,0,0,1.05-.31Z"/><path class="cls-1" d="M137.23,116.16a4.63,4.63,0,0,0,7.8,3,5.14,5.14,0,0,0,1.1-1.68l.32.12-1.35,4.25a.87.87,0,0,0-.62-.24,26.74,26.74,0,0,1-3.24.31c-4.78,0-7.44-2.88-7.44-6.31,0-4,3.29-6.22,6.69-6.22a6.08,6.08,0,0,1,4.18,1.51,5.26,5.26,0,0,1,1.71,2.9Zm5.71-2.71c-.55-2.38-2.18-2.54-2.76-2.54a2.88,2.88,0,0,0-2.4,1.32,4.88,4.88,0,0,0-.67,2.73Z"/><path class="cls-1" d="M12.12,147.68,14,145.86V134.48l-5.07,9.08-5.06-9.05v11.35l1.82,1.82H0l1.82-1.82V132.51L0,130.69H5.69L10,138.27l4.27-7.58h5.09l-1.82,1.82v13.35l1.82,1.82Z"/><path class="cls-1" d="M27.72,147.68v-1.92l-2.16,1.59a3.47,3.47,0,0,1-2.14.65c-1.65,0-2.9-1.35-2.9-3.48,0-2.93,2.69-4.3,5.38-4.3h1.82v-1.59c0-1-.41-1.94-1.54-1.94a3.08,3.08,0,0,0-2.13.94L21.6,140v-3.65a9.38,9.38,0,0,1,4.78-1.13c2.54,0,4.89,1.27,4.89,3.45V146l1.71,1.7Zm0-6.07H26.5A2.25,2.25,0,0,0,24,144.16c0,1,.53,1.63,1.2,1.63a2.17,2.17,0,0,0,1-.41l1.54-1.13Z"/><path class="cls-1" d="M38.47,146l1.71,1.7h-7l1.7-1.7v-7.37L33.26,137l5.21-1.77v2.13l.79-.86a4.33,4.33,0,0,1,3.05-1.27,6.61,6.61,0,0,1,1.2.19v4.87l-2.88-2.88-2.16,2.14Z"/><path class="cls-1" d="M53.57,147.68v-1.36L49.2,142v4l1.7,1.7h-7l1.71-1.7V132.87L44,131.22l5.21-1.78v12l4.56-4.56-1.42-1.42H58L52.49,141l6.69,6.69Z"/><path class="cls-1" d="M63,141.44c0,3.34.52,4.95,3,4.95a4.91,4.91,0,0,0,3.53-1.71l.93.94A7,7,0,0,1,64.8,148,6.42,6.42,0,0,1,65,135.18c3.24,0,6.31,2.47,5.28,6.26Zm0-1.51h3.67c.57-1.18.43-3.24-1.61-3.24C63.53,136.69,63,138,63,139.93Z"/><path class="cls-1" d="M77,137v9a2,2,0,0,0,2.42-1l.84.84a3.62,3.62,0,0,1-3.34,2.08,3.17,3.17,0,0,1-3.48-3.14v-6.94H71.28L77,132.11v3.38h3.12V137Z"/><path class="cls-1" d="M80.66,137l5.21-1.77v1.75a4.42,4.42,0,0,1,3.46-1.75c2.61,0,4.89,2.66,4.89,6.41S91.94,148,89.33,148a4.26,4.26,0,0,1-3.46-1.78v4.56l1.7,1.7h-7l1.71-1.7V138.61Zm7.49.1a2.82,2.82,0,0,0-2.28,1.8v5.47a2.8,2.8,0,0,0,2.28,1.8c1.35,0,2-1.34,2-4.53S89.5,137.05,88.15,137.05Z"/><path class="cls-1" d="M95.33,147.68,97,146V132.87l-1.66-1.65,5.21-1.78V146l1.71,1.7Z"/><path class="cls-1" d="M110.47,147.68v-1.92l-2.16,1.59a3.47,3.47,0,0,1-2.14.65c-1.65,0-2.9-1.35-2.9-3.48,0-2.93,2.69-4.3,5.38-4.3h1.82v-1.59c0-1-.41-1.94-1.54-1.94a3.08,3.08,0,0,0-2.13.94L104.35,140v-3.65a9.38,9.38,0,0,1,4.78-1.13c2.54,0,4.89,1.27,4.89,3.45V146l1.71,1.7Zm0-6.07h-1.22a2.25,2.25,0,0,0-2.55,2.55c0,1,.53,1.63,1.2,1.63a2.17,2.17,0,0,0,1-.41l1.54-1.13Z"/><path class="cls-1" d="M122.54,148a6.43,6.43,0,0,1,0-12.82,8.75,8.75,0,0,1,4.66,1.13V140l-2.33-2.33a2.76,2.76,0,0,0-2.14-.94c-2,0-2,1.94-2,4.9,0,3.45.79,4.85,2.88,4.85a4.29,4.29,0,0,0,2.81-1.3l.84,1.08A6,6,0,0,1,122.54,148Z"/><path class="cls-1" d="M133,141.44c0,3.34.53,4.95,3,4.95a4.91,4.91,0,0,0,3.53-1.71l.94.94a7,7,0,0,1-5.67,2.38,6.42,6.42,0,0,1,.24-12.82c3.24,0,6.32,2.47,5.28,6.26Zm0-1.51h3.67c.58-1.18.43-3.24-1.61-3.24C133.58,136.69,133,138,133,139.93Z"/></g></g></svg>