<svg width="13" height="16" viewBox="0 0 13 16" fill="none" xmlns="http://www.w3.org/2000/svg">
<path d="M4.93532 5.28023C5.94548 5.28023 6.76667 4.45534 6.76667 3.44023C6.76667 2.42601 5.94548 1.60059 4.93532 1.60059C3.92586 1.60059 3.10431 2.42601 3.10431 3.44023C3.10431 4.45534 3.92586 5.28023 4.93532 5.28023ZM4.93549 2.3805C5.5171 2.3805 5.9906 2.85641 5.9906 3.44059C5.9906 4.02476 5.5171 4.50067 4.93549 4.50067C4.35406 4.50067 3.88038 4.02476 3.88038 3.44059C3.88038 2.85641 4.35406 2.3805 4.93549 2.3805Z" fill="black"/>
<path d="M11.5933 9.86182H2.95886V12.4504H11.5933V9.86182ZM10.8171 11.67H3.73511V10.6412H10.8173V11.67H10.8171Z" fill="black"/>
<path d="M11.5933 6.05127H2.95886V6.83083H11.5933V6.05127Z" fill="black"/>
<path d="M11.5933 7.92188H2.95886V8.70179H11.5933V7.92188Z" fill="black"/>
<path d="M1.55197 0V1.56018H0V16H11.4477V14.4407H13V0H1.55197ZM10.6721 15.2201H0.775718V2.33973H1.55197V14.4409H10.6721V15.2201ZM12.2245 13.6606H11.4477H10.6716H2.32804V2.33973V1.55982V0.780445H12.2243V13.6606H12.2245Z" fill="black"/>
<path d="M11.5933 3.05029H7.51849V3.8302H11.5933V3.05029Z" fill="black"/>
</svg>
