<svg width="45" height="22" viewBox="0 0 45 22" fill="none" xmlns="http://www.w3.org/2000/svg">
<path d="M11.1387 0C11.1231 0.621325 11.0917 1.25042 11.0447 1.88727C11.0134 2.5086 10.9586 3.13769 10.8802 3.77455H10.2692L9.30577 1.21158H4.1829V7.386H8.0133L8.92978 5.66182H9.51727C9.61127 7.1996 9.61127 8.76845 9.51727 10.3684H8.92978L8.0133 8.59758H4.1829V15.0982H9.58777L10.7392 12.3022H11.3267C11.4364 12.9546 11.5147 13.6148 11.5617 14.2827C11.6087 14.9506 11.6166 15.6263 11.5852 16.3098H0V15.6341C0.54832 15.3856 1.19064 15.1992 1.92695 15.0749V1.25818C1.61363 1.19605 1.29247 1.11838 0.963476 1.02519C0.634485 0.916454 0.313326 0.799956 0 0.675692V0H11.1387Z" fill="#658DA2"/>
<path d="M13.5834 5.21913C14.1787 4.84633 14.8054 4.58227 15.4634 4.42694V2.44647C15.667 2.29114 15.902 2.14357 16.1683 2.00377C16.4503 1.84844 16.7245 1.71641 16.9908 1.60768H17.5783V4.65994H21.1032V5.82492H17.5783V12.5818C17.5783 13.5138 17.7271 14.174 18.0248 14.5623C18.3225 14.9506 18.7689 15.1448 19.3643 15.1448C19.6463 15.1448 19.9987 15.1293 20.4217 15.0982C20.8447 15.0516 21.205 14.9739 21.5027 14.8652L21.6672 15.2147C21.5419 15.3545 21.3617 15.5021 21.1267 15.6574C20.9074 15.8127 20.6489 15.9603 20.3512 16.1001C20.0692 16.2399 19.7559 16.3564 19.4113 16.4496C19.0666 16.5428 18.7141 16.5894 18.3538 16.5894C17.4138 16.5894 16.6932 16.3253 16.1918 15.7972C15.7062 15.2691 15.4634 14.4147 15.4634 13.2342V5.82492H13.5834V5.21913Z" fill="#658DA2"/>
<path d="M29.1187 13.6536C29.1187 13.2187 28.9777 12.8537 28.6957 12.5585C28.4294 12.2479 28.0848 11.9605 27.6618 11.6964C27.2388 11.4324 26.7844 11.1761 26.2988 10.9275C25.8288 10.679 25.3823 10.3917 24.9593 10.0655C24.5363 9.72373 24.1838 9.3354 23.9019 8.90048C23.6355 8.46555 23.5024 7.92966 23.5024 7.2928C23.5024 6.8734 23.5964 6.48508 23.7844 6.12781C23.988 5.77055 24.2543 5.46766 24.5833 5.21913C24.9123 4.95506 25.2962 4.75313 25.7348 4.61334C26.1735 4.458 26.6435 4.38034 27.1448 4.38034C27.9908 4.38034 28.6801 4.42694 29.2127 4.52014C29.761 4.61334 30.2859 4.74537 30.7872 4.91623C30.7245 5.41329 30.6462 5.91812 30.5522 6.43071C30.4739 6.92777 30.3564 7.44036 30.1997 7.96849H29.6122L28.7192 5.59192C28.5312 5.51426 28.3197 5.46766 28.0848 5.45212C27.8498 5.42106 27.6069 5.40552 27.3563 5.40552C27.0743 5.40552 26.8236 5.45989 26.6043 5.56862C26.4006 5.66182 26.2205 5.78609 26.0638 5.94142C25.9228 6.09675 25.8131 6.27538 25.7348 6.47731C25.6565 6.67924 25.6173 6.88117 25.6173 7.0831C25.6173 7.5025 25.7505 7.86753 26.0168 8.17819C26.2988 8.47332 26.6513 8.75291 27.0743 9.01697C27.4973 9.2655 27.9438 9.51403 28.4137 9.76256C28.8994 10.0111 29.3537 10.2907 29.7767 10.6014C30.1997 10.912 30.5444 11.277 30.8107 11.6964C31.0927 12.1003 31.2337 12.5896 31.2337 13.1643C31.2337 13.6924 31.1162 14.1662 30.8812 14.5856C30.6619 15.005 30.3485 15.3623 29.9412 15.6574C29.5495 15.9525 29.0874 16.1777 28.5547 16.3331C28.0378 16.5039 27.4816 16.5894 26.8863 16.5894C26.2126 16.5894 25.5938 16.5272 25.0298 16.403C24.4658 16.2942 23.8784 16.1311 23.2674 15.9137C23.2987 15.3545 23.3692 14.8186 23.4789 14.306C23.5885 13.7779 23.7295 13.273 23.9019 12.7915H24.4893L25.5233 15.3312C25.6956 15.4555 25.8993 15.5254 26.1343 15.5409C26.385 15.5564 26.6121 15.5642 26.8158 15.5642C27.5051 15.5642 28.0613 15.3778 28.4842 15.005C28.9072 14.6322 29.1187 14.1817 29.1187 13.6536Z" fill="#658DA2"/>
<path d="M33.5746 5.82492C33.3396 5.76279 33.1203 5.68512 32.9166 5.59192C32.7286 5.49872 32.5328 5.38999 32.3291 5.26573V4.65994H37.2405V5.24243C36.9115 5.45989 36.465 5.65405 35.9011 5.82492L38.909 12.7216L39.3555 14.1662H39.4025L39.755 12.6983L41.9874 5.82492C41.5174 5.73172 41.0866 5.54532 40.6949 5.26573V4.65994H44.7133V5.26573C44.3844 5.48319 43.9379 5.66959 43.3739 5.82492L39.708 16.3098C39.332 17.3039 38.9717 18.1038 38.627 18.7096C38.298 19.331 37.9612 19.8203 37.6165 20.1775C37.2875 20.5348 36.9429 20.7911 36.5825 20.9464C36.2379 21.1173 35.8619 21.2415 35.4546 21.3192C35.2822 21.0241 35.1256 20.6979 34.9846 20.3406C34.8593 19.9834 34.7496 19.6416 34.6556 19.3154L34.9611 18.7562H37.405C37.499 18.632 37.5774 18.5077 37.64 18.3834C37.7184 18.2747 37.7967 18.1349 37.875 17.9641C37.9533 17.7932 38.0395 17.5757 38.1335 17.3117C38.2275 17.0476 38.3372 16.7136 38.4625 16.3098L33.5746 5.82492Z" fill="#658DA2"/>
</svg>
