<svg width="45" height="22" viewBox="0 0 45 22" fill="none" xmlns="http://www.w3.org/2000/svg">
<path d="M11.1387 0C11.1231 0.621325 11.0917 1.25042 11.0447 1.88727C11.0134 2.5086 10.9586 3.13769 10.8802 3.77455H10.2692L9.30577 1.21158H4.1829V7.386H8.0133L8.92978 5.66182H9.51727C9.61127 7.1996 9.61127 8.76845 9.51727 10.3684H8.92978L8.0133 8.59758H4.1829V15.0982H9.58777L10.7392 12.3022H11.3267C11.4364 12.9546 11.5147 13.6148 11.5617 14.2827C11.6087 14.9506 11.6166 15.6263 11.5852 16.3098H0V15.6341C0.54832 15.3856 1.19064 15.1992 1.92695 15.0749V1.25818C1.61363 1.19605 1.29247 1.11838 0.963476 1.02519C0.634485 0.916454 0.313326 0.799956 0 0.675692V0H11.1387Z" fill="#BC811A"/>
<path d="M13.5834 5.21936C14.1787 4.84656 14.8054 4.5825 15.4634 4.42717V2.4467C15.667 2.29137 15.902 2.1438 16.1683 2.004C16.4503 1.84867 16.7245 1.71664 16.9908 1.60791H17.5783V4.66017H21.1032V5.82515H17.5783V12.582C17.5783 13.514 17.7271 14.1742 18.0248 14.5625C18.3225 14.9508 18.7689 15.145 19.3643 15.145C19.6463 15.145 19.9987 15.1295 20.4217 15.0984C20.8447 15.0518 21.205 14.9741 21.5027 14.8654L21.6672 15.2149C21.5419 15.3547 21.3617 15.5023 21.1267 15.6576C20.9074 15.8129 20.6489 15.9605 20.3512 16.1003C20.0692 16.2401 19.7559 16.3566 19.4113 16.4498C19.0666 16.543 18.7141 16.5896 18.3538 16.5896C17.4138 16.5896 16.6932 16.3255 16.1918 15.7974C15.7062 15.2693 15.4634 14.4149 15.4634 13.2344V5.82515H13.5834V5.21936Z" fill="#BC811A"/>
<path d="M29.1187 13.6536C29.1187 13.2187 28.9777 12.8537 28.6957 12.5585C28.4294 12.2479 28.0848 11.9605 27.6618 11.6964C27.2388 11.4324 26.7844 11.1761 26.2988 10.9275C25.8288 10.679 25.3823 10.3917 24.9593 10.0655C24.5363 9.72376 24.1838 9.33543 23.9019 8.90051C23.6355 8.46558 23.5024 7.92969 23.5024 7.29283C23.5024 6.87343 23.5964 6.48511 23.7844 6.12784C23.988 5.77058 24.2543 5.46769 24.5833 5.21916C24.9123 4.95509 25.2962 4.75316 25.7348 4.61337C26.1735 4.45803 26.6435 4.38037 27.1448 4.38037C27.9908 4.38037 28.6801 4.42697 29.2127 4.52017C29.761 4.61337 30.2859 4.7454 30.7872 4.91626C30.7245 5.41332 30.6462 5.91815 30.5522 6.43074C30.4739 6.9278 30.3564 7.44039 30.1997 7.96852H29.6122L28.7192 5.59195C28.5312 5.51429 28.3197 5.46769 28.0848 5.45215C27.8498 5.42109 27.6069 5.40555 27.3563 5.40555C27.0743 5.40555 26.8236 5.45992 26.6043 5.56865C26.4006 5.66185 26.2205 5.78612 26.0638 5.94145C25.9228 6.09678 25.8131 6.27541 25.7348 6.47734C25.6565 6.67927 25.6173 6.8812 25.6173 7.08313C25.6173 7.50253 25.7505 7.86756 26.0168 8.17822C26.2988 8.47335 26.6513 8.75294 27.0743 9.017C27.4973 9.26553 27.9438 9.51406 28.4137 9.76259C28.8994 10.0111 29.3537 10.2907 29.7767 10.6014C30.1997 10.912 30.5444 11.277 30.8107 11.6964C31.0927 12.1003 31.2337 12.5896 31.2337 13.1643C31.2337 13.6924 31.1162 14.1662 30.8812 14.5856C30.6619 15.005 30.3485 15.3623 29.9412 15.6574C29.5495 15.9525 29.0874 16.1777 28.5547 16.3331C28.0378 16.5039 27.4816 16.5894 26.8863 16.5894C26.2126 16.5894 25.5938 16.5272 25.0298 16.403C24.4658 16.2942 23.8784 16.1311 23.2674 15.9137C23.2987 15.3545 23.3692 14.8186 23.4789 14.306C23.5885 13.7779 23.7295 13.273 23.9019 12.7915H24.4893L25.5233 15.3312C25.6956 15.4555 25.8993 15.5254 26.1343 15.5409C26.385 15.5564 26.6121 15.5642 26.8158 15.5642C27.5051 15.5642 28.0613 15.3778 28.4842 15.005C28.9072 14.6322 29.1187 14.1817 29.1187 13.6536Z" fill="#BC811A"/>
<path d="M33.5746 5.82514C33.3396 5.76301 33.1203 5.68534 32.9166 5.59214C32.7286 5.49894 32.5328 5.39021 32.3291 5.26595V4.66016H37.2405V5.24265C36.9115 5.46011 36.465 5.65427 35.9011 5.82514L38.909 12.7218L39.3555 14.1664H39.4025L39.755 12.6985L41.9874 5.82514C41.5174 5.73194 41.0866 5.54554 40.6949 5.26595V4.66016H44.7133V5.26595C44.3844 5.48341 43.9379 5.66981 43.3739 5.82514L39.708 16.31C39.332 17.3041 38.9717 18.104 38.627 18.7098C38.298 19.3312 37.9612 19.8205 37.6165 20.1777C37.2875 20.535 36.9429 20.7913 36.5825 20.9466C36.2379 21.1175 35.8619 21.2417 35.4546 21.3194C35.2822 21.0243 35.1256 20.6981 34.9846 20.3408C34.8593 19.9836 34.7496 19.6418 34.6556 19.3156L34.9611 18.7564H37.405C37.499 18.6322 37.5774 18.5079 37.64 18.3836C37.7184 18.2749 37.7967 18.1351 37.875 17.9643C37.9533 17.7934 38.0395 17.5759 38.1335 17.3119C38.2275 17.0478 38.3372 16.7138 38.4625 16.31L33.5746 5.82514Z" fill="#BC811A"/>
</svg>
