<svg width="132" height="14" viewBox="0 0 132 14" fill="none" xmlns="http://www.w3.org/2000/svg">
<path d="M0 13.2653V0H10.5362V2.14655H2.80522V5.47934H9.95614V7.62589H2.80522V11.1187H10.9261V13.2653H0Z" fill="#658DA2"/>
<path d="M23.5125 13.2653H20.6692L15.7149 0H18.6437L21.4014 8.52028C21.5726 9.07261 21.8071 9.90738 22.1051 11.0246L22.3048 10.2149L22.7898 8.52028L25.5379 0H28.4382L23.5125 13.2653Z" fill="#658DA2"/>
<path d="M33.7691 13.2653V0H44.3053V2.14655H36.5743V5.47934H43.7252V7.62589H36.5743V11.1187H44.6952V13.2653H33.7691Z" fill="#658DA2"/>
<path d="M59.8585 13.2653L56.749 8.22843H53.4589V13.2653H50.6536V0H57.3481C58.9457 0 60.1787 0.342067 61.0472 1.0262C61.9157 1.70406 62.35 2.68005 62.35 3.95417C62.35 4.88308 62.0837 5.68647 61.5512 6.36432C61.0187 7.0359 60.2991 7.47839 59.3926 7.69179L63.0156 13.2653H59.8585ZM59.5257 4.06714C59.5257 2.79302 58.7016 2.15596 57.0533 2.15596H53.4589V6.07247H57.1294C57.9155 6.07247 58.5114 5.89673 58.9171 5.54525C59.3229 5.19376 59.5257 4.70106 59.5257 4.06714Z" fill="#658DA2"/>
<path d="M68.6222 13.2653V0H71.4274V11.1187H78.6164V13.2653H68.6222Z" fill="#658DA2"/>
<path d="M93.8939 13.2653L92.7052 9.876H87.5988L86.4101 13.2653H83.6049L88.4927 0H91.8019L96.6706 13.2653H93.8939ZM90.1473 2.04299L90.0902 2.25011C90.0268 2.47606 89.9507 2.7334 89.862 3.02211C89.7732 3.31083 89.228 4.89877 88.2264 7.78594H92.0776L90.7559 3.97299L90.347 2.6926L90.1473 2.04299Z" fill="#658DA2"/>
<path d="M110.55 13.2653L104.712 3.05036C104.826 4.04204 104.883 4.83915 104.883 5.44168V13.2653H102.391V0H105.596L111.52 10.2997C111.406 9.35191 111.349 8.4889 111.349 7.71062V0H113.84V13.2653H110.55Z" fill="#658DA2"/>
<path d="M120.36 13.2653V0H130.896V2.14655H123.165V5.47934H130.316V7.62589H123.165V11.1187H131.286V13.2653H120.36Z" fill="#658DA2"/>
</svg>
