<?xml version="1.0" encoding="UTF-8"?>
<svg width="152px" height="116px" viewBox="0 0 152 116" version="1.1" xmlns="http://www.w3.org/2000/svg" xmlns:xlink="http://www.w3.org/1999/xlink">
    <!-- Generator: Sketch 48.2 (47327) - http://www.bohemiancoding.com/sketch -->
    <title>Group 23</title>
    <desc>Created with Sketch.</desc>
    <defs></defs>
    <g id="Desktop-Portfolio-Case-Study" stroke="none" stroke-width="1" fill="none" fill-rule="evenodd" transform="translate(-824.000000, -12681.000000)">
        <g id="Group-22" transform="translate(824.000000, 12542.000000)" fill="#000000" fill-rule="nonzero">
            <g id="Group-23" transform="translate(76.000000, 197.000000) rotate(90.000000) translate(-76.000000, -197.000000) translate(18.000000, 121.000000)">
                <path d="M2,128 C1.4,124.6 0.3,121.2 0.3,117.8 C0.4,103.2 1.1,88.6 1.1,74 C1.1,61.9 1.00142117e-13,49.8 0.3,37.7 C0.6,25.4 2,13 2.9,0.9 C27.3,8.4 53,3.2 78.7,6.7 C78.7,13 78.7,19.9 78.7,26.6 C83.3,28.6 87.6,23.3 92.5,27.3 C90.2,27.5 88.8,27.5 87.4,27.7 C72.8,29.7 58.3,31 43.7,28.1 C36.3,26.6 28.6,26.4 21.1,26.1 C19.7,26 17,28 16.9,29.3 C15.9,40.8 14.7,52.4 14.9,63.9 C15.1,75.4 16.8,86.9 17.8,98.3 C18.8,109.1 19.9,119.9 20.7,130.8 C20.9,134.1 21.9,135.1 25.2,136.8 C29.3,139 32.2,136.8 36.4,137.4 C36,133.2 35.3,129.3 35.3,125.4 C35.4,112.6 36.2,99.8 36,87.1 C35.8,71.9 34.9,56.7 34.1,41.5 C33.9,37.4 34.9,36.2 39.1,37.3 C50.8,40.3 62.6,42.3 74.8,41.4 C81,40.9 87.3,40.5 94.1,40 C93.8,33.6 93.5,27.2 93.2,20.8 C93.6,20.8 94,20.8 94.4,20.7 C94.8,25.3 95.6,29.9 95.6,34.6 C95.6,38.3 97,39.7 100.6,39.5 C103.2,39.4 105.8,39.8 108.7,40 C108.8,37.9 110.6,34.9 105.9,34.1 C106.6,33.6 107.7,32.9 109.4,31.7 C109.9,35.1 110.6,37.6 110.6,40.1 C111,65.3 111,90.4 111.8,115.6 C112.1,125.7 114.2,135.8 115.5,145.8 C116,149.2 115.6,151.2 111.4,151.2 C103.5,151.2 95.5,152.3 87.6,151.9 C74.7,151.3 61.8,150 48.9,148 C69.1,151.4 89.3,151.4 110,149 C109,148.1 108.4,147.6 107.2,146.6 C109.7,147.3 111.5,147.7 114.2,148.5 C113.3,143.2 112.5,138.3 111.8,133.4 C111.5,131.8 111.2,130.2 111.2,128.5 C110.8,101.6 110.4,74.6 110.3,47.7 C110.3,42.9 107,41.4 104.1,40.3 C101,39.1 97.3,39.8 95.9,45 C93.8,40.4 91,41.5 87.6,41.7 C71.9,42.6 56,43.7 40.6,38.9 C39.2,38.5 37.8,38.2 35.2,37.5 C35.6,45.1 35.9,51.8 36.3,58.6 C36.4,60.2 36.7,61.9 36.7,63.5 C36.7,85.8 36.7,108.2 36.7,130.5 C36.7,137.4 37.5,138.2 45.4,138.6 C35.7,141.8 27.2,138.7 18.9,138.2 C19.8,136 21.2,133.5 16.4,133 C11.4,132.5 6.4,131.3 1.2,130.3 C1.4,129.8 1.7,129 1.9,128.2 C7.4,129.5 12.9,130.8 20.1,132.4 C18.9,118.9 17.8,107 16.7,95 C15.6,83.5 13.7,72.1 13.4,60.5 C13.1,49.8 14.6,39.1 15.1,28.4 C15.2,25.2 16.9,24.3 19.4,24.4 C22.5,24.5 25.6,25 28.7,25.4 C35.9,26.3 43,27.5 50.2,28 C59.1,28.6 68.1,29.5 77.6,26.8 C77.1,21.2 76.7,16 76,10.8 C75.9,9.8 74.3,8.3 73.2,8.1 C69,7.5 64.7,7 60.4,7 C41.6,7.2 22.8,7.1 4.1,2.9 C3.9,4.4 3.8,5.4 3.7,6.3 C3,15.2 2.1,24.1 1.8,33.1 C1.5,42.8 1.6,52.5 1.7,62.2 C1.8,69.8 2.5,77.4 2.5,85 C2.5,95 1.9,105 1.7,115 C1.7,119.3 1.9,123.7 2,128 Z" id="Shape"></path>
            </g>
        </g>
    </g>
</svg>