<?xml version="1.0" encoding="UTF-8"?>
<svg width="356px" height="190px" viewBox="0 0 356 190" version="1.1" xmlns="http://www.w3.org/2000/svg" xmlns:xlink="http://www.w3.org/1999/xlink">
    <!-- Generator: Sketch 48.2 (47327) - http://www.bohemiancoding.com/sketch -->
    <title>group-33</title>
    <desc>Created with Sketch.</desc>
    <defs></defs>
    <g id="Desktop-Portfolio-Case-Study" stroke="none" stroke-width="1" fill="none" fill-rule="evenodd" transform="translate(-877.000000, -13087.000000)">
        <g id="Group-22" transform="translate(824.000000, 12542.000000)" fill-rule="nonzero">
            <g id="Group-33" transform="translate(53.000000, 545.000000)">
                <rect id="Rectangle-path" fill="#E0E0E0" transform="translate(64.500000, 71.500000) rotate(-10.348400) translate(-64.500000, -71.500000) " x="12" y="9" width="105" height="125"></rect>
                <rect id="Rectangle-path" fill="#A8A8A8" transform="translate(85.500000, 95.500000) rotate(12.926200) translate(-85.500000, -95.500000) " x="33" y="33" width="105" height="125"></rect>
                <rect id="Rectangle-path" fill="#658FFC" x="0" y="65" width="105" height="125"></rect>
                <path d="M114.943638,141 C111.029969,141 107.486433,140.130864 104.313155,138.392593 C101.139877,136.601605 98.6276936,134.09963 96.7766186,130.88642 C94.9255437,127.67321 94,123.95963 94,119.745679 C94,115.531728 94.8990914,111.844444 96.6972867,108.683951 C98.5483616,105.470741 101.007652,102.995062 104.075159,101.25679 C107.195508,99.4658025 110.659712,98.5703704 114.467646,98.5703704 C117.799588,98.5703704 120.7878,99.3077778 123.432158,100.782716 C126.076515,102.257654 128.139146,104.311975 129.620051,106.945679 C131.100955,109.52679 131.867748,112.50284 131.920678,115.874074 L102.726516,115.874074 L102.726516,123.696296 C102.726516,128.331728 103.757831,132.097901 105.820462,134.995062 C107.936023,137.839506 110.97704,139.261728 114.943638,139.261728 C118.592908,139.261728 121.819116,138.234568 124.622137,136.180247 C127.425158,134.125926 129.144059,131.465802 129.778715,128.2 L131.60335,128.2 C130.862959,132.097901 128.985395,135.205802 125.97078,137.523457 C122.956166,139.841111 119.280493,141 114.943638,141 Z M123.194162,113.898765 C123.194162,109.316049 122.480174,105.918519 121.052199,103.706173 C119.624223,101.441111 117.402929,100.308642 114.388314,100.308642 C110.844778,100.308642 108.094686,101.546543 106.13779,104.022222 C104.180894,106.497901 103.070246,109.790123 102.805848,113.898765 L123.194162,113.898765 Z M146.323147,141 C142.938275,141 140.161657,140.130864 137.993291,138.392593 C135.824926,136.601605 134.740681,133.967901 134.740681,130.491358 C134.740681,125.539877 136.829714,122.037037 141.007906,119.982716 C145.186097,117.875679 150.025347,116.822222 155.525655,116.822222 L160.840896,116.822222 L160.840896,110.738272 C160.840896,107.999136 160.523568,105.892222 159.888913,104.417284 C159.307186,102.889753 158.381605,101.836173 157.112294,101.25679 C155.842983,100.624691 154.124082,100.308642 151.955716,100.308642 C149.470023,100.308642 147.618861,100.809012 146.402479,101.809877 C145.186097,102.758025 144.577844,104.048519 144.577844,105.681481 C144.577844,107.209012 145.318234,108.209877 146.799139,108.683951 C146.799139,110.000864 146.296744,111.15963 145.291832,112.160494 C144.286919,113.161358 143.096939,113.661728 141.721893,113.661728 C140.240989,113.661728 139.051009,113.266667 138.151955,112.476543 C137.252901,111.633704 136.803312,110.369506 136.803312,108.683951 C136.803312,105.628765 138.337022,103.179383 141.404566,101.335802 C144.472109,99.4922222 148.306446,98.5703704 152.9077,98.5703704 C163.485253,98.5703704 168.774092,103.153086 168.774092,112.318519 L168.774092,134.916049 C168.774092,136.074938 169.012088,136.97037 169.48808,137.602469 C170.017001,138.181852 170.757391,138.471605 171.709375,138.471605 C172.608429,138.471605 173.322417,138.181852 173.851338,137.602469 C174.380259,136.97037 174.644657,136.127531 174.644657,135.074074 L176.310629,135.074074 C176.310629,136.917654 175.702376,138.366296 174.485993,139.419753 C173.322417,140.47321 171.682972,141 169.567412,141 C167.134524,141 165.071893,140.315185 163.379519,138.945679 C161.73995,137.523457 160.893825,135.337407 160.840896,132.387654 C159.571585,135.074074 157.614688,137.181111 154.970331,138.708642 C152.378779,140.236173 149.496426,141 146.323147,141 Z M150.686405,137.523457 C152.11438,137.523457 153.568758,137.102099 155.049663,136.259259 C156.583373,135.41642 157.879211,134.204938 158.936929,132.624691 C159.994647,130.991728 160.629303,129.04284 160.840896,126.777778 L160.840896,118.560494 L155.525655,118.560494 C151.188799,118.560494 147.936189,119.534938 145.767823,121.483951 C143.652263,123.380247 142.594545,126.066667 142.594545,129.54321 C142.594545,132.44037 143.28213,134.494691 144.657176,135.706173 C146.032222,136.917654 148.042048,137.523457 150.686405,137.523457 Z M175.309682,138.550617 L182.608223,137.365432 L182.608223,79.8444444 L175.309682,78.7382716 L175.309682,77 L205.693823,77 C211.511459,77 216.668285,78.3169136 221.162936,80.9506173 C225.712128,83.5317284 229.254796,87.2188889 231.793419,92.0123457 C234.332042,96.7530864 235.601353,102.283951 235.601353,108.604938 C235.601353,114.925926 234.332042,120.483086 231.793419,125.276543 C229.254796,130.017284 225.712128,133.704568 221.162936,136.338272 C216.614984,138.919383 211.458654,140.209877 205.693823,140.209877 L175.309682,140.209877 L175.309682,138.550617 Z M205.693823,138.31358 C209.554687,138.31358 212.965961,137.418148 215.927027,135.62716 C218.941641,133.836173 221.295569,131.176173 222.987571,127.646914 C224.680813,124.065062 225.526194,119.745679 225.526194,114.688889 L225.526194,102.520988 C225.526194,97.4641975 224.680813,93.1712346 222.987571,89.6419753 C221.295569,86.112716 218.941641,83.452716 215.927027,81.6617284 C212.965961,79.8707407 209.554687,78.9753086 205.693823,78.9753086 L191.334738,78.9753086 L191.334738,138.31358 L205.693823,138.31358 Z M260.235167,141 C256.32187,141 252.777962,140.130864 249.604684,138.392593 C246.431405,136.601605 243.920053,134.09963 242.068148,130.88642 C240.217482,127.67321 239.291529,123.95963 239.291529,119.745679 C239.291529,115.531728 240.191451,111.844444 241.988816,108.683951 C243.840721,105.470741 246.300012,102.995062 249.366688,101.25679 C252.487905,99.4658025 255.951241,98.5703704 259.759175,98.5703704 C263.091117,98.5703704 266.079701,99.3077778 268.723687,100.782716 C271.368912,102.257654 273.431543,104.311975 274.911579,106.945679 C276.392856,109.52679 277.160145,112.50284 277.212206,115.874074 L248.018045,115.874074 L248.018045,123.696296 C248.018045,128.331728 249.04936,132.097901 251.111991,134.995062 C253.227923,137.839506 256.268569,139.261728 260.235167,139.261728 C263.884437,139.261728 267.111016,138.234568 269.913666,136.180247 C272.717555,134.125926 274.435588,131.465802 275.070243,128.2 L276.894879,128.2 C276.15486,132.097901 274.276924,135.205802 271.262309,137.523457 C268.247695,139.841111 264.572394,141 260.235167,141 Z M268.485691,113.898765 C268.485691,109.316049 267.771703,105.918519 266.343728,103.706173 C264.915752,101.441111 262.694457,100.308642 259.679843,100.308642 C256.137175,100.308642 253.386587,101.546543 251.429319,104.022222 C249.47329,106.497901 248.362643,109.790123 248.097377,113.898765 L268.485691,113.898765 Z M295.42261,141 C291.086623,141 287.463383,140.078148 284.554131,138.234568 C281.646119,136.390988 280.190874,133.994198 280.190874,131.044444 C280.190874,129.516914 280.587533,128.331728 281.380853,127.488889 C282.227474,126.593457 283.338121,126.145679 284.712795,126.145679 C285.771381,126.145679 286.670064,126.409012 287.410082,126.935802 C288.15134,127.462593 288.679393,128.2 288.996721,129.148148 C287.834012,130.412346 287.251418,131.755556 287.251418,133.177778 C287.251418,134.810741 287.992676,136.232963 289.472713,137.444444 C290.95399,138.655926 292.937289,139.261728 295.42261,139.261728 C298.754553,139.261728 301.47911,138.524321 303.593802,137.049383 C305.709734,135.521852 306.767081,133.493827 306.767081,130.965432 C306.767081,129.490494 306.318359,128.384321 305.418437,127.646914 C304.519755,126.909506 302.774452,126.066667 300.182528,125.118519 L288.203402,120.77284 C283.496785,119.087284 281.142857,115.953086 281.142857,111.37037 C281.142857,107.630494 282.439439,104.575309 285.030123,102.204938 C287.622047,99.7818519 291.191985,98.5703704 295.739938,98.5703704 C299.495811,98.5703704 302.69512,99.4395062 305.339105,101.177778 C308.036392,102.863333 309.385035,105.28642 309.385035,108.446914 C309.385035,109.711111 309.041677,110.738272 308.35372,111.528395 C307.667003,112.265802 306.767081,112.634568 305.656433,112.634568 C304.545786,112.634568 303.621073,112.344815 302.879815,111.765432 C302.193097,111.133333 301.848499,110.290494 301.848499,109.237037 C302.536456,108.710247 303.012448,108.15716 303.276474,107.577778 C303.541741,106.945679 303.673134,106.208272 303.673134,105.365432 C303.673134,103.890494 303.012448,102.679012 301.689835,101.730864 C300.420524,100.782716 298.437225,100.308642 295.739938,100.308642 C293.41328,100.308642 291.403951,100.677407 289.710709,101.414815 C288.072008,102.09963 286.828728,103.021358 285.982107,104.180247 C285.136726,105.339136 284.712795,106.524321 284.712795,107.735802 C284.712795,109 285.162756,110.000864 286.061439,110.738272 C287.013422,111.475679 288.732695,112.292222 291.218016,113.187654 L302.324491,117.138272 C304.916415,118.08642 306.873683,119.403333 308.195056,121.088889 C309.517668,122.774444 310.178355,124.960494 310.178355,127.646914 C310.178355,131.492222 308.962345,134.679012 306.529085,137.207407 C304.097064,139.735802 300.394493,141 295.42261,141 Z M311.732766,140.209877 L311.732766,138.62963 L317.286003,137.839506 L317.286003,79.3703704 L311.732766,78.5802469 L311.732766,77 L325.219199,77 L325.219199,117.533333 L343.386218,102.679012 L336.484338,100.861728 L336.484338,99.2814815 L351.398746,99.2814815 L351.398746,100.861728 L346.321501,102.679012 L333.152395,113.424691 L351.716074,137.918519 L356,138.62963 L356,140.209877 L337.436321,140.209877 L337.436321,138.62963 L342.196239,137.839506 L327.28183,118.244444 L325.219199,119.982716 L325.219199,137.839506 L329.979117,138.62963 L329.979117,140.209877 L311.732766,140.209877 Z" id="Shape" fill="#000000"></path>
                <path d="M29.6240602,90 C28.0801962,90 26.7568879,89.4762336 25.6541353,88.4285714 C24.5513828,87.3258576 24,86.0025493 24,84.4586466 C24,82.9147439 24.5238052,81.6190907 25.5714286,80.5714286 C26.6741812,79.5237664 28.025067,79 29.6240602,79 C31.112782,79 32.3809093,79.5237664 33.4285714,80.5714286 C34.4762336,81.6190907 35,82.9147439 35,84.4586466 C35,86.0025493 34.4762336,87.3258576 33.4285714,88.4285714 C32.3809093,89.4762336 31.112782,90 29.6240602,90 Z M21,139 L21,137.413926 L26.5416667,136.62089 L26.5416667,100.37911 L21,99.5860735 L21,98 L34.4583333,98 L34.4583333,136.62089 L40,137.413926 L40,139 L21,139 Z M64.0207612,140 C60.25379,140 56.9377163,139.130864 54.0726644,137.392593 C51.2076125,135.601605 48.9792388,133.125926 47.3875433,129.965432 C45.7958478,126.752222 45,123.012346 45,118.745679 C45,114.479012 45.7958478,110.765432 47.3875433,107.604938 C48.9792388,104.391728 51.2076125,101.916049 54.0726644,100.177778 C56.9377163,98.4395062 60.25379,97.5703704 64.0207612,97.5703704 C67.0980807,97.5703704 69.7773519,98.3867901 72.0588235,100.019753 C74.3402952,101.6 76.1441339,103.786049 77.4705882,106.577778 L77.4705882,78.3703704 L71.899654,77.5802469 L71.899654,76 L85.4290657,76 L85.4290657,136.839506 L91,137.62963 L91,139.209877 L77.4705882,139.209877 L77.4705882,130.992593 C76.1441339,133.784321 74.3402952,135.996667 72.0588235,137.62963 C69.7773519,139.209877 67.0980807,140 64.0207612,140 Z M65.1946309,138 C67.557005,138 69.6778943,137.349801 71.557047,136.049281 C73.4899329,134.696824 75.0201342,132.928131 76.147651,130.743326 C77.328901,128.506462 77.9462668,126.087571 78,123.486653 L78,114.513347 C77.9462668,111.912429 77.328901,109.519507 76.147651,107.334702 C75.0201342,105.097838 73.4899329,103.329267 71.557047,102.028747 C69.6778943,100.67629 67.557005,100 65.1946309,100 C57.7315017,100 54,105.019809 54,115.059548 L54,122.862423 C54,132.9541 57.7315017,138 65.1946309,138 Z" id="Shape" fill="#FFFFFF"></path>
            </g>
        </g>
    </g>
</svg>
