<svg width="297" height="56" viewBox="0 0 297 56" fill="none" xmlns="http://www.w3.org/2000/svg">
<g clip-path="url(#clip0)">
<path d="M0.366395 48.1792L4.03035 28.6271C4.68986 25.307 4.47002 23.8314 1.3923 22.8722L0 22.4295L0.293116 21.1014L16.7076 18.7404L17.2206 19.6258L12.091 46.3346C11.891 47.307 11.7685 48.2939 11.7246 49.2859C11.7246 50.614 12.2376 51.0567 13.1902 51.0567C14.1429 51.0567 15.8771 50.2451 18.3198 48.253L19.2724 49.4827C15.6817 53.1717 10.7232 55.6311 7.18135 55.6311C1.3923 55.5573 -0.586232 53.1225 0.366395 48.1792ZM6.22872 9.00131C6.22872 5.53359 9.0866 2.95125 12.9704 2.95125C16.8542 2.95125 19.7121 5.53359 19.7121 9.00131C19.7121 12.469 16.8542 15.0514 12.9704 15.0514C9.0866 15.0514 6.22872 12.469 6.22872 9.00131Z" fill="#313131"/>
<path d="M20.5913 42.3505C20.5913 28.5534 32.0961 19.1094 42.1353 19.1094C44.1762 19.1068 46.1786 19.6683 47.9244 20.7325L49.7564 9.83751C50.3426 6.22222 50.1228 5.1155 47.1183 4.08256L45.7993 3.68906L46.0924 2.361L62.2871 0L62.8 0.885376L54.8126 46.3838C54.6134 47.3314 54.4909 48.2938 54.4462 49.2613C54.4462 50.6632 54.8859 51.1796 55.9118 51.1058C56.9377 51.0321 58.6231 50.2451 61.0658 48.253L61.9451 49.4827C57.9881 53.5406 53.3959 55.6311 49.9274 55.6311C44.3581 55.6311 42.0865 52.6061 43.4055 46.556L43.9673 43.8261C42.0621 47.7365 37.7386 55.7787 30.7771 55.7787C24.3285 55.7787 20.5913 49.8762 20.5913 42.3505ZM44.3337 41.1208L45.555 34.7756C45.9635 32.859 46.1844 30.9068 46.2145 28.9469C46.2145 24.3724 44.6757 21.8639 41.2316 21.8639C36.0288 21.8639 32.3648 32.931 32.3648 42.4488C32.3648 48.13 33.7571 49.0891 35.2227 49.0891C37.8607 49.1875 42.5017 44.9328 44.3337 41.17V41.1208Z" fill="#313131"/>
<path d="M86.8357 49.9499C89.358 49.9187 91.8335 49.2597 94.0415 48.0316L95.0674 49.2613C92.989 51.4188 90.4913 53.1219 87.7302 54.2643C84.9691 55.4068 82.0038 55.9642 79.0193 55.9016C69.7128 55.9016 63.0444 50.9829 63.0444 40.924C63.0444 29.2666 73.0104 18.5683 84.8083 18.5683C93.9682 18.5683 98.1451 22.7001 98.1451 27.791C98.1451 35.1691 88.9119 38.0466 74.476 38.6368C74.6714 46.6298 80.7535 49.9499 86.8357 49.9499ZM85.9564 27.2253C86.1762 23.61 85.2236 21.3966 83.245 21.3966C79.3612 21.3966 75.1111 27.9631 74.5981 36.6693C83.4649 35.1199 85.6632 32.1686 85.9564 27.2253V27.2253Z" fill="#313131"/>
<path d="M98.3403 42.3505C98.3403 28.5534 109.845 19.1093 119.665 19.1093C122.784 19.1257 125.844 19.9743 128.531 21.5687L135.713 18.4699H137.032L132.146 46.2855C131.946 47.2578 131.824 48.2447 131.78 49.2367C131.78 50.5648 132.22 51.0075 133.246 51.0075C134.272 51.0075 135.957 50.1959 138.375 48.2038L139.254 49.4335C135.297 53.4914 130.705 55.5819 127.237 55.5819C121.668 55.5819 119.396 52.5569 120.715 46.5068L121.301 43.8507C119.396 47.7611 115.195 55.8032 108.331 55.8032C102.004 55.7786 98.3403 49.8761 98.3403 42.3505ZM121.643 41.1208L122.864 34.7756C123.272 32.751 123.493 30.6927 123.524 28.6271C123.524 24.274 122.058 21.8393 118.761 21.8393C113.875 21.8393 110.114 32.8327 110.114 42.5718C110.114 48.1792 111.506 49.0646 112.752 49.0646C115.268 49.1875 119.811 44.9328 121.643 41.17V41.1208Z" fill="#313131"/>
<path d="M173.744 1.84453H178.141V54.9671H173.744V48.253H173.598C172.984 49.5068 172.158 50.6429 171.155 51.61C170.174 52.579 169.064 53.4067 167.858 54.0694C166.695 54.6973 165.466 55.1923 164.194 55.545C162.976 55.8821 161.719 56.0558 160.457 56.0615C157.761 56.1396 155.082 55.6102 152.616 54.5121C150.54 53.5355 148.72 52.0825 147.303 50.2696C145.863 48.376 144.828 46.2032 144.262 43.8876C143.612 41.3076 143.292 38.6546 143.309 35.993C143.3 33.4 143.645 30.818 144.335 28.3197C144.957 25.9883 146.014 23.7974 147.45 21.8639C148.855 20.0078 150.659 18.4946 152.726 17.437C155.06 16.2826 157.637 15.7131 160.237 15.7769C162.917 15.7754 165.562 16.3939 167.968 17.5845C170.391 18.7496 172.418 20.6108 173.793 22.9337L173.744 1.84453ZM173.744 35.7101C173.755 33.6282 173.458 31.5562 172.865 29.5617C172.332 27.7261 171.475 26.0018 170.337 24.4708C169.257 23.0363 167.882 21.8535 166.307 21.0031C164.651 20.1118 162.798 19.6551 160.921 19.675C158.859 19.6182 156.817 20.0878 154.985 21.04C153.345 21.9238 151.939 23.1884 150.881 24.729C149.766 26.3978 148.97 28.2622 148.537 30.2257C148.037 32.4387 147.84 34.71 147.95 36.9767C147.912 39.1456 148.247 41.3048 148.94 43.3588C149.533 45.0909 150.467 46.6845 151.687 48.0439C152.831 49.3021 154.23 50.2963 155.791 50.9583C157.417 51.6345 159.162 51.9733 160.921 51.9543C162.824 51.996 164.71 51.5742 166.417 50.7246C168.005 49.9091 169.384 48.7349 170.447 47.2938C171.568 45.7369 172.396 43.9864 172.89 42.1291C173.471 40.0234 173.759 37.8465 173.744 35.661V35.7101Z" fill="#313131"/>
<path d="M191.918 36.8906C191.906 38.8746 192.178 40.8499 192.724 42.7563C193.207 44.4929 194.016 46.1207 195.105 47.552C196.17 48.9197 197.527 50.0291 199.075 50.7984C200.81 51.6419 202.717 52.0631 204.644 52.0281C207.293 52.1012 209.893 51.2978 212.045 49.7409C214.152 48.1417 215.617 45.8328 216.173 43.2358H221.058C220.546 44.9973 219.833 46.6932 218.933 48.2899C218.069 49.8202 216.955 51.1923 215.636 52.3478C214.257 53.5381 212.665 54.4522 210.946 55.0408C208.914 55.7157 206.783 56.04 204.644 56C201.949 56.0679 199.272 55.539 196.803 54.4506C194.69 53.4844 192.832 52.0311 191.38 50.2082C189.92 48.3259 188.849 46.1685 188.229 43.863C187.529 41.304 187.184 38.6596 187.203 36.0053C187.188 33.3249 187.601 30.6594 188.425 28.1107C189.17 25.7645 190.338 23.5762 191.869 21.6548C193.349 19.8181 195.213 18.3319 197.328 17.3017C199.617 16.2131 202.125 15.6703 204.656 15.7154C206.984 15.6036 209.307 16.0349 211.442 16.9755C213.578 17.9162 215.468 19.3408 216.967 21.1383C219.947 24.7536 221.413 30.0044 221.364 36.8906H191.918ZM216.686 33.2016C216.698 31.4139 216.438 29.6349 215.917 27.9262C215.449 26.362 214.677 24.9073 213.645 23.6469C212.614 22.4188 211.325 21.436 209.871 20.7694C208.236 20.0329 206.459 19.6677 204.668 19.6996C202.884 19.6624 201.116 20.0412 199.502 20.8063C198.046 21.5184 196.749 22.5227 195.692 23.7576C194.616 25.0305 193.761 26.4773 193.163 28.0369C192.528 29.6956 192.118 31.4327 191.942 33.2016H216.686Z" fill="#313131"/>
<path d="M232.514 43.0391C233.198 46.3183 234.42 48.6424 236.178 50.0114C238.446 51.5025 241.133 52.2143 243.836 52.0404C245.251 52.0694 246.661 51.8702 248.013 51.4502C249.073 51.1192 250.056 50.5801 250.908 49.8639C251.632 49.2434 252.218 48.4768 252.63 47.6135C253.02 46.7833 253.22 45.8757 253.216 44.9574C253.272 44.1684 253.137 43.3775 252.825 42.6518C252.512 41.9262 252.031 41.2871 251.42 40.7888C250.063 39.8011 248.535 39.0756 246.914 38.6491C244.984 38.1048 243.027 37.6615 241.051 37.321C239.057 36.9762 237.104 36.4197 235.226 35.661C233.495 34.9777 231.951 33.8903 230.719 32.4884C229.434 30.8314 228.795 28.7581 228.924 26.6596C228.884 25.1712 229.176 23.6927 229.778 22.3329C230.38 20.973 231.278 19.7665 232.405 18.8019C234.725 16.7606 238.01 15.74 242.261 15.74C245.794 15.5599 249.295 16.5065 252.263 18.4453C254.828 20.2899 256.379 23.3764 256.916 27.7049H252.446C252.056 24.7536 250.944 22.6754 249.112 21.4704C247.029 20.2014 244.621 19.5771 242.187 19.675C239.919 19.5201 237.667 20.1586 235.812 21.4827C235.102 22.0482 234.534 22.7732 234.152 23.5995C233.77 24.4258 233.586 25.3306 233.614 26.2415C233.571 26.9969 233.713 27.7513 234.026 28.4392C234.338 29.1271 234.813 29.7277 235.409 30.1888C236.774 31.1818 238.298 31.9306 239.916 32.4023C241.723 32.9679 243.677 33.4721 245.778 33.9148C247.793 34.3299 249.758 34.9606 251.64 35.7962C253.363 36.5458 254.901 37.6665 256.147 39.0795C257.428 40.71 258.068 42.759 257.942 44.8344C257.96 46.5249 257.539 48.1909 256.721 49.6671C255.934 51.074 254.83 52.2746 253.497 53.1717C252.006 54.1598 250.351 54.8719 248.611 55.2745C246.583 55.7588 244.504 55.9942 242.419 55.9754C240.385 56.0118 238.361 55.6742 236.447 54.9794C234.814 54.3717 233.318 53.4391 232.05 52.2372C230.835 51.0646 229.863 49.66 229.193 48.1054C228.483 46.4968 228.069 44.7719 227.971 43.0145L232.514 43.0391Z" fill="#313131"/>
<path d="M266.247 54.9671V1.84453H270.644V34.8985L289.257 16.7483H295.266L281.098 30.5455L296.975 54.9671H292.09L277.874 33.6443L270.693 40.5059V54.9671H266.247Z" fill="#313131"/>
</g>
<defs>
<clipPath id="clip0">
<rect width="297" height="56" fill="white"/>
</clipPath>
</defs>
</svg>
