<svg xmlns="http://www.w3.org/2000/svg" viewBox="0 0 243.18 45.54"><title>idea_logo_new</title><g id="Layer_2" data-name="Layer 2"><g id="Layer_1-2" data-name="Layer 1"><path d="M.3,39.18l3-15.9c.54-2.7.36-3.9-2.16-4.68L0,18.24l.24-1.08,13.44-1.92.42.72L9.9,37.68a15.15,15.15,0,0,0-.3,2.4c0,1.08.42,1.44,1.2,1.44S13,40.86,15,39.24l.78,1c-2.94,3-7,5-9.9,5C1.14,45.18-.48,43.2.3,39.18ZM5.1,7.32C5.1,4.5,7.44,2.4,10.62,2.4s5.52,2.1,5.52,4.92-2.34,4.92-5.52,4.92S5.1,10.14,5.1,7.32Z"/><path d="M16.86,34.44c0-11.22,9.42-18.9,17.64-18.9a9.13,9.13,0,0,1,4.74,1.32L40.74,8c.48-2.94.3-3.84-2.16-4.68L37.5,3l.24-1.08L51,0l.42.72-6.54,37a14.56,14.56,0,0,0-.3,2.34c0,1.14.36,1.56,1.2,1.5S48,40.86,50,39.24l.72,1c-3.24,3.3-7,5-9.84,5-4.56,0-6.42-2.46-5.34-7.38L36,35.64c-1.56,3.18-5.1,9.72-10.8,9.72C19.92,45.36,16.86,40.56,16.86,34.44Zm19.44-1,1-5.16a24.39,24.39,0,0,0,.54-4.74c0-3.72-1.26-5.76-4.08-5.76-4.26,0-7.26,9-7.26,16.74,0,4.62,1.14,5.4,2.34,5.4C31,40,34.8,36.54,36.3,33.48Z"/><path d="M71.1,40.62A12.52,12.52,0,0,0,77,39.06l.84,1a17.79,17.79,0,0,1-13.14,5.4c-7.62,0-13.08-4-13.08-12.18,0-9.48,8.16-18.18,17.82-18.18,7.5,0,10.92,3.36,10.92,7.5,0,6-7.56,8.34-19.38,8.82C61.14,37.92,66.12,40.62,71.1,40.62Zm-.72-18.48c.18-2.94-.6-4.74-2.22-4.74-3.18,0-6.66,5.34-7.08,12.42C68.34,28.56,70.14,26.16,70.38,22.14Z"/><path d="M80.52,34.44c0-11.22,9.42-18.9,17.46-18.9a14.45,14.45,0,0,1,7.26,2l5.88-2.52h1.08l-4,22.62a15.15,15.15,0,0,0-.3,2.4c0,1.08.36,1.44,1.2,1.44s2.22-.66,4.2-2.28l.72,1c-3.24,3.3-7,5-9.84,5-4.56,0-6.42-2.46-5.34-7.38l.48-2.16c-1.56,3.18-5,9.72-10.62,9.72C83.52,45.36,80.52,40.56,80.52,34.44Zm19.08-1,1-5.16a27.21,27.21,0,0,0,.54-5c0-3.54-1.2-5.52-3.9-5.52-4,0-7.08,8.94-7.08,16.86,0,4.56,1.14,5.28,2.16,5.28C94.38,40,98.1,36.54,99.6,33.48Z"/><path d="M142.26,1.5h3.6V44.7h-3.6V39.24h-.12a9.75,9.75,0,0,1-2,2.73,12.2,12.2,0,0,1-2.7,2,14.48,14.48,0,0,1-3,1.2,11.74,11.74,0,0,1-3.06.42,14.82,14.82,0,0,1-6.42-1.26,12,12,0,0,1-4.35-3.45,14.07,14.07,0,0,1-2.49-5.19,25.44,25.44,0,0,1-.78-6.42,23,23,0,0,1,.84-6.24,15.47,15.47,0,0,1,2.55-5.25,12.63,12.63,0,0,1,4.32-3.6,13.22,13.22,0,0,1,6.15-1.35,14.33,14.33,0,0,1,6.33,1.47,11.14,11.14,0,0,1,4.77,4.35Zm0,27.54a17.14,17.14,0,0,0-.72-5,13,13,0,0,0-2.07-4.14,10.17,10.17,0,0,0-3.3-2.82A9.15,9.15,0,0,0,131.76,16a10,10,0,0,0-4.86,1.11,9.58,9.58,0,0,0-3.36,3,13.1,13.1,0,0,0-1.92,4.47,20.29,20.29,0,0,0-.48,5.49,15.29,15.29,0,0,0,.81,5.19,11.06,11.06,0,0,0,2.25,3.81,9.61,9.61,0,0,0,3.36,2.37,10.7,10.7,0,0,0,4.2.81,9.68,9.68,0,0,0,4.5-1,9.47,9.47,0,0,0,3.3-2.79,12.8,12.8,0,0,0,2-4.2A19.15,19.15,0,0,0,142.26,29Z"/><path d="M157.14,30a16.87,16.87,0,0,0,.66,4.77,11.52,11.52,0,0,0,1.95,3.9A9.44,9.44,0,0,0,163,41.31a10.07,10.07,0,0,0,4.56,1,9.92,9.92,0,0,0,6.06-1.86A9,9,0,0,0,177,35.16h4a19.38,19.38,0,0,1-1.74,4.11,12.68,12.68,0,0,1-2.7,3.3,11.67,11.67,0,0,1-3.84,2.19,15.55,15.55,0,0,1-5.16.78,15.07,15.07,0,0,1-6.42-1.26,12.11,12.11,0,0,1-4.44-3.45,14.56,14.56,0,0,1-2.58-5.16,23.39,23.39,0,0,1-.84-6.39,20.36,20.36,0,0,1,1-6.42,16.35,16.35,0,0,1,2.82-5.25,13.11,13.11,0,0,1,4.47-3.54,13.49,13.49,0,0,1,6-1.29,12.39,12.39,0,0,1,10.08,4.41q3.66,4.41,3.6,12.81Zm20.28-3a14.27,14.27,0,0,0-.63-4.29,10,10,0,0,0-1.86-3.48,8.85,8.85,0,0,0-3.09-2.34,10,10,0,0,0-4.26-.87,9.47,9.47,0,0,0-4.23.9,9.73,9.73,0,0,0-3.12,2.4,12.07,12.07,0,0,0-2.07,3.48,16.14,16.14,0,0,0-1,4.2Z"/><path d="M190.38,35q.84,4,3,5.67a10.27,10.27,0,0,0,6.27,1.65,10.85,10.85,0,0,0,3.42-.48,6.87,6.87,0,0,0,2.37-1.29,5.56,5.56,0,0,0,1.41-1.83,5,5,0,0,0,.48-2.16,4,4,0,0,0-1.47-3.39,11.09,11.09,0,0,0-3.69-1.74,47.52,47.52,0,0,0-4.8-1.08A23.48,23.48,0,0,1,192.6,29a9.61,9.61,0,0,1-3.69-2.58,7,7,0,0,1-1.47-4.74,8.1,8.1,0,0,1,2.85-6.39q2.85-2.49,8.07-2.49A13.77,13.77,0,0,1,206.55,15q3.15,2.25,3.81,7.53H206.7q-.48-3.6-2.73-5.07A10.17,10.17,0,0,0,198.3,16a8.08,8.08,0,0,0-5.22,1.47,4.75,4.75,0,0,0-1.8,3.87,3.78,3.78,0,0,0,1.47,3.21,12,12,0,0,0,3.69,1.8q2.22.69,4.8,1.23a23.64,23.64,0,0,1,4.8,1.53,10.51,10.51,0,0,1,3.69,2.67,6.87,6.87,0,0,1,1.47,4.68,7.89,7.89,0,0,1-1,3.93,8.36,8.36,0,0,1-2.64,2.85,12.28,12.28,0,0,1-4,1.71,21.15,21.15,0,0,1-5.07.57,13.7,13.7,0,0,1-4.89-.81A10.62,10.62,0,0,1,190,42.48a10.38,10.38,0,0,1-2.34-3.36,11.83,11.83,0,0,1-1-4.14Z"/><path d="M218,44.7V1.5h3.6V28.38l15.24-14.76h4.92L230.16,24.84l13,19.86h-4L227.52,27.36l-5.88,5.58V44.7Z"/></g></g></svg>