<svg width="244" height="46" viewBox="0 0 244 46" fill="none" xmlns="http://www.w3.org/2000/svg">
<g clip-path="url(#clip0)">
<path d="M0.3 39.18L3.3 23.28C3.84 20.58 3.66 19.38 1.14 18.6L0 18.24L0.24 17.16L13.68 15.24L14.1 15.96L9.9 37.68C9.7362 38.4707 9.63588 39.2733 9.6 40.08C9.6 41.16 10.02 41.52 10.8 41.52C11.58 41.52 13 40.86 15 39.24L15.78 40.24C12.84 43.24 8.78 45.24 5.88 45.24C1.14 45.18 -0.48 43.2 0.3 39.18ZM5.1 7.31999C5.1 4.49999 7.44 2.39999 10.62 2.39999C13.8 2.39999 16.14 4.49999 16.14 7.31999C16.14 10.14 13.8 12.24 10.62 12.24C7.44 12.24 5.1 10.14 5.1 7.31999Z" fill="#313131"/>
<path d="M16.8599 34.44C16.8599 23.22 26.2799 15.54 34.4999 15.54C36.1709 15.5379 37.8104 15.9945 39.2399 16.86L40.7399 8C41.2199 5.06 41.0399 4.16 38.5799 3.32L37.4999 3L37.7399 1.92L50.9999 0L51.4199 0.72L44.8799 37.72C44.7167 38.4906 44.6164 39.2732 44.5799 40.06C44.5799 41.2 44.9399 41.62 45.7799 41.56C46.6199 41.5 47.9999 40.86 49.9999 39.24L50.7199 40.24C47.4799 43.54 43.7199 45.24 40.8799 45.24C36.3199 45.24 34.4599 42.78 35.5399 37.86L35.9999 35.64C34.4399 38.82 30.8999 45.36 25.1999 45.36C19.9199 45.36 16.8599 40.56 16.8599 34.44ZM36.2999 33.44L37.2999 28.28C37.6343 26.7214 37.8152 25.1339 37.8399 23.54C37.8399 19.82 36.5799 17.78 33.7599 17.78C29.4999 17.78 26.4999 26.78 26.4999 34.52C26.4999 39.14 27.6399 39.92 28.8399 39.92C30.9999 40 34.7999 36.54 36.2999 33.48V33.44Z" fill="#313131"/>
<path d="M71.1001 40.62C73.1654 40.5946 75.1922 40.0587 77.0001 39.06L77.8401 40.06C76.1383 41.8145 74.0933 43.1995 71.8325 44.1285C69.5718 45.0576 67.1438 45.5109 64.7001 45.46C57.0801 45.46 51.6201 41.46 51.6201 33.28C51.6201 23.8 59.7801 15.1 69.4401 15.1C76.9401 15.1 80.3601 18.46 80.3601 22.6C80.3601 28.6 72.8001 30.94 60.9801 31.42C61.1401 37.92 66.1201 40.62 71.1001 40.62ZM70.3801 22.14C70.5601 19.2 69.7801 17.4 68.1601 17.4C64.9801 17.4 61.5001 22.74 61.0801 29.82C68.3401 28.56 70.1401 26.16 70.3801 22.14Z" fill="#313131"/>
<path d="M80.52 34.44C80.52 23.22 89.94 15.54 97.98 15.54C100.534 15.5533 103.039 16.2434 105.24 17.54L111.12 15.02H112.2L108.2 37.64C108.036 38.4307 107.936 39.2333 107.9 40.04C107.9 41.12 108.26 41.48 109.1 41.48C109.94 41.48 111.32 40.82 113.3 39.2L114.02 40.2C110.78 43.5 107.02 45.2 104.18 45.2C99.62 45.2 97.76 42.74 98.84 37.82L99.32 35.66C97.76 38.84 94.32 45.38 88.7 45.38C83.52 45.36 80.52 40.56 80.52 34.44ZM99.6 33.44L100.6 28.28C100.934 26.6336 101.115 24.9598 101.14 23.28C101.14 19.74 99.94 17.76 97.24 17.76C93.24 17.76 90.16 26.7 90.16 34.62C90.16 39.18 91.3 39.9 92.32 39.9C94.38 40 98.1 36.54 99.6 33.48V33.44Z" fill="#313131"/>
<path d="M142.26 1.5H145.86V44.7H142.26V39.24H142.14C141.637 40.2596 140.961 41.1835 140.14 41.97C139.336 42.758 138.428 43.4311 137.44 43.97C136.488 44.4807 135.482 44.8832 134.44 45.17C133.443 45.4441 132.414 45.5854 131.38 45.59C129.173 45.6535 126.979 45.223 124.96 44.33C123.26 43.5359 121.77 42.3542 120.61 40.88C119.431 39.3401 118.583 37.5731 118.12 35.69C117.588 33.5919 117.326 31.4345 117.34 29.27C117.333 27.1613 117.615 25.0617 118.18 23.03C118.689 21.1341 119.554 19.3524 120.73 17.78C121.881 16.2706 123.358 15.0401 125.05 14.18C126.961 13.2413 129.071 12.7781 131.2 12.83C133.395 12.8288 135.56 13.3317 137.53 14.3C139.514 15.2474 141.174 16.761 142.3 18.65L142.26 1.5ZM142.26 29.04C142.268 27.3469 142.026 25.662 141.54 24.04C141.103 22.5473 140.402 21.1451 139.47 19.9C138.586 18.7335 137.46 17.7716 136.17 17.08C134.814 16.3552 133.297 15.9838 131.76 16C130.072 15.9538 128.4 16.3357 126.9 17.11C125.557 17.8287 124.406 18.8572 123.54 20.11C122.626 21.4671 121.975 22.9832 121.62 24.58C121.211 26.3797 121.049 28.2267 121.14 30.07C121.108 31.8338 121.383 33.5897 121.95 35.26C122.436 36.6686 123.201 37.9645 124.2 39.07C125.136 40.0932 126.282 40.9017 127.56 41.44C128.891 41.9899 130.32 42.2654 131.76 42.25C133.319 42.2839 134.862 41.9408 136.26 41.25C137.56 40.5868 138.69 39.6319 139.56 38.46C140.478 37.1939 141.155 35.7704 141.56 34.26C142.036 32.5476 142.272 30.7773 142.26 29V29.04Z" fill="#313131"/>
<path d="M157.14 30C157.131 31.6134 157.353 33.2197 157.8 34.77C158.196 36.1823 158.858 37.506 159.75 38.67C160.622 39.7822 161.733 40.6844 163 41.31C164.421 41.9959 165.983 42.3385 167.56 42.31C169.729 42.3695 171.858 41.7161 173.62 40.45C175.345 39.1495 176.545 37.2718 177 35.16H181C180.58 36.5924 179.996 37.9716 179.26 39.27C178.553 40.5145 177.64 41.6303 176.56 42.57C175.431 43.538 174.128 44.2813 172.72 44.76C171.056 45.3088 169.312 45.5725 167.56 45.54C165.354 45.5952 163.162 45.1651 161.14 44.28C159.41 43.4943 157.889 42.3124 156.7 40.83C155.504 39.2993 154.627 37.5449 154.12 35.67C153.546 33.589 153.264 31.4386 153.28 29.28C153.267 27.1003 153.605 24.9327 154.28 22.86C154.89 20.952 155.846 19.1725 157.1 17.61C158.312 16.1163 159.838 14.9078 161.57 14.07C163.444 13.1847 165.497 12.7433 167.57 12.78C169.476 12.6891 171.378 13.0398 173.126 13.8047C174.875 14.5697 176.423 15.7282 177.65 17.19C180.09 20.13 181.29 24.4 181.25 30H157.14ZM177.42 27C177.43 25.5463 177.217 24.0996 176.79 22.71C176.407 21.438 175.775 20.2549 174.93 19.23C174.086 18.2313 173.03 17.4321 171.84 16.89C170.501 16.2911 169.047 15.994 167.58 16.02C166.119 15.9897 164.672 16.2977 163.35 16.92C162.157 17.4991 161.096 18.3158 160.23 19.32C159.349 20.3552 158.649 21.5317 158.16 22.8C157.64 24.1489 157.304 25.5615 157.16 27H177.42Z" fill="#313131"/>
<path d="M190.38 35C190.94 37.6667 191.94 39.5567 193.38 40.67C195.237 41.8826 197.437 42.4614 199.65 42.32C200.808 42.3436 201.963 42.1816 203.07 41.84C203.938 41.5709 204.743 41.1324 205.44 40.55C206.033 40.0454 206.513 39.422 206.85 38.72C207.169 38.0449 207.333 37.3068 207.33 36.56C207.376 35.9184 207.266 35.2752 207.01 34.6851C206.754 34.095 206.36 33.5752 205.86 33.17C204.748 32.3668 203.497 31.7768 202.17 31.43C200.59 30.9874 198.988 30.6269 197.37 30.35C195.737 30.0696 194.138 29.6171 192.6 29C191.183 28.4443 189.918 27.5601 188.91 26.42C187.858 25.0725 187.335 23.3865 187.44 21.68C187.407 20.4696 187.646 19.2672 188.14 18.1614C188.633 17.0556 189.368 16.0744 190.29 15.29C192.19 13.63 194.88 12.8 198.36 12.8C201.254 12.6535 204.12 13.4234 206.55 15C208.65 16.5 209.92 19.01 210.36 22.53H206.7C206.38 20.13 205.47 18.44 203.97 17.46C202.264 16.428 200.292 15.9203 198.3 16C196.443 15.874 194.599 16.3933 193.08 17.47C192.499 17.9299 192.034 18.5195 191.721 19.1914C191.408 19.8634 191.257 20.5992 191.28 21.34C191.245 21.9543 191.361 22.5678 191.617 23.1272C191.874 23.6866 192.262 24.175 192.75 24.55C193.868 25.3575 195.116 25.9664 196.44 26.35C197.92 26.81 199.52 27.22 201.24 27.58C202.89 27.9176 204.499 28.4305 206.04 29.11C207.451 29.7196 208.71 30.631 209.73 31.78C210.779 33.1059 211.303 34.7723 211.2 36.46C211.215 37.8348 210.87 39.1895 210.2 40.39C209.556 41.5341 208.652 42.5105 207.56 43.24C206.339 44.0435 204.985 44.6226 203.56 44.95C201.899 45.3439 200.197 45.5353 198.49 45.52C196.824 45.5496 195.167 45.2751 193.6 44.71C192.263 44.2159 191.038 43.4575 190 42.48C189.005 41.5265 188.209 40.3843 187.66 39.12C187.079 37.8119 186.74 36.4091 186.66 34.98L190.38 35Z" fill="#313131"/>
<path d="M218 44.7V1.5H221.6V28.38L236.84 13.62H241.76L230.16 24.84L243.16 44.7H239.16L227.52 27.36L221.64 32.94V44.7H218Z" fill="#313131"/>
</g>
<defs>
<clipPath id="clip0">
<rect width="243.18" height="45.54" fill="white"/>
</clipPath>
</defs>
</svg>
