<svg width="188" height="63" viewBox="0 0 188 63" fill="none" xmlns="http://www.w3.org/2000/svg">
<g clip-path="url(#clip0)">
<path d="M179.673 17.705H176.667V5.46162C176.632 4.72446 176.753 3.98812 177.022 3.30172C177.291 2.61532 177.702 1.99465 178.228 1.48113C179.346 0.460452 180.82 -0.0720709 182.327 0.000145263C184.133 0.000145263 185.53 0.460046 186.516 1.37985C187.019 1.87595 187.412 2.47513 187.667 3.13704C187.922 3.79895 188.033 4.5082 187.993 5.21702H184.993C185.048 4.45358 184.803 3.69894 184.312 3.11498C184.044 2.87099 183.731 2.6837 183.39 2.56421C183.049 2.44473 182.687 2.39548 182.327 2.4194C181.967 2.40294 181.608 2.46628 181.275 2.60495C180.941 2.74362 180.643 2.95425 180.399 3.222C179.887 3.85326 179.628 4.65503 179.673 5.46927V17.705Z" fill="#777777"/>
<path d="M158.185 8.5213C158.151 6.97237 158.45 5.4344 159.063 4.01339C159.597 2.79066 160.48 1.75567 161.6 1.03996C162.736 0.365175 164.031 0.0085216 165.351 0.0068419C166.67 0.00516219 167.966 0.358517 169.104 1.0304C170.216 1.74839 171.097 2.77595 171.641 3.98854C172.255 5.37894 172.561 6.88702 172.54 8.40856V9.39078C172.57 10.9421 172.265 12.4815 171.647 13.9025C171.108 15.1256 170.225 16.1627 169.108 16.8855C167.971 17.5638 166.675 17.9217 165.354 17.9217C164.033 17.9217 162.736 17.5638 161.6 16.8855C160.479 16.1795 159.595 15.151 159.061 13.9331C158.439 12.527 158.131 11.0006 158.158 9.46149L158.185 8.5213ZM161.194 9.43091C161.194 11.3648 161.554 12.8496 162.286 13.8834C162.899 14.7038 163.81 15.2451 164.82 15.3885C165.829 15.5318 166.853 15.2654 167.667 14.6478C167.954 14.4305 168.21 14.1731 168.425 13.8834C169.152 12.8591 169.527 11.3992 169.542 9.52837V8.50602C169.554 6.59507 169.185 5.12619 168.437 4.09938C168.094 3.59716 167.63 3.19018 167.09 2.91598C166.549 2.64178 165.949 2.50921 165.344 2.53049C164.746 2.50105 164.149 2.62599 163.612 2.89349C163.074 3.16099 162.614 3.56222 162.273 4.05925C161.552 5.07842 161.192 6.57214 161.192 8.54041L161.194 9.43091Z" fill="#777777"/>
<path d="M124.289 0.246582H127.283V8.0031H135.04V0.246582H138.051V17.705H135.04V10.4434H127.283V17.705H124.289V0.246582Z" fill="#777777"/>
<path d="M109.212 2.67539H101.338V0.246582H112.196V17.705H109.212V2.67539Z" fill="#777777"/>
<path d="M87.8758 4.30925H94.5859L95.9928 0.246582H99.1194L92.5761 17.705H89.861L83.3215 0.246582H86.4595L87.8758 4.30925ZM93.7441 6.76099H88.7234L91.2318 13.9996L93.7441 6.76099Z" fill="#777777"/>
<path d="M67.1692 5.92412C67.2526 4.25829 67.9843 2.69277 69.2055 1.56717C70.4 0.547998 71.9839 0.0384125 73.957 0.0384125C75.2411 0.0132225 76.5062 0.353671 77.6069 1.02064C78.6703 1.70273 79.5136 2.68214 80.0338 3.83928C80.6303 5.16829 80.9349 6.61148 80.9269 8.07011V9.70397C80.9573 11.2016 80.6609 12.6877 80.0585 14.0571C79.5322 15.2508 78.6665 16.2603 77.5709 16.9579C76.4386 17.6518 75.134 18.007 73.8091 17.9822C72.129 18.0515 70.4848 17.4789 69.2055 16.3789C67.9869 15.2194 67.2595 13.6305 67.1749 11.9436H70.1744C70.3172 13.1946 70.6826 14.0985 71.2703 14.6552C72.1002 15.2977 73.1441 15.5925 74.1844 15.4783C75.2247 15.364 76.1811 14.8494 76.8542 14.0418C77.55 13.0863 77.9103 11.6722 77.9254 9.80907V8.28032C77.9254 6.39804 77.5917 4.95527 76.911 3.96731C76.5881 3.48412 76.1468 3.09318 75.63 2.83237C75.1131 2.57157 74.5381 2.44974 73.9608 2.47869C73.0038 2.4024 72.0526 2.68631 71.2912 3.27555C70.692 3.81444 70.3128 4.70621 70.1536 5.95087L67.1692 5.92412Z" fill="#777777"/>
<path d="M49.428 8.52114C49.3958 6.97238 49.6952 5.43481 50.3059 4.01322C50.8414 2.79118 51.7242 1.75648 52.8428 1.03979C53.982 0.363185 55.2803 0.00634766 56.6026 0.00634766C57.925 0.00634766 59.2232 0.363185 60.3625 1.03979C61.4736 1.75845 62.3547 2.78582 62.8994 3.99793C63.5186 5.38868 63.8274 6.8995 63.8038 8.42368V9.40591C63.8342 10.9573 63.5295 12.4968 62.9107 13.9176C62.3743 15.1422 61.4911 16.1799 60.372 16.9006C59.2354 17.579 57.9387 17.9369 56.6178 17.9369C55.2969 17.9369 54.0002 17.579 52.8636 16.9006C51.7433 16.1956 50.8588 15.1677 50.3248 13.9501C49.7031 12.5441 49.395 11.0176 49.4223 9.47852L49.428 8.52114ZM52.437 9.43075C52.437 11.3646 52.8011 12.8488 53.5291 13.8832C54.1423 14.7036 55.0535 15.245 56.0626 15.3883C57.0717 15.5317 58.0959 15.2652 58.9101 14.6476C59.1976 14.4303 59.4529 14.173 59.6685 13.8832C60.4004 12.8641 60.7726 11.4124 60.7853 9.52821V8.50585C60.7853 6.59491 60.4168 5.11265 59.6799 4.05908C59.3375 3.55609 58.8748 3.14816 58.3347 2.87295C57.7945 2.59774 57.1943 2.46414 56.5893 2.48447C55.9955 2.46246 55.4056 2.59086 54.8736 2.85792C54.3417 3.12499 53.8846 3.52219 53.5443 4.01322C52.8238 5.03239 52.4636 6.52675 52.4636 8.4963L52.437 9.43075Z" fill="#777777"/>
<path d="M16.7612 15.259H22.1725V0.246582H25.1569V15.259H30.5132V17.705H16.7612V15.259Z" fill="#777777"/>
<path d="M3.13983 8.03941H10.2481V2.67539H1.93774V0.246582H13.2723V17.705H2.03823V15.259H10.2576V10.4396H3.15121L3.13983 8.03941Z" fill="#777777"/>
<path d="M8.32368 62.7266H11.3232V50.4851C11.3594 49.748 11.239 49.0117 10.9703 48.3253C10.7015 47.6388 10.2905 47.0181 9.76467 46.5046C8.64717 45.4882 7.17656 44.958 5.67301 45.0293C3.86292 45.0293 2.46681 45.4898 1.48466 46.4109C0.978127 46.9074 0.583414 47.5079 0.327269 48.1716C0.0711243 48.8353 -0.0404667 49.5467 5.85951e-05 50.2577H3.00907C2.9516 49.4948 3.19404 48.7398 3.68407 48.1556C3.95247 47.9113 4.26683 47.7239 4.6085 47.6044C4.95016 47.4849 5.31216 47.4358 5.67301 47.46C6.03655 47.4404 6.39987 47.5022 6.73689 47.641C7.0739 47.7798 7.37622 47.9921 7.62214 48.2626C8.13259 48.8909 8.38979 49.6897 8.34264 50.5003L8.32368 62.7266Z" fill="#777777"/>
<path d="M29.8171 53.5446C29.8497 51.9962 29.5516 50.4588 28.943 49.0367C28.4102 47.8105 27.527 46.772 26.4061 46.0537C25.2754 45.3562 23.9697 45.0007 22.6444 45.0294C21.3195 45.0046 20.0149 45.3599 18.8826 46.0537C17.7705 46.7709 16.8886 47.7978 16.3438 49.0099C15.7253 50.4009 15.4172 51.9117 15.4413 53.4357V54.4179C15.4072 55.9702 15.7121 57.5112 16.3343 58.9316C16.8694 60.1564 17.7521 61.1943 18.8712 61.9146C20.0003 62.6124 21.3051 62.9673 22.6292 62.9369C23.9507 62.9651 25.2524 62.6103 26.3796 61.9146C27.4994 61.2081 28.3837 60.1798 28.9184 58.9621C29.5379 57.5554 29.8459 56.0295 29.8209 54.4905L29.8171 53.5446ZM26.8062 54.4619C26.8062 56.3957 26.4409 57.8793 25.7103 58.9125C25.3665 59.4087 24.9036 59.8091 24.3649 60.0764C23.8262 60.3437 23.229 60.4692 22.6292 60.4412C22.035 60.4637 21.4446 60.3356 20.9123 60.0685C20.3799 59.8014 19.9226 59.4039 19.5822 58.9125C18.8529 57.8933 18.4806 56.4423 18.4655 54.5593V53.537C18.4655 51.626 18.8314 50.1336 19.5728 49.0902C19.915 48.5869 20.3775 48.1786 20.9177 47.903C21.4579 47.6275 22.0582 47.4936 22.6633 47.5137C23.2575 47.4912 23.8479 47.6193 24.3802 47.8864C24.9126 48.1535 25.3699 48.551 25.7103 49.0424C26.4307 50.0616 26.791 51.5572 26.791 53.5293L26.8062 54.4619Z" fill="#777777"/>
<path d="M43.0858 49.7687C43.104 50.1082 43.0402 50.4471 42.8998 50.7563C42.7595 51.0655 42.5468 51.3358 42.28 51.544C41.3903 52.1197 40.4128 52.5445 39.3867 52.8014C38.2186 53.1355 37.0977 53.6191 36.0515 54.2403C34.4702 55.2416 33.6815 56.5443 33.6853 58.1482C33.6752 58.8231 33.8248 59.4907 34.1215 60.0958C34.4182 60.7009 34.8536 61.2261 35.3917 61.628C36.6712 62.5831 38.2378 63.0655 39.8284 62.9943C40.9388 63.0134 42.0396 62.7843 43.0517 62.3236C43.9596 61.9005 44.7315 61.2292 45.2796 60.3859C45.8148 59.5717 46.0961 58.6147 46.0873 57.638H43.0858C43.108 58.0346 43.0432 58.4313 42.896 58.7999C42.7489 59.1685 42.5231 59.4999 42.2345 59.7706C41.5519 60.3338 40.6821 60.6139 39.8019 60.5541C38.9889 60.6007 38.1832 60.3778 37.5077 59.9196C37.2424 59.7101 37.0306 59.4396 36.8901 59.1308C36.7496 58.8219 36.6844 58.4837 36.7 58.1444C36.7016 57.8244 36.7824 57.5098 36.935 57.2292C37.0876 56.9486 37.3073 56.7108 37.574 56.5373C38.4738 55.9674 39.4546 55.5395 40.4826 55.2684C41.6229 54.9609 42.7158 54.4966 43.7305 53.8887C44.4684 53.4589 45.0866 52.8482 45.5279 52.1134C45.9199 51.399 46.1162 50.5924 46.0967 49.7763C46.1186 49.1048 45.9785 48.4379 45.6886 47.8328C45.3986 47.2278 44.9675 46.7026 44.432 46.3022C43.3323 45.4589 41.8332 45.0372 39.9346 45.0372C38.7449 45.0233 37.5655 45.2609 36.4724 45.7347C35.4972 46.1493 34.6504 46.8205 34.0209 47.6781C33.4372 48.5166 33.1331 49.5204 33.1525 50.5445H36.1634C36.1403 50.1126 36.2163 49.681 36.3853 49.2834C36.5543 48.8857 36.8118 48.5326 37.138 48.2514C37.9474 47.6595 38.9367 47.3715 39.9346 47.4373C40.7646 47.3756 41.5911 47.5963 42.2819 48.0641C42.5422 48.262 42.7512 48.5204 42.8911 48.8171C43.0311 49.1139 43.0979 49.4403 43.0858 49.7687Z" fill="#777777"/>
<path d="M78.7939 47.6917H86.6624V45.2705H75.783V62.727H78.7939V47.6917Z" fill="#777777"/>
<path d="M100.12 49.3332H93.414L92.0129 45.2705H88.8806L95.4447 62.727H98.1503L104.703 45.2705H101.537L100.12 49.3332ZM94.2559 51.7868H99.2766L96.7397 59.0255L94.2559 51.7868Z" fill="#777777"/>
<path d="M138.832 53.5443C138.866 51.9954 138.567 50.4574 137.954 49.0364C137.422 47.8118 136.537 46.7761 135.415 46.063C134.282 45.391 132.991 45.0359 131.676 45.0342C130.361 45.0325 129.069 45.3844 127.934 46.0535C126.821 46.7707 125.94 47.7975 125.395 49.0097C124.779 50.4015 124.471 51.9117 124.492 53.4354V54.4176C124.462 55.9696 124.767 57.5096 125.385 58.9313C125.923 60.1548 126.806 61.192 127.924 61.9143C129.061 62.5916 130.358 62.949 131.678 62.949C132.999 62.949 134.295 62.5916 135.432 61.9143C136.552 61.2077 137.435 60.1794 137.969 58.9619C138.591 57.5558 138.9 56.0295 138.874 54.4903L138.832 53.5443ZM135.823 54.4616C135.823 56.3955 135.463 57.8803 134.731 58.9122C134.373 59.3921 133.909 59.7815 133.376 60.0497C132.843 60.3179 132.255 60.4575 131.659 60.4575C131.063 60.4575 130.476 60.3179 129.943 60.0497C129.41 59.7815 128.946 59.3921 128.588 58.9122C127.863 57.8898 127.486 56.4375 127.471 54.5591V53.5367C127.471 51.6181 127.84 50.1359 128.578 49.0899C128.921 48.5863 129.383 48.1778 129.924 47.9023C130.465 47.6267 131.065 47.493 131.671 47.5134C132.269 47.4868 132.864 47.613 133.4 47.8803C133.937 48.1476 134.398 48.5472 134.74 49.0422C135.463 50.0613 135.824 51.557 135.823 53.5291V54.4616Z" fill="#777777"/>
<path d="M152.108 49.7684C152.124 50.1084 152.058 50.4473 151.917 50.7563C151.775 51.0653 151.562 51.3354 151.295 51.5436C150.408 52.1213 149.432 52.5463 148.407 52.801C147.24 53.1274 146.12 53.6019 145.072 54.2132C143.491 55.2171 142.702 56.5204 142.706 58.123C142.697 58.7974 142.848 59.4641 143.144 60.0686C143.441 60.6732 143.875 61.1983 144.412 61.6009C145.692 62.556 147.258 63.0384 148.849 62.9673C149.959 62.987 151.06 62.7586 152.072 62.2984C152.975 61.8819 153.745 61.2202 154.296 60.3875C154.83 59.5703 155.109 58.6104 155.096 57.6319H152.108C152.129 58.0291 152.062 58.426 151.914 58.7945C151.766 59.1631 151.539 59.4942 151.249 59.7645C150.569 60.3279 149.701 60.6081 148.822 60.548C148.008 60.5953 147.201 60.3725 146.524 59.9136C146.259 59.704 146.047 59.4335 145.907 59.1247C145.766 58.8159 145.701 58.4777 145.717 58.1383C145.72 57.8181 145.801 57.5038 145.955 57.2233C146.108 56.9428 146.328 56.705 146.594 56.5312C147.494 55.9696 148.474 55.5488 149.499 55.2833C150.639 54.9741 151.732 54.5092 152.747 53.9017C153.484 53.4714 154.103 52.8609 154.544 52.1265C154.936 51.4114 155.133 50.6042 155.113 49.7875C155.134 49.1157 154.992 48.449 154.702 47.8441C154.411 47.2392 153.98 46.7141 153.445 46.3134C152.341 45.4573 150.841 45.0292 148.945 45.0292C147.756 45.0176 146.577 45.2551 145.483 45.7267C144.509 46.1403 143.664 46.8119 143.037 47.6701C142.455 48.5091 142.151 49.5126 142.169 50.5366H145.189C145.166 50.1046 145.242 49.6731 145.411 49.2754C145.58 48.8778 145.838 48.5247 146.164 48.2434C146.972 47.6507 147.96 47.3626 148.957 47.4294C149.792 47.3683 150.623 47.5918 151.317 48.0638C151.572 48.2658 151.777 48.5252 151.914 48.8213C152.051 49.1173 152.118 49.4417 152.108 49.7684Z" fill="#777777"/>
<path d="M185.12 53.0633H178.012V47.6917H186.313V45.2705H174.991V62.727H186.237V60.2829H178.002V55.4635H185.109L185.12 53.0633Z" fill="#777777"/>
<path d="M8.32366 22.6924H11.3232V34.9358C11.3595 35.6729 11.2392 36.4092 10.9704 37.0957C10.7016 37.7821 10.2906 38.4028 9.76465 38.9163C8.64818 39.9347 7.17719 40.4665 5.67299 40.3954C3.86291 40.3954 2.46679 39.9348 1.48464 39.0138C0.979351 38.5183 0.585366 37.9194 0.329262 37.2575C0.073158 36.5956 -0.0391076 35.886 3.88497e-05 35.1766H3.00906C2.9495 35.9396 3.19219 36.6954 3.68405 37.2786C3.95203 37.5235 4.26633 37.7114 4.6081 37.8309C4.94988 37.9505 5.31208 37.9992 5.67299 37.9742C6.03689 37.9955 6.40088 37.9342 6.73819 37.795C7.07551 37.6558 7.37756 37.4421 7.62212 37.1697C8.13663 36.5414 8.39428 35.7392 8.34262 34.9262L8.32366 22.6924Z" fill="white"/>
<path d="M29.8173 31.8822C29.8497 33.43 29.5516 34.9667 28.9432 36.3882C28.4066 37.6106 27.5242 38.6462 26.4063 39.3655C25.2759 40.0633 23.9699 40.4182 22.6446 40.3878C21.3199 40.4133 20.0152 40.0588 18.8828 39.3655C17.7722 38.644 16.8909 37.6158 16.344 36.4035C15.7247 35.0129 15.4165 33.5019 15.4415 31.9778V30.9955C15.4076 29.4451 15.7125 27.9061 16.3346 26.4876C16.8704 25.2633 17.7529 24.2256 18.8715 23.5046C20.0005 22.8068 21.3053 22.4518 22.6294 22.4823C23.9507 22.4559 25.2519 22.8106 26.3798 23.5046C27.4996 24.2111 28.3839 25.2394 28.9186 26.457C29.5381 27.8638 29.8461 29.3897 29.8211 30.9287L29.8173 31.8822ZM26.8064 30.9707C26.8064 29.0311 26.4405 27.5539 25.7105 26.5201C25.3672 26.0234 24.9045 25.6225 24.3656 25.3552C23.8267 25.0878 23.2294 24.9626 22.6294 24.9913C22.0351 24.9687 21.4448 25.0968 20.9124 25.3639C20.38 25.631 19.9227 26.0285 19.5825 26.5201C18.8531 27.5393 18.4809 28.9903 18.4657 30.8732V31.8975C18.4657 33.8084 18.8316 35.299 19.573 36.3424C19.9159 36.8446 20.3787 37.2518 20.9188 37.5264C21.4589 37.8009 22.059 37.9339 22.6635 37.9132C23.2578 37.9358 23.8482 37.8077 24.3806 37.5406C24.9129 37.2735 25.3702 36.876 25.7105 36.3844C26.431 35.3652 26.7912 33.8715 26.7912 31.9032L26.8064 30.9707Z" fill="white"/>
<path d="M43.0857 35.6584C43.1042 35.3186 43.0405 34.9793 42.9001 34.6698C42.7597 34.3602 42.5469 34.0896 42.2799 33.8813C41.3901 33.3055 40.4127 32.8808 39.3865 32.6239C38.2191 32.3024 37.098 31.8296 36.0514 31.2174C34.4701 30.2199 33.6813 28.9166 33.6851 27.3076C33.675 26.6335 33.8246 25.9667 34.1214 25.3625C34.4181 24.7584 34.8536 24.2342 35.3915 23.8335C36.6702 22.8762 38.237 22.3924 39.8283 22.4634C40.9392 22.4426 42.0406 22.6732 43.0516 23.1379C43.9582 23.5503 44.7306 24.2128 45.2794 25.0489C45.8114 25.8647 46.0882 26.8226 46.0738 27.7987H43.0781C43.1002 27.4021 43.0354 27.0054 42.8883 26.6368C42.7412 26.2682 42.5153 25.9368 42.2268 25.6661C41.5425 25.1065 40.6734 24.8287 39.7942 24.8884C38.9808 24.838 38.1739 25.0612 37.4999 25.5228C37.2343 25.7321 37.0223 26.0025 36.8817 26.3114C36.7412 26.6203 36.6762 26.9586 36.6922 27.2981C36.6945 27.6164 36.7757 27.929 36.9284 28.2077C37.081 28.4863 37.3003 28.7221 37.5663 28.8937C38.4649 29.4569 39.4439 29.8777 40.4691 30.1416C41.6092 30.4507 42.7024 30.9142 43.719 31.5193C44.4553 31.9511 45.0732 32.5613 45.5164 33.2946C45.9084 34.009 46.1047 34.8156 46.0852 35.6317C46.1076 36.3042 45.9679 36.9721 45.6779 37.5782C45.388 38.1843 44.9565 38.7104 44.4205 39.1115C43.317 39.9638 41.8179 40.3919 39.9231 40.3957C38.7339 40.4061 37.5553 40.1693 36.4609 39.7001C35.4876 39.2839 34.6429 38.6121 34.015 37.7548C33.4312 36.9163 33.1271 35.9125 33.1466 34.8883H36.1575C36.1355 35.3202 36.2119 35.7514 36.3808 36.1489C36.5497 36.5464 36.8067 36.8996 37.1321 37.1815C37.9415 37.7734 38.9309 38.0614 39.9288 37.9955C40.7624 38.0565 41.5918 37.8308 42.2818 37.3554C42.5384 37.1559 42.7449 36.8983 42.8845 36.6035C43.0242 36.3088 43.0931 35.985 43.0857 35.6584Z" fill="white"/>
<path d="M63.707 40.1546H60.7113V32.3923H52.9697V40.1546H49.9607V22.6924H52.9697V29.9635H60.7113V22.6924H63.707V40.1546Z" fill="white"/>
<path d="M78.7939 37.7296H86.6624V40.1546H75.783V22.6924H78.7939V37.7296Z" fill="white"/>
<path d="M100.121 36.0862H93.4143L92.0131 40.1794H88.8809L95.445 22.6924H98.1506L104.703 40.1546H101.537L100.121 36.0862ZM94.2561 33.6421H99.2768L96.7399 26.4015L94.2561 33.6421Z" fill="white"/>
<path d="M120.827 34.4698C120.751 36.1383 120.02 37.708 118.797 38.8344C117.608 39.8536 116.028 40.3632 114.056 40.3632C112.768 40.3978 111.497 40.0624 110.391 39.3962C109.327 38.7137 108.483 37.7345 107.961 36.5776C107.365 35.2463 107.062 33.8013 107.071 32.341V30.7244C107.039 29.2274 107.333 27.7415 107.932 26.3713C108.458 25.1776 109.324 24.1681 110.42 23.4704C111.55 22.7758 112.853 22.4205 114.176 22.4462C115.861 22.3731 117.512 22.9451 118.797 24.0475C120.016 25.2073 120.743 26.7971 120.827 28.4848H117.831C117.689 27.2254 117.323 26.3254 116.736 25.7731C116.03 25.1711 115.119 24.8696 114.197 24.9323C113.609 24.8981 113.022 25.0134 112.49 25.2675C111.958 25.5216 111.498 25.9064 111.152 26.3865C110.45 27.3433 110.093 28.7536 110.08 30.6174V32.1461C110.08 34.0329 110.419 35.4724 111.095 36.4649C111.417 36.9487 111.858 37.3402 112.375 37.6011C112.892 37.862 113.468 37.9834 114.045 37.9535C114.998 38.0223 115.942 37.7368 116.7 37.1509C117.292 36.6133 117.672 35.7215 117.837 34.4756L120.827 34.4698Z" fill="white"/>
<path d="M138.601 31.8825C138.631 33.431 138.33 34.968 137.717 36.3885C137.182 37.6139 136.296 38.6505 135.173 39.3657C134.044 40.0635 132.74 40.4185 131.417 40.3881C130.092 40.4145 128.787 40.0599 127.655 39.3657C126.542 38.6463 125.661 37.6175 125.116 36.4038C124.495 35.0137 124.187 33.5023 124.213 31.978V30.9958C124.181 29.4461 124.484 27.9079 125.101 26.4879C125.639 25.2645 126.522 24.2273 127.64 23.5049C128.775 22.8257 130.071 22.4673 131.391 22.4673C132.711 22.4673 134.007 22.8257 135.142 23.5049C136.261 24.2125 137.145 25.2405 137.681 26.4573C138.303 27.8571 138.617 29.3761 138.601 30.9098V31.8825ZM135.554 30.971C135.554 29.0314 135.188 27.5542 134.458 26.5204C134.155 26.1144 133.776 25.7726 133.342 25.5145C132.908 25.2563 132.427 25.0869 131.928 25.016C131.429 24.945 130.921 24.9738 130.433 25.1008C129.945 25.2278 129.487 25.4504 129.084 25.756C128.797 25.9733 128.542 26.2307 128.326 26.5204C127.594 27.5396 127.222 28.9906 127.209 30.8735V31.8978C127.209 33.8189 127.576 35.3005 128.311 36.3426C128.652 36.8449 129.114 37.2521 129.653 37.5267C130.193 37.8012 130.792 37.9343 131.396 37.9134C131.99 37.9358 132.58 37.8075 133.112 37.5404C133.644 37.2734 134.101 36.876 134.441 36.3847C135.164 35.3655 135.525 33.8718 135.523 31.9035L135.554 30.971Z" fill="white"/>
<path d="M151.843 35.6585C151.861 35.3186 151.797 34.9793 151.657 34.6698C151.517 34.3602 151.304 34.0896 151.037 33.8813C150.147 33.3056 149.17 32.8808 148.143 32.6239C146.977 32.3024 145.857 31.8296 144.812 31.2174C143.232 30.2199 142.442 28.9167 142.442 27.3077C142.433 26.6337 142.583 25.9672 142.879 25.3632C143.176 24.7592 143.611 24.2349 144.148 23.8336C145.427 22.8761 146.994 22.3922 148.585 22.4634C149.69 22.441 150.785 22.6662 151.793 23.1227C152.699 23.5334 153.47 24.1964 154.015 25.0336C154.557 25.8433 154.844 26.7991 154.838 27.7758H151.843C151.865 27.3783 151.8 26.9808 151.651 26.6117C151.503 26.2427 151.276 25.9113 150.985 25.6413C150.302 25.0834 149.436 24.8057 148.559 24.8636C147.745 24.8142 146.939 25.0373 146.264 25.498C145.998 25.7072 145.786 25.9775 145.645 26.2863C145.504 26.5951 145.438 26.9336 145.453 27.2733C145.455 27.5941 145.538 27.9093 145.692 28.1899C145.846 28.4706 146.068 28.708 146.336 28.8804C147.239 29.4459 148.224 29.8669 149.254 30.1282C150.394 30.4394 151.487 30.9027 152.504 31.506C153.239 31.9376 153.855 32.548 154.296 33.2813C154.679 33.998 154.867 34.8046 154.838 35.6183C154.86 36.2907 154.72 36.9585 154.43 37.5645C154.14 38.1705 153.709 38.6967 153.174 39.0982C152.072 39.9524 150.568 40.3823 148.676 40.3823C147.487 40.3928 146.308 40.156 145.214 39.6867C144.244 39.2735 143.401 38.6065 142.772 37.7548C142.188 36.9163 141.884 35.9125 141.903 34.8884H144.914C144.892 35.3202 144.969 35.7514 145.138 36.1489C145.307 36.5464 145.564 36.8996 145.889 37.1815C146.698 37.7742 147.688 38.0622 148.686 37.9956C149.525 38.0603 150.361 37.8345 151.056 37.3554C151.309 37.1541 151.512 36.8958 151.649 36.6011C151.786 36.3064 151.852 35.9836 151.843 35.6585Z" fill="white"/>
<path d="M171.23 25.1384H165.83V40.1546H162.843V25.1384H157.489V22.6924H171.23V25.1384Z" fill="white"/>
<path d="M184.864 32.3579H177.748V37.7296H186.059V40.1546H174.734V22.6924H185.977V25.1384H177.743V29.9635H184.851L184.864 32.3579Z" fill="white"/>
</g>
<defs>
<clipPath id="clip0">
<rect width="188" height="63" fill="white"/>
</clipPath>
</defs>
</svg>
