<svg width="65" height="26" viewBox="0 0 65 26" fill="none" xmlns="http://www.w3.org/2000/svg">
<path d="M3.76855 9.92188L2.81934 10.8975V14H0.683594V0.5H2.81934V8.28711L3.4873 7.45215L6.11523 4.49023H8.68164L5.14844 8.4541L9.05957 14H6.58984L3.76855 9.92188Z" fill="#33A543"/>
<path d="M15.0625 6.44141C14.7812 6.39453 14.4912 6.37109 14.1924 6.37109C13.2139 6.37109 12.5547 6.74609 12.2148 7.49609V14H10.0791V4.49023H12.1182L12.1709 5.55371C12.6865 4.72754 13.4014 4.31445 14.3154 4.31445C14.6201 4.31445 14.8721 4.35547 15.0713 4.4375L15.0625 6.44141Z" fill="#33A543"/>
<path d="M20.4238 14.1758C19.0703 14.1758 17.9717 13.751 17.1279 12.9014C16.29 12.0459 15.8711 10.9092 15.8711 9.49121V9.22754C15.8711 8.27832 16.0527 7.43164 16.416 6.6875C16.7852 5.9375 17.3008 5.35449 17.9629 4.93848C18.625 4.52246 19.3633 4.31445 20.1777 4.31445C21.4727 4.31445 22.4717 4.72754 23.1748 5.55371C23.8838 6.37988 24.2383 7.54883 24.2383 9.06055V9.92188H18.0244C18.0889 10.707 18.3496 11.3281 18.8066 11.7852C19.2695 12.2422 19.8496 12.4707 20.5469 12.4707C21.5254 12.4707 22.3223 12.0752 22.9375 11.2842L24.0889 12.3828C23.708 12.9512 23.1982 13.3936 22.5596 13.71C21.9268 14.0205 21.2148 14.1758 20.4238 14.1758ZM20.1689 6.02832C19.583 6.02832 19.1084 6.2334 18.7451 6.64355C18.3877 7.05371 18.1592 7.625 18.0596 8.35742H22.1289V8.19922C22.082 7.48438 21.8916 6.94531 21.5576 6.58203C21.2236 6.21289 20.7607 6.02832 20.1689 6.02832Z" fill="#33A543"/>
<path d="M31.5859 14C31.4922 13.8184 31.4102 13.5225 31.3398 13.1123C30.6602 13.8213 29.8281 14.1758 28.8438 14.1758C27.8887 14.1758 27.1094 13.9033 26.5059 13.3584C25.9023 12.8135 25.6006 12.1396 25.6006 11.3369C25.6006 10.3232 25.9756 9.54688 26.7256 9.00781C27.4814 8.46289 28.5596 8.19043 29.96 8.19043H31.2695V7.56641C31.2695 7.07422 31.1318 6.68164 30.8564 6.38867C30.5811 6.08984 30.1621 5.94043 29.5996 5.94043C29.1133 5.94043 28.7148 6.06348 28.4043 6.30957C28.0938 6.5498 27.9385 6.85742 27.9385 7.23242H25.8027C25.8027 6.71094 25.9756 6.22461 26.3213 5.77344C26.667 5.31641 27.1357 4.95898 27.7275 4.70117C28.3252 4.44336 28.9902 4.31445 29.7227 4.31445C30.8359 4.31445 31.7236 4.5957 32.3857 5.1582C33.0479 5.71484 33.3877 6.5 33.4053 7.51367V11.8027C33.4053 12.6582 33.5254 13.3408 33.7656 13.8506V14H31.5859ZM29.2393 12.4619C29.6611 12.4619 30.0566 12.3594 30.4258 12.1543C30.8008 11.9492 31.082 11.6738 31.2695 11.3281V9.53516H30.1182C29.3271 9.53516 28.7324 9.67285 28.334 9.94824C27.9355 10.2236 27.7363 10.6133 27.7363 11.1172C27.7363 11.5273 27.8711 11.8555 28.1406 12.1016C28.416 12.3418 28.7822 12.4619 29.2393 12.4619Z" fill="#33A543"/>
<path d="M38.3184 2.17871V4.49023H39.9971V6.07227H38.3184V11.3809C38.3184 11.7441 38.3887 12.0078 38.5293 12.1719C38.6758 12.3301 38.9336 12.4092 39.3027 12.4092C39.5488 12.4092 39.7979 12.3799 40.0498 12.3213V13.9736C39.5635 14.1084 39.0947 14.1758 38.6436 14.1758C37.0029 14.1758 36.1826 13.2705 36.1826 11.46V6.07227H34.6182V4.49023H36.1826V2.17871H38.3184Z" fill="#33A543"/>
<path d="M43.9082 14H41.7725V4.49023H43.9082V14ZM41.6406 2.02051C41.6406 1.69238 41.7432 1.41992 41.9482 1.20312C42.1592 0.986328 42.458 0.87793 42.8447 0.87793C43.2314 0.87793 43.5303 0.986328 43.7412 1.20312C43.9521 1.41992 44.0576 1.69238 44.0576 2.02051C44.0576 2.34277 43.9521 2.6123 43.7412 2.8291C43.5303 3.04004 43.2314 3.14551 42.8447 3.14551C42.458 3.14551 42.1592 3.04004 41.9482 2.8291C41.7432 2.6123 41.6406 2.34277 41.6406 2.02051Z" fill="#33A543"/>
<path d="M45.8418 9.15723C45.8418 8.22559 46.0264 7.3877 46.3955 6.64355C46.7646 5.89355 47.2832 5.31934 47.9512 4.9209C48.6191 4.5166 49.3867 4.31445 50.2539 4.31445C51.5371 4.31445 52.5771 4.72754 53.374 5.55371C54.1768 6.37988 54.6104 7.47559 54.6748 8.84082L54.6836 9.3418C54.6836 10.2793 54.502 11.1172 54.1387 11.8555C53.7812 12.5938 53.2656 13.165 52.5918 13.5693C51.9238 13.9736 51.1504 14.1758 50.2715 14.1758C48.9297 14.1758 47.8545 13.7305 47.0459 12.8398C46.2432 11.9434 45.8418 10.751 45.8418 9.2627V9.15723ZM47.9775 9.3418C47.9775 10.3203 48.1797 11.0879 48.584 11.6445C48.9883 12.1953 49.5508 12.4707 50.2715 12.4707C50.9922 12.4707 51.5518 12.1895 51.9502 11.627C52.3545 11.0645 52.5566 10.2412 52.5566 9.15723C52.5566 8.19629 52.3486 7.43457 51.9326 6.87207C51.5225 6.30957 50.9629 6.02832 50.2539 6.02832C49.5566 6.02832 49.0029 6.30664 48.5928 6.86328C48.1826 7.41406 47.9775 8.24023 47.9775 9.3418Z" fill="#33A543"/>
<path d="M58.4717 4.49023L58.5332 5.58887C59.2363 4.73926 60.1592 4.31445 61.3018 4.31445C63.2822 4.31445 64.29 5.44824 64.3252 7.71582V14H62.1895V7.83887C62.1895 7.23535 62.0576 6.79004 61.7939 6.50293C61.5361 6.20996 61.1113 6.06348 60.5195 6.06348C59.6582 6.06348 59.0166 6.45312 58.5947 7.23242V14H56.459V4.49023H58.4717Z" fill="#33A543"/>
<path d="M17.4219 21.6748C17.4219 22.3714 17.3047 22.9801 17.0703 23.501C16.8359 24.0186 16.5039 24.4141 16.0742 24.6875C15.6445 24.9609 15.1432 25.0977 14.5703 25.0977C14.0104 25.0977 13.514 24.9609 13.0811 24.6875C12.6481 24.4108 12.3112 24.0186 12.0703 23.5107C11.8327 22.9997 11.7106 22.4089 11.7041 21.7383V21.2256C11.7041 20.542 11.8229 19.9382 12.0605 19.4141C12.2982 18.89 12.6335 18.4896 13.0664 18.2129C13.5026 17.9329 14.0007 17.793 14.5605 17.793C15.1302 17.793 15.6315 17.9313 16.0645 18.208C16.5007 18.4814 16.8359 18.8802 17.0703 19.4043C17.3047 19.9251 17.4219 20.5322 17.4219 21.2256V21.6748ZM16.4893 21.2158C16.4893 20.3727 16.32 19.7266 15.9814 19.2773C15.6429 18.8249 15.1693 18.5986 14.5605 18.5986C13.9681 18.5986 13.501 18.8249 13.1592 19.2773C12.8206 19.7266 12.6465 20.3516 12.6367 21.1523V21.6748C12.6367 22.4919 12.8076 23.1348 13.1494 23.6035C13.4945 24.069 13.9681 24.3018 14.5703 24.3018C15.1758 24.3018 15.6445 24.082 15.9766 23.6426C16.3086 23.1999 16.4795 22.5667 16.4893 21.7432V21.2158Z" fill="#E4E4E4"/>
<path d="M21.4355 22.124H19.7656V25H18.8232V17.8906H21.1768C21.9775 17.8906 22.5928 18.0729 23.0225 18.4375C23.4554 18.8021 23.6719 19.3327 23.6719 20.0293C23.6719 20.472 23.5514 20.8577 23.3105 21.1865C23.0729 21.5153 22.7409 21.7611 22.3145 21.9238L23.9844 24.9414V25H22.9785L21.4355 22.124ZM19.7656 21.3574H21.2061C21.6715 21.3574 22.041 21.237 22.3145 20.9961C22.5911 20.7552 22.7295 20.4329 22.7295 20.0293C22.7295 19.5898 22.5977 19.2529 22.334 19.0186C22.0736 18.7842 21.696 18.6654 21.2012 18.6621H19.7656V21.3574Z" fill="#E4E4E4"/>
<path d="M30.2393 24.0674C29.9984 24.4124 29.6615 24.6712 29.2285 24.8438C28.7988 25.013 28.2975 25.0977 27.7246 25.0977C27.1452 25.0977 26.6309 24.9626 26.1816 24.6924C25.7324 24.4189 25.3841 24.0316 25.1367 23.5303C24.8926 23.029 24.7673 22.4479 24.7607 21.7871V21.167C24.7607 20.096 25.0098 19.266 25.5078 18.6768C26.0091 18.0876 26.7122 17.793 27.6172 17.793C28.3594 17.793 28.9567 17.9834 29.4092 18.3643C29.8617 18.7419 30.1383 19.279 30.2393 19.9756H29.3018C29.126 19.0348 28.5661 18.5645 27.6221 18.5645C26.9938 18.5645 26.5169 18.7858 26.1914 19.2285C25.8691 19.668 25.7064 20.306 25.7031 21.1426V21.7236C25.7031 22.5212 25.8854 23.1559 26.25 23.6279C26.6146 24.0967 27.1077 24.3311 27.7295 24.3311C28.0811 24.3311 28.3887 24.292 28.6523 24.2139C28.916 24.1357 29.1341 24.0039 29.3066 23.8184V22.2217H27.6611V21.46H30.2393V24.0674Z" fill="#E4E4E4"/>
<path d="M35.7324 23.1445H32.7539L32.085 25H31.1182L33.833 17.8906H34.6533L37.373 25H36.4111L35.7324 23.1445ZM33.0371 22.373H35.4541L34.2432 19.0479L33.0371 22.373Z" fill="#E4E4E4"/>
<path d="M43.7939 25H42.8516L39.2725 19.5215V25H38.3301V17.8906H39.2725L42.8613 23.3936V17.8906H43.7939V25Z" fill="#E4E4E4"/>
<path d="M46.4648 25H45.5273V17.8906H46.4648V25Z" fill="#E4E4E4"/>
<path d="M53.4131 22.7441C53.3252 23.4961 53.0469 24.0771 52.5781 24.4873C52.1126 24.8942 51.4925 25.0977 50.7178 25.0977C49.8779 25.0977 49.2041 24.7965 48.6963 24.1943C48.1917 23.5921 47.9395 22.7865 47.9395 21.7773V21.0938C47.9395 20.4329 48.0566 19.8519 48.291 19.3506C48.5286 18.8493 48.8639 18.4652 49.2969 18.1982C49.7298 17.9281 50.2311 17.793 50.8008 17.793C51.556 17.793 52.1615 18.0046 52.6172 18.4277C53.0729 18.8477 53.3382 19.4303 53.4131 20.1758H52.4707C52.3893 19.6094 52.2119 19.1992 51.9385 18.9453C51.6683 18.6914 51.2891 18.5645 50.8008 18.5645C50.2018 18.5645 49.7314 18.7858 49.3896 19.2285C49.0511 19.6712 48.8818 20.3011 48.8818 21.1182V21.8066C48.8818 22.5781 49.043 23.1917 49.3652 23.6475C49.6875 24.1032 50.1383 24.3311 50.7178 24.3311C51.2386 24.3311 51.6374 24.2139 51.9141 23.9795C52.194 23.7419 52.3796 23.3301 52.4707 22.7441H53.4131Z" fill="#E4E4E4"/>
</svg>
