<svg width="64" height="22" viewBox="0 0 64 22" fill="none" xmlns="http://www.w3.org/2000/svg">
<path d="M3.08496 9.42188L2.13574 10.3975V13.5H0V0H2.13574V7.78711L2.80371 6.95215L5.43164 3.99023H7.99805L4.46484 7.9541L8.37598 13.5H5.90625L3.08496 9.42188Z" fill="#313131"/>
<path d="M14.3789 5.94141C14.0977 5.89453 13.8076 5.87109 13.5088 5.87109C12.5303 5.87109 11.8711 6.24609 11.5312 6.99609V13.5H9.39551V3.99023H11.4346L11.4873 5.05371C12.0029 4.22754 12.7178 3.81445 13.6318 3.81445C13.9365 3.81445 14.1885 3.85547 14.3877 3.9375L14.3789 5.94141Z" fill="#313131"/>
<path d="M19.7402 13.6758C18.3867 13.6758 17.2881 13.251 16.4443 12.4014C15.6064 11.5459 15.1875 10.4092 15.1875 8.99121V8.72754C15.1875 7.77832 15.3691 6.93164 15.7324 6.1875C16.1016 5.4375 16.6172 4.85449 17.2793 4.43848C17.9414 4.02246 18.6797 3.81445 19.4941 3.81445C20.7891 3.81445 21.7881 4.22754 22.4912 5.05371C23.2002 5.87988 23.5547 7.04883 23.5547 8.56055V9.42188H17.3408C17.4053 10.207 17.666 10.8281 18.123 11.2852C18.5859 11.7422 19.166 11.9707 19.8633 11.9707C20.8418 11.9707 21.6387 11.5752 22.2539 10.7842L23.4053 11.8828C23.0244 12.4512 22.5146 12.8936 21.876 13.21C21.2432 13.5205 20.5312 13.6758 19.7402 13.6758ZM19.4854 5.52832C18.8994 5.52832 18.4248 5.7334 18.0615 6.14355C17.7041 6.55371 17.4756 7.125 17.376 7.85742H21.4453V7.69922C21.3984 6.98438 21.208 6.44531 20.874 6.08203C20.54 5.71289 20.0771 5.52832 19.4854 5.52832Z" fill="#313131"/>
<path d="M30.9023 13.5C30.8086 13.3184 30.7266 13.0225 30.6562 12.6123C29.9766 13.3213 29.1445 13.6758 28.1602 13.6758C27.2051 13.6758 26.4258 13.4033 25.8223 12.8584C25.2188 12.3135 24.917 11.6396 24.917 10.8369C24.917 9.82324 25.292 9.04688 26.042 8.50781C26.7979 7.96289 27.876 7.69043 29.2764 7.69043H30.5859V7.06641C30.5859 6.57422 30.4482 6.18164 30.1729 5.88867C29.8975 5.58984 29.4785 5.44043 28.916 5.44043C28.4297 5.44043 28.0312 5.56348 27.7207 5.80957C27.4102 6.0498 27.2549 6.35742 27.2549 6.73242H25.1191C25.1191 6.21094 25.292 5.72461 25.6377 5.27344C25.9834 4.81641 26.4521 4.45898 27.0439 4.20117C27.6416 3.94336 28.3066 3.81445 29.0391 3.81445C30.1523 3.81445 31.04 4.0957 31.7021 4.6582C32.3643 5.21484 32.7041 6 32.7217 7.01367V11.3027C32.7217 12.1582 32.8418 12.8408 33.082 13.3506V13.5H30.9023ZM28.5557 11.9619C28.9775 11.9619 29.373 11.8594 29.7422 11.6543C30.1172 11.4492 30.3984 11.1738 30.5859 10.8281V9.03516H29.4346C28.6436 9.03516 28.0488 9.17285 27.6504 9.44824C27.252 9.72363 27.0527 10.1133 27.0527 10.6172C27.0527 11.0273 27.1875 11.3555 27.457 11.6016C27.7324 11.8418 28.0986 11.9619 28.5557 11.9619Z" fill="#313131"/>
<path d="M37.6348 1.67871V3.99023H39.3135V5.57227H37.6348V10.8809C37.6348 11.2441 37.7051 11.5078 37.8457 11.6719C37.9922 11.8301 38.25 11.9092 38.6191 11.9092C38.8652 11.9092 39.1143 11.8799 39.3662 11.8213V13.4736C38.8799 13.6084 38.4111 13.6758 37.96 13.6758C36.3193 13.6758 35.499 12.7705 35.499 10.96V5.57227H33.9346V3.99023H35.499V1.67871H37.6348Z" fill="#313131"/>
<path d="M43.2246 13.5H41.0889V3.99023H43.2246V13.5ZM40.957 1.52051C40.957 1.19238 41.0596 0.919922 41.2646 0.703125C41.4756 0.486328 41.7744 0.37793 42.1611 0.37793C42.5479 0.37793 42.8467 0.486328 43.0576 0.703125C43.2686 0.919922 43.374 1.19238 43.374 1.52051C43.374 1.84277 43.2686 2.1123 43.0576 2.3291C42.8467 2.54004 42.5479 2.64551 42.1611 2.64551C41.7744 2.64551 41.4756 2.54004 41.2646 2.3291C41.0596 2.1123 40.957 1.84277 40.957 1.52051Z" fill="#313131"/>
<path d="M45.1582 8.65723C45.1582 7.72559 45.3428 6.8877 45.7119 6.14355C46.0811 5.39355 46.5996 4.81934 47.2676 4.4209C47.9355 4.0166 48.7031 3.81445 49.5703 3.81445C50.8535 3.81445 51.8936 4.22754 52.6904 5.05371C53.4932 5.87988 53.9268 6.97559 53.9912 8.34082L54 8.8418C54 9.7793 53.8184 10.6172 53.4551 11.3555C53.0977 12.0938 52.582 12.665 51.9082 13.0693C51.2402 13.4736 50.4668 13.6758 49.5879 13.6758C48.2461 13.6758 47.1709 13.2305 46.3623 12.3398C45.5596 11.4434 45.1582 10.251 45.1582 8.7627V8.65723ZM47.2939 8.8418C47.2939 9.82031 47.4961 10.5879 47.9004 11.1445C48.3047 11.6953 48.8672 11.9707 49.5879 11.9707C50.3086 11.9707 50.8682 11.6895 51.2666 11.127C51.6709 10.5645 51.873 9.74121 51.873 8.65723C51.873 7.69629 51.665 6.93457 51.249 6.37207C50.8389 5.80957 50.2793 5.52832 49.5703 5.52832C48.873 5.52832 48.3193 5.80664 47.9092 6.36328C47.499 6.91406 47.2939 7.74023 47.2939 8.8418Z" fill="#313131"/>
<path d="M57.7881 3.99023L57.8496 5.08887C58.5527 4.23926 59.4756 3.81445 60.6182 3.81445C62.5986 3.81445 63.6064 4.94824 63.6416 7.21582V13.5H61.5059V7.33887C61.5059 6.73535 61.374 6.29004 61.1104 6.00293C60.8525 5.70996 60.4277 5.56348 59.8359 5.56348C58.9746 5.56348 58.333 5.95312 57.9111 6.73242V13.5H55.7754V3.99023H57.7881Z" fill="#313131"/>
<path d="M21.8384 19.6571C21.8384 20.1339 21.7598 20.5506 21.6024 20.9071C21.4451 21.2614 21.2222 21.5321 20.9337 21.7193C20.6453 21.9064 20.3087 22 19.9241 22C19.5483 22 19.215 21.9064 18.9244 21.7193C18.6337 21.5299 18.4076 21.2614 18.2458 20.9138C18.0863 20.5639 18.0044 20.1595 18 19.7005V19.3496C18 18.8817 18.0798 18.4684 18.2393 18.1096C18.3988 17.7509 18.6239 17.4768 18.9145 17.2874C19.2074 17.0958 19.5417 17 19.9176 17C20.3 17 20.6365 17.0947 20.9272 17.2841C21.22 17.4713 21.4451 17.7442 21.6024 18.1029C21.7598 18.4594 21.8384 18.875 21.8384 19.3496V19.6571ZM21.2124 19.3429C21.2124 18.7658 21.0987 18.3235 20.8715 18.016C20.6442 17.7063 20.3262 17.5515 19.9176 17.5515C19.5199 17.5515 19.2063 17.7063 18.9768 18.016C18.7496 18.3235 18.6326 18.7513 18.6261 19.2995V19.6571C18.6261 20.2164 18.7408 20.6564 18.9703 20.9773C19.2019 21.2959 19.5199 21.4552 19.9241 21.4552C20.3306 21.4552 20.6453 21.3048 20.8682 21.004C21.0911 20.701 21.2058 20.2676 21.2124 19.7039V19.3429Z" fill="#646464"/>
<path d="M24.5329 19.9646H23.4118V21.9332H22.7792V17.0668H24.3592C24.8967 17.0668 25.3098 17.1916 25.5982 17.4412C25.8889 17.6907 26.0342 18.0539 26.0342 18.5307C26.0342 18.8338 25.9533 19.0978 25.7916 19.3229C25.6321 19.5479 25.4092 19.7161 25.1229 19.8275L26.244 21.893V21.9332H25.5687L24.5329 19.9646ZM23.4118 19.4398H24.3788C24.6913 19.4398 24.9394 19.3574 25.1229 19.1925C25.3087 19.0276 25.4015 18.807 25.4015 18.5307C25.4015 18.2299 25.313 17.9993 25.136 17.8389C24.9612 17.6785 24.7077 17.5971 24.3756 17.5949H23.4118V19.4398Z" fill="#646464"/>
<path d="M30.443 21.2948C30.2813 21.531 30.0551 21.7081 29.7645 21.8262C29.476 21.9421 29.1395 22 28.7549 22C28.3659 22 28.0206 21.9075 27.719 21.7226C27.4175 21.5354 27.1836 21.2703 27.0176 20.9271C26.8537 20.584 26.7695 20.1863 26.7652 19.734V19.3095C26.7652 18.5764 26.9323 18.0082 27.2667 17.6049C27.6032 17.2016 28.0752 17 28.6827 17C29.181 17 29.582 17.1303 29.8857 17.391C30.1895 17.6495 30.3752 18.0172 30.443 18.494H29.8136C29.6956 17.85 29.3198 17.5281 28.686 17.5281C28.2643 17.5281 27.9441 17.6796 27.7256 17.9826C27.5092 18.2834 27.4 18.7201 27.3978 19.2928V19.6905C27.3978 20.2364 27.5202 20.6709 27.7649 20.994C28.0097 21.3148 28.3407 21.4753 28.7581 21.4753C28.9941 21.4753 29.2007 21.4485 29.3777 21.3951C29.5547 21.3416 29.7011 21.2513 29.8169 21.1243V20.0314H28.7122V19.51H30.443V21.2948Z" fill="#646464"/>
<path d="M34.1306 20.6631H32.1311L31.682 21.9332H31.033L32.8555 17.0668H33.4062L35.232 21.9332H34.5863L34.1306 20.6631ZM32.3212 20.135H33.9438L33.1309 17.859L32.3212 20.135Z" fill="#646464"/>
<path d="M39.5425 21.9332H38.9099L36.5071 18.1832V21.9332H35.8745V17.0668H36.5071L38.9164 20.8336V17.0668H39.5425V21.9332Z" fill="#646464"/>
<path d="M41.3355 21.9332H40.7062V17.0668H41.3355V21.9332Z" fill="#646464"/>
<path d="M46 20.389C45.941 20.9037 45.7542 21.3015 45.4395 21.5822C45.127 21.8607 44.7107 22 44.1906 22C43.6268 22 43.1744 21.7939 42.8335 21.3817C42.4948 20.9695 42.3255 20.418 42.3255 19.7273V19.2594C42.3255 18.807 42.4041 18.4093 42.5615 18.0662C42.721 17.723 42.9461 17.4601 43.2367 17.2774C43.5274 17.0925 43.8639 17 44.2463 17C44.7533 17 45.1598 17.1448 45.4657 17.4345C45.7716 17.7219 45.9497 18.1208 46 18.631H45.3674C45.3127 18.2433 45.1936 17.9626 45.0101 17.7888C44.8287 17.615 44.5741 17.5281 44.2463 17.5281C43.8442 17.5281 43.5284 17.6796 43.299 17.9826C43.0717 18.2857 42.9581 18.7168 42.9581 19.2761V19.7473C42.9581 20.2754 43.0663 20.6954 43.2826 21.0074C43.4989 21.3193 43.8016 21.4753 44.1906 21.4753C44.5402 21.4753 44.8079 21.3951 44.9937 21.2346C45.1816 21.072 45.3062 20.7901 45.3674 20.389H46Z" fill="#646464"/>
</svg>
