<svg width="64" height="21" viewBox="0 0 64 21" fill="none" xmlns="http://www.w3.org/2000/svg">
<path d="M3.08496 9.42188L2.13574 10.3975V13.5H0V0H2.13574V7.78711L2.80371 6.95215L5.43164 3.99023H7.99805L4.46484 7.9541L8.37598 13.5H5.90625L3.08496 9.42188Z" fill="white"/>
<path d="M14.3789 5.94141C14.0977 5.89453 13.8076 5.87109 13.5088 5.87109C12.5303 5.87109 11.8711 6.24609 11.5312 6.99609V13.5H9.39551V3.99023H11.4346L11.4873 5.05371C12.0029 4.22754 12.7178 3.81445 13.6318 3.81445C13.9365 3.81445 14.1885 3.85547 14.3877 3.9375L14.3789 5.94141Z" fill="white"/>
<path d="M19.7402 13.6758C18.3867 13.6758 17.2881 13.251 16.4443 12.4014C15.6064 11.5459 15.1875 10.4092 15.1875 8.99121V8.72754C15.1875 7.77832 15.3691 6.93164 15.7324 6.1875C16.1016 5.4375 16.6172 4.85449 17.2793 4.43848C17.9414 4.02246 18.6797 3.81445 19.4941 3.81445C20.7891 3.81445 21.7881 4.22754 22.4912 5.05371C23.2002 5.87988 23.5547 7.04883 23.5547 8.56055V9.42188H17.3408C17.4053 10.207 17.666 10.8281 18.123 11.2852C18.5859 11.7422 19.166 11.9707 19.8633 11.9707C20.8418 11.9707 21.6387 11.5752 22.2539 10.7842L23.4053 11.8828C23.0244 12.4512 22.5146 12.8936 21.876 13.21C21.2432 13.5205 20.5312 13.6758 19.7402 13.6758ZM19.4854 5.52832C18.8994 5.52832 18.4248 5.7334 18.0615 6.14355C17.7041 6.55371 17.4756 7.125 17.376 7.85742H21.4453V7.69922C21.3984 6.98438 21.208 6.44531 20.874 6.08203C20.54 5.71289 20.0771 5.52832 19.4854 5.52832Z" fill="white"/>
<path d="M30.9023 13.5C30.8086 13.3184 30.7266 13.0225 30.6562 12.6123C29.9766 13.3213 29.1445 13.6758 28.1602 13.6758C27.2051 13.6758 26.4258 13.4033 25.8223 12.8584C25.2188 12.3135 24.917 11.6396 24.917 10.8369C24.917 9.82324 25.292 9.04688 26.042 8.50781C26.7979 7.96289 27.876 7.69043 29.2764 7.69043H30.5859V7.06641C30.5859 6.57422 30.4482 6.18164 30.1729 5.88867C29.8975 5.58984 29.4785 5.44043 28.916 5.44043C28.4297 5.44043 28.0312 5.56348 27.7207 5.80957C27.4102 6.0498 27.2549 6.35742 27.2549 6.73242H25.1191C25.1191 6.21094 25.292 5.72461 25.6377 5.27344C25.9834 4.81641 26.4521 4.45898 27.0439 4.20117C27.6416 3.94336 28.3066 3.81445 29.0391 3.81445C30.1523 3.81445 31.04 4.0957 31.7021 4.6582C32.3643 5.21484 32.7041 6 32.7217 7.01367V11.3027C32.7217 12.1582 32.8418 12.8408 33.082 13.3506V13.5H30.9023ZM28.5557 11.9619C28.9775 11.9619 29.373 11.8594 29.7422 11.6543C30.1172 11.4492 30.3984 11.1738 30.5859 10.8281V9.03516H29.4346C28.6436 9.03516 28.0488 9.17285 27.6504 9.44824C27.252 9.72363 27.0527 10.1133 27.0527 10.6172C27.0527 11.0273 27.1875 11.3555 27.457 11.6016C27.7324 11.8418 28.0986 11.9619 28.5557 11.9619Z" fill="white"/>
<path d="M37.6348 1.67871V3.99023H39.3135V5.57227H37.6348V10.8809C37.6348 11.2441 37.7051 11.5078 37.8457 11.6719C37.9922 11.8301 38.25 11.9092 38.6191 11.9092C38.8652 11.9092 39.1143 11.8799 39.3662 11.8213V13.4736C38.8799 13.6084 38.4111 13.6758 37.96 13.6758C36.3193 13.6758 35.499 12.7705 35.499 10.96V5.57227H33.9346V3.99023H35.499V1.67871H37.6348Z" fill="white"/>
<path d="M43.2246 13.5H41.0889V3.99023H43.2246V13.5ZM40.957 1.52051C40.957 1.19238 41.0596 0.919922 41.2646 0.703125C41.4756 0.486328 41.7744 0.37793 42.1611 0.37793C42.5479 0.37793 42.8467 0.486328 43.0576 0.703125C43.2686 0.919922 43.374 1.19238 43.374 1.52051C43.374 1.84277 43.2686 2.1123 43.0576 2.3291C42.8467 2.54004 42.5479 2.64551 42.1611 2.64551C41.7744 2.64551 41.4756 2.54004 41.2646 2.3291C41.0596 2.1123 40.957 1.84277 40.957 1.52051Z" fill="white"/>
<path d="M45.1582 8.65723C45.1582 7.72559 45.3428 6.8877 45.7119 6.14355C46.0811 5.39355 46.5996 4.81934 47.2676 4.4209C47.9355 4.0166 48.7031 3.81445 49.5703 3.81445C50.8535 3.81445 51.8936 4.22754 52.6904 5.05371C53.4932 5.87988 53.9268 6.97559 53.9912 8.34082L54 8.8418C54 9.7793 53.8184 10.6172 53.4551 11.3555C53.0977 12.0938 52.582 12.665 51.9082 13.0693C51.2402 13.4736 50.4668 13.6758 49.5879 13.6758C48.2461 13.6758 47.1709 13.2305 46.3623 12.3398C45.5596 11.4434 45.1582 10.251 45.1582 8.7627V8.65723ZM47.2939 8.8418C47.2939 9.82031 47.4961 10.5879 47.9004 11.1445C48.3047 11.6953 48.8672 11.9707 49.5879 11.9707C50.3086 11.9707 50.8682 11.6895 51.2666 11.127C51.6709 10.5645 51.873 9.74121 51.873 8.65723C51.873 7.69629 51.665 6.93457 51.249 6.37207C50.8389 5.80957 50.2793 5.52832 49.5703 5.52832C48.873 5.52832 48.3193 5.80664 47.9092 6.36328C47.499 6.91406 47.2939 7.74023 47.2939 8.8418Z" fill="white"/>
<path d="M57.7881 3.99023L57.8496 5.08887C58.5527 4.23926 59.4756 3.81445 60.6182 3.81445C62.5986 3.81445 63.6064 4.94824 63.6416 7.21582V13.5H61.5059V7.33887C61.5059 6.73535 61.374 6.29004 61.1104 6.00293C60.8525 5.70996 60.4277 5.56348 59.8359 5.56348C58.9746 5.56348 58.333 5.95312 57.9111 6.73242V13.5H55.7754V3.99023H57.7881Z" fill="white"/>
<path d="M3.83845 18.6571C3.83845 19.1339 3.75978 19.5506 3.60243 19.9071C3.44509 20.2614 3.2222 20.5321 2.93374 20.7193C2.64528 20.9064 2.30875 21 1.92414 21C1.54827 21 1.21502 20.9064 0.924374 20.7193C0.633731 20.5299 0.407555 20.2614 0.245844 19.9138C0.0863186 19.5639 0.00437056 19.1595 0 18.7005V18.3496C0 17.8817 0.0797627 17.4684 0.239288 17.1096C0.398814 16.7509 0.623898 16.4768 0.91454 16.2874C1.20737 16.0958 1.54172 16 1.91758 16C2.30001 16 2.63654 16.0947 2.92718 16.2841C3.22001 16.4713 3.44509 16.7442 3.60243 17.1029C3.75978 17.4594 3.83845 17.875 3.83845 18.3496V18.6571ZM3.21236 18.3429C3.21236 17.7658 3.09873 17.3235 2.87146 17.016C2.64419 16.7063 2.32623 16.5515 1.91758 16.5515C1.51986 16.5515 1.20627 16.7063 0.97682 17.016C0.749551 17.3235 0.632639 17.7513 0.626083 18.2995V18.6571C0.626083 19.2164 0.74081 19.6564 0.970265 19.9773C1.2019 20.2959 1.51986 20.4552 1.92414 20.4552C2.3306 20.4552 2.64528 20.3048 2.86818 20.004C3.09108 19.701 3.20581 19.2676 3.21236 18.7039V18.3429Z" fill="#D9D9D9"/>
<path d="M6.5329 18.9646H5.41185V20.9332H4.77921V16.0668H6.35917C6.89675 16.0668 7.30976 16.1916 7.59822 16.4412C7.88886 16.6907 8.03418 17.0539 8.03418 17.5307C8.03418 17.8338 7.95333 18.0978 7.79162 18.3229C7.63209 18.5479 7.40919 18.7161 7.12292 18.8275L8.24397 20.893V20.9332H7.56872L6.5329 18.9646ZM5.41185 18.4398H6.37883C6.69133 18.4398 6.93936 18.3574 7.12292 18.1925C7.30867 18.0276 7.40155 17.807 7.40155 17.5307C7.40155 17.2299 7.31304 16.9993 7.13603 16.8389C6.96121 16.6785 6.70772 16.5971 6.37556 16.5949H5.41185V18.4398Z" fill="#D9D9D9"/>
<path d="M12.443 20.2948C12.2813 20.531 12.0551 20.7081 11.7645 20.8262C11.476 20.9421 11.1395 21 10.7549 21C10.3659 21 10.0206 20.9075 9.71904 20.7226C9.41747 20.5354 9.18364 20.2703 9.01756 19.9271C8.85366 19.584 8.76953 19.1863 8.76516 18.734V18.3095C8.76516 17.5764 8.93233 17.0082 9.26668 16.6049C9.60322 16.2016 10.0752 16 10.6827 16C11.181 16 11.582 16.1303 11.8857 16.391C12.1895 16.6495 12.3752 17.0172 12.443 17.494H11.8136C11.6956 16.85 11.3198 16.5281 10.686 16.5281C10.2643 16.5281 9.94412 16.6796 9.72559 16.9826C9.50925 17.2834 9.39998 17.7201 9.3978 18.2928V18.6905C9.3978 19.2364 9.52017 19.6709 9.76493 19.994C10.0097 20.3148 10.3407 20.4753 10.7581 20.4753C10.9941 20.4753 11.2007 20.4485 11.3777 20.3951C11.5547 20.3416 11.7011 20.2513 11.8169 20.1243V19.0314H10.7122V18.51H12.443V20.2948Z" fill="#D9D9D9"/>
<path d="M16.1306 19.6631H14.1311L13.682 20.9332H13.033L14.8555 16.0668H15.4062L17.232 20.9332H16.5863L16.1306 19.6631ZM14.3212 19.135H15.9438L15.1309 16.859L14.3212 19.135Z" fill="#D9D9D9"/>
<path d="M21.5425 20.9332H20.9099L18.5071 17.1832V20.9332H17.8745V16.0668H18.5071L20.9164 19.8336V16.0668H21.5425V20.9332Z" fill="#D9D9D9"/>
<path d="M23.3355 20.9332H22.7062V16.0668H23.3355V20.9332Z" fill="#D9D9D9"/>
<path d="M28 19.389C27.941 19.9037 27.7542 20.3015 27.4395 20.5822C27.127 20.8607 26.7107 21 26.1906 21C25.6268 21 25.1744 20.7939 24.8335 20.3817C24.4948 19.9695 24.3255 19.418 24.3255 18.7273V18.2594C24.3255 17.807 24.4041 17.4093 24.5615 17.0662C24.721 16.723 24.9461 16.4601 25.2367 16.2774C25.5274 16.0925 25.8639 16 26.2463 16C26.7533 16 27.1598 16.1448 27.4657 16.4345C27.7716 16.7219 27.9497 17.1208 28 17.631H27.3674C27.3127 17.2433 27.1936 16.9626 27.0101 16.7888C26.8287 16.615 26.5741 16.5281 26.2463 16.5281C25.8442 16.5281 25.5284 16.6796 25.299 16.9826C25.0717 17.2857 24.9581 17.7168 24.9581 18.2761V18.7473C24.9581 19.2754 25.0663 19.6954 25.2826 20.0074C25.4989 20.3193 25.8016 20.4753 26.1906 20.4753C26.5402 20.4753 26.8079 20.3951 26.9937 20.2346C27.1816 20.072 27.3062 19.7901 27.3674 19.389H28Z" fill="#D9D9D9"/>
</svg>
