<svg width="1000" height="331" viewBox="0 0 1000 331" fill="none" xmlns="http://www.w3.org/2000/svg">
<path d="M955.701 93.0161H939.715V28.6907C939.525 24.8187 940.166 20.9507 941.596 17.3446C943.025 13.7385 945.21 10.4771 948.005 7.77758C953.965 2.42986 961.808 -0.353228 969.823 0.0359502C979.435 0.0359502 986.861 2.45521 992.099 7.29373C994.781 9.89897 996.871 13.0469 998.226 16.5248C999.582 20.0028 1000.17 23.7298 999.957 27.4542H983.999C984.294 23.4418 982.994 19.4745 980.38 16.4063C978.956 15.1242 977.288 14.1399 975.474 13.5119C973.66 12.884 971.739 12.625 969.823 12.7505C967.907 12.6684 965.996 13.0034 964.224 13.7324C962.452 14.4613 960.861 15.5665 959.562 16.9708C956.838 20.2852 955.46 24.4955 955.701 28.7714V93.0161Z" fill="#DCDCDC"/>
<path d="M841.401 44.7655C841.225 36.6286 842.819 28.5501 846.072 21.0837C848.915 14.6586 853.615 9.22166 859.573 5.46601C865.617 1.91737 872.504 0.0412264 879.521 0.0317742C886.537 0.022322 893.429 1.87991 899.482 5.41225C905.395 9.18504 910.084 14.5813 912.983 20.9493C916.262 28.2607 917.902 36.195 917.79 44.201V49.3621C917.949 57.5144 916.328 65.6039 913.037 73.0709C910.178 79.4993 905.483 84.949 899.536 88.7423C893.49 92.3043 886.594 94.1835 879.568 94.1835C872.543 94.1835 865.646 92.3043 859.6 88.7423C853.642 85.034 848.939 79.6309 846.099 73.2321C842.79 65.8454 841.149 57.8255 841.293 49.7384L841.401 44.7655ZM857.413 49.5503C857.413 59.7112 859.33 67.5066 863.219 72.9365C865.123 75.4576 867.59 77.5033 870.426 78.9122C873.261 80.321 876.386 81.0544 879.555 81.0544C882.724 81.0544 885.849 80.321 888.684 78.9122C891.519 77.5033 893.986 75.4576 895.891 72.9365C899.752 67.5603 901.751 59.9262 901.832 50.061V44.6849C901.886 34.6315 899.923 26.9168 895.945 21.5406C894.124 18.898 891.662 16.7561 888.787 15.3134C885.912 13.8708 882.718 13.1742 879.501 13.2883C876.313 13.1366 873.14 13.7977 870.281 15.2089C867.422 16.6202 864.973 18.7348 863.165 21.3525C859.33 26.7286 857.413 34.5778 857.413 44.8999V49.5503Z" fill="#DCDCDC"/>
<path d="M661.108 1.2998H677.039V42.0509H718.298V1.2998H734.31V93.0166H718.298V54.8461H677.039V93.0166H661.108V1.2998Z" fill="#DCDCDC"/>
<path d="M580.857 14.0144H539.031V1.2998H596.789V93.0166H580.857V14.0144Z" fill="#DCDCDC"/>
<path d="M467.423 22.643H503.119L510.599 1.2998H527.232L492.426 93.0166H477.98L443.202 1.2998H459.889L467.423 22.643ZM498.637 35.5189H471.932L485.271 73.555L498.637 35.5189Z" fill="#DCDCDC"/>
<path d="M357.281 31.1642C357.708 22.4035 361.589 14.1641 368.082 8.23504C374.436 2.85891 382.861 0.17084 393.356 0.17084C400.186 0.0391842 406.915 1.82803 412.77 5.33192C418.427 8.91472 422.913 14.0618 425.677 20.1432C428.853 27.1254 430.474 34.7089 430.429 42.3735V50.9484C430.591 58.8181 429.015 66.6271 425.812 73.8238C423.012 80.0948 418.408 85.3988 412.581 89.0652C406.56 92.7129 399.62 94.5777 392.572 94.4413C383.648 94.8082 374.913 91.8136 368.109 86.0545C361.63 79.9587 357.762 71.6115 357.308 62.749H373.266C374.022 69.3258 375.966 74.0747 379.098 76.9957C383.513 80.3715 389.066 81.9204 394.6 81.3195C400.134 80.7185 405.221 78.014 408.801 73.7701C412.5 68.7434 414.417 61.3243 414.498 51.5398V43.4756C414.498 33.5835 412.716 26.0031 409.098 20.8152C407.381 18.2768 405.034 16.2229 402.286 14.8524C399.537 13.482 396.48 12.8415 393.409 12.9929C388.322 12.6062 383.272 14.1098 379.233 17.2132C376.047 20.0446 374.04 24.7308 373.212 31.2718L357.281 31.1642Z" fill="#DCDCDC"/>
<path d="M262.908 44.7638C262.741 36.6277 264.334 28.5511 267.579 21.082C270.43 14.6621 275.128 9.22738 281.08 5.4643C287.138 1.90856 294.043 0.0332031 301.075 0.0332031C308.108 0.0332031 315.012 1.90856 321.07 5.4643C326.983 9.23708 331.672 14.6333 334.571 21.0013C337.862 28.3088 339.503 36.2459 339.378 44.2531V49.4142C339.537 57.5665 337.916 65.6559 334.625 73.1229C331.774 79.5565 327.077 85.0083 321.124 88.7943C315.078 92.3563 308.182 94.2356 301.156 94.2356C294.131 94.2356 287.234 92.3563 281.188 88.7943C275.23 85.0861 270.527 79.6829 267.687 73.2842C264.377 65.8974 262.737 57.8775 262.881 49.7905L262.908 44.7638ZM278.92 49.5486C278.92 59.7095 280.855 67.5048 284.725 72.9347C286.63 75.4558 289.097 77.5016 291.932 78.9105C294.768 80.3193 297.893 81.0527 301.062 81.0527C304.23 81.0527 307.356 80.3193 310.191 78.9105C313.026 77.5016 315.493 75.4558 317.398 72.9347C321.286 67.5586 323.266 59.9335 323.338 50.0593V44.6832C323.338 34.6119 321.376 26.8255 317.452 21.3239C315.631 18.6813 313.168 16.5393 310.294 15.0967C307.419 13.654 304.225 12.9575 301.008 13.0715C297.845 12.958 294.704 13.6368 291.874 15.0458C289.043 16.4548 286.613 18.5488 284.806 21.1357C280.972 26.5118 279.055 34.361 279.055 44.6832L278.92 49.5486Z" fill="#DCDCDC"/>
<path d="M89.1501 80.1676H117.934V1.2998H133.812V80.1676H162.299V93.0166H89.1501V80.1676Z" fill="#DCDCDC"/>
<path d="M16.7032 42.239H54.5061V14.0144H10.3037V1.2998H70.5723V93.0166H10.8438V80.1676H54.5601V54.8461H16.7572L16.7032 42.239Z" fill="#DCDCDC"/>
<path d="M44.2726 329.566H60.2308V265.241C60.4209 261.369 59.7798 257.501 58.3504 253.895C56.921 250.289 54.7361 247.027 51.9412 244.328C45.9946 238.994 38.1733 236.211 30.1775 236.586C20.5468 236.586 13.1212 239.005 7.90084 243.844C5.2186 246.449 3.12915 249.597 1.77361 253.075C0.41807 256.553 -0.172002 260.28 0.043244 264.004H16.0015C15.699 259.996 16.9885 256.029 19.5927 252.957C21.0219 251.674 22.695 250.689 24.5131 250.061C26.3312 249.433 28.2573 249.175 30.1775 249.301C32.112 249.195 34.0459 249.519 35.8392 250.249C37.6325 250.979 39.2403 252.096 40.5463 253.521C43.2823 256.829 44.6615 261.044 44.4076 265.322L44.2726 329.566Z" fill="#DCDCDC"/>
<path d="M158.6 281.315C158.775 273.181 157.191 265.104 153.956 257.633C151.121 251.189 146.42 245.733 140.455 241.962C134.443 238.293 127.496 236.427 120.446 236.586C113.4 236.455 106.461 238.319 100.438 241.962C94.5237 245.733 89.8343 251.13 86.9365 257.499C83.6457 264.806 82.005 272.743 82.1301 280.75V285.912C81.9576 294.065 83.5796 302.157 86.8825 309.62C89.7341 316.054 94.4309 321.506 100.384 325.292C106.385 328.961 113.324 330.828 120.365 330.668C127.396 330.812 134.321 328.946 140.32 325.292C146.278 321.583 150.981 316.18 153.821 309.782C157.118 302.391 158.758 294.374 158.627 286.288L158.6 281.315ZM142.588 286.1C142.588 296.261 140.644 304.056 136.755 309.486C134.932 312.1 132.471 314.212 129.605 315.622C126.738 317.032 123.559 317.696 120.365 317.55C117.202 317.664 114.062 316.985 111.231 315.576C108.4 314.167 105.97 312.073 104.164 309.486C100.276 304.11 98.2954 296.485 98.2234 286.61V281.234C98.2234 271.154 100.168 263.359 104.11 257.875C105.93 255.229 108.391 253.083 111.265 251.636C114.14 250.189 117.335 249.487 120.554 249.596C123.717 249.482 126.858 250.161 129.688 251.57C132.519 252.979 134.949 255.073 136.755 257.66C140.59 263.036 142.507 270.912 142.507 281.234L142.588 286.1Z" fill="#DCDCDC"/>
<path d="M229.183 261.477C229.276 263.261 228.935 265.041 228.187 266.666C227.439 268.29 226.308 269.71 224.89 270.805C220.158 273.834 214.958 276.068 209.499 277.417C203.285 279.17 197.323 281.709 191.758 284.971C183.352 290.239 179.157 297.085 179.175 305.507C179.119 309.05 179.91 312.555 181.483 315.733C183.055 318.912 185.365 321.672 188.221 323.786C195.027 328.805 203.36 331.339 211.821 330.963C217.727 331.066 223.583 329.863 228.967 327.442C233.812 325.215 237.929 321.675 240.848 317.227C243.694 312.95 245.19 307.923 245.141 302.792H229.183C229.298 304.878 228.952 306.963 228.168 308.9C227.384 310.837 226.182 312.579 224.647 314.002C221.016 316.958 216.392 318.428 211.713 318.114C207.388 318.361 203.101 317.19 199.508 314.781C198.096 313.68 196.97 312.259 196.223 310.637C195.476 309.014 195.13 307.237 195.215 305.454C195.22 303.773 195.648 302.12 196.46 300.646C197.271 299.172 198.439 297.923 199.859 297.013C204.643 294.016 209.862 291.768 215.331 290.347C221.398 288.725 227.212 286.283 232.612 283.089C236.534 280.828 239.822 277.62 242.171 273.761C244.256 270.006 245.299 265.766 245.195 261.477C245.31 257.949 244.564 254.446 243.021 251.267C241.479 248.088 239.186 245.329 236.339 243.225C230.488 238.799 222.514 236.585 212.415 236.585C206.088 236.514 199.815 237.759 193.999 240.241C188.812 242.423 184.308 245.95 180.957 250.456C177.849 254.877 176.232 260.167 176.34 265.563H192.352C192.224 263.285 192.626 261.009 193.525 258.912C194.424 256.814 195.797 254.95 197.537 253.467C201.844 250.359 207.107 248.847 212.415 249.192C216.849 248.865 221.265 250.04 224.944 252.526C226.319 253.571 227.422 254.929 228.159 256.487C228.897 258.045 229.248 259.756 229.183 261.477Z" fill="#DCDCDC"/>
<path d="M419.115 250.563H460.968V237.849H403.103V329.565H419.115V250.563Z" fill="#DCDCDC"/>
<path d="M532.551 259.192H496.881L489.428 237.849H472.768L507.682 329.565H522.074L556.933 237.849H540.084L532.551 259.192ZM501.363 272.068H528.068L514.567 310.104L501.363 272.068Z" fill="#DCDCDC"/>
<path d="M738.468 281.315C738.644 273.178 737.051 265.1 733.797 257.633C730.963 251.203 726.261 245.764 720.296 242.015C714.265 238.487 707.398 236.622 700.403 236.613C693.407 236.603 686.536 238.45 680.495 241.962C674.577 245.729 669.886 251.127 666.994 257.499C663.716 264.81 662.075 272.745 662.187 280.751V285.912C662.028 294.064 663.649 302.153 666.94 309.62C669.8 316.049 674.495 321.499 680.441 325.292C686.487 328.854 693.383 330.733 700.409 330.733C707.434 330.733 714.331 328.854 720.377 325.292C726.335 321.584 731.038 316.18 733.878 309.782C737.188 302.395 738.828 294.375 738.684 286.288L738.468 281.315ZM722.456 286.1C722.456 296.261 720.539 304.056 716.651 309.486C714.746 312.007 712.279 314.053 709.444 315.462C706.609 316.871 703.483 317.604 700.314 317.604C697.146 317.604 694.02 316.871 691.185 315.462C688.35 314.053 685.883 312.007 683.978 309.486C680.117 304.11 678.119 296.476 678.038 286.611V281.234C678.038 271.163 680 263.377 683.924 257.875C685.744 255.229 688.205 253.083 691.08 251.636C693.954 250.189 697.149 249.487 700.368 249.596C703.554 249.459 706.722 250.127 709.578 251.537C712.434 252.947 714.886 255.053 716.705 257.66C720.539 263.036 722.456 270.912 722.456 281.234V286.1Z" fill="#DCDCDC"/>
<path d="M809.078 261.477C809.166 263.263 808.819 265.044 808.067 266.668C807.315 268.292 806.179 269.711 804.758 270.804C800.039 273.838 794.847 276.073 789.394 277.417C783.187 279.129 777.226 281.622 771.653 284.836C763.247 290.105 759.052 296.95 759.07 305.373C759.02 308.914 759.814 312.417 761.387 315.594C762.959 318.772 765.265 321.533 768.116 323.652C774.924 328.666 783.255 331.2 791.716 330.829C797.631 330.931 803.496 329.729 808.889 327.307C813.699 325.112 817.796 321.62 820.716 317.227C823.563 312.95 825.058 307.923 825.009 302.792H809.078C809.188 304.879 808.837 306.965 808.048 308.902C807.26 310.839 806.053 312.58 804.515 314.002C800.895 316.958 796.279 318.429 791.608 318.114C787.274 318.365 782.977 317.194 779.376 314.781C777.964 313.68 776.838 312.259 776.091 310.636C775.344 309.014 774.998 307.237 775.083 305.453C775.099 303.772 775.534 302.12 776.349 300.647C777.164 299.174 778.334 297.925 779.754 297.013C784.539 294.062 789.747 291.85 795.199 290.454C801.266 288.832 807.08 286.39 812.48 283.196C816.403 280.935 819.69 277.727 822.039 273.869C824.133 270.116 825.186 265.876 825.09 261.584C825.199 258.054 824.448 254.55 822.901 251.372C821.354 248.193 819.057 245.435 816.207 243.332C810.338 238.834 802.364 236.585 792.283 236.585C785.956 236.516 779.684 237.761 773.867 240.241C768.684 242.416 764.187 245.946 760.853 250.456C757.744 254.877 756.127 260.167 756.235 265.563H772.301C772.173 263.285 772.575 261.009 773.474 258.911C774.373 256.814 775.746 254.95 777.486 253.466C781.782 250.356 787.037 248.844 792.337 249.192C796.78 248.865 801.204 250.039 804.893 252.525C806.245 253.588 807.328 254.951 808.055 256.506C808.781 258.06 809.132 259.763 809.078 261.477Z" fill="#DCDCDC"/>
<path d="M984.673 278.788H946.87V250.563H991.019V237.849H930.804V329.565H990.614V316.716H946.816V291.395H984.619L984.673 278.788Z" fill="#DCDCDC"/>
<path d="M44.2726 119.225H60.2308V183.55C60.4226 187.423 59.7824 191.291 58.3529 194.898C56.9234 198.504 54.7375 201.765 51.9412 204.464C46.0035 209.815 38.1784 212.609 30.1775 212.232C20.5468 212.232 13.1212 209.813 7.90084 204.974C5.2186 202.369 3.12915 199.221 1.77361 195.743C0.41807 192.265 -0.172002 188.538 0.043244 184.814H16.0015C15.6975 188.815 16.9876 192.774 19.5927 195.835C21.0185 197.123 22.6911 198.111 24.5101 198.739C26.329 199.367 28.2568 199.623 30.1775 199.491C32.1127 199.602 34.0483 199.281 35.8425 198.551C37.6367 197.82 39.2439 196.7 40.5463 195.27C43.2854 191.975 44.6655 187.767 44.4076 183.497L44.2726 119.225Z" fill="black"/>
<path d="M158.6 167.503C158.775 175.637 157.191 183.713 153.956 191.184C151.097 197.599 146.4 203.032 140.455 206.802C134.443 210.471 127.496 212.337 120.446 212.178C113.4 212.309 106.461 210.444 100.438 206.802C94.529 203.013 89.8418 197.609 86.9366 191.238C83.6424 183.932 82.0015 175.994 82.1302 167.986V162.825C81.9572 154.681 83.5794 146.597 86.8826 139.143C89.7324 132.702 94.429 127.241 100.384 123.445C106.385 119.776 113.324 117.909 120.365 118.069C127.396 117.926 134.321 119.792 140.32 123.445C146.278 127.153 150.981 132.557 153.821 138.955C157.118 146.346 158.758 154.363 158.627 162.449L158.6 167.503ZM142.588 162.718C142.588 152.53 140.644 144.762 136.755 139.332C134.932 136.717 132.471 134.606 129.605 133.196C126.738 131.785 123.559 131.122 120.365 131.267C117.202 131.154 114.062 131.833 111.231 133.242C108.4 134.651 105.97 136.745 104.164 139.332C100.276 144.708 98.2954 152.333 98.2234 162.207V167.583C98.2234 177.663 100.168 185.459 104.11 190.942C105.931 193.585 108.393 195.727 111.268 197.17C114.143 198.612 117.337 199.309 120.554 199.195C123.717 199.308 126.858 198.63 129.688 197.221C132.519 195.812 134.949 193.718 136.755 191.131C140.59 185.755 142.507 177.905 142.507 167.583L142.588 162.718Z" fill="black"/>
<path d="M229.183 187.34C229.279 185.555 228.938 183.774 228.19 182.15C227.442 180.525 226.31 179.105 224.89 178.012C220.158 174.983 214.958 172.749 209.499 171.399C203.288 169.711 197.325 167.226 191.758 164.007C183.352 158.775 179.157 151.929 179.175 143.47C179.119 139.932 179.91 136.43 181.483 133.256C183.056 130.082 185.366 127.327 188.221 125.219C195.023 120.19 203.357 117.646 211.821 118.015C217.731 117.907 223.59 119.12 228.967 121.563C233.796 123.74 237.906 127.236 240.821 131.643C243.664 135.912 245.159 140.93 245.114 146.051H229.183C229.298 143.966 228.952 141.881 228.168 139.944C227.384 138.007 226.182 136.265 224.647 134.842C221.007 131.905 216.387 130.446 211.713 130.756C207.386 130.495 203.095 131.667 199.508 134.089C198.096 135.19 196.97 136.611 196.223 138.234C195.476 139.857 195.13 141.634 195.215 143.417C195.229 145.088 195.662 146.73 196.472 148.194C197.283 149.658 198.447 150.899 199.859 151.803C204.642 154.76 209.85 156.972 215.304 158.362C221.365 159.988 227.178 162.42 232.585 165.593C236.503 167.861 239.788 171.067 242.144 174.921C244.229 178.676 245.272 182.916 245.168 187.205C245.285 190.738 244.54 194.245 242.997 197.429C241.455 200.612 239.161 203.376 236.312 205.484C230.443 209.964 222.469 212.213 212.388 212.231C206.062 212.289 199.792 211.044 193.972 208.575C188.795 206.39 184.301 202.863 180.957 198.361C177.849 193.94 176.232 188.649 176.34 183.254H192.352C192.229 185.531 192.632 187.805 193.53 189.903C194.429 192 195.8 193.864 197.537 195.35C201.844 198.458 207.107 199.97 212.415 199.624C216.852 199.944 221.268 198.76 224.944 196.264C226.302 195.21 227.393 193.853 228.129 192.304C228.865 190.754 229.226 189.054 229.183 187.34Z" fill="black"/>
<path d="M338.892 210.969H322.934V170.191H281.755V210.969H265.743V119.225H281.755V157.423H322.934V119.225H338.892V210.969Z" fill="black"/>
<path d="M419.115 198.227H460.968V210.969H403.103V119.225H419.115V198.227Z" fill="black"/>
<path d="M532.551 189.599H496.881L489.428 211.103H472.768L507.682 119.225H522.074L556.933 210.969H540.084L532.551 189.599ZM501.363 176.75H528.068L514.567 138.714L501.363 176.75Z" fill="black"/>
<path d="M642.692 181.104C642.282 189.869 638.398 198.115 631.891 204.033C625.573 209.409 617.157 212.098 606.644 212.098C599.793 212.276 593.033 210.514 587.149 207.017C581.489 203.429 576.997 198.284 574.215 192.206C571.052 185.211 569.44 177.62 569.489 169.949V161.454C569.328 153.585 570.904 145.776 574.107 138.579C576.906 132.308 581.511 127.004 587.338 123.338C593.349 119.691 600.281 117.826 607.319 117.961C616.283 117.577 625.061 120.583 631.891 126.375C638.376 132.466 642.246 140.816 642.692 149.681H626.761C626.005 143.068 624.06 138.337 620.928 135.434C617.175 132.272 612.332 130.691 607.427 131.025C604.3 130.844 601.178 131.448 598.347 132.782C595.516 134.116 593.067 136.137 591.226 138.66C587.5 143.695 585.601 151.105 585.529 160.89V168.954C585.529 178.864 587.329 186.426 590.929 191.641C592.642 194.184 594.988 196.24 597.737 197.611C600.487 198.982 603.546 199.62 606.617 199.464C611.703 199.837 616.749 198.335 620.793 195.243C623.943 192.43 625.951 187.744 626.815 181.185L642.692 181.104Z" fill="black"/>
<path d="M737.2 167.503C737.367 175.642 735.764 183.72 732.501 191.185C729.66 197.611 724.96 203.048 719 206.802C712.998 210.472 706.06 212.338 699.019 212.178C691.971 212.316 685.031 210.451 679.01 206.802C673.094 203.021 668.405 197.615 665.509 191.238C662.203 183.936 660.562 175.995 660.703 167.987V162.826C660.535 154.684 662.148 146.603 665.428 139.144C668.281 132.704 672.977 127.243 678.929 123.445C684.967 119.875 691.861 117.99 698.884 117.99C705.907 117.99 712.8 119.875 718.838 123.445C724.79 127.161 729.491 132.562 732.339 138.956C735.647 146.326 737.306 154.324 737.2 162.395V167.503ZM720.998 162.718C720.998 152.53 719.054 144.762 715.166 139.332C713.264 136.811 710.799 134.765 707.966 133.356C705.133 131.947 702.01 131.214 698.843 131.214C695.676 131.214 692.553 131.947 689.72 133.356C686.887 134.765 684.422 136.811 682.52 139.332C678.632 144.708 676.652 152.333 676.58 162.207V167.583C676.58 177.673 678.533 185.459 682.439 190.943C684.263 193.589 686.73 195.734 689.61 197.176C692.489 198.619 695.689 199.314 698.911 199.195C702.073 199.309 705.214 198.63 708.045 197.221C710.876 195.812 713.306 193.718 715.112 191.131C718.946 185.755 720.863 177.906 720.863 167.583L720.998 162.718Z" fill="black"/>
<path d="M807.674 187.34C807.77 185.555 807.429 183.774 806.681 182.15C805.933 180.525 804.801 179.105 803.381 178.012C798.649 174.983 793.45 172.749 787.99 171.399C781.787 169.714 775.832 167.229 770.276 164.007C761.87 158.775 757.666 151.929 757.666 143.47C757.615 139.93 758.411 136.428 759.989 133.254C761.567 130.08 763.88 127.326 766.739 125.219C773.541 120.19 781.875 117.646 790.339 118.015C796.217 117.906 802.046 119.1 807.404 121.509C812.23 123.68 816.333 127.177 819.231 131.589C822.113 135.844 823.638 140.866 823.605 145.997H807.674C807.79 143.91 807.441 141.822 806.652 139.885C805.863 137.947 804.654 136.206 803.111 134.788C799.481 131.853 794.87 130.393 790.204 130.702C785.877 130.437 781.584 131.61 777.999 134.035C776.584 135.135 775.454 136.555 774.702 138.178C773.951 139.8 773.6 141.578 773.679 143.363C773.693 145.048 774.13 146.703 774.951 148.177C775.771 149.652 776.949 150.898 778.377 151.803C783.182 154.773 788.419 156.985 793.903 158.362C799.962 159.993 805.775 162.425 811.185 165.593C815.097 167.858 818.374 171.066 820.716 174.921C822.754 178.689 823.751 182.928 823.605 187.205C823.722 190.738 822.977 194.245 821.435 197.429C819.892 200.612 817.598 203.376 814.749 205.484C808.889 209.973 800.897 212.231 790.825 212.231C784.499 212.289 778.229 211.044 772.41 208.575C767.222 206.394 762.718 202.866 759.368 198.361C756.259 193.94 754.642 188.649 754.75 183.254H770.762C770.639 185.531 771.042 187.805 771.941 189.903C772.839 192 774.21 193.864 775.947 195.35C780.253 198.46 785.516 199.972 790.825 199.624C795.29 199.962 799.737 198.777 803.435 196.264C804.793 195.21 805.884 193.853 806.62 192.304C807.356 190.754 807.718 189.054 807.674 187.34Z" fill="black"/>
<path d="M910.795 132.074H882.065V210.969H866.188V132.074H837.701V119.225H910.795V132.074Z" fill="black"/>
<path d="M983.269 170.003H945.466V198.227H989.669V210.969H929.427V119.225H989.237V132.074H945.439V157.423H983.242L983.269 170.003Z" fill="black"/>
</svg>
