<svg width="235" height="145" viewBox="0 0 235 145" fill="none" xmlns="http://www.w3.org/2000/svg">
<path d="M1.43099 7.13835L0.248271 8.24973L1.4514 9.17757C3.77102 6.05757 7.40592 3.64619 10.4342 1.2603C11.204 0.648538 10.1181 -0.427147 9.35338 0.17952C6.19259 2.67247 2.55254 5.15011 0.130964 8.40267C-0.378841 9.12149 0.722387 9.9015 1.32906 9.33052L2.51178 8.22424C3.2306 7.5462 2.14982 6.46541 1.43099 7.13835Z" transform="translate(168.588 53.3132)" fill="black"/>
<path d="M0.7647 1.52942C0.967513 1.52942 1.16202 1.44885 1.30543 1.30544C1.44884 1.16203 1.52941 0.967523 1.52941 0.76471C1.52941 0.561897 1.44884 0.367386 1.30543 0.223976C1.16202 0.0805652 0.967513 2.48928e-06 0.7647 2.48928e-06C0.561887 2.48928e-06 0.367376 0.0805652 0.223966 0.223976C0.0805552 0.367386 -7.46784e-06 0.561897 -7.46784e-06 0.76471C-7.46784e-06 0.967523 0.0805552 1.16203 0.223966 1.30544C0.367376 1.44885 0.561887 1.52942 0.7647 1.52942Z" transform="translate(164.085 70.811)" fill="black"/>
<path d="M1.13358 3.69725L4.81436 1.43882C5.65554 0.929017 4.88573 -0.401579 4.04455 0.118422L0.363772 2.37686C-0.477406 2.88667 0.292405 4.21726 1.13358 3.69725Z" transform="translate(95.9834 78.6604)" fill="black"/>
<path d="M3.02782 0.0845821C1.8466 0.670423 0.844705 1.56318 0.127065 2.6693C-0.413329 3.49518 0.912147 4.26498 1.44744 3.44419C2.03152 2.56399 2.84388 1.85912 3.79763 1.40497C4.6847 0.971641 3.90979 -0.343654 3.02782 0.0845821V0.0845821Z" transform="translate(95.1084 79.6685)" fill="black"/>
<path d="M117.219 38.7894C116.842 36.5513 115.374 34.3439 113.172 33.8035C112.841 33.7026 112.493 33.6701 112.15 33.7077C111.806 33.7454 111.474 33.8526 111.173 34.0227C110.485 34.4764 110.205 35.3278 109.965 36.1129C106.633 47.0153 102.28 57.5793 96.9649 67.6647C95.2061 71.009 93.2484 74.231 91.3264 77.4887L90.6178 78.6867C90.1216 79.5867 89.5448 80.4398 88.8946 81.2357C88.0976 82.1386 87.1243 82.869 86.0346 83.382C85.5172 83.6868 84.9055 83.7903 84.3166 83.6726C83.4805 83.4228 83.0727 82.4746 82.9809 81.6079C82.1499 73.8385 82.6139 66.0486 84.9029 58.5392C85.9939 54.9706 87.4519 51.2592 86.6923 47.5988C86.5088 46.7525 86.1825 45.8808 86.3967 45.0498C86.7382 43.5713 88.3543 42.8576 89.6492 42.0674C92.8304 40.1302 95.0837 36.3729 94.7829 32.6003C94.7904 32.3456 94.7439 32.0921 94.6464 31.8566C94.5488 31.6211 94.4025 31.4089 94.217 31.2341C93.8092 30.9384 92.0555 28.9399 91.9994 29.7964C90.5669 30.7039 89.1649 31.6419 87.7731 32.6105L57.7456 53.4361C57.5465 53.5897 57.3057 53.6797 57.0547 53.6943C56.8036 53.7088 56.554 53.6473 56.3385 53.5176C56.3946 51.8659 57.144 50.4945 57.4397 48.8988C59.948 35.3992 63.8326 22.2972 65.7699 8.62421C66.1319 6.07519 66.4326 3.34773 64.6177 1.25243C64.1896 0.723125 63.6114 0.335677 62.9591 0.140971C62.3067 -0.0537354 61.6107 -0.0465978 60.9625 0.161449C58.9233 0.895568 58.6836 3.1591 58.5664 5.09636C58.4899 6.32499 58.3982 7.54852 58.2911 8.77715C57.9037 13.1513 57.3038 17.4999 56.4915 21.8231C55.217 28.6035 53.4021 35.4654 51.8574 42.2153C51.2014 45.1109 50.5318 47.9998 49.8487 50.8819C49.2013 53.6196 48.5079 56.3419 47.9574 59.0949C47.4883 61.4145 45.7295 62.7502 43.8483 64.0349C38.9226 67.4136 34.1814 71.0538 29.6451 74.9396C25.0161 78.9059 20.0863 82.5 15.182 86.1095L13.6526 87.2259C11.6133 88.7095 9.6251 90.1981 7.59098 91.6561C6.67232 92.4198 5.67818 93.0877 4.62394 93.6495C3.6859 94.0573 2.61533 94.1083 1.71297 94.6691C0.0204196 95.6887 -0.448658 98.1358 0.4435 99.8895C1.33566 101.643 3.31376 102.683 5.28161 102.831C6.50097 102.925 7.72502 102.724 8.85024 102.245C9.919 101.737 10.9236 101.104 11.8428 100.359C17.1006 96.4194 22.3006 92.4039 27.4428 88.3118C32.5867 84.2334 38.1079 80.2467 42.844 75.689C43.2518 75.2965 44.3275 74.2718 44.1032 75.6534L43.5119 79.2679L43.2875 80.6444C42.584 84.9318 41.5032 89.1275 40.7895 93.3895L40.2797 96.6012C39.9942 98.2989 39.6883 99.9965 39.4283 101.699C39.1377 103.637 38.6993 105.574 38.3679 107.511C38.1436 108.826 37.9193 110.142 37.7357 111.467C37.4808 113.353 37.3534 115.255 37.073 117.136C36.9609 117.881 36.7977 118.615 36.6193 119.349C36.4052 120.21 35.9973 121.153 36.14 122.061C36.2654 122.604 36.565 123.09 36.9931 123.447C37.4212 123.803 37.9542 124.009 38.5107 124.034C40.1471 124.172 42.5534 123.341 43.2315 121.719C43.6451 120.54 43.8889 119.307 43.9554 118.059C44.0828 116.891 44.2663 115.734 44.4244 114.572C44.7642 112.033 45.1041 109.493 45.444 106.95C45.7754 104.615 46.1221 102.286 46.5044 99.9558C46.5605 99.604 46.6166 99.2522 46.6777 98.8954C47.886 91.5746 49.3746 84.3251 50.7969 77.0502C51.1844 75.0773 51.7656 73.1553 52.3264 71.2283C52.6832 70.0098 52.4181 68.5671 53.2389 67.7004C54.2941 66.6746 55.437 65.7432 56.6546 64.9169L57.6742 64.1471C58.4491 63.571 59.2037 62.9898 60.0143 62.4341C64.7962 59.0235 69.4966 55.5008 74.2888 52.1361C75.4766 51.3051 76.6747 50.4894 77.8574 49.6788C79.0402 48.8682 79.7845 48.4196 79.5041 50.1886C79.1982 52.1259 77.8931 53.7572 77.3884 55.6231C76.7312 58.0802 76.2205 60.5742 75.859 63.0918C75.1378 68.0533 75.0094 73.0831 75.4766 78.0749C75.9201 82.7498 76.9397 87.5216 79.9221 91.2279C80.6198 92.1284 81.5098 92.8617 82.5272 93.3742C86.7178 95.3828 90.3374 92.0742 93.1158 89.0816L100.054 81.6028C96.071 98.304 92.0912 115.007 88.1147 131.712C87.299 135.148 86.5088 138.935 88.9966 141.908C89.5894 142.65 90.4147 143.17 91.3396 143.386C92.2645 143.601 93.235 143.499 94.0947 143.095C95.9912 142.142 96.2818 140.077 96.5163 138.201C97.7092 128.75 99.8147 119.446 101.92 110.162L116.572 45.5188C117.107 43.3062 117.612 41.0274 117.219 38.7894ZM92.6621 31.856C92.5675 31.6722 92.4874 31.4813 92.4225 31.285C92.5143 31.4635 92.5908 31.647 92.6825 31.856H92.6621ZM67.7684 49.4443H67.6715C67.6841 49.3406 67.7115 49.2393 67.7531 49.1435C67.826 49.0536 67.9099 48.9731 68.0029 48.9039L68.1303 48.9957C68.0079 49.1333 67.8856 49.2913 67.7684 49.4443ZM96.6896 81.7557C96.6896 81.3632 96.8935 81.2459 97.2606 81.1949C97.337 81.6946 97.1229 81.7863 96.6845 81.7557H96.6896Z" transform="translate(0.289551 0.709229)" fill="black"/>
<path d="M5.20437 40.5513C4.14398 39.8478 2.55337 39.9497 1.4267 39.2309C0.0553232 38.354 -0.276052 36.4015 0.21336 34.8466C0.702773 33.2917 1.82439 32.0274 2.87459 30.7681C5.24416 27.9512 7.41114 24.9698 9.35929 21.8466C10.4911 20.0367 11.5463 18.176 12.6016 16.3203L13.8813 14.072C14.8346 12.3999 15.7828 10.7226 16.8381 9.11162C18.0106 7.32221 19.5962 5.45123 21.7323 5.35437C23.3993 5.2728 24.9185 6.33319 26.0401 7.57202C26.2746 7.77167 26.4472 8.03417 26.5375 8.32861C26.6278 8.62306 26.6321 8.93717 26.5499 9.23398C25.9534 13.1136 22.9813 16.1265 20.993 19.4964C20.0397 21.0971 19.2852 22.8101 18.3114 24.4007C16.522 27.3066 14.6612 30.1309 13.7232 33.4446C13.4586 34.3681 13.3704 35.3332 13.4632 36.2893C13.5091 36.7662 13.6013 37.2374 13.7385 37.6964C13.8558 38.0838 14.0699 38.4764 13.8252 38.8689C13.7487 38.9913 13.6315 39.1136 13.6417 39.2615C13.6574 39.3392 13.7005 39.4088 13.7632 39.4574C13.8259 39.5061 13.904 39.5306 13.9832 39.5266C14.1442 39.5145 14.2982 39.4561 14.4267 39.3584C16.1397 38.3387 17.4499 36.7736 18.7754 35.3054C25.1887 28.1681 31.2248 19.7716 34.4213 10.6716C34.6183 9.96375 34.9413 9.29716 35.3746 8.70379C36.5829 7.29673 38.9433 7.49554 40.4115 8.61711C41.5841 9.51437 42.2621 10.794 42.9197 12.0838C43.1083 12.4559 43.2001 13.0218 43.5876 13.2512C43.646 13.289 43.7127 13.312 43.782 13.3183C43.8513 13.3245 43.921 13.3137 43.9852 13.2869C44.2197 13.1748 44.2503 12.8536 44.2146 12.5936C44.184 12.4835 44.184 12.3672 44.2146 12.2571C44.2632 12.1695 44.3334 12.0958 44.4186 12.043C44.9926 11.7023 45.5366 11.3135 46.0448 10.8806C46.5774 10.3441 47.0666 9.76618 47.508 9.15241C50.526 5.15044 55.155 2.68299 59.9166 1.3473C64.6782 0.01161 69.6029 -0.0801508 74.4614 0.0371043C77.9688 0.122072 81.4712 0.315797 84.9684 0.618282C87.5684 0.842596 91.3716 0.58259 93.7269 1.77553C93.8421 1.81313 93.9626 1.83206 94.0837 1.83161C96.0159 2.04063 98.9983 3.02966 100.793 2.16299C101.649 1.75005 102.475 1.14338 103.423 1.10769C105.162 1.00573 106.482 2.66259 107.15 4.26848C107.676 5.52688 108.011 6.85688 108.144 8.21437C108.273 8.97963 108.177 9.76582 107.869 10.4779C107.216 11.732 105.585 12.1348 104.183 11.9767C99.3195 11.421 94.4967 9.86104 89.6077 9.20849C84.2738 8.49858 78.8991 8.13925 73.5182 8.1328C69.8527 8.1328 66.1515 8.30104 62.6237 9.27477C59.077 10.1917 55.85 12.0644 53.2942 14.6889C52.0466 16.0877 51.0264 17.6738 50.2711 19.3893C49.8735 20.2458 49.5217 21.1175 49.1954 21.9995C48.8692 22.8815 48.5174 23.5748 48.548 24.5128C48.5786 24.7378 48.5786 24.9659 48.548 25.1909C48.4967 25.3685 48.4248 25.5396 48.3338 25.7007C47.8411 26.7889 47.6645 27.9937 47.824 29.1775C47.9112 30.0658 47.8087 30.9625 47.5233 31.8081C47.2437 32.6203 46.6833 33.3059 45.943 33.7414C45.2028 34.177 44.3313 34.3339 43.4856 34.1838C42.4839 34.0536 41.5315 33.6715 40.7175 33.0733C39.9035 32.4751 39.2545 31.6802 38.8311 30.763C38.1683 29.3764 38.0766 27.796 38.0256 26.2819C37.9072 25.0671 37.7097 23.8614 37.4342 22.6724C37.3192 22.1157 37.3349 21.5398 37.4801 20.9901C37.5464 20.7709 37.6535 20.4803 37.3884 20.3834C37.2667 20.3641 37.1422 20.3776 37.0275 20.4224C36.9128 20.4672 36.8121 20.5417 36.7358 20.6383C36.5875 20.856 36.4692 21.0926 36.3841 21.3418C36.1139 21.9281 35.5786 22.3309 35.3135 22.9069C35.093 23.4829 34.9824 24.095 34.9872 24.7117C34.8852 26.6591 33.7228 27.9336 32.7899 29.5293C31.8162 31.2015 30.7507 32.8277 29.675 34.4183C27.4981 37.5944 25.1428 40.638 22.8028 43.6917C22.4594 44.1142 22.154 44.5663 21.8903 45.0427C21.7373 45.3333 21.615 45.6391 21.4416 45.9144C21.1811 46.2898 20.8668 46.6247 20.5087 46.9086C18.6032 48.5267 16.4006 49.7579 14.024 50.5333C13.4842 50.7441 12.9048 50.8346 12.3263 50.7984C11.6703 50.6757 11.0604 50.376 10.5624 49.9317C8.47077 48.2734 7.03911 45.9235 6.52475 43.3042C6.3769 42.514 6.29536 41.6576 5.78555 41.0305C5.62327 40.8361 5.42617 40.6736 5.20437 40.5513V40.5513Z" transform="translate(126.069 48.3118)" fill="black"/>
<path d="M18.7548 17.2013C12.5301 42.1205 10.9038 67.7281 7.31986 93.0705C7.14142 94.3348 6.93751 95.6195 6.23907 96.7054C5.54064 97.7912 4.19985 98.5254 2.98141 98.1328C-0.694281 96.9348 -0.0468513 89.354 0.218247 86.494C1.15629 76.3641 2.57357 66.4077 3.87867 56.3135C4.53122 51.3106 5.24663 46.3162 6.02493 41.3303C7.98258 28.8044 10.6999 16.3499 13.881 4.04322C14.3297 2.30988 15.1454 0.245177 16.9399 0.0106666C17.7452 -0.0563451 18.5448 0.194324 19.1677 0.709097C20.6971 1.85106 21.3446 3.8342 21.3701 5.72558C21.3956 7.61695 20.8603 9.45735 20.3505 11.2825C19.7795 13.2503 19.2476 15.2232 18.7548 17.2013Z" transform="translate(113.055 11.5303)" fill="black"/>
<path d="M1.14484 2.27418L2.41935 1.4381L1.49147 0.234957L1.42009 0.301234C1.28501 0.446197 1.21148 0.637929 1.21497 0.83604C1.21847 1.03415 1.29877 1.22317 1.43888 1.36328C1.57899 1.50339 1.768 1.58365 1.96611 1.58714C2.16422 1.59064 2.35591 1.5171 2.50087 1.38202L2.57736 1.32084C3.20951 0.739666 2.37856 -0.361513 1.64954 0.117704L0.369923 0.953783C0.19882 1.05954 0.0751943 1.2273 0.024846 1.42204C-0.0255023 1.61678 0.00130425 1.82345 0.0997112 1.99888C0.202516 2.16613 0.365347 2.28778 0.554876 2.33895C0.744405 2.39012 0.94631 2.36695 1.11932 2.27418H1.14484Z" transform="translate(96.2422 80.5679)" fill="black"/>
<path d="M1.14307 2.67471C1.75994 2.23118 2.39215 1.81824 3.0447 1.42569C3.1314 1.37481 3.20717 1.30735 3.2678 1.22716C3.32843 1.14698 3.37272 1.05563 3.39805 0.958351C3.42338 0.861068 3.42924 0.759752 3.41541 0.660182C3.40158 0.560612 3.36828 0.464736 3.3174 0.378037C3.26652 0.291339 3.19906 0.215516 3.11888 0.154889C3.03869 0.0942614 2.94738 0.0500185 2.8501 0.0246917C2.75281 -0.000635073 2.65145 -0.0065475 2.55188 0.00728229C2.45231 0.0211121 2.35648 0.0544169 2.26978 0.105298C1.62233 0.497848 0.985085 0.910788 0.368221 1.35432C0.198091 1.46093 0.0752675 1.62868 0.0250117 1.82307C-0.025244 2.01745 0.000872342 2.22371 0.0980099 2.39942C0.200815 2.56667 0.363646 2.68831 0.553175 2.73949C0.742704 2.79066 0.944609 2.76749 1.11762 2.67471H1.14307Z" transform="translate(66.6294 48.218)" fill="black"/>
<path d="M1.42156 7.64526C2.63489 5.42591 3.92468 3.25243 5.29096 1.12485C5.80076 0.293865 4.50078 -0.47084 3.97058 0.355044C2.6111 2.47923 1.32131 4.6527 0.101179 6.87545C-0.37294 7.73702 0.947437 8.51192 1.42156 7.64526Z" transform="translate(158.987 67.1013)" fill="black"/>
<path d="M2.26063 2.7898C1.52992 3.22786 0.846541 3.7404 0.221408 4.31922C-0.41075 4.8902 0.440597 6.04236 1.14923 5.51726C3.12047 4.06602 5.14953 2.70654 7.23633 1.43882C8.07751 0.929017 7.3077 -0.401579 6.46652 0.118422C4.37632 1.40313 2.34562 2.76261 0.374375 4.19686L1.3073 5.33883C1.84195 4.85748 2.42448 4.43213 3.04575 4.06941C3.21309 3.96355 3.33284 3.7969 3.37981 3.60453C3.42677 3.41216 3.39727 3.20908 3.29754 3.03801C3.1978 2.86694 3.03559 2.74123 2.84505 2.68733C2.65451 2.63343 2.4505 2.65554 2.27594 2.74902L2.26063 2.7898Z" transform="translate(65.2207 46.6702)" fill="black"/>
<path d="M2.45611 3.34916L0.248678 5.38838L1.45181 6.31622C2.63456 4.5489 3.86147 2.81047 5.13259 1.10092C5.71886 0.310725 4.39339 -0.453984 3.81221 0.326017C2.5377 2.02537 1.31072 3.7655 0.13137 5.54642C-0.378434 6.29074 0.717696 7.05034 1.32946 6.47426L3.53689 4.40956C4.25572 3.73152 3.16984 2.65582 2.45611 3.32877V3.34916Z" transform="translate(95.2417 77.9841)" fill="black"/>
</svg>
