<svg width="532" height="538" viewBox="0 0 532 538" fill="none" xmlns="http://www.w3.org/2000/svg">
<path d="M482.156 46.125H474.281V14.2188C474.281 9.86458 475.646 6.40625 478.375 3.84375C481.083 1.28125 484.667 0 489.125 0C493.875 0 497.542 1.19792 500.125 3.59375C502.708 5.98958 504 9.32292 504 13.5938H496.125C496.125 11.1771 495.531 9.35417 494.344 8.125C493.135 6.91667 491.396 6.3125 489.125 6.3125C487 6.3125 485.312 7.01042 484.062 8.40625C482.792 9.82292 482.156 11.7708 482.156 14.25V46.125Z" fill="#AFAFAF"/>
<path d="M425.706 22.1875C425.706 17.7292 426.477 13.8125 428.019 10.4375C429.56 7.08333 431.769 4.5 434.644 2.6875C437.498 0.895832 440.79 0 444.519 0C448.206 0 451.498 0.895832 454.394 2.6875C457.269 4.5 459.498 7.07292 461.081 10.4062C462.644 13.7396 463.435 17.5833 463.456 21.9375V24.5C463.456 28.9375 462.675 32.8542 461.112 36.25C459.529 39.6458 457.31 42.2396 454.456 44.0312C451.581 45.8438 448.29 46.75 444.581 46.75C440.873 46.75 437.592 45.8542 434.738 44.0625C431.863 42.2917 429.644 39.7292 428.081 36.375C426.519 33.0417 425.727 29.1562 425.706 24.7188V22.1875ZM433.613 24.5625C433.613 29.6042 434.571 33.4688 436.488 36.1562C438.383 38.8438 441.081 40.1875 444.581 40.1875C447.998 40.1875 450.675 38.8438 452.612 36.1562C454.529 33.4896 455.508 29.7083 455.55 24.8125V22.1875C455.55 17.1875 454.581 13.3229 452.644 10.5938C450.685 7.86458 447.977 6.5 444.519 6.5C441.019 6.5 438.331 7.83333 436.456 10.5C434.56 13.1667 433.613 17.0625 433.613 22.1875V24.5625Z" fill="#AFAFAF"/>
<path d="M340.231 0.625H348.106V20.8438H368.45V0.625H376.356V46.125H368.45V27.1875H348.106V46.125H340.231V0.625Z" fill="#AFAFAF"/>
<path d="M300.612 6.9375H279.956V0.625H308.519V46.125H300.612V6.9375Z" fill="#AFAFAF"/>
<path d="M244.6 11.2188H262.225L265.912 0.625H274.131L256.944 46.125H249.85L232.631 0.625H240.881L244.6 11.2188ZM260.006 17.5938H246.819L253.412 36.4688L260.006 17.5938Z" fill="#AFAFAF"/>
<path d="M190.212 15.4375C190.671 10.5833 192.462 6.79167 195.587 4.0625C198.712 1.35417 202.869 0 208.056 0C211.681 0 214.879 0.854168 217.65 2.5625C220.4 4.29167 222.525 6.73958 224.025 9.90625C225.525 13.0729 226.306 16.75 226.369 20.9375V25.1875C226.369 29.4792 225.608 33.2604 224.087 36.5312C222.567 39.8021 220.39 42.3229 217.556 44.0938C214.702 45.8646 211.41 46.75 207.681 46.75C202.66 46.75 198.619 45.3854 195.556 42.6562C192.494 39.9271 190.712 36.0729 190.212 31.0938H198.087C198.462 34.3646 199.421 36.7188 200.962 38.1562C202.483 39.6146 204.723 40.3438 207.681 40.3438C211.119 40.3438 213.765 39.0833 215.619 36.5625C217.452 34.0625 218.39 30.3854 218.431 25.5312V21.5C218.431 16.5833 217.556 12.8333 215.806 10.25C214.035 7.66667 211.452 6.375 208.056 6.375C204.952 6.375 202.619 7.07292 201.056 8.46875C199.494 9.86458 198.504 12.1875 198.087 15.4375H190.212Z" fill="#AFAFAF"/>
<path d="M117.862 12.3438C117.862 14.3438 118.571 15.8854 119.987 16.9688C121.383 18.0521 123.915 19.1458 127.581 20.25C131.248 21.3542 134.165 22.5833 136.331 23.9375C140.477 26.5417 142.55 29.9375 142.55 34.125C142.55 37.7917 141.06 40.8125 138.081 43.1875C135.081 45.5625 131.196 46.75 126.425 46.75C123.258 46.75 120.435 46.1667 117.956 45C115.477 43.8333 113.529 42.1667 112.112 40C110.696 37.8542 109.987 35.4688 109.987 32.8438H117.862C117.862 35.2188 118.612 37.0729 120.112 38.4062C121.592 39.7604 123.717 40.4375 126.487 40.4375C129.071 40.4375 131.081 39.8854 132.519 38.7812C133.935 37.6771 134.644 36.1354 134.644 34.1562C134.644 32.4896 133.873 31.0938 132.331 29.9688C130.79 28.8646 128.248 27.7812 124.706 26.7188C121.165 25.6771 118.321 24.4792 116.175 23.125C114.029 21.7917 112.456 20.25 111.456 18.5C110.456 16.7708 109.956 14.7396 109.956 12.4062C109.956 8.61458 111.415 5.59375 114.331 3.34375C117.227 1.11458 121.165 0 126.144 0C129.435 0 132.467 0.604168 135.237 1.8125C137.987 3.04167 140.133 4.72917 141.675 6.875C143.196 9.02083 143.956 11.5208 143.956 14.375H136.05C136.05 11.7917 135.196 9.79167 133.487 8.375C131.779 6.95833 129.331 6.25 126.144 6.25C123.394 6.25 121.331 6.80208 119.956 7.90625C118.56 9.03125 117.862 10.5104 117.862 12.3438Z" fill="#AFAFAF"/>
<path d="M66.9437 39.75H81.1312V0.625H88.975V39.75H103.037V46.125H66.9437V39.75Z" fill="#AFAFAF"/>
<path d="M31.15 20.9375H49.8375V6.9375H27.9937V0.625H57.7437V46.125H28.2125V39.75H49.8375V27.1875H31.15V20.9375Z" fill="#AFAFAF"/>
<path d="M35.8438 113.475H43.7188V81.5686C43.7188 77.2144 42.3542 73.7561 39.625 71.1936C36.9167 68.6311 33.3333 67.3499 28.875 67.3499C24.125 67.3499 20.4583 68.5478 17.875 70.9436C15.2917 73.3394 14 76.6728 14 80.9436H21.875C21.875 78.5269 22.4688 76.704 23.6562 75.4749C24.8646 74.2665 26.6042 73.6624 28.875 73.6624C31 73.6624 32.6875 74.3603 33.9375 75.7561C35.2083 77.1728 35.8438 79.1207 35.8438 81.5999V113.475Z" fill="#AFAFAF"/>
<path d="M118.038 79.6936C118.038 81.6936 117.329 83.2353 115.913 84.3186C114.517 85.4019 111.985 86.4957 108.319 87.5999C104.652 88.704 101.735 89.9332 99.5688 91.2874C95.4229 93.8915 93.35 97.2874 93.35 101.475C93.35 105.142 94.8396 108.162 97.8188 110.537C100.819 112.912 104.704 114.1 109.475 114.1C112.642 114.1 115.465 113.517 117.944 112.35C120.423 111.183 122.371 109.517 123.788 107.35C125.204 105.204 125.913 102.819 125.913 100.194H118.038C118.038 102.569 117.288 104.423 115.788 105.756C114.308 107.11 112.183 107.787 109.413 107.787C106.829 107.787 104.819 107.235 103.381 106.131C101.965 105.027 101.256 103.485 101.256 101.506C101.256 99.8394 102.027 98.4436 103.569 97.3186C105.11 96.2144 107.652 95.1311 111.194 94.0686C114.735 93.0269 117.579 91.829 119.725 90.4749C121.871 89.1415 123.444 87.5999 124.444 85.8499C125.444 84.1207 125.944 82.0894 125.944 79.7561C125.944 75.9644 124.485 72.9436 121.569 70.6936C118.673 68.4644 114.735 67.3499 109.756 67.3499C106.465 67.3499 103.433 67.954 100.663 69.1624C97.9125 70.3915 95.7667 72.079 94.225 74.2249C92.7042 76.3707 91.9438 78.8707 91.9438 81.7249H99.85C99.85 79.1415 100.704 77.1415 102.413 75.7249C104.121 74.3082 106.569 73.5999 109.756 73.5999C112.506 73.5999 114.569 74.1519 115.944 75.2561C117.34 76.3811 118.038 77.8603 118.038 79.6936Z" fill="#AFAFAF"/>
<path d="M172.206 67.9749H164.331V88.1936H143.988V67.9749H136.081V113.475H143.988V94.5374H164.331V113.475H172.206V67.9749Z" fill="#AFAFAF"/>
<path d="M211.825 74.2874H232.481V67.9749H203.919V113.475H211.825V74.2874Z" fill="#AFAFAF"/>
<path d="M333.875 82.7874C333.417 77.9332 331.625 74.1415 328.5 71.4124C325.375 68.704 321.219 67.3499 316.031 67.3499C312.406 67.3499 309.208 68.204 306.438 69.9124C303.688 71.6415 301.562 74.0894 300.062 77.2561C298.562 80.4228 297.781 84.0999 297.719 88.2874V92.5374C297.719 96.829 298.479 100.61 300 103.881C301.521 107.152 303.698 109.673 306.531 111.444C309.385 113.214 312.677 114.1 316.406 114.1C321.427 114.1 325.469 112.735 328.531 110.006C331.594 107.277 333.375 103.423 333.875 98.4436H326C325.625 101.714 324.667 104.069 323.125 105.506C321.604 106.964 319.365 107.694 316.406 107.694C312.969 107.694 310.323 106.433 308.469 103.912C306.635 101.412 305.698 97.7353 305.656 92.8811V88.8499C305.656 83.9332 306.531 80.1832 308.281 77.5999C310.052 75.0165 312.635 73.7249 316.031 73.7249C319.135 73.7249 321.469 74.4228 323.031 75.8186C324.594 77.2144 325.583 79.5374 326 82.7874H333.875Z" fill="#AFAFAF"/>
<path d="M380.481 89.5374C380.481 85.079 379.71 81.1624 378.169 77.7874C376.627 74.4332 374.419 71.8499 371.544 70.0374C368.69 68.2457 365.398 67.3499 361.669 67.3499C357.981 67.3499 354.69 68.2457 351.794 70.0374C348.919 71.8499 346.69 74.4228 345.106 77.7561C343.544 81.0894 342.752 84.9332 342.731 89.2874V91.8499C342.731 96.2874 343.513 100.204 345.075 103.6C346.658 106.996 348.877 109.589 351.731 111.381C354.606 113.194 357.898 114.1 361.606 114.1C365.315 114.1 368.596 113.204 371.45 111.412C374.325 109.642 376.544 107.079 378.106 103.725C379.669 100.392 380.46 96.5061 380.481 92.0686V89.5374ZM372.575 91.9124C372.575 96.954 371.617 100.819 369.7 103.506C367.804 106.194 365.106 107.537 361.606 107.537C358.19 107.537 355.513 106.194 353.575 103.506C351.658 100.839 350.679 97.0582 350.638 92.1624V89.5374C350.638 84.5374 351.606 80.6728 353.544 77.9436C355.502 75.2144 358.21 73.8499 361.669 73.8499C365.169 73.8499 367.856 75.1832 369.731 77.8499C371.627 80.5165 372.575 84.4124 372.575 89.5374V91.9124Z" fill="#AFAFAF"/>
<path d="M479.969 107.1H465.781V67.9749H457.938V107.1H443.875V113.475H479.969V107.1Z" fill="#AFAFAF"/>
<path d="M515.763 88.2874H497.075V74.2874H518.919V67.9749H489.169V113.475H518.7V107.1H497.075V94.5374H515.763V88.2874Z" fill="#AFAFAF"/>
<path d="M482.156 203.125H474.281V171.219C474.281 166.865 475.646 163.406 478.375 160.844C481.083 158.281 484.667 157 489.125 157C493.875 157 497.542 158.198 500.125 160.594C502.708 162.99 504 166.323 504 170.594H496.125C496.125 168.177 495.531 166.354 494.344 165.125C493.135 163.917 491.396 163.312 489.125 163.312C487 163.312 485.312 164.01 484.062 165.406C482.792 166.823 482.156 168.771 482.156 171.25V203.125Z" fill="#AFAFAF"/>
<path d="M425.706 179.188C425.706 174.729 426.477 170.812 428.019 167.438C429.56 164.083 431.769 161.5 434.644 159.688C437.498 157.896 440.79 157 444.519 157C448.206 157 451.498 157.896 454.394 159.688C457.269 161.5 459.498 164.073 461.081 167.406C462.644 170.74 463.435 174.583 463.456 178.938V181.5C463.456 185.938 462.675 189.854 461.112 193.25C459.529 196.646 457.31 199.24 454.456 201.031C451.581 202.844 448.29 203.75 444.581 203.75C440.873 203.75 437.592 202.854 434.738 201.062C431.863 199.292 429.644 196.729 428.081 193.375C426.519 190.042 425.727 186.156 425.706 181.719V179.188ZM433.613 181.562C433.613 186.604 434.571 190.469 436.488 193.156C438.383 195.844 441.081 197.188 444.581 197.188C447.998 197.188 450.675 195.844 452.612 193.156C454.529 190.49 455.508 186.708 455.55 181.812V179.188C455.55 174.188 454.581 170.323 452.644 167.594C450.685 164.865 447.977 163.5 444.519 163.5C441.019 163.5 438.331 164.833 436.456 167.5C434.56 170.167 433.613 174.062 433.613 179.188V181.562Z" fill="#AFAFAF"/>
<path d="M340.231 157.625H348.106V177.844H368.45V157.625H376.356V203.125H368.45V184.188H348.106V203.125H340.231V157.625Z" fill="#AFAFAF"/>
<path d="M300.612 163.938H279.956V157.625H308.519V203.125H300.612V163.938Z" fill="#AFAFAF"/>
<path d="M244.6 168.219H262.225L265.912 157.625H274.131L256.944 203.125H249.85L232.631 157.625H240.881L244.6 168.219ZM260.006 174.594H246.819L253.412 193.469L260.006 174.594Z" fill="#AFAFAF"/>
<path d="M190.212 172.438C190.671 167.583 192.462 163.792 195.587 161.062C198.712 158.354 202.869 157 208.056 157C211.681 157 214.879 157.854 217.65 159.562C220.4 161.292 222.525 163.74 224.025 166.906C225.525 170.073 226.306 173.75 226.369 177.938V182.188C226.369 186.479 225.608 190.26 224.087 193.531C222.567 196.802 220.39 199.323 217.556 201.094C214.702 202.865 211.41 203.75 207.681 203.75C202.66 203.75 198.619 202.385 195.556 199.656C192.494 196.927 190.712 193.073 190.212 188.094H198.087C198.462 191.365 199.421 193.719 200.962 195.156C202.483 196.615 204.723 197.344 207.681 197.344C211.119 197.344 213.765 196.083 215.619 193.562C217.452 191.062 218.39 187.385 218.431 182.531V178.5C218.431 173.583 217.556 169.833 215.806 167.25C214.035 164.667 211.452 163.375 208.056 163.375C204.952 163.375 202.619 164.073 201.056 165.469C199.494 166.865 198.504 169.188 198.087 172.438H190.212Z" fill="#AFAFAF"/>
<path d="M117.862 169.344C117.862 171.344 118.571 172.885 119.987 173.969C121.383 175.052 123.915 176.146 127.581 177.25C131.248 178.354 134.165 179.583 136.331 180.938C140.477 183.542 142.55 186.938 142.55 191.125C142.55 194.792 141.06 197.812 138.081 200.188C135.081 202.562 131.196 203.75 126.425 203.75C123.258 203.75 120.435 203.167 117.956 202C115.477 200.833 113.529 199.167 112.112 197C110.696 194.854 109.987 192.469 109.987 189.844H117.862C117.862 192.219 118.612 194.073 120.112 195.406C121.592 196.76 123.717 197.438 126.487 197.438C129.071 197.438 131.081 196.885 132.519 195.781C133.935 194.677 134.644 193.135 134.644 191.156C134.644 189.49 133.873 188.094 132.331 186.969C130.79 185.865 128.248 184.781 124.706 183.719C121.165 182.677 118.321 181.479 116.175 180.125C114.029 178.792 112.456 177.25 111.456 175.5C110.456 173.771 109.956 171.74 109.956 169.406C109.956 165.615 111.415 162.594 114.331 160.344C117.227 158.115 121.165 157 126.144 157C129.435 157 132.467 157.604 135.237 158.812C137.987 160.042 140.133 161.729 141.675 163.875C143.196 166.021 143.956 168.521 143.956 171.375H136.05C136.05 168.792 135.196 166.792 133.487 165.375C131.779 163.958 129.331 163.25 126.144 163.25C123.394 163.25 121.331 163.802 119.956 164.906C118.56 166.031 117.862 167.51 117.862 169.344Z" fill="#AFAFAF"/>
<path d="M66.9437 196.75H81.1312V157.625H88.975V196.75H103.037V203.125H66.9437V196.75Z" fill="#AFAFAF"/>
<path d="M31.15 177.938H49.8375V163.938H27.9937V157.625H57.7437V203.125H28.2125V196.75H49.8375V184.188H31.15V177.938Z" fill="#AFAFAF"/>
<path d="M49.8438 318.125H57.7188V286.219C57.7188 281.865 56.3542 278.406 53.625 275.844C50.9167 273.281 47.3333 272 42.875 272C38.125 272 34.4583 273.198 31.875 275.594C29.2917 277.99 28 281.323 28 285.594H35.875C35.875 283.177 36.4688 281.354 37.6562 280.125C38.8646 278.917 40.6042 278.312 42.875 278.312C45 278.312 46.6875 279.01 47.9375 280.406C49.2083 281.823 49.8438 283.771 49.8438 286.25V318.125Z" fill="#AFAFAF"/>
<path d="M106.294 294.188C106.294 289.729 105.523 285.812 103.981 282.438C102.44 279.083 100.231 276.5 97.3562 274.688C94.5021 272.896 91.2104 272 87.4813 272C83.7938 272 80.5021 272.896 77.6063 274.688C74.7313 276.5 72.5021 279.073 70.9188 282.406C69.3563 285.74 68.5646 289.583 68.5438 293.938V296.5C68.5438 300.938 69.325 304.854 70.8875 308.25C72.4708 311.646 74.6896 314.24 77.5438 316.031C80.4188 317.844 83.7104 318.75 87.4188 318.75C91.1271 318.75 94.4083 317.854 97.2625 316.062C100.137 314.292 102.356 311.729 103.919 308.375C105.481 305.042 106.273 301.156 106.294 296.719V294.188ZM98.3875 296.562C98.3875 301.604 97.4292 305.469 95.5125 308.156C93.6167 310.844 90.9188 312.188 87.4188 312.188C84.0021 312.188 81.325 310.844 79.3875 308.156C77.4708 305.49 76.4917 301.708 76.45 296.812V294.188C76.45 289.188 77.4188 285.323 79.3563 282.594C81.3146 279.865 84.0229 278.5 87.4813 278.5C90.9813 278.5 93.6687 279.833 95.5437 282.5C97.4396 285.167 98.3875 289.062 98.3875 294.188V296.562Z" fill="#AFAFAF"/>
<path d="M191.769 272.625H183.894V292.844H163.55V272.625H155.644V318.125H163.55V299.188H183.894V318.125H191.769V272.625Z" fill="#AFAFAF"/>
<path d="M231.388 278.938H252.044V272.625H223.481V318.125H231.388V278.938Z" fill="#AFAFAF"/>
<path d="M287.4 283.219H269.775L266.088 272.625H257.869L275.056 318.125H282.15L299.369 272.625H291.119L287.4 283.219ZM271.994 289.594H285.181L278.588 308.469L271.994 289.594Z" fill="#AFAFAF"/>
<path d="M341.788 287.438C341.329 282.583 339.538 278.792 336.413 276.062C333.288 273.354 329.131 272 323.944 272C320.319 272 317.121 272.854 314.35 274.562C311.6 276.292 309.475 278.74 307.975 281.906C306.475 285.073 305.694 288.75 305.631 292.938V297.188C305.631 301.479 306.392 305.26 307.913 308.531C309.433 311.802 311.61 314.323 314.444 316.094C317.298 317.865 320.59 318.75 324.319 318.75C329.34 318.75 333.381 317.385 336.444 314.656C339.506 311.927 341.288 308.073 341.788 303.094H333.913C333.538 306.365 332.579 308.719 331.038 310.156C329.517 311.615 327.277 312.344 324.319 312.344C320.881 312.344 318.235 311.083 316.381 308.562C314.548 306.062 313.61 302.385 313.569 297.531V293.5C313.569 288.583 314.444 284.833 316.194 282.25C317.965 279.667 320.548 278.375 323.944 278.375C327.048 278.375 329.381 279.073 330.944 280.469C332.506 281.865 333.496 284.188 333.913 287.438H341.788Z" fill="#AFAFAF"/>
<path d="M414.138 284.344C414.138 286.344 413.429 287.885 412.013 288.969C410.617 290.052 408.085 291.146 404.419 292.25C400.752 293.354 397.835 294.583 395.669 295.938C391.523 298.542 389.45 301.938 389.45 306.125C389.45 309.792 390.94 312.812 393.919 315.188C396.919 317.562 400.804 318.75 405.575 318.75C408.742 318.75 411.565 318.167 414.044 317C416.523 315.833 418.471 314.167 419.888 312C421.304 309.854 422.013 307.469 422.013 304.844H414.138C414.138 307.219 413.388 309.073 411.888 310.406C410.408 311.76 408.283 312.438 405.513 312.438C402.929 312.438 400.919 311.885 399.481 310.781C398.065 309.677 397.356 308.135 397.356 306.156C397.356 304.49 398.127 303.094 399.669 301.969C401.21 300.865 403.752 299.781 407.294 298.719C410.835 297.677 413.679 296.479 415.825 295.125C417.971 293.792 419.544 292.25 420.544 290.5C421.544 288.771 422.044 286.74 422.044 284.406C422.044 280.615 420.585 277.594 417.669 275.344C414.773 273.115 410.835 272 405.856 272C402.565 272 399.533 272.604 396.763 273.812C394.013 275.042 391.867 276.729 390.325 278.875C388.804 281.021 388.044 283.521 388.044 286.375H395.95C395.95 283.792 396.804 281.792 398.513 280.375C400.221 278.958 402.669 278.25 405.856 278.25C408.606 278.25 410.669 278.802 412.044 279.906C413.44 281.031 414.138 282.51 414.138 284.344Z" fill="#AFAFAF"/>
<path d="M465.056 311.75H450.869V272.625H443.025V311.75H428.963V318.125H465.056V311.75Z" fill="#AFAFAF"/>
<path d="M500.85 292.938H482.163V278.938H504.006V272.625H474.256V318.125H503.788V311.75H482.163V299.188H500.85V292.938Z" fill="#AFAFAF"/>
<path d="M42.27 214.125H50.145V246.031C50.145 250.385 48.7804 253.844 46.0513 256.406C43.3429 258.969 39.7596 260.25 35.3013 260.25C30.5513 260.25 26.8846 259.052 24.3013 256.656C21.7179 254.26 20.4263 250.927 20.4263 246.656H28.3013C28.3013 249.073 28.895 250.896 30.0825 252.125C31.2909 253.333 33.0304 253.938 35.3013 253.938C37.4263 253.938 39.1138 253.24 40.3638 251.844C41.6346 250.427 42.27 248.479 42.27 246V214.125Z" fill="black"/>
<path d="M98.72 238.062C98.72 242.521 97.9492 246.438 96.4075 249.812C94.8659 253.167 92.6575 255.75 89.7825 257.562C86.9284 259.354 83.6367 260.25 79.9075 260.25C76.22 260.25 72.9284 259.354 70.0325 257.562C67.1575 255.75 64.9284 253.177 63.345 249.844C61.7825 246.51 60.9909 242.667 60.97 238.312V235.75C60.97 231.312 61.7513 227.396 63.3138 224C64.8971 220.604 67.1159 218.01 69.97 216.219C72.845 214.406 76.1367 213.5 79.845 213.5C83.5534 213.5 86.8346 214.396 89.6888 216.188C92.5638 217.958 94.7825 220.521 96.345 223.875C97.9075 227.208 98.6992 231.094 98.72 235.531V238.062ZM90.8138 235.688C90.8138 230.646 89.8554 226.781 87.9388 224.094C86.0429 221.406 83.345 220.062 79.845 220.062C76.4284 220.062 73.7513 221.406 71.8138 224.094C69.8971 226.76 68.9179 230.542 68.8763 235.438V238.062C68.8763 243.062 69.845 246.927 71.7825 249.656C73.7409 252.385 76.4492 253.75 79.9075 253.75C83.4075 253.75 86.095 252.417 87.97 249.75C89.8659 247.083 90.8138 243.188 90.8138 238.062V235.688Z" fill="black"/>
<path d="M133.576 247.906C133.576 245.906 132.868 244.365 131.451 243.281C130.055 242.198 127.524 241.104 123.858 240C120.191 238.896 117.274 237.667 115.108 236.312C110.962 233.708 108.889 230.312 108.889 226.125C108.889 222.458 110.378 219.438 113.358 217.062C116.358 214.688 120.243 213.5 125.014 213.5C128.18 213.5 131.003 214.083 133.483 215.25C135.962 216.417 137.91 218.083 139.326 220.25C140.743 222.396 141.451 224.781 141.451 227.406H133.576C133.576 225.031 132.826 223.177 131.326 221.844C129.847 220.49 127.722 219.812 124.951 219.812C122.368 219.812 120.358 220.365 118.92 221.469C117.503 222.573 116.795 224.115 116.795 226.094C116.795 227.76 117.566 229.156 119.108 230.281C120.649 231.385 123.191 232.469 126.733 233.531C130.274 234.573 133.118 235.771 135.264 237.125C137.41 238.458 138.983 240 139.983 241.75C140.983 243.479 141.483 245.51 141.483 247.844C141.483 251.635 140.024 254.656 137.108 256.906C134.212 259.135 130.274 260.25 125.295 260.25C122.003 260.25 118.972 259.646 116.201 258.438C113.451 257.208 111.305 255.521 109.764 253.375C108.243 251.229 107.483 248.729 107.483 245.875H115.389C115.389 248.458 116.243 250.458 117.951 251.875C119.66 253.292 122.108 254 125.295 254C128.045 254 130.108 253.448 131.483 252.344C132.878 251.219 133.576 249.74 133.576 247.906Z" fill="black"/>
<path d="M187.745 259.625H179.87V239.406H159.526V259.625H151.62V214.125H159.526V233.062H179.87V214.125H187.745V259.625Z" fill="black"/>
<path d="M227.364 253.312H248.02V259.625H219.458V214.125H227.364V253.312Z" fill="black"/>
<path d="M283.376 249.031H265.751L262.064 259.625H253.845L271.033 214.125H278.126L295.345 259.625H287.095L283.376 249.031ZM267.97 242.656H281.158L274.564 223.781L267.97 242.656Z" fill="black"/>
<path d="M337.764 244.812C337.305 249.667 335.514 253.458 332.389 256.188C329.264 258.896 325.108 260.25 319.92 260.25C316.295 260.25 313.097 259.396 310.326 257.688C307.576 255.958 305.451 253.51 303.951 250.344C302.451 247.177 301.67 243.5 301.608 239.312V235.062C301.608 230.771 302.368 226.99 303.889 223.719C305.41 220.448 307.587 217.927 310.42 216.156C313.274 214.385 316.566 213.5 320.295 213.5C325.316 213.5 329.358 214.865 332.42 217.594C335.483 220.323 337.264 224.177 337.764 229.156H329.889C329.514 225.885 328.555 223.531 327.014 222.094C325.493 220.635 323.253 219.906 320.295 219.906C316.858 219.906 314.212 221.167 312.358 223.688C310.524 226.188 309.587 229.865 309.545 234.719V238.75C309.545 243.667 310.42 247.417 312.17 250C313.941 252.583 316.524 253.875 319.92 253.875C323.024 253.875 325.358 253.177 326.92 251.781C328.483 250.385 329.472 248.062 329.889 244.812H337.764Z" fill="black"/>
<path d="M384.37 238.062C384.37 242.521 383.599 246.438 382.058 249.812C380.516 253.167 378.308 255.75 375.433 257.562C372.578 259.354 369.287 260.25 365.558 260.25C361.87 260.25 358.578 259.354 355.683 257.562C352.808 255.75 350.578 253.177 348.995 249.844C347.433 246.51 346.641 242.667 346.62 238.312V235.75C346.62 231.312 347.401 227.396 348.964 224C350.547 220.604 352.766 218.01 355.62 216.219C358.495 214.406 361.787 213.5 365.495 213.5C369.203 213.5 372.485 214.396 375.339 216.188C378.214 217.958 380.433 220.521 381.995 223.875C383.558 227.208 384.349 231.094 384.37 235.531V238.062ZM376.464 235.688C376.464 230.646 375.505 226.781 373.589 224.094C371.693 221.406 368.995 220.062 365.495 220.062C362.078 220.062 359.401 221.406 357.464 224.094C355.547 226.76 354.568 230.542 354.526 235.438V238.062C354.526 243.062 355.495 246.927 357.433 249.656C359.391 252.385 362.099 253.75 365.558 253.75C369.058 253.75 371.745 252.417 373.62 249.75C375.516 247.083 376.464 243.188 376.464 238.062V235.688Z" fill="black"/>
<path d="M419.226 247.906C419.226 245.906 418.518 244.365 417.101 243.281C415.705 242.198 413.174 241.104 409.508 240C405.841 238.896 402.924 237.667 400.758 236.312C396.612 233.708 394.539 230.312 394.539 226.125C394.539 222.458 396.028 219.438 399.008 217.062C402.008 214.688 405.893 213.5 410.664 213.5C413.83 213.5 416.653 214.083 419.133 215.25C421.612 216.417 423.56 218.083 424.976 220.25C426.393 222.396 427.101 224.781 427.101 227.406H419.226C419.226 225.031 418.476 223.177 416.976 221.844C415.497 220.49 413.372 219.812 410.601 219.812C408.018 219.812 406.008 220.365 404.57 221.469C403.153 222.573 402.445 224.115 402.445 226.094C402.445 227.76 403.216 229.156 404.758 230.281C406.299 231.385 408.841 232.469 412.383 233.531C415.924 234.573 418.768 235.771 420.914 237.125C423.06 238.458 424.633 240 425.633 241.75C426.633 243.479 427.133 245.51 427.133 247.844C427.133 251.635 425.674 254.656 422.758 256.906C419.862 259.135 415.924 260.25 410.945 260.25C407.653 260.25 404.622 259.646 401.851 258.438C399.101 257.208 396.955 255.521 395.414 253.375C393.893 251.229 393.133 248.729 393.133 245.875H401.039C401.039 248.458 401.893 250.458 403.601 251.875C405.31 253.292 407.758 254 410.945 254C413.695 254 415.758 253.448 417.133 252.344C418.528 251.219 419.226 249.74 419.226 247.906Z" fill="black"/>
<path d="M470.145 220.5H455.958V259.625H448.114V220.5H434.051V214.125H470.145V220.5Z" fill="black"/>
<path d="M505.939 239.312H487.251V253.312H509.095V259.625H479.345V214.125H508.876V220.5H487.251V233.062H505.939V239.312Z" fill="black"/>
<path d="M0 232.279H531.85V242.663H0V232.279Z" fill="#32335B"/>
<path d="M507.552 410.512H499.099V376.263C499.099 371.589 500.564 367.877 503.493 365.126C506.4 362.375 510.247 361 515.033 361C520.131 361 524.067 362.286 526.84 364.858C529.613 367.429 531 371.007 531 375.592H522.547C522.547 372.998 521.909 371.041 520.635 369.722C519.338 368.425 517.47 367.776 515.033 367.776C512.752 367.776 510.94 368.525 509.598 370.024C508.234 371.544 507.552 373.635 507.552 376.296V410.512Z" fill="#DCDCDC"/>
<path d="M446.957 384.817C446.957 380.031 447.784 375.827 449.439 372.204C451.094 368.603 453.464 365.83 456.55 363.885C459.614 361.962 463.148 361 467.151 361C471.109 361 474.642 361.962 477.751 363.885C480.837 365.83 483.23 368.592 484.929 372.17C486.607 375.749 487.456 379.875 487.479 384.548V387.299C487.479 392.063 486.64 396.267 484.963 399.912C483.263 403.557 480.882 406.341 477.818 408.265C474.732 410.21 471.198 411.183 467.218 411.183C463.237 411.183 459.715 410.221 456.651 408.298C453.565 406.397 451.183 403.647 449.506 400.046C447.829 396.468 446.979 392.297 446.957 387.534V384.817ZM455.443 387.366C455.443 392.778 456.472 396.927 458.53 399.811C460.565 402.696 463.461 404.139 467.218 404.139C470.885 404.139 473.759 402.696 475.839 399.811C477.896 396.949 478.947 392.89 478.992 387.635V384.817C478.992 379.45 477.952 375.301 475.872 372.372C473.77 369.442 470.863 367.977 467.151 367.977C463.394 367.977 460.509 369.409 458.496 372.271C456.461 375.134 455.443 379.315 455.443 384.817V387.366Z" fill="#DCDCDC"/>
<path d="M409.541 374.25C409.541 376.397 410.301 378.052 411.822 379.215C413.32 380.378 416.037 381.552 419.973 382.737C423.909 383.922 427.04 385.242 429.366 386.695C433.816 389.491 436.041 393.136 436.041 397.631C436.041 401.567 434.442 404.81 431.244 407.359C428.024 409.908 423.853 411.183 418.732 411.183C415.333 411.183 412.302 410.557 409.641 409.305C406.98 408.052 404.889 406.263 403.368 403.937C401.848 401.634 401.087 399.073 401.087 396.256H409.541C409.541 398.805 410.346 400.795 411.956 402.227C413.544 403.68 415.825 404.407 418.799 404.407C421.572 404.407 423.73 403.814 425.273 402.629C426.794 401.444 427.554 399.789 427.554 397.665C427.554 395.875 426.727 394.377 425.072 393.169C423.417 391.984 420.689 390.821 416.887 389.681C413.085 388.563 410.033 387.277 407.729 385.823C405.426 384.392 403.737 382.737 402.664 380.859C401.59 379.002 401.054 376.822 401.054 374.317C401.054 370.247 402.619 367.004 405.75 364.589C408.859 362.196 413.085 361 418.43 361C421.963 361 425.217 361.648 428.192 362.946C431.144 364.265 433.447 366.076 435.102 368.38C436.734 370.683 437.551 373.367 437.551 376.431H429.064C429.064 373.658 428.147 371.511 426.313 369.99C424.479 368.469 421.852 367.709 418.43 367.709C415.478 367.709 413.264 368.302 411.788 369.487C410.29 370.694 409.541 372.282 409.541 374.25Z" fill="#DCDCDC"/>
<path d="M351.394 361.671H359.847V383.374H381.685V361.671H390.172V410.512H381.685V390.184H359.847V410.512H351.394V361.671Z" fill="#DCDCDC"/>
<path d="M308.866 368.447H286.692V361.671H317.353V410.512H308.866V368.447Z" fill="#DCDCDC"/>
<path d="M248.74 373.043H267.659L271.617 361.671H280.44L261.99 410.512H254.375L235.892 361.671H244.748L248.74 373.043ZM265.277 379.886H251.121L258.199 400.147L265.277 379.886Z" fill="#DCDCDC"/>
<path d="M190.358 377.571C190.85 372.36 192.773 368.29 196.128 365.361C199.482 362.454 203.944 361 209.512 361C213.404 361 216.836 361.917 219.811 363.751C222.763 365.607 225.044 368.234 226.654 371.634C228.264 375.033 229.103 378.98 229.17 383.475V388.037C229.17 392.644 228.353 396.703 226.721 400.214C225.088 403.725 222.751 406.431 219.71 408.332C216.646 410.233 213.113 411.183 209.11 411.183C203.72 411.183 199.382 409.718 196.094 406.789C192.807 403.859 190.895 399.722 190.358 394.377H198.812C199.214 397.888 200.243 400.415 201.898 401.958C203.53 403.524 205.934 404.306 209.11 404.306C212.8 404.306 215.64 402.953 217.63 400.247C219.598 397.564 220.605 393.617 220.649 388.406V384.079C220.649 378.801 219.71 374.776 217.832 372.003C215.931 369.23 213.158 367.843 209.512 367.843C206.18 367.843 203.676 368.592 201.998 370.091C200.321 371.589 199.259 374.082 198.812 377.571H190.358Z" fill="#DCDCDC"/>
<path d="M140.329 384.817C140.329 380.031 141.157 375.827 142.812 372.204C144.467 368.603 146.837 365.83 149.923 363.885C152.987 361.962 156.52 361 160.523 361C164.482 361 168.015 361.962 171.124 363.885C174.21 365.83 176.603 368.592 178.302 372.17C179.979 375.749 180.829 379.875 180.852 384.548V387.299C180.852 392.063 180.013 396.267 178.336 399.912C176.636 403.557 174.254 406.341 171.191 408.265C168.105 410.21 164.571 411.183 160.59 411.183C156.61 411.183 153.088 410.221 150.024 408.298C146.938 406.397 144.556 403.647 142.879 400.046C141.202 396.468 140.352 392.297 140.329 387.534V384.817ZM148.816 387.366C148.816 392.778 149.845 396.927 151.902 399.811C153.937 402.696 156.833 404.139 160.59 404.139C164.258 404.139 167.132 402.696 169.212 399.811C171.269 396.949 172.32 392.89 172.365 387.635V384.817C172.365 379.45 171.325 375.301 169.245 372.372C167.143 369.442 164.236 367.977 160.523 367.977C156.766 367.977 153.882 369.409 151.869 372.271C149.834 375.134 148.816 379.315 148.816 384.817V387.366Z" fill="#DCDCDC"/>
<path d="M102.913 374.25C102.913 376.397 103.674 378.052 105.194 379.215C106.693 380.378 109.41 381.552 113.346 382.737C117.282 383.922 120.413 385.242 122.738 386.695C127.189 389.491 129.414 393.136 129.414 397.631C129.414 401.567 127.815 404.81 124.617 407.359C121.397 409.908 117.226 411.183 112.105 411.183C108.705 411.183 105.675 410.557 103.014 409.305C100.353 408.052 98.2618 406.263 96.7411 403.937C95.2204 401.634 94.4601 399.073 94.4601 396.256H102.913C102.913 398.805 103.718 400.795 105.329 402.227C106.916 403.68 109.197 404.407 112.172 404.407C114.945 404.407 117.103 403.814 118.646 402.629C120.167 401.444 120.927 399.789 120.927 397.665C120.927 395.875 120.1 394.377 118.445 393.169C116.79 391.984 114.061 390.821 110.26 389.681C106.458 388.563 103.405 387.277 101.102 385.823C98.7985 384.392 97.1101 382.737 96.0367 380.859C94.9632 379.002 94.4265 376.822 94.4265 374.317C94.4265 370.247 95.9919 367.004 99.1228 364.589C102.231 362.196 106.458 361 111.803 361C115.336 361 118.59 361.648 121.564 362.946C124.516 364.265 126.82 366.076 128.475 368.38C130.107 370.683 130.923 373.367 130.923 376.431H122.436C122.436 373.658 121.52 371.511 119.686 369.99C117.852 368.469 115.224 367.709 111.803 367.709C108.851 367.709 106.637 368.302 105.161 369.487C103.663 370.694 102.913 372.282 102.913 374.25Z" fill="#DCDCDC"/>
<path d="M48.2553 403.669H63.4847V361.671H71.9045V403.669H86.9997V410.512H48.2553V403.669Z" fill="#DCDCDC"/>
<path d="M9.83301 383.475H29.8929V368.447H6.44495V361.671H38.3797V410.512H6.67975V403.669H29.8929V390.184H9.83301V383.475Z" fill="#DCDCDC"/>
<path d="M24.4479 536.462H32.9012V502.213C32.9012 497.539 31.4364 493.826 28.5068 491.076C25.5996 488.325 21.7531 486.95 16.9674 486.95C11.8685 486.95 7.93261 488.236 5.15957 490.807C2.38652 493.379 1 496.957 1 501.542H9.45331C9.45331 498.948 10.0907 496.991 11.3654 495.671C12.6624 494.374 14.5298 493.726 16.9674 493.726C19.2484 493.726 21.0599 494.475 22.4016 495.973C23.7658 497.494 24.4479 499.585 24.4479 502.246V536.462Z" fill="#DCDCDC"/>
<path d="M85.0434 510.767C85.0434 505.981 84.216 501.776 82.5611 498.154C80.9062 494.553 78.5357 491.78 75.4496 489.835C72.3858 487.911 68.8524 486.95 64.8494 486.95C60.8911 486.95 57.3577 487.911 54.2492 489.835C51.163 491.78 48.7702 494.542 47.0706 498.12C45.3933 501.698 44.5435 505.824 44.5212 510.498V513.249C44.5212 518.012 45.3598 522.217 47.037 525.862C48.7366 529.507 51.1183 532.291 54.1821 534.214C57.2682 536.16 60.8016 537.133 64.7823 537.133C68.7629 537.133 72.2852 536.171 75.3489 534.248C78.4351 532.347 80.8167 529.596 82.494 525.996C84.1712 522.418 85.021 518.247 85.0434 513.484V510.767ZM76.5565 513.316C76.5565 518.728 75.5278 522.876 73.4704 525.761C71.4353 528.646 68.5393 530.088 64.7823 530.088C61.1147 530.088 58.241 528.646 56.1612 525.761C54.1038 522.899 53.0527 518.84 53.008 513.584V510.767C53.008 505.399 54.0479 501.251 56.1277 498.321C58.2298 495.392 61.1371 493.927 64.8494 493.927C68.6064 493.927 71.4913 495.358 73.504 498.221C75.539 501.083 76.5565 505.265 76.5565 510.767V513.316Z" fill="#DCDCDC"/>
<path d="M122.459 500.2C122.459 502.347 121.699 504.002 120.178 505.165C118.68 506.327 115.963 507.501 112.027 508.687C108.091 509.872 104.96 511.191 102.634 512.645C98.1841 515.44 95.9589 519.086 95.9589 523.581C95.9589 527.517 97.5579 530.759 100.756 533.309C103.976 535.858 108.147 537.133 113.268 537.133C116.667 537.133 119.698 536.507 122.359 535.254C125.02 534.002 127.111 532.213 128.632 529.887C130.152 527.584 130.913 525.023 130.913 522.205H122.459C122.459 524.755 121.654 526.745 120.044 528.176C118.456 529.63 116.175 530.357 113.201 530.357C110.428 530.357 108.27 529.764 106.727 528.579C105.206 527.394 104.446 525.739 104.446 523.614C104.446 521.825 105.273 520.327 106.928 519.119C108.583 517.934 111.311 516.771 115.113 515.631C118.915 514.512 121.967 513.226 124.271 511.773C126.574 510.342 128.263 508.687 129.336 506.808C130.41 504.952 130.946 502.772 130.946 500.267C130.946 496.197 129.381 492.954 126.25 490.539C123.141 488.146 118.915 486.95 113.57 486.95C110.037 486.95 106.783 487.598 103.808 488.895C100.856 490.215 98.5531 492.026 96.8982 494.33C95.2656 496.633 94.4494 499.317 94.4494 502.38H102.936C102.936 499.607 103.853 497.46 105.687 495.94C107.521 494.419 110.148 493.659 113.57 493.659C116.522 493.659 118.736 494.251 120.212 495.437C121.71 496.644 122.459 498.232 122.459 500.2Z" fill="#DCDCDC"/>
<path d="M180.606 487.621H172.153V509.324H150.315V487.621H141.828V536.462H150.315V516.134H172.153V536.462H180.606V487.621Z" fill="#DCDCDC"/>
<path d="M223.134 494.397H245.308V487.621H214.647V536.462H223.134V494.397Z" fill="#DCDCDC"/>
<path d="M283.26 498.992H264.341L260.383 487.621H251.56L270.01 536.462H277.625L296.108 487.621H287.252L283.26 498.992ZM266.723 505.835H280.879L273.801 526.097L266.723 505.835Z" fill="#DCDCDC"/>
<path d="M342.38 503.521C341.888 498.31 339.965 494.24 336.61 491.31C333.256 488.403 328.794 486.95 323.226 486.95C319.334 486.95 315.902 487.867 312.927 489.7C309.975 491.556 307.694 494.184 306.084 497.583C304.474 500.983 303.635 504.93 303.568 509.425V513.987C303.568 518.594 304.385 522.653 306.017 526.164C307.65 529.675 309.987 532.381 313.028 534.281C316.092 536.182 319.625 537.133 323.628 537.133C329.018 537.133 333.356 535.668 336.644 532.738C339.931 529.809 341.843 525.672 342.38 520.327H333.926C333.524 523.838 332.495 526.365 330.84 527.908C329.208 529.473 326.804 530.256 323.628 530.256C319.938 530.256 317.098 528.903 315.108 526.197C313.14 523.514 312.133 519.566 312.089 514.356V510.029C312.089 504.751 313.028 500.725 314.906 497.952C316.807 495.179 319.58 493.793 323.226 493.793C326.558 493.793 329.062 494.542 330.74 496.04C332.417 497.539 333.479 500.032 333.926 503.521H342.38Z" fill="#DCDCDC"/>
<path d="M392.409 510.767C392.409 505.981 391.581 501.776 389.926 498.154C388.271 494.553 385.901 491.78 382.815 489.835C379.751 487.911 376.218 486.95 372.215 486.95C368.256 486.95 364.723 487.911 361.614 489.835C358.528 491.78 356.135 494.542 354.436 498.12C352.759 501.698 351.909 505.824 351.886 510.498V513.249C351.886 518.012 352.725 522.217 354.402 525.862C356.102 529.507 358.484 532.291 361.547 534.214C364.633 536.16 368.167 537.133 372.148 537.133C376.128 537.133 379.65 536.171 382.714 534.248C385.8 532.347 388.182 529.596 389.859 525.996C391.536 522.418 392.386 518.247 392.409 513.484V510.767ZM383.922 513.316C383.922 518.728 382.893 522.876 380.836 525.761C378.801 528.646 375.905 530.088 372.148 530.088C368.48 530.088 365.606 528.646 363.526 525.761C361.469 522.899 360.418 518.84 360.373 513.584V510.767C360.373 505.399 361.413 501.251 363.493 498.321C365.595 495.392 368.502 493.927 372.215 493.927C375.972 493.927 378.857 495.358 380.869 498.221C382.904 501.083 383.922 505.265 383.922 510.767V513.316Z" fill="#DCDCDC"/>
<path d="M429.825 500.2C429.825 502.347 429.064 504.002 427.544 505.165C426.045 506.327 423.328 507.501 419.392 508.687C415.456 509.872 412.325 511.191 410 512.645C405.549 515.44 403.324 519.086 403.324 523.581C403.324 527.517 404.923 530.759 408.121 533.309C411.341 535.858 415.512 537.133 420.633 537.133C424.033 537.133 427.063 536.507 429.724 535.254C432.385 534.002 434.476 532.213 435.997 529.887C437.518 527.584 438.278 525.023 438.278 522.205H429.825C429.825 524.755 429.02 526.745 427.409 528.176C425.822 529.63 423.541 530.357 420.566 530.357C417.793 530.357 415.635 529.764 414.092 528.579C412.571 527.394 411.811 525.739 411.811 523.614C411.811 521.825 412.638 520.327 414.293 519.119C415.948 517.934 418.677 516.771 422.478 515.631C426.28 514.512 429.333 513.226 431.636 511.773C433.939 510.342 435.628 508.687 436.701 506.808C437.775 504.952 438.311 502.772 438.311 500.267C438.311 496.197 436.746 492.954 433.615 490.539C430.507 488.146 426.28 486.95 420.935 486.95C417.402 486.95 414.148 487.598 411.174 488.895C408.222 490.215 405.918 492.026 404.263 494.33C402.631 496.633 401.815 499.317 401.815 502.38H410.301C410.301 499.607 411.218 497.46 413.052 495.94C414.886 494.419 417.514 493.659 420.935 493.659C423.887 493.659 426.101 494.251 427.577 495.437C429.075 496.644 429.825 498.232 429.825 500.2Z" fill="#DCDCDC"/>
<path d="M484.483 529.619H469.253V487.621H460.834V529.619H445.738V536.462H484.483V529.619Z" fill="#DCDCDC"/>
<path d="M522.905 509.425H502.845V494.397H526.293V487.621H494.358V536.462H526.058V529.619H502.845V516.134H522.905V509.425Z" fill="#DCDCDC"/>
<path d="M24.4479 424.467H32.9012V458.716C32.9012 463.39 31.4364 467.102 28.5068 469.853C25.5996 472.604 21.7531 473.979 16.9674 473.979C11.8685 473.979 7.93261 472.693 5.15957 470.121C2.38652 467.55 1 463.972 1 459.387H9.45331C9.45331 461.981 10.0907 463.938 11.3654 465.257C12.6624 466.554 14.5298 467.203 16.9674 467.203C19.2484 467.203 21.0599 466.454 22.4016 464.955C23.7658 463.435 24.4479 461.344 24.4479 458.683V424.467Z" fill="black"/>
<path d="M85.0434 450.162C85.0434 454.948 84.216 459.152 82.5611 462.775C80.9062 466.376 78.5357 469.149 75.4496 471.094C72.3858 473.017 68.8524 473.979 64.8494 473.979C60.8911 473.979 57.3577 473.017 54.2492 471.094C51.163 469.149 48.7702 466.387 47.0706 462.809C45.3933 459.23 44.5435 455.104 44.5212 450.431V447.68C44.5212 442.916 45.3598 438.712 47.037 435.067C48.7366 431.422 51.1183 428.638 54.1821 426.714C57.2682 424.769 60.8016 423.796 64.7823 423.796C68.7629 423.796 72.2852 424.758 75.3489 426.681C78.4351 428.582 80.8167 431.332 82.494 434.933C84.1712 438.511 85.021 442.682 85.0434 447.445V450.162ZM76.5565 447.613C76.5565 442.201 75.5278 438.052 73.4704 435.168C71.4353 432.283 68.5393 430.84 64.7823 430.84C61.1147 430.84 58.241 432.283 56.1612 435.168C54.1038 438.03 53.0527 442.089 53.008 447.344V450.162C53.008 455.529 54.0479 459.678 56.1277 462.607C58.2298 465.537 61.1371 467.002 64.8494 467.002C68.6064 467.002 71.4913 465.57 73.504 462.708C75.539 459.845 76.5565 455.664 76.5565 450.162V447.613Z" fill="black"/>
<path d="M122.459 460.729C122.459 458.582 121.699 456.927 120.178 455.764C118.68 454.601 115.963 453.427 112.027 452.242C108.091 451.057 104.96 449.737 102.634 448.284C98.1841 445.488 95.9589 441.843 95.9589 437.348C95.9589 433.412 97.5579 430.169 100.756 427.62C103.976 425.071 108.147 423.796 113.268 423.796C116.667 423.796 119.698 424.422 122.359 425.674C125.02 426.927 127.111 428.716 128.632 431.042C130.152 433.345 130.913 435.906 130.913 438.723H122.459C122.459 436.174 121.654 434.184 120.044 432.752C118.456 431.299 116.175 430.572 113.201 430.572C110.428 430.572 108.27 431.165 106.727 432.35C105.206 433.535 104.446 435.19 104.446 437.314C104.446 439.104 105.273 440.602 106.928 441.81C108.583 442.995 111.311 444.158 115.113 445.298C118.915 446.416 121.967 447.702 124.271 449.156C126.574 450.587 128.263 452.242 129.336 454.12C130.41 455.977 130.946 458.157 130.946 460.662C130.946 464.732 129.381 467.975 126.25 470.39C123.141 472.783 118.915 473.979 113.57 473.979C110.037 473.979 106.783 473.331 103.808 472.033C100.856 470.714 98.5531 468.903 96.8982 466.599C95.2656 464.296 94.4494 461.612 94.4494 458.548H102.936C102.936 461.321 103.853 463.468 105.687 464.989C107.521 466.51 110.148 467.27 113.57 467.27C116.522 467.27 118.736 466.677 120.212 465.492C121.71 464.285 122.459 462.697 122.459 460.729Z" fill="black"/>
<path d="M180.606 473.308H172.153V451.605H150.315V473.308H141.828V424.467H150.315V444.795H172.153V424.467H180.606V473.308Z" fill="black"/>
<path d="M223.134 466.532H245.308V473.308H214.647V424.467H223.134V466.532Z" fill="black"/>
<path d="M283.26 461.936H264.341L260.383 473.308H251.56L270.01 424.467H277.625L296.108 473.308H287.252L283.26 461.936ZM266.723 455.093H280.879L273.801 434.832L266.723 455.093Z" fill="black"/>
<path d="M341.642 457.408C341.15 462.619 339.227 466.689 335.872 469.618C332.518 472.525 328.056 473.979 322.488 473.979C318.596 473.979 315.164 473.062 312.189 471.228C309.237 469.372 306.956 466.745 305.346 463.345C303.736 459.946 302.897 455.999 302.83 451.504V446.942C302.83 442.335 303.647 438.276 305.279 434.765C306.912 431.254 309.249 428.548 312.29 426.647C315.354 424.746 318.887 423.796 322.89 423.796C328.28 423.796 332.618 425.261 335.906 428.19C339.193 431.12 341.105 435.257 341.642 440.602H333.188C332.786 437.091 331.757 434.564 330.102 433.021C328.47 431.455 326.066 430.673 322.89 430.673C319.2 430.673 316.36 432.026 314.37 434.732C312.402 437.415 311.395 441.362 311.351 446.573V450.9C311.351 456.178 312.29 460.203 314.168 462.976C316.069 465.749 318.842 467.136 322.488 467.136C325.82 467.136 328.324 466.387 330.002 464.888C331.679 463.39 332.741 460.897 333.188 457.408H341.642Z" fill="black"/>
<path d="M391.671 450.162C391.671 454.948 390.843 459.152 389.188 462.775C387.533 466.376 385.163 469.149 382.077 471.094C379.013 473.017 375.48 473.979 371.477 473.979C367.518 473.979 363.985 473.017 360.876 471.094C357.79 469.149 355.397 466.387 353.698 462.809C352.021 459.23 351.171 455.104 351.148 450.431V447.68C351.148 442.916 351.987 438.712 353.664 435.067C355.364 431.422 357.746 428.638 360.809 426.714C363.895 424.769 367.429 423.796 371.41 423.796C375.39 423.796 378.912 424.758 381.976 426.681C385.062 428.582 387.444 431.332 389.121 434.933C390.798 438.511 391.648 442.682 391.671 447.445V450.162ZM383.184 447.613C383.184 442.201 382.155 438.052 380.098 435.168C378.063 432.283 375.167 430.84 371.41 430.84C367.742 430.84 364.868 432.283 362.788 435.168C360.731 438.03 359.68 442.089 359.635 447.344V450.162C359.635 455.529 360.675 459.678 362.755 462.607C364.857 465.537 367.764 467.002 371.477 467.002C375.234 467.002 378.118 465.57 380.131 462.708C382.166 459.845 383.184 455.664 383.184 450.162V447.613Z" fill="black"/>
<path d="M429.087 460.729C429.087 458.582 428.326 456.927 426.806 455.764C425.307 454.601 422.59 453.427 418.654 452.242C414.718 451.057 411.587 449.737 409.262 448.284C404.811 445.488 402.586 441.843 402.586 437.348C402.586 433.412 404.185 430.169 407.383 427.62C410.603 425.071 414.774 423.796 419.895 423.796C423.295 423.796 426.325 424.422 428.986 425.674C431.647 426.927 433.738 428.716 435.259 431.042C436.78 433.345 437.54 435.906 437.54 438.723H429.087C429.087 436.174 428.282 434.184 426.671 432.752C425.084 431.299 422.803 430.572 419.828 430.572C417.055 430.572 414.897 431.165 413.354 432.35C411.833 433.535 411.073 435.19 411.073 437.314C411.073 439.104 411.9 440.602 413.555 441.81C415.21 442.995 417.939 444.158 421.74 445.298C425.542 446.416 428.595 447.702 430.898 449.156C433.201 450.587 434.89 452.242 435.963 454.12C437.037 455.977 437.573 458.157 437.573 460.662C437.573 464.732 436.008 467.975 432.877 470.39C429.769 472.783 425.542 473.979 420.197 473.979C416.664 473.979 413.41 473.331 410.436 472.033C407.484 470.714 405.18 468.903 403.525 466.599C401.893 464.296 401.077 461.612 401.077 458.548H409.564C409.564 461.321 410.48 463.468 412.314 464.989C414.148 466.51 416.776 467.27 420.197 467.27C423.149 467.27 425.363 466.677 426.839 465.492C428.337 464.285 429.087 462.697 429.087 460.729Z" fill="black"/>
<path d="M483.745 431.31H468.515V473.308H460.096V431.31H445V424.467H483.745V431.31Z" fill="black"/>
<path d="M522.167 451.504H502.107V466.532H525.555V473.308H493.62V424.467H525.32V431.31H502.107V444.795H522.167V451.504Z" fill="black"/>
</svg>
