<svg width="992" height="330" viewBox="0 0 992 330" fill="none" xmlns="http://www.w3.org/2000/svg">
<path d="M947.663 92.684H931.813V28.614C931.625 24.7564 932.262 20.9031 933.681 17.3112C935.1 13.7192 937.269 10.4712 940.043 7.78398C945.941 2.44277 953.715 -0.343931 961.663 0.0339775C971.19 0.0339775 978.553 2.44064 983.753 7.25398C986.411 9.85008 988.481 12.9856 989.825 16.4494C991.169 19.9132 991.755 23.6247 991.543 27.334H975.723C976.011 23.3389 974.723 19.3898 972.133 16.334C970.72 15.0572 969.066 14.0771 967.267 13.4518C965.469 12.8265 963.563 12.5688 961.663 12.694C959.764 12.6078 957.869 12.9393 956.112 13.665C954.355 14.3906 952.778 15.4929 951.493 16.894C948.791 20.1974 947.425 24.393 947.663 28.654V92.684Z" fill="#404040"/>
<path d="M834.333 44.6237C834.153 36.5182 835.732 28.4699 838.963 21.0337C841.781 14.6352 846.439 9.21908 852.343 5.47372C858.338 1.94258 865.168 0.0762039 872.126 0.067414C879.084 0.0586241 885.918 1.90773 891.923 5.42372C897.786 9.18098 902.434 14.5582 905.303 20.9037C908.539 28.1797 910.156 36.0715 910.043 44.0337V49.1737C910.201 57.292 908.594 65.3477 905.333 72.7837C902.491 79.1841 897.836 84.6111 891.943 88.3937C885.948 91.9434 879.109 93.8163 872.143 93.8163C865.176 93.8163 858.337 91.9434 852.343 88.3937C846.434 84.6991 841.77 79.3172 838.953 72.9437C835.675 65.5854 834.05 57.5979 834.193 49.5437L834.333 44.6237ZM850.203 49.3837C850.203 59.5037 852.103 67.2737 855.963 72.6837C859.196 76.9767 864.003 79.8097 869.325 80.5598C874.646 81.3099 880.048 79.9157 884.343 76.6837C885.859 75.5466 887.206 74.1998 888.343 72.6837C892.173 67.3237 894.153 59.6837 894.233 49.8937V44.5437C894.293 34.5437 892.349 26.8571 888.403 21.4837C886.592 18.8556 884.149 16.7259 881.299 15.291C878.448 13.8561 875.282 13.1623 872.093 13.2737C868.935 13.1196 865.79 13.7734 862.955 15.1733C860.121 16.5731 857.69 18.6728 855.893 21.2737C852.093 26.6071 850.193 34.4237 850.193 44.7237L850.203 49.3837Z" fill="#404040"/>
<path d="M655.563 1.32422H671.353V41.9142H712.263V1.32422H728.143V92.6842H712.263V54.6842H671.353V92.6842H655.563V1.32422Z" fill="#404040"/>
<path d="M576.043 14.0342H534.513V1.32422H591.783V92.6842H576.043V14.0342Z" fill="#404040"/>
<path d="M463.513 22.5842H498.903L506.323 1.32422H522.813L488.303 92.6842H473.983L439.493 1.32422H456.043L463.513 22.5842ZM494.463 35.4142H467.983L481.213 73.2942L494.463 35.4142Z" fill="#404040"/>
<path d="M354.303 31.0344C354.743 22.3171 358.602 14.1247 365.043 8.23436C371.343 2.90103 379.696 0.234359 390.103 0.234359C396.875 0.102539 403.547 1.88411 409.353 5.37436C414.961 8.94374 419.409 14.069 422.153 20.1244C425.299 27.0791 426.905 34.6313 426.863 42.2644V50.8144C427.023 58.6515 425.46 66.4282 422.283 73.5944C419.507 79.8408 414.941 85.1236 409.163 88.7744C403.191 92.4053 396.31 94.2642 389.323 94.1344C380.461 94.4972 371.79 91.5007 365.043 85.7444C358.616 79.6766 354.779 71.362 354.333 62.5344H370.153C370.906 69.081 372.833 73.811 375.933 76.7244C380.31 80.0865 385.815 81.6293 391.302 81.0313C396.789 80.4333 401.833 77.7405 405.383 73.5144C409.053 68.5144 410.953 61.1144 411.033 51.3644V43.3644C411.033 33.5144 409.273 25.9644 405.683 20.7944C403.98 18.2658 401.652 16.22 398.926 14.8552C396.2 13.4904 393.168 12.8529 390.123 13.0044C385.075 12.6052 380.059 14.0908 376.043 17.1744C372.883 19.9944 370.883 24.661 370.043 31.1744L354.303 31.0344Z" fill="#404040"/>
<path d="M260.733 44.6244C260.563 36.5197 262.142 28.4737 265.363 21.0344C268.187 14.6395 272.843 9.22486 278.743 5.47444C284.751 1.93374 291.598 0.0664062 298.573 0.0664062C305.547 0.0664062 312.394 1.93374 318.403 5.47444C324.263 9.2352 328.91 14.6114 331.783 20.9544C335.049 28.2322 336.677 36.1384 336.553 44.1144V49.2544C336.713 57.3728 335.106 65.429 331.843 72.8644C329.013 79.2724 324.355 84.7026 318.453 88.4744C312.458 92.0242 305.619 93.897 298.653 93.897C291.686 93.897 284.847 92.0242 278.853 88.4744C272.944 84.7849 268.279 79.4059 265.463 73.0344C262.184 65.6765 260.559 57.6887 260.703 49.6344L260.733 44.6244ZM276.603 49.3844C276.603 59.5044 278.523 67.2711 282.363 72.6844C285.596 76.9774 290.402 79.8104 295.724 80.5605C301.046 81.3106 306.448 79.9164 310.743 76.6844C312.259 75.5474 313.606 74.2006 314.743 72.6844C318.603 67.3511 320.566 59.7544 320.633 49.8944V44.5444C320.633 34.5444 318.689 26.7878 314.803 21.2744C312.997 18.6423 310.557 16.5075 307.708 15.0674C304.859 13.6272 301.693 12.9281 298.503 13.0344C295.37 12.9193 292.259 13.5912 289.454 14.9888C286.648 16.3863 284.238 18.4649 282.443 21.0344C278.643 26.3678 276.743 34.1878 276.743 44.4944L276.603 49.3844Z" fill="#404040"/>
<path d="M88.4429 79.8842H116.983V1.32422H132.723V79.8842H160.973V92.6842H88.4429V79.8842Z" fill="#404040"/>
<path d="M16.6027 42.1042H54.0927V14.0342H10.2627V1.32422H70.0427V92.6842H10.7927V79.8842H54.1427V54.6642H16.6627L16.6027 42.1042Z" fill="#404040"/>
<path d="M43.9428 328.284H59.7628V264.224C59.9535 260.367 59.3188 256.514 57.9013 252.922C56.4838 249.33 54.316 246.081 51.5428 243.394C45.649 238.075 37.8927 235.301 29.9628 235.674C20.4161 235.674 13.0528 238.084 7.8728 242.904C5.20128 245.502 3.11951 248.644 1.76856 252.117C0.417612 255.591 -0.170936 259.313 0.042801 263.034H15.9128C15.6097 259.042 16.8883 255.091 19.4728 252.034C20.8884 250.756 22.5464 249.775 24.3484 249.149C26.1504 248.524 28.0596 248.267 29.9628 248.394C31.8801 248.291 33.7964 248.615 35.5738 249.341C37.3513 250.067 38.9458 251.178 40.2428 252.594C42.935 255.882 44.2915 260.062 44.0428 264.304L43.9428 328.284Z" fill="#404040"/>
<path d="M157.303 280.234C157.475 272.132 155.902 264.086 152.693 256.644C149.883 250.228 145.224 244.793 139.313 241.034C133.349 237.384 126.463 235.524 119.473 235.674C112.485 235.545 105.604 237.404 99.6328 241.034C93.7672 244.788 89.116 250.161 86.2428 256.504C82.9808 263.783 81.3559 271.689 81.4828 279.664V284.804C81.303 292.928 82.9109 300.991 86.1928 308.424C89.015 314.834 93.6703 320.265 99.5728 324.034C105.528 327.686 112.409 329.544 119.393 329.384C126.362 329.532 133.228 327.675 139.173 324.034C145.079 320.338 149.743 314.956 152.563 308.584C155.83 301.223 157.455 293.238 157.323 285.184L157.303 280.234ZM141.423 285.034C141.423 295.154 139.496 302.918 135.643 308.324C133.83 310.921 131.389 313.017 128.547 314.416C125.706 315.814 122.557 316.471 119.393 316.324C116.259 316.442 113.145 315.772 110.338 314.374C107.53 312.976 105.118 310.896 103.323 308.324C99.4762 302.991 97.5128 295.398 97.4328 285.544V280.194C97.4328 270.194 99.3628 262.384 103.273 256.924C105.078 254.29 107.517 252.154 110.366 250.712C113.215 249.27 116.382 248.569 119.573 248.674C122.707 248.557 125.82 249.227 128.628 250.625C131.436 252.023 133.848 254.103 135.643 256.674C139.443 262.008 141.343 269.834 141.343 280.154L141.423 285.034Z" fill="#404040"/>
<path d="M227.283 260.474C227.379 262.251 227.042 264.024 226.302 265.642C225.561 267.26 224.44 268.675 223.033 269.764C218.34 272.777 213.185 275 207.773 276.344C201.612 278.093 195.701 280.623 190.183 283.874C181.843 289.114 177.683 295.931 177.703 304.324C177.65 307.856 178.438 311.349 180.003 314.516C181.568 317.682 183.865 320.431 186.703 322.534C193.451 327.532 201.713 330.056 210.103 329.684C215.959 329.784 221.765 328.585 227.103 326.174C231.891 323.96 235.962 320.447 238.853 316.034C241.676 311.773 243.16 306.765 243.113 301.654H227.283C227.4 303.73 227.058 305.806 226.282 307.734C225.506 309.663 224.315 311.397 222.793 312.814C219.192 315.761 214.605 317.227 209.963 316.914C205.675 317.158 201.426 315.992 197.863 313.594C196.463 312.497 195.347 311.082 194.606 309.466C193.865 307.85 193.521 306.08 193.603 304.304C193.611 302.629 194.037 300.983 194.842 299.515C195.647 298.046 196.806 296.802 198.213 295.894C202.958 292.912 208.131 290.673 213.553 289.254C219.567 287.645 225.331 285.215 230.683 282.034C234.574 279.785 237.835 276.589 240.163 272.744C242.23 269.006 243.265 264.785 243.163 260.514C243.278 257 242.539 253.51 241.01 250.344C239.481 247.177 237.207 244.429 234.383 242.334C228.583 237.921 220.676 235.714 210.663 235.714C204.388 235.641 198.167 236.885 192.403 239.364C187.259 241.534 182.793 245.046 179.473 249.534C176.394 253.922 174.791 259.175 174.893 264.534H190.773C190.651 262.273 191.052 260.015 191.943 257.934C192.834 255.853 194.193 254.006 195.913 252.534C200.182 249.436 205.4 247.929 210.663 248.274C215.04 247.951 219.399 249.106 223.043 251.554C224.415 252.59 225.518 253.941 226.256 255.494C226.994 257.047 227.346 258.756 227.283 260.474Z" fill="#404040"/>
<path d="M415.613 249.604H457.113V236.934H399.733V328.284H415.613V249.604Z" fill="#404040"/>
<path d="M528.093 258.194H492.723L485.333 236.934H468.813L503.433 328.284H517.703L552.263 236.934H535.563L528.093 258.194ZM497.163 271.034H523.643L510.263 308.914L497.163 271.034Z" fill="#404040"/>
<path d="M732.263 280.234C732.443 272.129 730.863 264.08 727.633 256.644C724.825 250.236 720.161 244.816 714.243 241.084C708.264 237.567 701.456 235.709 694.519 235.7C687.583 235.691 680.77 237.533 674.783 241.034C668.917 244.787 664.266 250.161 661.393 256.504C658.146 263.788 656.522 271.69 656.633 279.664V284.804C656.474 292.926 658.081 300.985 661.343 308.424C664.181 314.827 668.837 320.255 674.733 324.034C680.729 327.579 687.567 329.449 694.533 329.449C701.498 329.449 708.336 327.579 714.333 324.034C720.236 320.337 724.896 314.955 727.713 308.584C730.993 301.226 732.621 293.239 732.483 285.184L732.263 280.234ZM716.393 285.034C716.393 295.154 714.493 302.924 710.633 308.324C708.744 310.835 706.297 312.873 703.486 314.277C700.674 315.68 697.575 316.411 694.433 316.411C691.29 316.411 688.191 315.68 685.38 314.277C682.568 312.873 680.121 310.835 678.233 308.324C674.413 302.974 672.423 295.374 672.343 285.544V280.194C672.343 270.154 674.289 262.397 678.183 256.924C679.988 254.289 682.43 252.151 685.28 250.709C688.131 249.267 691.3 248.567 694.493 248.674C697.647 248.535 700.785 249.195 703.616 250.594C706.446 251.993 708.877 254.084 710.683 256.674C714.496 262.007 716.399 269.834 716.393 280.154V285.034Z" fill="#404040"/>
<path d="M802.283 260.474C802.367 262.253 802.021 264.027 801.274 265.644C800.527 267.261 799.402 268.674 797.993 269.764C793.316 272.787 788.169 275.011 782.763 276.344C776.61 278.052 770.699 280.535 765.173 283.734C756.833 288.987 752.673 295.807 752.693 304.194C752.649 307.723 753.441 311.212 755.006 314.376C756.57 317.539 758.862 320.287 761.693 322.394C768.441 327.392 776.703 329.917 785.093 329.544C790.948 329.647 796.754 328.452 802.093 326.044C806.855 323.864 810.917 320.402 813.823 316.044C816.64 311.768 818.11 306.745 818.043 301.624H802.283C802.392 303.703 802.042 305.78 801.259 307.708C800.477 309.637 799.279 311.369 797.753 312.784C794.164 315.732 789.586 317.199 784.953 316.884C780.658 317.132 776.401 315.965 772.833 313.564C771.433 312.467 770.317 311.052 769.575 309.436C768.834 307.82 768.491 306.05 768.573 304.274C768.589 302.599 769.02 300.953 769.828 299.486C770.636 298.018 771.796 296.774 773.203 295.864C777.95 292.925 783.115 290.723 788.523 289.334C794.535 287.716 800.299 285.283 805.653 282.104C809.542 279.852 812.802 276.657 815.133 272.814C817.2 269.072 818.235 264.848 818.133 260.574C818.239 257.059 817.495 253.57 815.963 250.404C814.431 247.239 812.156 244.491 809.333 242.394C803.513 237.914 795.603 235.674 785.603 235.674C779.329 235.613 773.111 236.856 767.343 239.324C762.204 241.488 757.747 245.003 754.443 249.494C751.369 253.884 749.765 259.136 749.863 264.494H765.793C765.671 262.233 766.071 259.975 766.963 257.894C767.854 255.814 769.212 253.966 770.933 252.494C775.192 249.392 780.405 247.885 785.663 248.234C790.067 247.915 794.452 249.084 798.113 251.554C799.457 252.611 800.535 253.969 801.259 255.518C801.983 257.067 802.334 258.765 802.283 260.474Z" fill="#404040"/>
<path d="M976.393 277.714H938.903V249.604H982.683V236.934H922.973V328.284H982.283V315.494H938.853V290.274H976.333L976.393 277.714Z" fill="#404040"/>
<path d="M43.9428 118.784H59.7628V182.854C59.9541 186.711 59.3198 190.565 57.9022 194.157C56.4846 197.749 54.3165 200.997 51.5428 203.684C45.6544 209.014 37.8962 211.796 29.9628 211.424C20.4161 211.424 13.0528 209.014 7.87281 204.194C5.20785 201.602 3.12991 198.468 1.77918 195.004C0.428449 191.54 -0.163657 187.826 0.0428071 184.114H15.9128C15.5987 188.107 16.8787 192.062 19.4728 195.114C20.8862 196.396 22.5439 197.379 24.3464 198.004C26.149 198.63 28.0593 198.885 29.9628 198.754C31.882 198.865 33.8018 198.545 35.5808 197.816C37.3599 197.088 38.9529 195.97 40.2428 194.544C42.9564 191.257 44.3153 187.058 44.0428 182.804L43.9428 118.784Z" fill="white"/>
<path d="M157.303 166.874C157.474 174.974 155.902 183.015 152.693 190.454C149.863 196.851 145.208 202.27 139.313 206.034C133.35 209.686 126.463 211.543 119.473 211.384C112.486 211.518 105.605 209.662 99.6327 206.034C93.7751 202.259 89.127 196.878 86.2427 190.534C82.976 183.257 81.3509 175.35 81.4827 167.374V162.234C81.3037 154.121 82.9117 146.067 86.1927 138.644C89.0189 132.237 93.6734 126.807 99.5727 123.034C105.528 119.383 112.409 117.525 119.393 117.684C126.361 117.546 133.224 119.402 139.173 123.034C145.079 126.731 149.743 132.112 152.563 138.484C155.83 145.846 157.455 153.831 157.323 161.884L157.303 166.874ZM141.423 162.104C141.423 151.954 139.493 144.224 135.643 138.814C133.832 136.215 131.392 134.117 128.55 132.718C125.708 131.319 122.557 130.664 119.393 130.814C116.258 130.696 113.145 131.366 110.337 132.764C107.529 134.161 105.117 136.242 103.323 138.814C99.476 144.148 97.5127 151.741 97.4327 161.594V166.954C97.4327 176.954 99.3627 184.754 103.273 190.214C105.081 192.843 107.522 194.974 110.371 196.41C113.22 197.847 116.384 198.543 119.573 198.434C122.707 198.553 125.821 197.883 128.629 196.485C131.436 195.087 133.848 193.007 135.643 190.434C139.443 185.101 141.343 177.284 141.343 166.984L141.423 162.104Z" fill="white"/>
<path d="M227.283 186.634C227.38 184.855 227.045 183.08 226.304 181.46C225.564 179.84 224.441 178.424 223.033 177.334C218.34 174.321 213.185 172.098 207.773 170.754C201.616 169.071 195.703 166.597 190.183 163.394C181.843 158.174 177.683 151.354 177.703 142.934C177.65 139.406 178.439 135.917 180.004 132.755C181.569 129.593 183.866 126.85 186.703 124.754C193.447 119.744 201.711 117.212 210.103 117.584C215.962 117.475 221.771 118.681 227.103 121.114C231.885 123.272 235.958 126.738 238.853 131.114C241.659 135.383 243.119 140.396 243.043 145.504H227.243C227.36 143.428 227.018 141.352 226.242 139.423C225.466 137.494 224.275 135.76 222.753 134.344C219.144 131.415 214.56 129.961 209.923 130.274C205.633 130.01 201.378 131.178 197.823 133.594C196.422 134.689 195.304 136.104 194.563 137.72C193.821 139.337 193.479 141.107 193.563 142.884C193.575 144.549 194.003 146.185 194.808 147.644C195.613 149.102 196.77 150.336 198.173 151.234C202.912 154.181 208.076 156.383 213.483 157.764C219.496 159.381 225.262 161.807 230.623 164.974C234.507 167.233 237.765 170.426 240.103 174.264C242.171 178.002 243.206 182.223 243.103 186.494C243.221 190.013 242.484 193.508 240.955 196.68C239.426 199.851 237.15 202.605 234.323 204.704C228.503 209.164 220.596 211.404 210.603 211.424C204.331 211.478 198.115 210.239 192.343 207.784C187.21 205.606 182.755 202.09 179.443 197.604C176.364 193.216 174.76 187.963 174.863 182.604H190.743C190.627 184.864 191.03 187.12 191.921 189.2C192.812 191.28 194.167 193.129 195.883 194.604C200.152 197.701 205.37 199.208 210.633 198.864C215.03 199.182 219.404 198.002 223.043 195.514C224.397 194.47 225.486 193.122 226.222 191.579C226.959 190.037 227.322 188.343 227.283 186.634Z" fill="white"/>
<path d="M336.043 210.164H320.243V169.544H279.413V210.164H263.543V118.784H279.413V156.834H320.243V118.784H336.043V210.164Z" fill="white"/>
<path d="M415.613 197.474H457.113V210.164H399.733V118.784H415.613V197.474Z" fill="white"/>
<path d="M528.093 188.874H492.723L485.333 210.294H468.813L503.433 118.784H517.703L552.263 210.164H535.563L528.093 188.874ZM497.163 176.084H523.643L510.263 138.194L497.163 176.084Z" fill="white"/>
<path d="M637.303 180.414C636.898 189.145 633.047 197.359 626.593 203.254C620.326 208.587 611.993 211.254 601.593 211.254C594.8 211.435 588.096 209.68 582.263 206.194C576.651 202.622 572.198 197.498 569.443 191.444C566.303 184.477 564.703 176.915 564.753 169.274V160.814C564.583 152.98 566.133 145.204 569.293 138.034C572.068 131.787 576.634 126.504 582.413 122.854C588.372 119.218 595.244 117.359 602.223 117.494C611.113 117.111 619.818 120.105 626.593 125.874C633.024 131.943 636.861 140.262 637.303 149.094H621.503C620.753 142.504 618.823 137.794 615.723 134.904C612 131.753 607.198 130.175 602.333 130.504C599.233 130.325 596.137 130.928 593.331 132.258C590.525 133.587 588.098 135.601 586.273 138.114C582.573 143.12 580.689 150.5 580.623 160.254V168.254C580.623 178.127 582.406 185.66 585.973 190.854C587.672 193.386 589.999 195.434 592.726 196.799C595.453 198.165 598.487 198.8 601.533 198.644C606.556 199.004 611.537 197.509 615.533 194.444C618.659 191.63 620.659 186.964 621.533 180.444L637.303 180.414Z" fill="white"/>
<path d="M731.043 166.874C731.203 174.978 729.613 183.021 726.383 190.454C723.559 196.867 718.887 202.292 712.963 206.034C707.012 209.686 700.133 211.543 693.153 211.384C686.166 211.523 679.284 209.667 673.313 206.034C667.446 202.269 662.796 196.886 659.923 190.534C656.647 183.26 655.022 175.351 655.163 167.374V162.234C654.994 154.125 656.591 146.075 659.843 138.644C662.682 132.243 667.338 126.815 673.233 123.034C679.221 119.48 686.055 117.604 693.018 117.604C699.981 117.604 706.815 119.48 712.803 123.034C718.705 126.737 723.367 132.117 726.193 138.484C729.474 145.809 731.129 153.759 731.043 161.784V166.874ZM714.973 162.104C714.973 151.954 713.043 144.224 709.193 138.814C707.595 136.69 705.595 134.901 703.306 133.551C701.017 132.2 698.484 131.313 695.852 130.942C693.22 130.57 690.541 130.721 687.967 131.386C685.393 132.05 682.976 133.215 680.853 134.814C679.337 135.952 677.99 137.298 676.853 138.814C672.993 144.148 671.03 151.741 670.963 161.594V166.954C670.963 177.008 672.9 184.761 676.773 190.214C678.575 192.843 681.01 194.974 683.854 196.411C686.698 197.847 689.859 198.543 693.043 198.434C696.176 198.551 699.287 197.88 702.093 196.483C704.899 195.085 707.309 193.005 709.103 190.434C712.916 185.101 714.82 177.284 714.813 166.984L714.973 162.104Z" fill="white"/>
<path d="M800.883 186.634C800.98 184.855 800.644 183.08 799.904 181.46C799.164 179.84 798.041 178.424 796.633 177.334C791.94 174.321 786.785 172.098 781.373 170.754C775.222 169.071 769.316 166.597 763.803 163.394C755.469 158.174 751.303 151.354 751.303 142.934C751.255 139.407 752.045 135.919 753.61 132.758C755.175 129.598 757.469 126.854 760.303 124.754C767.046 119.744 775.31 117.211 783.703 117.584C789.529 117.466 795.308 118.645 800.623 121.034C805.402 123.183 809.468 126.653 812.343 131.034C815.202 135.271 816.715 140.272 816.683 145.384H800.883C801.001 143.304 800.657 141.223 799.875 139.292C799.094 137.361 797.894 135.626 796.363 134.214C792.76 131.294 788.19 129.841 783.563 130.144C779.274 129.886 775.019 131.053 771.463 133.464C770.06 134.558 768.939 135.973 768.195 137.589C767.45 139.205 767.103 140.976 767.183 142.754C767.197 144.433 767.63 146.082 768.444 147.551C769.258 149.02 770.426 150.262 771.843 151.164C776.604 154.123 781.796 156.326 787.233 157.694C793.242 159.322 799.006 161.747 804.373 164.904C808.249 167.163 811.498 170.356 813.823 174.194C815.845 177.944 816.832 182.166 816.683 186.424C816.798 189.942 816.06 193.437 814.531 196.608C813.002 199.779 810.728 202.533 807.903 204.634C802.093 209.104 794.163 211.354 784.183 211.354C777.911 211.408 771.694 210.169 765.923 207.714C760.805 205.551 756.359 202.061 753.043 197.604C749.964 193.216 748.36 187.963 748.463 182.604H764.343C764.226 184.864 764.629 187.12 765.52 189.2C766.411 191.28 767.767 193.129 769.483 194.604C773.75 197.705 778.969 199.213 784.233 198.864C788.659 199.203 793.069 198.021 796.733 195.514C798.07 194.46 799.141 193.109 799.862 191.567C800.583 190.025 800.932 188.335 800.883 186.634Z" fill="white"/>
<path d="M903.133 131.584H874.653V210.164H858.903V131.584H830.663V118.784H903.133V131.584Z" fill="white"/>
<path d="M975.043 169.364H937.513V197.474H981.343V210.164H921.613V118.784H980.913V131.584H937.483V156.834H974.973L975.043 169.364Z" fill="white"/>
</svg>
