<svg width="235" height="145" viewBox="0 0 235 145" fill="none" xmlns="http://www.w3.org/2000/svg">
<path d="M170.019 60.4516L168.836 61.563L170.039 62.4908C172.359 59.3708 175.994 56.9594 179.022 54.5735C179.792 53.9618 178.706 52.8861 177.941 53.4928C174.781 55.9857 171.14 58.4633 168.719 61.7159C168.209 62.4347 169.31 63.2147 169.917 62.6438L171.1 61.5375C171.819 60.8594 170.738 59.7786 170.019 60.4516Z" fill="white"/>
<path d="M164.85 72.3405C165.052 72.3405 165.247 72.2599 165.39 72.1165C165.534 71.9731 165.614 71.7786 165.614 71.5757C165.614 71.3729 165.534 71.1784 165.39 71.035C165.247 70.8916 165.052 70.811 164.85 70.811C164.647 70.811 164.452 70.8916 164.309 71.035C164.166 71.1784 164.085 71.3729 164.085 71.5757C164.085 71.7786 164.166 71.9731 164.309 72.1165C164.452 72.2599 164.647 72.3405 164.85 72.3405Z" fill="white"/>
<path d="M97.117 82.3577L100.798 80.0992C101.639 79.5894 100.869 78.2588 100.028 78.7788L96.3472 81.0373C95.506 81.5471 96.2758 82.8777 97.117 82.3577Z" fill="white"/>
<path d="M98.1362 79.753C96.955 80.3389 95.9531 81.2316 95.2354 82.3378C94.695 83.1636 96.0205 83.9334 96.5558 83.1126C97.1399 82.2324 97.9522 81.5276 98.906 81.0734C99.7931 80.6401 99.0182 79.3248 98.1362 79.753Z" fill="white"/>
<path d="M117.509 39.4986C117.132 37.2605 115.664 35.0531 113.462 34.5127C113.131 34.4118 112.783 34.3793 112.44 34.4169C112.096 34.4546 111.764 34.5618 111.463 34.7319C110.775 35.1856 110.495 36.037 110.255 36.8221C106.923 47.7245 102.57 58.2885 97.2545 68.3739C95.4957 71.7182 93.538 74.9402 91.616 78.1979L90.9074 79.3959C90.4112 80.2959 89.8344 81.149 89.1842 81.9449C88.3872 82.8478 87.4139 83.5782 86.3242 84.0912C85.8068 84.396 85.1951 84.4995 84.6062 84.3818C83.7701 84.132 83.3623 83.1838 83.2705 82.3171C82.4395 74.5477 82.9035 66.7578 85.1925 59.2484C86.2835 55.6798 87.7415 51.9684 86.9819 48.308C86.7984 47.4617 86.4721 46.59 86.6863 45.759C87.0278 44.2805 88.6439 43.5668 89.9388 42.7766C93.12 40.8394 95.3733 37.0821 95.0725 33.3095C95.08 33.0548 95.0335 32.8013 94.936 32.5658C94.8384 32.3303 94.6921 32.1181 94.5066 31.9433C94.0988 31.6476 92.3451 29.6491 92.289 30.5056C90.8565 31.4131 89.4545 32.3511 88.0627 33.3197L58.0352 54.1453C57.8361 54.2989 57.5953 54.3889 57.3443 54.4035C57.0932 54.418 56.8436 54.3565 56.6281 54.2268C56.6842 52.5751 57.4336 51.2037 57.7293 49.608C60.2376 36.1084 64.1222 23.0064 66.0595 9.33344C66.4215 6.78442 66.7222 4.05696 64.9073 1.96166C64.4792 1.43235 63.901 1.04491 63.2487 0.850199C62.5963 0.655493 61.9003 0.662631 61.2521 0.870677C59.2129 1.6048 58.9732 3.86833 58.856 5.80559C58.7795 7.03422 58.6878 8.25775 58.5807 9.48638C58.1933 13.8605 57.5934 18.2091 56.7811 22.5323C55.5066 29.3127 53.6917 36.1746 52.147 42.9245C51.491 45.8201 50.8214 48.709 50.1383 51.5911C49.4909 54.3288 48.7975 57.0511 48.247 59.8041C47.7779 62.1237 46.0191 63.4594 44.1379 64.7441C39.2122 68.1228 34.471 71.763 29.9347 75.6488C25.3057 79.6151 20.3759 83.2092 15.4716 86.8187L13.9422 87.9351C11.9029 89.4187 9.91467 90.9073 7.88055 92.3653C6.96189 93.129 5.96775 93.7969 4.91351 94.3587C3.97547 94.7665 2.9049 94.8175 2.00254 95.3783C0.309986 96.3979 -0.159092 98.845 0.733066 100.599C1.62523 102.352 3.60333 103.392 5.57118 103.54C6.79054 103.634 8.01459 103.433 9.13981 102.954C10.2086 102.446 11.2132 101.813 12.1324 101.068C17.3902 97.1286 22.5902 93.1131 27.7324 89.021C32.8763 84.9426 38.3975 80.9559 43.1336 76.3982C43.5414 76.0057 44.6171 74.981 44.3928 76.3626L43.8015 79.9771L43.5771 81.3536C42.8736 85.641 41.7928 89.8367 41.0791 94.0987L40.5693 97.3104C40.2838 99.0081 39.9779 100.706 39.7179 102.408C39.4273 104.346 38.9889 106.283 38.6575 108.22C38.4332 109.535 38.2089 110.851 38.0253 112.176C37.7704 114.062 37.643 115.964 37.3626 117.845C37.2505 118.59 37.0873 119.324 36.9089 120.058C36.6948 120.919 36.2869 121.862 36.4296 122.77C36.555 123.313 36.8546 123.799 37.2827 124.156C37.7108 124.512 38.2438 124.718 38.8003 124.743C40.4367 124.881 42.843 124.05 43.5211 122.428C43.9347 121.249 44.1785 120.016 44.245 118.768C44.3724 117.6 44.5559 116.443 44.714 115.281C45.0538 112.742 45.3937 110.202 45.7336 107.659C46.065 105.324 46.4117 102.995 46.794 100.665C46.8501 100.313 46.9062 99.9614 46.9673 99.6046C48.1756 92.2838 49.6642 85.0343 51.0865 77.7594C51.474 75.7865 52.0552 73.8645 52.616 71.9375C52.9728 70.719 52.7077 69.2763 53.5285 68.4096C54.5837 67.3838 55.7266 66.4524 56.9442 65.6261L57.9638 64.8563C58.7387 64.2802 59.4933 63.699 60.3039 63.1433C65.0858 59.7327 69.7862 56.21 74.5784 52.8453C75.7662 52.0143 76.9643 51.1986 78.147 50.388C79.3298 49.5774 80.0741 49.1288 79.7937 50.8978C79.4878 52.8351 78.1827 54.4664 77.678 56.3323C77.0208 58.7894 76.5101 61.2834 76.1486 63.801C75.4274 68.7625 75.299 73.7923 75.7662 78.7841C76.2097 83.459 77.2293 88.2308 80.2117 91.9371C80.9094 92.8376 81.7994 93.5709 82.8168 94.0834C87.0074 96.092 90.627 92.7834 93.4054 89.7908L100.344 82.312C96.3606 99.0132 92.3808 115.716 88.4043 132.421C87.5886 135.857 86.7984 139.644 89.2862 142.617C89.879 143.359 90.7043 143.879 91.6292 144.095C92.5541 144.31 93.5246 144.208 94.3843 143.804C96.2808 142.851 96.5714 140.786 96.8059 138.91C97.9988 129.459 100.104 120.155 102.21 110.871L116.862 46.228C117.397 44.0154 117.902 41.7366 117.509 39.4986ZM92.9517 32.5652C92.8571 32.3814 92.777 32.1905 92.7121 31.9942C92.8039 32.1727 92.8804 32.3562 92.9721 32.5652H92.9517ZM68.058 50.1535H67.9611C67.9737 50.0498 68.0011 49.9485 68.0427 49.8527C68.1156 49.7628 68.1995 49.6823 68.2925 49.6131L68.4199 49.7049C68.2975 49.8425 68.1752 50.0005 68.058 50.1535ZM96.9792 82.4649C96.9792 82.0724 97.1831 81.9551 97.5502 81.9041C97.6266 82.4038 97.4125 82.4955 96.9741 82.4649H96.9792Z" fill="white"/>
<path d="M131.273 88.8631C130.213 88.1596 128.622 88.2615 127.496 87.5427C126.124 86.6658 125.793 84.7133 126.282 83.1584C126.772 81.6035 127.894 80.3392 128.944 79.0799C131.313 76.263 133.48 73.2816 135.428 70.1584C136.56 68.3485 137.615 66.4878 138.671 64.6321L139.95 62.3838C140.904 60.7117 141.852 59.0344 142.907 57.4234C144.08 55.634 145.665 53.763 147.801 53.6661C149.468 53.5846 150.988 54.645 152.109 55.8838C152.344 56.0834 152.516 56.3459 152.607 56.6404C152.697 56.9348 152.701 57.2489 152.619 57.5457C152.023 61.4254 149.05 64.4383 147.062 67.8082C146.109 69.4089 145.354 71.1219 144.381 72.7125C142.591 75.6184 140.73 78.4427 139.792 81.7564C139.528 82.6799 139.44 83.645 139.532 84.6011C139.578 85.078 139.67 85.5492 139.808 86.0082C139.925 86.3956 140.139 86.7882 139.894 87.1807C139.818 87.3031 139.701 87.4254 139.711 87.5733C139.727 87.651 139.77 87.7206 139.832 87.7692C139.895 87.8179 139.973 87.8424 140.052 87.8384C140.213 87.8263 140.367 87.7679 140.496 87.6702C142.209 86.6505 143.519 85.0854 144.845 83.6172C151.258 76.4799 157.294 68.0834 160.49 58.9834C160.687 58.2755 161.01 57.6089 161.444 57.0156C162.652 55.6085 165.012 55.8073 166.481 56.9289C167.653 57.8261 168.331 59.1058 168.989 60.3956C169.177 60.7677 169.269 61.3336 169.657 61.563C169.715 61.6008 169.782 61.6238 169.851 61.6301C169.92 61.6363 169.99 61.6255 170.054 61.5987C170.289 61.4866 170.319 61.1654 170.284 60.9054C170.253 60.7953 170.253 60.679 170.284 60.5689C170.332 60.4813 170.403 60.4076 170.488 60.3548C171.062 60.0141 171.606 59.6253 172.114 59.1924C172.647 58.6559 173.136 58.0779 173.577 57.4642C176.595 53.4622 181.224 50.9948 185.986 49.6591C190.747 48.3234 195.672 48.2316 200.531 48.3489C204.038 48.4338 207.54 48.6276 211.038 48.93C213.638 49.1544 217.441 48.8944 219.796 50.0873C219.911 50.1249 220.032 50.1438 220.153 50.1434C222.085 50.3524 225.067 51.3414 226.862 50.4748C227.718 50.0618 228.544 49.4551 229.492 49.4195C231.231 49.3175 232.551 50.9744 233.219 52.5802C233.745 53.8386 234.08 55.1686 234.213 56.5261C234.342 57.2914 234.246 58.0776 233.938 58.7897C233.285 60.0438 231.654 60.4466 230.252 60.2885C225.389 59.7328 220.566 58.1728 215.677 57.5203C210.343 56.8103 204.968 56.451 199.587 56.4446C195.922 56.4446 192.221 56.6128 188.693 57.5865C185.146 58.5035 181.919 60.3762 179.363 63.0007C178.116 64.3995 177.096 65.9856 176.34 67.7011C175.943 68.5576 175.591 69.4293 175.265 70.3113C174.938 71.1933 174.587 71.8866 174.617 72.8246C174.648 73.0496 174.648 73.2777 174.617 73.5027C174.566 73.6803 174.494 73.8514 174.403 74.0125C173.91 75.1007 173.734 76.3055 173.893 77.4893C173.98 78.3776 173.878 79.2743 173.592 80.1199C173.313 80.9321 172.752 81.6177 172.012 82.0532C171.272 82.4888 170.4 82.6457 169.555 82.4956C168.553 82.3654 167.601 81.9833 166.787 81.3851C165.973 80.7869 165.324 79.992 164.9 79.0748C164.237 77.6882 164.146 76.1078 164.095 74.5937C163.976 73.3789 163.779 72.1732 163.503 70.9842C163.388 70.4275 163.404 69.8516 163.549 69.3019C163.616 69.0827 163.723 68.7921 163.458 68.6952C163.336 68.6759 163.211 68.6894 163.097 68.7342C162.982 68.779 162.881 68.8535 162.805 68.9501C162.657 69.1678 162.538 69.4044 162.453 69.6536C162.183 70.2399 161.648 70.6427 161.383 71.2187C161.162 71.7947 161.052 72.4068 161.056 73.0235C160.954 74.9709 159.792 76.2454 158.859 77.8411C157.885 79.5133 156.82 81.1395 155.744 82.7301C153.567 85.9062 151.212 88.9498 148.872 92.0035C148.529 92.426 148.223 92.8781 147.959 93.3545C147.806 93.6451 147.684 93.9509 147.511 94.2262C147.25 94.6016 146.936 94.9365 146.578 95.2204C144.672 96.8385 142.47 98.0697 140.093 98.8451C139.553 99.0559 138.974 99.1464 138.395 99.1102C137.739 98.9875 137.13 98.6878 136.632 98.2435C134.54 96.5852 133.108 94.2353 132.594 91.616C132.446 90.8258 132.364 89.9694 131.855 89.3423C131.692 89.1479 131.495 88.9854 131.273 88.8631Z" fill="white"/>
<path d="M131.81 28.7316C125.585 53.6508 123.959 79.2584 120.375 104.601C120.196 105.865 119.992 107.15 119.294 108.236C118.596 109.321 117.255 110.056 116.036 109.663C112.361 108.465 113.008 100.884 113.273 98.0243C114.211 87.8944 115.629 77.938 116.934 67.8438C117.586 62.8409 118.302 57.8465 119.08 52.8606C121.038 40.3347 123.755 27.8802 126.936 15.5735C127.385 13.8402 128.2 11.7754 129.995 11.5409C130.8 11.4739 131.6 11.7246 132.223 12.2394C133.752 13.3813 134.4 15.3645 134.425 17.2559C134.451 19.1472 133.915 20.9876 133.405 22.8128C132.834 24.7806 132.303 26.7535 131.81 28.7316Z" fill="white"/>
<path d="M97.387 82.8421L98.6615 82.006L97.7336 80.8028L97.6623 80.8691C97.5272 81.0141 97.4537 81.2058 97.4571 81.4039C97.4606 81.602 97.5409 81.791 97.6811 81.9312C97.8212 82.0713 98.0102 82.1515 98.2083 82.155C98.4064 82.1585 98.5981 82.085 98.743 81.9499L98.8195 81.8887C99.4517 81.3075 98.6207 80.2064 97.8917 80.6856L96.6121 81.5217C96.441 81.6274 96.3174 81.7952 96.267 81.9899C96.2167 82.1847 96.2435 82.3913 96.3419 82.5668C96.4447 82.734 96.6075 82.8557 96.7971 82.9068C96.9866 82.958 97.1885 82.9348 97.3615 82.8421H97.387Z" fill="white"/>
<path d="M67.7724 50.8927C68.3893 50.4492 69.0215 50.0363 69.6741 49.6437C69.7608 49.5928 69.8365 49.5254 69.8972 49.4452C69.9578 49.365 70.0021 49.2736 70.0274 49.1764C70.0528 49.0791 70.0586 48.9778 70.0448 48.8782C70.031 48.7786 69.9977 48.6828 69.9468 48.5961C69.8959 48.5094 69.8284 48.4335 69.7483 48.3729C69.6681 48.3123 69.5768 48.268 69.4795 48.2427C69.3822 48.2174 69.2808 48.2115 69.1813 48.2253C69.0817 48.2391 68.9859 48.2724 68.8992 48.3233C68.2517 48.7159 67.6145 49.1288 66.9976 49.5723C66.8275 49.6789 66.7046 49.8467 66.6544 50.0411C66.6041 50.2355 66.6303 50.4417 66.7274 50.6174C66.8302 50.7847 66.993 50.9063 67.1826 50.9575C67.3721 51.0087 67.574 50.9855 67.747 50.8927H67.7724Z" fill="white"/>
<path d="M160.409 74.7466C161.622 72.5272 162.912 70.3537 164.278 68.2262C164.788 67.3952 163.488 66.6305 162.958 67.4564C161.598 69.5805 160.308 71.754 159.088 73.9768C158.614 74.8383 159.934 75.6132 160.409 74.7466Z" fill="white"/>
<path d="M67.4813 49.46C66.7506 49.898 66.0673 50.4106 65.4421 50.9894C64.81 51.5604 65.6613 52.7125 66.3699 52.1874C68.3412 50.7362 70.3702 49.3767 72.457 48.109C73.2982 47.5992 72.5284 46.2686 71.6872 46.7886C69.597 48.0733 67.5663 49.4328 65.5951 50.867L66.528 52.009C67.0627 51.5276 67.6452 51.1023 68.2665 50.7396C68.4338 50.6337 68.5536 50.4671 68.6005 50.2747C68.6475 50.0823 68.618 49.8792 68.5182 49.7082C68.4185 49.5371 68.2563 49.4114 68.0658 49.3575C67.8752 49.3036 67.6712 49.3257 67.4966 49.4192L67.4813 49.46Z" fill="white"/>
<path d="M97.6978 81.3333L95.4904 83.3725L96.6935 84.3004C97.8763 82.533 99.1032 80.7946 100.374 79.0851C100.961 78.2949 99.6351 77.5301 99.0539 78.3101C97.7794 80.0095 96.5524 81.7496 95.3731 83.5306C94.8633 84.2749 95.9594 85.0345 96.5712 84.4584L98.7786 82.3937C99.4974 81.7157 98.4116 80.64 97.6978 81.3129V81.3333Z" fill="white"/>
</svg>
