<svg width="532" height="657" viewBox="0 0 532 657" fill="none" xmlns="http://www.w3.org/2000/svg">
<path d="M482.156 46.125H474.281V14.2188C474.281 9.86458 475.646 6.40625 478.375 3.84375C481.083 1.28125 484.667 0 489.125 0C493.875 0 497.542 1.19792 500.125 3.59375C502.708 5.98958 504 9.32292 504 13.5938H496.125C496.125 11.1771 495.531 9.35417 494.344 8.125C493.135 6.91667 491.396 6.3125 489.125 6.3125C487 6.3125 485.312 7.01042 484.062 8.40625C482.792 9.82292 482.156 11.7708 482.156 14.25V46.125Z" fill="#AFAFAF"/>
<path d="M425.706 22.1875C425.706 17.7292 426.477 13.8125 428.019 10.4375C429.56 7.08333 431.769 4.5 434.644 2.6875C437.498 0.895832 440.79 0 444.519 0C448.206 0 451.498 0.895832 454.394 2.6875C457.269 4.5 459.498 7.07292 461.081 10.4062C462.644 13.7396 463.435 17.5833 463.456 21.9375V24.5C463.456 28.9375 462.675 32.8542 461.112 36.25C459.529 39.6458 457.31 42.2396 454.456 44.0312C451.581 45.8438 448.29 46.75 444.581 46.75C440.873 46.75 437.592 45.8542 434.738 44.0625C431.863 42.2917 429.644 39.7292 428.081 36.375C426.519 33.0417 425.727 29.1562 425.706 24.7188V22.1875ZM433.613 24.5625C433.613 29.6042 434.571 33.4688 436.488 36.1562C438.383 38.8438 441.081 40.1875 444.581 40.1875C447.998 40.1875 450.675 38.8438 452.612 36.1562C454.529 33.4896 455.508 29.7083 455.55 24.8125V22.1875C455.55 17.1875 454.581 13.3229 452.644 10.5938C450.685 7.86458 447.977 6.5 444.519 6.5C441.019 6.5 438.331 7.83333 436.456 10.5C434.56 13.1667 433.613 17.0625 433.613 22.1875V24.5625Z" fill="#AFAFAF"/>
<path d="M340.231 0.625H348.106V20.8438H368.45V0.625H376.356V46.125H368.45V27.1875H348.106V46.125H340.231V0.625Z" fill="#AFAFAF"/>
<path d="M300.612 6.9375H279.956V0.625H308.519V46.125H300.612V6.9375Z" fill="#AFAFAF"/>
<path d="M244.6 11.2188H262.225L265.912 0.625H274.131L256.944 46.125H249.85L232.631 0.625H240.881L244.6 11.2188ZM260.006 17.5938H246.819L253.412 36.4688L260.006 17.5938Z" fill="#AFAFAF"/>
<path d="M190.212 15.4375C190.671 10.5833 192.462 6.79167 195.587 4.0625C198.712 1.35417 202.869 0 208.056 0C211.681 0 214.879 0.854168 217.65 2.5625C220.4 4.29167 222.525 6.73958 224.025 9.90625C225.525 13.0729 226.306 16.75 226.369 20.9375V25.1875C226.369 29.4792 225.608 33.2604 224.087 36.5312C222.567 39.8021 220.39 42.3229 217.556 44.0938C214.702 45.8646 211.41 46.75 207.681 46.75C202.66 46.75 198.619 45.3854 195.556 42.6562C192.494 39.9271 190.712 36.0729 190.212 31.0938H198.087C198.462 34.3646 199.421 36.7188 200.962 38.1562C202.483 39.6146 204.723 40.3438 207.681 40.3438C211.119 40.3438 213.765 39.0833 215.619 36.5625C217.452 34.0625 218.39 30.3854 218.431 25.5312V21.5C218.431 16.5833 217.556 12.8333 215.806 10.25C214.035 7.66667 211.452 6.375 208.056 6.375C204.952 6.375 202.619 7.07292 201.056 8.46875C199.494 9.86458 198.504 12.1875 198.087 15.4375H190.212Z" fill="#AFAFAF"/>
<path d="M117.862 12.3438C117.862 14.3438 118.571 15.8854 119.987 16.9688C121.383 18.0521 123.915 19.1458 127.581 20.25C131.248 21.3542 134.165 22.5833 136.331 23.9375C140.477 26.5417 142.55 29.9375 142.55 34.125C142.55 37.7917 141.06 40.8125 138.081 43.1875C135.081 45.5625 131.196 46.75 126.425 46.75C123.258 46.75 120.435 46.1667 117.956 45C115.477 43.8333 113.529 42.1667 112.112 40C110.696 37.8542 109.987 35.4688 109.987 32.8438H117.862C117.862 35.2188 118.612 37.0729 120.112 38.4062C121.592 39.7604 123.717 40.4375 126.487 40.4375C129.071 40.4375 131.081 39.8854 132.519 38.7812C133.935 37.6771 134.644 36.1354 134.644 34.1562C134.644 32.4896 133.873 31.0938 132.331 29.9688C130.79 28.8646 128.248 27.7812 124.706 26.7188C121.165 25.6771 118.321 24.4792 116.175 23.125C114.029 21.7917 112.456 20.25 111.456 18.5C110.456 16.7708 109.956 14.7396 109.956 12.4062C109.956 8.61458 111.415 5.59375 114.331 3.34375C117.227 1.11458 121.165 0 126.144 0C129.435 0 132.467 0.604168 135.237 1.8125C137.987 3.04167 140.133 4.72917 141.675 6.875C143.196 9.02083 143.956 11.5208 143.956 14.375H136.05C136.05 11.7917 135.196 9.79167 133.487 8.375C131.779 6.95833 129.331 6.25 126.144 6.25C123.394 6.25 121.331 6.80208 119.956 7.90625C118.56 9.03125 117.862 10.5104 117.862 12.3438Z" fill="#AFAFAF"/>
<path d="M66.9437 39.75H81.1312V0.625H88.975V39.75H103.037V46.125H66.9437V39.75Z" fill="#AFAFAF"/>
<path d="M31.15 20.9375H49.8375V6.9375H27.9937V0.625H57.7437V46.125H28.2125V39.75H49.8375V27.1875H31.15V20.9375Z" fill="#AFAFAF"/>
<path d="M35.8438 113.475H43.7188V81.5686C43.7188 77.2144 42.3542 73.7561 39.625 71.1936C36.9167 68.6311 33.3333 67.3499 28.875 67.3499C24.125 67.3499 20.4583 68.5478 17.875 70.9436C15.2917 73.3394 14 76.6728 14 80.9436H21.875C21.875 78.5269 22.4688 76.704 23.6562 75.4749C24.8646 74.2665 26.6042 73.6624 28.875 73.6624C31 73.6624 32.6875 74.3603 33.9375 75.7561C35.2083 77.1728 35.8438 79.1207 35.8438 81.5999V113.475Z" fill="#AFAFAF"/>
<path d="M118.038 79.6936C118.038 81.6936 117.329 83.2353 115.913 84.3186C114.517 85.4019 111.985 86.4957 108.319 87.5999C104.652 88.704 101.735 89.9332 99.5688 91.2874C95.4229 93.8915 93.35 97.2874 93.35 101.475C93.35 105.142 94.8396 108.162 97.8188 110.537C100.819 112.912 104.704 114.1 109.475 114.1C112.642 114.1 115.465 113.517 117.944 112.35C120.423 111.183 122.371 109.517 123.788 107.35C125.204 105.204 125.913 102.819 125.913 100.194H118.038C118.038 102.569 117.288 104.423 115.788 105.756C114.308 107.11 112.183 107.787 109.413 107.787C106.829 107.787 104.819 107.235 103.381 106.131C101.965 105.027 101.256 103.485 101.256 101.506C101.256 99.8394 102.027 98.4436 103.569 97.3186C105.11 96.2144 107.652 95.1311 111.194 94.0686C114.735 93.0269 117.579 91.829 119.725 90.4749C121.871 89.1415 123.444 87.5999 124.444 85.8499C125.444 84.1207 125.944 82.0894 125.944 79.7561C125.944 75.9644 124.485 72.9436 121.569 70.6936C118.673 68.4644 114.735 67.3499 109.756 67.3499C106.465 67.3499 103.433 67.954 100.663 69.1624C97.9125 70.3915 95.7667 72.079 94.225 74.2249C92.7042 76.3707 91.9438 78.8707 91.9438 81.7249H99.85C99.85 79.1415 100.704 77.1415 102.413 75.7249C104.121 74.3082 106.569 73.5999 109.756 73.5999C112.506 73.5999 114.569 74.1519 115.944 75.2561C117.34 76.3811 118.038 77.8603 118.038 79.6936Z" fill="#AFAFAF"/>
<path d="M172.206 67.9749H164.331V88.1936H143.988V67.9749H136.081V113.475H143.988V94.5374H164.331V113.475H172.206V67.9749Z" fill="#AFAFAF"/>
<path d="M211.825 74.2874H232.481V67.9749H203.919V113.475H211.825V74.2874Z" fill="#AFAFAF"/>
<path d="M333.875 82.7874C333.417 77.9332 331.625 74.1415 328.5 71.4124C325.375 68.704 321.219 67.3499 316.031 67.3499C312.406 67.3499 309.208 68.204 306.438 69.9124C303.688 71.6415 301.562 74.0894 300.062 77.2561C298.562 80.4228 297.781 84.0999 297.719 88.2874V92.5374C297.719 96.829 298.479 100.61 300 103.881C301.521 107.152 303.698 109.673 306.531 111.444C309.385 113.214 312.677 114.1 316.406 114.1C321.427 114.1 325.469 112.735 328.531 110.006C331.594 107.277 333.375 103.423 333.875 98.4436H326C325.625 101.714 324.667 104.069 323.125 105.506C321.604 106.964 319.365 107.694 316.406 107.694C312.969 107.694 310.323 106.433 308.469 103.912C306.635 101.412 305.698 97.7353 305.656 92.8811V88.8499C305.656 83.9332 306.531 80.1832 308.281 77.5999C310.052 75.0165 312.635 73.7249 316.031 73.7249C319.135 73.7249 321.469 74.4228 323.031 75.8186C324.594 77.2144 325.583 79.5374 326 82.7874H333.875Z" fill="#AFAFAF"/>
<path d="M380.481 89.5374C380.481 85.079 379.71 81.1624 378.169 77.7874C376.627 74.4332 374.419 71.8499 371.544 70.0374C368.69 68.2457 365.398 67.3499 361.669 67.3499C357.981 67.3499 354.69 68.2457 351.794 70.0374C348.919 71.8499 346.69 74.4228 345.106 77.7561C343.544 81.0894 342.752 84.9332 342.731 89.2874V91.8499C342.731 96.2874 343.513 100.204 345.075 103.6C346.658 106.996 348.877 109.589 351.731 111.381C354.606 113.194 357.898 114.1 361.606 114.1C365.315 114.1 368.596 113.204 371.45 111.412C374.325 109.642 376.544 107.079 378.106 103.725C379.669 100.392 380.46 96.5061 380.481 92.0686V89.5374ZM372.575 91.9124C372.575 96.954 371.617 100.819 369.7 103.506C367.804 106.194 365.106 107.537 361.606 107.537C358.19 107.537 355.513 106.194 353.575 103.506C351.658 100.839 350.679 97.0582 350.638 92.1624V89.5374C350.638 84.5374 351.606 80.6728 353.544 77.9436C355.502 75.2144 358.21 73.8499 361.669 73.8499C365.169 73.8499 367.856 75.1832 369.731 77.8499C371.627 80.5165 372.575 84.4124 372.575 89.5374V91.9124Z" fill="#AFAFAF"/>
<path d="M479.969 107.1H465.781V67.9749H457.938V107.1H443.875V113.475H479.969V107.1Z" fill="#AFAFAF"/>
<path d="M515.763 88.2874H497.075V74.2874H518.919V67.9749H489.169V113.475H518.7V107.1H497.075V94.5374H515.763V88.2874Z" fill="#AFAFAF"/>
<path d="M266.69 195.751L283.69 179.75C284.094 179.363 284.097 178.701 283.737 178.328C283.371 177.949 282.699 177.922 282.315 178.281L267.002 192.688V135C267.002 134.448 266.555 134 266.002 134C265.45 134 265.002 134.448 265.002 135V192.688L249.69 178.281C249.305 177.921 248.628 177.943 248.268 178.328C247.908 178.713 247.899 179.332 248.315 179.75L265.315 195.751C265.783 196.131 266.356 196.031 266.69 195.751V195.751Z" fill="#313131"/>
<path d="M266.69 459.751L283.69 443.75C284.094 443.363 284.097 442.701 283.737 442.328C283.371 441.949 282.699 441.922 282.315 442.281L267.002 456.688V399C267.002 398.448 266.555 398 266.002 398C265.45 398 265.002 398.448 265.002 399V456.688L249.69 442.281C249.305 441.921 248.628 441.943 248.268 442.328C247.908 442.713 247.899 443.332 248.315 443.75L265.315 459.751C265.783 460.131 266.356 460.031 266.69 459.751V459.751Z" fill="#313131"/>
<path d="M482.156 262.125H474.281V230.219C474.281 225.865 475.646 222.406 478.375 219.844C481.083 217.281 484.667 216 489.125 216C493.875 216 497.542 217.198 500.125 219.594C502.708 221.99 504 225.323 504 229.594H496.125C496.125 227.177 495.531 225.354 494.344 224.125C493.135 222.917 491.396 222.312 489.125 222.312C487 222.312 485.312 223.01 484.062 224.406C482.792 225.823 482.156 227.771 482.156 230.25V262.125Z" fill="#AFAFAF"/>
<path d="M425.706 238.188C425.706 233.729 426.477 229.812 428.019 226.438C429.56 223.083 431.769 220.5 434.644 218.688C437.498 216.896 440.79 216 444.519 216C448.206 216 451.498 216.896 454.394 218.688C457.269 220.5 459.498 223.073 461.081 226.406C462.644 229.74 463.435 233.583 463.456 237.938V240.5C463.456 244.938 462.675 248.854 461.112 252.25C459.529 255.646 457.31 258.24 454.456 260.031C451.581 261.844 448.29 262.75 444.581 262.75C440.873 262.75 437.592 261.854 434.738 260.062C431.863 258.292 429.644 255.729 428.081 252.375C426.519 249.042 425.727 245.156 425.706 240.719V238.188ZM433.613 240.562C433.613 245.604 434.571 249.469 436.488 252.156C438.383 254.844 441.081 256.188 444.581 256.188C447.998 256.188 450.675 254.844 452.612 252.156C454.529 249.49 455.508 245.708 455.55 240.812V238.188C455.55 233.188 454.581 229.323 452.644 226.594C450.685 223.865 447.977 222.5 444.519 222.5C441.019 222.5 438.331 223.833 436.456 226.5C434.56 229.167 433.613 233.062 433.613 238.188V240.562Z" fill="#AFAFAF"/>
<path d="M340.231 216.625H348.106V236.844H368.45V216.625H376.356V262.125H368.45V243.188H348.106V262.125H340.231V216.625Z" fill="#AFAFAF"/>
<path d="M300.612 222.938H279.956V216.625H308.519V262.125H300.612V222.938Z" fill="#AFAFAF"/>
<path d="M244.6 227.219H262.225L265.912 216.625H274.131L256.944 262.125H249.85L232.631 216.625H240.881L244.6 227.219ZM260.006 233.594H246.819L253.412 252.469L260.006 233.594Z" fill="#AFAFAF"/>
<path d="M190.212 231.438C190.671 226.583 192.462 222.792 195.587 220.062C198.712 217.354 202.869 216 208.056 216C211.681 216 214.879 216.854 217.65 218.562C220.4 220.292 222.525 222.74 224.025 225.906C225.525 229.073 226.306 232.75 226.369 236.938V241.188C226.369 245.479 225.608 249.26 224.087 252.531C222.567 255.802 220.39 258.323 217.556 260.094C214.702 261.865 211.41 262.75 207.681 262.75C202.66 262.75 198.619 261.385 195.556 258.656C192.494 255.927 190.712 252.073 190.212 247.094H198.087C198.462 250.365 199.421 252.719 200.962 254.156C202.483 255.615 204.723 256.344 207.681 256.344C211.119 256.344 213.765 255.083 215.619 252.562C217.452 250.062 218.39 246.385 218.431 241.531V237.5C218.431 232.583 217.556 228.833 215.806 226.25C214.035 223.667 211.452 222.375 208.056 222.375C204.952 222.375 202.619 223.073 201.056 224.469C199.494 225.865 198.504 228.188 198.087 231.438H190.212Z" fill="#AFAFAF"/>
<path d="M117.862 228.344C117.862 230.344 118.571 231.885 119.987 232.969C121.383 234.052 123.915 235.146 127.581 236.25C131.248 237.354 134.165 238.583 136.331 239.938C140.477 242.542 142.55 245.938 142.55 250.125C142.55 253.792 141.06 256.812 138.081 259.188C135.081 261.562 131.196 262.75 126.425 262.75C123.258 262.75 120.435 262.167 117.956 261C115.477 259.833 113.529 258.167 112.112 256C110.696 253.854 109.987 251.469 109.987 248.844H117.862C117.862 251.219 118.612 253.073 120.112 254.406C121.592 255.76 123.717 256.438 126.487 256.438C129.071 256.438 131.081 255.885 132.519 254.781C133.935 253.677 134.644 252.135 134.644 250.156C134.644 248.49 133.873 247.094 132.331 245.969C130.79 244.865 128.248 243.781 124.706 242.719C121.165 241.677 118.321 240.479 116.175 239.125C114.029 237.792 112.456 236.25 111.456 234.5C110.456 232.771 109.956 230.74 109.956 228.406C109.956 224.615 111.415 221.594 114.331 219.344C117.227 217.115 121.165 216 126.144 216C129.435 216 132.467 216.604 135.237 217.812C137.987 219.042 140.133 220.729 141.675 222.875C143.196 225.021 143.956 227.521 143.956 230.375H136.05C136.05 227.792 135.196 225.792 133.487 224.375C131.779 222.958 129.331 222.25 126.144 222.25C123.394 222.25 121.331 222.802 119.956 223.906C118.56 225.031 117.862 226.51 117.862 228.344Z" fill="#AFAFAF"/>
<path d="M66.9437 255.75H81.1312V216.625H88.975V255.75H103.037V262.125H66.9437V255.75Z" fill="#AFAFAF"/>
<path d="M31.15 236.938H49.8375V222.938H27.9937V216.625H57.7437V262.125H28.2125V255.75H49.8375V243.188H31.15V236.938Z" fill="#AFAFAF"/>
<path d="M49.8438 377.125H57.7188V345.219C57.7188 340.865 56.3542 337.406 53.625 334.844C50.9167 332.281 47.3333 331 42.875 331C38.125 331 34.4583 332.198 31.875 334.594C29.2917 336.99 28 340.323 28 344.594H35.875C35.875 342.177 36.4688 340.354 37.6562 339.125C38.8646 337.917 40.6042 337.312 42.875 337.312C45 337.312 46.6875 338.01 47.9375 339.406C49.2083 340.823 49.8438 342.771 49.8438 345.25V377.125Z" fill="#AFAFAF"/>
<path d="M106.294 353.188C106.294 348.729 105.523 344.812 103.981 341.438C102.44 338.083 100.231 335.5 97.3562 333.688C94.5021 331.896 91.2104 331 87.4813 331C83.7938 331 80.5021 331.896 77.6063 333.688C74.7313 335.5 72.5021 338.073 70.9188 341.406C69.3563 344.74 68.5646 348.583 68.5438 352.938V355.5C68.5438 359.938 69.325 363.854 70.8875 367.25C72.4708 370.646 74.6896 373.24 77.5438 375.031C80.4188 376.844 83.7104 377.75 87.4188 377.75C91.1271 377.75 94.4083 376.854 97.2625 375.062C100.137 373.292 102.356 370.729 103.919 367.375C105.481 364.042 106.273 360.156 106.294 355.719V353.188ZM98.3875 355.562C98.3875 360.604 97.4292 364.469 95.5125 367.156C93.6167 369.844 90.9188 371.188 87.4188 371.188C84.0021 371.188 81.325 369.844 79.3875 367.156C77.4708 364.49 76.4917 360.708 76.45 355.812V353.188C76.45 348.188 77.4188 344.323 79.3563 341.594C81.3146 338.865 84.0229 337.5 87.4813 337.5C90.9813 337.5 93.6687 338.833 95.5437 341.5C97.4396 344.167 98.3875 348.062 98.3875 353.188V355.562Z" fill="#AFAFAF"/>
<path d="M191.769 331.625H183.894V351.844H163.55V331.625H155.644V377.125H163.55V358.188H183.894V377.125H191.769V331.625Z" fill="#AFAFAF"/>
<path d="M231.388 337.938H252.044V331.625H223.481V377.125H231.388V337.938Z" fill="#AFAFAF"/>
<path d="M287.4 342.219H269.775L266.088 331.625H257.869L275.056 377.125H282.15L299.369 331.625H291.119L287.4 342.219ZM271.994 348.594H285.181L278.588 367.469L271.994 348.594Z" fill="#AFAFAF"/>
<path d="M341.788 346.438C341.329 341.583 339.538 337.792 336.413 335.062C333.288 332.354 329.131 331 323.944 331C320.319 331 317.121 331.854 314.35 333.562C311.6 335.292 309.475 337.74 307.975 340.906C306.475 344.073 305.694 347.75 305.631 351.938V356.188C305.631 360.479 306.392 364.26 307.913 367.531C309.433 370.802 311.61 373.323 314.444 375.094C317.298 376.865 320.59 377.75 324.319 377.75C329.34 377.75 333.381 376.385 336.444 373.656C339.506 370.927 341.288 367.073 341.788 362.094H333.913C333.538 365.365 332.579 367.719 331.038 369.156C329.517 370.615 327.277 371.344 324.319 371.344C320.881 371.344 318.235 370.083 316.381 367.562C314.548 365.062 313.61 361.385 313.569 356.531V352.5C313.569 347.583 314.444 343.833 316.194 341.25C317.965 338.667 320.548 337.375 323.944 337.375C327.048 337.375 329.381 338.073 330.944 339.469C332.506 340.865 333.496 343.188 333.913 346.438H341.788Z" fill="#AFAFAF"/>
<path d="M414.138 343.344C414.138 345.344 413.429 346.885 412.013 347.969C410.617 349.052 408.085 350.146 404.419 351.25C400.752 352.354 397.835 353.583 395.669 354.938C391.523 357.542 389.45 360.938 389.45 365.125C389.45 368.792 390.94 371.812 393.919 374.188C396.919 376.562 400.804 377.75 405.575 377.75C408.742 377.75 411.565 377.167 414.044 376C416.523 374.833 418.471 373.167 419.888 371C421.304 368.854 422.013 366.469 422.013 363.844H414.138C414.138 366.219 413.388 368.073 411.888 369.406C410.408 370.76 408.283 371.438 405.513 371.438C402.929 371.438 400.919 370.885 399.481 369.781C398.065 368.677 397.356 367.135 397.356 365.156C397.356 363.49 398.127 362.094 399.669 360.969C401.21 359.865 403.752 358.781 407.294 357.719C410.835 356.677 413.679 355.479 415.825 354.125C417.971 352.792 419.544 351.25 420.544 349.5C421.544 347.771 422.044 345.74 422.044 343.406C422.044 339.615 420.585 336.594 417.669 334.344C414.773 332.115 410.835 331 405.856 331C402.565 331 399.533 331.604 396.763 332.812C394.013 334.042 391.867 335.729 390.325 337.875C388.804 340.021 388.044 342.521 388.044 345.375H395.95C395.95 342.792 396.804 340.792 398.513 339.375C400.221 337.958 402.669 337.25 405.856 337.25C408.606 337.25 410.669 337.802 412.044 338.906C413.44 340.031 414.138 341.51 414.138 343.344Z" fill="#AFAFAF"/>
<path d="M465.056 370.75H450.869V331.625H443.025V370.75H428.963V377.125H465.056V370.75Z" fill="#AFAFAF"/>
<path d="M500.85 351.938H482.163V337.938H504.006V331.625H474.256V377.125H503.788V370.75H482.163V358.188H500.85V351.938Z" fill="#AFAFAF"/>
<path d="M42.27 273.125H50.145V305.031C50.145 309.385 48.7805 312.844 46.0513 315.406C43.343 317.969 39.7596 319.25 35.3013 319.25C30.5513 319.25 26.8846 318.052 24.3013 315.656C21.718 313.26 20.4263 309.927 20.4263 305.656H28.3013C28.3013 308.073 28.895 309.896 30.0825 311.125C31.2909 312.333 33.0305 312.938 35.3013 312.938C37.4263 312.938 39.1138 312.24 40.3638 310.844C41.6346 309.427 42.27 307.479 42.27 305V273.125Z" fill="black"/>
<path d="M98.72 297.062C98.72 301.521 97.9492 305.438 96.4075 308.812C94.8659 312.167 92.6575 314.75 89.7825 316.562C86.9284 318.354 83.6367 319.25 79.9075 319.25C76.22 319.25 72.9284 318.354 70.0325 316.562C67.1575 314.75 64.9284 312.177 63.345 308.844C61.7825 305.51 60.9909 301.667 60.97 297.312V294.75C60.97 290.312 61.7513 286.396 63.3138 283C64.8971 279.604 67.1159 277.01 69.97 275.219C72.845 273.406 76.1367 272.5 79.845 272.5C83.5534 272.5 86.8346 273.396 89.6888 275.188C92.5638 276.958 94.7825 279.521 96.345 282.875C97.9075 286.208 98.6992 290.094 98.72 294.531V297.062ZM90.8138 294.688C90.8138 289.646 89.8554 285.781 87.9388 283.094C86.0429 280.406 83.345 279.062 79.845 279.062C76.4284 279.062 73.7513 280.406 71.8138 283.094C69.8971 285.76 68.918 289.542 68.8763 294.438V297.062C68.8763 302.062 69.845 305.927 71.7825 308.656C73.7409 311.385 76.4492 312.75 79.9075 312.75C83.4075 312.75 86.095 311.417 87.97 308.75C89.8659 306.083 90.8138 302.188 90.8138 297.062V294.688Z" fill="black"/>
<path d="M133.576 306.906C133.576 304.906 132.868 303.365 131.451 302.281C130.055 301.198 127.524 300.104 123.858 299C120.191 297.896 117.274 296.667 115.108 295.312C110.962 292.708 108.889 289.312 108.889 285.125C108.889 281.458 110.378 278.438 113.358 276.062C116.358 273.688 120.243 272.5 125.014 272.5C128.18 272.5 131.003 273.083 133.483 274.25C135.962 275.417 137.91 277.083 139.326 279.25C140.743 281.396 141.451 283.781 141.451 286.406H133.576C133.576 284.031 132.826 282.177 131.326 280.844C129.847 279.49 127.722 278.812 124.951 278.812C122.368 278.812 120.358 279.365 118.92 280.469C117.503 281.573 116.795 283.115 116.795 285.094C116.795 286.76 117.566 288.156 119.108 289.281C120.649 290.385 123.191 291.469 126.733 292.531C130.274 293.573 133.118 294.771 135.264 296.125C137.41 297.458 138.983 299 139.983 300.75C140.983 302.479 141.483 304.51 141.483 306.844C141.483 310.635 140.024 313.656 137.108 315.906C134.212 318.135 130.274 319.25 125.295 319.25C122.003 319.25 118.972 318.646 116.201 317.438C113.451 316.208 111.305 314.521 109.764 312.375C108.243 310.229 107.483 307.729 107.483 304.875H115.389C115.389 307.458 116.243 309.458 117.951 310.875C119.66 312.292 122.108 313 125.295 313C128.045 313 130.108 312.448 131.483 311.344C132.878 310.219 133.576 308.74 133.576 306.906Z" fill="black"/>
<path d="M187.745 318.625H179.87V298.406H159.526V318.625H151.62V273.125H159.526V292.062H179.87V273.125H187.745V318.625Z" fill="black"/>
<path d="M227.364 312.312H248.02V318.625H219.458V273.125H227.364V312.312Z" fill="black"/>
<path d="M283.376 308.031H265.751L262.064 318.625H253.845L271.033 273.125H278.126L295.345 318.625H287.095L283.376 308.031ZM267.97 301.656H281.158L274.564 282.781L267.97 301.656Z" fill="black"/>
<path d="M337.764 303.812C337.305 308.667 335.514 312.458 332.389 315.188C329.264 317.896 325.108 319.25 319.92 319.25C316.295 319.25 313.097 318.396 310.326 316.688C307.576 314.958 305.451 312.51 303.951 309.344C302.451 306.177 301.67 302.5 301.608 298.312V294.062C301.608 289.771 302.368 285.99 303.889 282.719C305.41 279.448 307.587 276.927 310.42 275.156C313.274 273.385 316.566 272.5 320.295 272.5C325.316 272.5 329.358 273.865 332.42 276.594C335.483 279.323 337.264 283.177 337.764 288.156H329.889C329.514 284.885 328.555 282.531 327.014 281.094C325.493 279.635 323.253 278.906 320.295 278.906C316.858 278.906 314.212 280.167 312.358 282.688C310.524 285.188 309.587 288.865 309.545 293.719V297.75C309.545 302.667 310.42 306.417 312.17 309C313.941 311.583 316.524 312.875 319.92 312.875C323.024 312.875 325.358 312.177 326.92 310.781C328.483 309.385 329.472 307.062 329.889 303.812H337.764Z" fill="black"/>
<path d="M384.37 297.062C384.37 301.521 383.599 305.438 382.058 308.812C380.516 312.167 378.308 314.75 375.433 316.562C372.578 318.354 369.287 319.25 365.558 319.25C361.87 319.25 358.578 318.354 355.683 316.562C352.808 314.75 350.578 312.177 348.995 308.844C347.433 305.51 346.641 301.667 346.62 297.312V294.75C346.62 290.312 347.401 286.396 348.964 283C350.547 279.604 352.766 277.01 355.62 275.219C358.495 273.406 361.787 272.5 365.495 272.5C369.203 272.5 372.485 273.396 375.339 275.188C378.214 276.958 380.433 279.521 381.995 282.875C383.558 286.208 384.349 290.094 384.37 294.531V297.062ZM376.464 294.688C376.464 289.646 375.505 285.781 373.589 283.094C371.693 280.406 368.995 279.062 365.495 279.062C362.078 279.062 359.401 280.406 357.464 283.094C355.547 285.76 354.568 289.542 354.526 294.438V297.062C354.526 302.062 355.495 305.927 357.433 308.656C359.391 311.385 362.099 312.75 365.558 312.75C369.058 312.75 371.745 311.417 373.62 308.75C375.516 306.083 376.464 302.188 376.464 297.062V294.688Z" fill="black"/>
<path d="M419.226 306.906C419.226 304.906 418.518 303.365 417.101 302.281C415.705 301.198 413.174 300.104 409.508 299C405.841 297.896 402.924 296.667 400.758 295.312C396.612 292.708 394.539 289.312 394.539 285.125C394.539 281.458 396.028 278.438 399.008 276.062C402.008 273.688 405.893 272.5 410.664 272.5C413.83 272.5 416.653 273.083 419.133 274.25C421.612 275.417 423.56 277.083 424.976 279.25C426.393 281.396 427.101 283.781 427.101 286.406H419.226C419.226 284.031 418.476 282.177 416.976 280.844C415.497 279.49 413.372 278.812 410.601 278.812C408.018 278.812 406.008 279.365 404.57 280.469C403.153 281.573 402.445 283.115 402.445 285.094C402.445 286.76 403.216 288.156 404.758 289.281C406.299 290.385 408.841 291.469 412.383 292.531C415.924 293.573 418.768 294.771 420.914 296.125C423.06 297.458 424.633 299 425.633 300.75C426.633 302.479 427.133 304.51 427.133 306.844C427.133 310.635 425.674 313.656 422.758 315.906C419.862 318.135 415.924 319.25 410.945 319.25C407.653 319.25 404.622 318.646 401.851 317.438C399.101 316.208 396.955 314.521 395.414 312.375C393.893 310.229 393.133 307.729 393.133 304.875H401.039C401.039 307.458 401.893 309.458 403.601 310.875C405.31 312.292 407.758 313 410.945 313C413.695 313 415.758 312.448 417.133 311.344C418.528 310.219 419.226 308.74 419.226 306.906Z" fill="black"/>
<path d="M470.145 279.5H455.958V318.625H448.114V279.5H434.051V273.125H470.145V279.5Z" fill="black"/>
<path d="M505.939 298.312H487.251V312.312H509.095V318.625H479.345V273.125H508.876V279.5H487.251V292.062H505.939V298.312Z" fill="black"/>
<path d="M0 291.279H531.85V301.663H0V291.279Z" fill="#32335B"/>
<path d="M506.552 529.512H498.099V495.263C498.099 490.589 499.564 486.877 502.493 484.126C505.4 481.375 509.247 480 514.033 480C519.131 480 523.067 481.286 525.84 483.858C528.613 486.429 530 490.007 530 494.592H521.547C521.547 491.998 520.909 490.041 519.635 488.722C518.338 487.425 516.47 486.776 514.033 486.776C511.752 486.776 509.94 487.525 508.598 489.024C507.234 490.544 506.552 492.635 506.552 495.296V529.512Z" fill="#DCDCDC"/>
<path d="M445.957 503.817C445.957 499.031 446.784 494.827 448.439 491.204C450.094 487.603 452.464 484.83 455.55 482.885C458.614 480.962 462.148 480 466.151 480C470.109 480 473.642 480.962 476.751 482.885C479.837 484.83 482.23 487.592 483.929 491.17C485.607 494.749 486.456 498.875 486.479 503.548V506.299C486.479 511.063 485.64 515.267 483.963 518.912C482.263 522.557 479.882 525.341 476.818 527.265C473.732 529.21 470.198 530.183 466.218 530.183C462.237 530.183 458.715 529.221 455.651 527.298C452.565 525.397 450.183 522.647 448.506 519.046C446.829 515.468 445.979 511.297 445.957 506.534V503.817ZM454.443 506.366C454.443 511.778 455.472 515.927 457.53 518.811C459.565 521.696 462.461 523.139 466.218 523.139C469.885 523.139 472.759 521.696 474.839 518.811C476.896 515.949 477.947 511.89 477.992 506.635V503.817C477.992 498.45 476.952 494.301 474.872 491.372C472.77 488.442 469.863 486.977 466.151 486.977C462.394 486.977 459.509 488.409 457.496 491.271C455.461 494.134 454.443 498.315 454.443 503.817V506.366Z" fill="#DCDCDC"/>
<path d="M408.541 493.25C408.541 495.397 409.301 497.052 410.822 498.215C412.32 499.378 415.037 500.552 418.973 501.737C422.909 502.922 426.04 504.242 428.366 505.695C432.816 508.491 435.041 512.136 435.041 516.631C435.041 520.567 433.442 523.81 430.244 526.359C427.024 528.908 422.853 530.183 417.732 530.183C414.333 530.183 411.302 529.557 408.641 528.305C405.98 527.052 403.889 525.263 402.368 522.937C400.848 520.634 400.087 518.073 400.087 515.256H408.541C408.541 517.805 409.346 519.795 410.956 521.227C412.544 522.68 414.825 523.407 417.799 523.407C420.572 523.407 422.73 522.814 424.273 521.629C425.794 520.444 426.554 518.789 426.554 516.665C426.554 514.875 425.727 513.377 424.072 512.169C422.417 510.984 419.689 509.821 415.887 508.681C412.085 507.563 409.033 506.277 406.729 504.823C404.426 503.392 402.737 501.737 401.664 499.859C400.59 498.002 400.054 495.822 400.054 493.317C400.054 489.247 401.619 486.004 404.75 483.589C407.859 481.196 412.085 480 417.43 480C420.963 480 424.217 480.648 427.192 481.946C430.144 483.265 432.447 485.076 434.102 487.38C435.734 489.683 436.551 492.367 436.551 495.431H428.064C428.064 492.658 427.147 490.511 425.313 488.99C423.479 487.469 420.852 486.709 417.43 486.709C414.478 486.709 412.264 487.302 410.788 488.487C409.29 489.694 408.541 491.282 408.541 493.25Z" fill="#DCDCDC"/>
<path d="M350.394 480.671H358.847V502.374H380.685V480.671H389.172V529.512H380.685V509.184H358.847V529.512H350.394V480.671Z" fill="#DCDCDC"/>
<path d="M307.866 487.447H285.692V480.671H316.353V529.512H307.866V487.447Z" fill="#DCDCDC"/>
<path d="M247.74 492.043H266.659L270.617 480.671H279.44L260.99 529.512H253.375L234.892 480.671H243.748L247.74 492.043ZM264.277 498.886H250.121L257.199 519.147L264.277 498.886Z" fill="#DCDCDC"/>
<path d="M189.358 496.571C189.85 491.36 191.773 487.29 195.128 484.361C198.482 481.454 202.944 480 208.512 480C212.404 480 215.836 480.917 218.811 482.751C221.763 484.607 224.044 487.234 225.654 490.634C227.264 494.033 228.103 497.98 228.17 502.475V507.037C228.17 511.644 227.353 515.703 225.721 519.214C224.088 522.725 221.751 525.431 218.71 527.332C215.646 529.233 212.113 530.183 208.11 530.183C202.72 530.183 198.382 528.718 195.094 525.789C191.807 522.859 189.895 518.722 189.358 513.377H197.812C198.214 516.888 199.243 519.415 200.898 520.958C202.53 522.524 204.934 523.306 208.11 523.306C211.8 523.306 214.64 521.953 216.63 519.247C218.598 516.564 219.605 512.617 219.649 507.406V503.079C219.649 497.801 218.71 493.776 216.832 491.003C214.931 488.23 212.158 486.843 208.512 486.843C205.18 486.843 202.676 487.592 200.998 489.091C199.321 490.589 198.259 493.082 197.812 496.571H189.358Z" fill="#DCDCDC"/>
<path d="M139.329 503.817C139.329 499.031 140.157 494.827 141.812 491.204C143.467 487.603 145.837 484.83 148.923 482.885C151.987 480.962 155.52 480 159.523 480C163.482 480 167.015 480.962 170.124 482.885C173.21 484.83 175.603 487.592 177.302 491.17C178.979 494.749 179.829 498.875 179.852 503.548V506.299C179.852 511.063 179.013 515.267 177.336 518.912C175.636 522.557 173.254 525.341 170.191 527.265C167.105 529.21 163.571 530.183 159.59 530.183C155.61 530.183 152.088 529.221 149.024 527.298C145.938 525.397 143.556 522.647 141.879 519.046C140.202 515.468 139.352 511.297 139.329 506.534V503.817ZM147.816 506.366C147.816 511.778 148.845 515.927 150.902 518.811C152.937 521.696 155.833 523.139 159.59 523.139C163.258 523.139 166.132 521.696 168.212 518.811C170.269 515.949 171.32 511.89 171.365 506.635V503.817C171.365 498.45 170.325 494.301 168.245 491.372C166.143 488.442 163.236 486.977 159.523 486.977C155.766 486.977 152.882 488.409 150.869 491.271C148.834 494.134 147.816 498.315 147.816 503.817V506.366Z" fill="#DCDCDC"/>
<path d="M101.913 493.25C101.913 495.397 102.674 497.052 104.194 498.215C105.693 499.378 108.41 500.552 112.346 501.737C116.282 502.922 119.413 504.242 121.738 505.695C126.189 508.491 128.414 512.136 128.414 516.631C128.414 520.567 126.815 523.81 123.617 526.359C120.397 528.908 116.226 530.183 111.105 530.183C107.705 530.183 104.675 529.557 102.014 528.305C99.3528 527.052 97.2618 525.263 95.7411 522.937C94.2204 520.634 93.4601 518.073 93.4601 515.256H101.913C101.913 517.805 102.718 519.795 104.329 521.227C105.916 522.68 108.197 523.407 111.172 523.407C113.945 523.407 116.103 522.814 117.646 521.629C119.167 520.444 119.927 518.789 119.927 516.665C119.927 514.875 119.1 513.377 117.445 512.169C115.79 510.984 113.061 509.821 109.26 508.681C105.458 507.563 102.405 506.277 100.102 504.823C97.7985 503.392 96.1101 501.737 95.0367 499.859C93.9632 498.002 93.4265 495.822 93.4265 493.317C93.4265 489.247 94.9919 486.004 98.1228 483.589C101.231 481.196 105.458 480 110.803 480C114.336 480 117.59 480.648 120.564 481.946C123.516 483.265 125.82 485.076 127.475 487.38C129.107 489.683 129.923 492.367 129.923 495.431H121.436C121.436 492.658 120.52 490.511 118.686 488.99C116.852 487.469 114.224 486.709 110.803 486.709C107.851 486.709 105.637 487.302 104.161 488.487C102.663 489.694 101.913 491.282 101.913 493.25Z" fill="#DCDCDC"/>
<path d="M47.2553 522.669H62.4847V480.671H70.9045V522.669H85.9997V529.512H47.2553V522.669Z" fill="#DCDCDC"/>
<path d="M8.83301 502.475H28.8929V487.447H5.44495V480.671H37.3797V529.512H5.67975V522.669H28.8929V509.184H8.83301V502.475Z" fill="#DCDCDC"/>
<path d="M23.4479 655.462H31.9012V621.213C31.9012 616.539 30.4364 612.826 27.5068 610.076C24.5996 607.325 20.7531 605.95 15.9674 605.95C10.8685 605.95 6.93261 607.236 4.15957 609.807C1.38652 612.379 0 615.957 0 620.542H8.45331C8.45331 617.948 9.09067 615.991 10.3654 614.671C11.6624 613.374 13.5298 612.726 15.9674 612.726C18.2484 612.726 20.0599 613.475 21.4016 614.973C22.7658 616.494 23.4479 618.585 23.4479 621.246V655.462Z" fill="#DCDCDC"/>
<path d="M84.0434 629.767C84.0434 624.981 83.216 620.776 81.5611 617.154C79.9062 613.553 77.5357 610.78 74.4496 608.835C71.3858 606.911 67.8524 605.95 63.8494 605.95C59.8911 605.95 56.3577 606.911 53.2492 608.835C50.163 610.78 47.7702 613.542 46.0706 617.12C44.3933 620.698 43.5435 624.824 43.5212 629.498V632.249C43.5212 637.012 44.3598 641.217 46.037 644.862C47.7366 648.507 50.1183 651.291 53.1821 653.214C56.2682 655.16 59.8016 656.133 63.7823 656.133C67.7629 656.133 71.2852 655.171 74.3489 653.248C77.4351 651.347 79.8167 648.596 81.494 644.996C83.1712 641.418 84.021 637.247 84.0434 632.484V629.767ZM75.5565 632.316C75.5565 637.728 74.5278 641.876 72.4704 644.761C70.4353 647.646 67.5393 649.088 63.7823 649.088C60.1147 649.088 57.241 647.646 55.1612 644.761C53.1038 641.899 52.0527 637.84 52.008 632.584V629.767C52.008 624.399 53.0479 620.251 55.1277 617.321C57.2298 614.392 60.1371 612.927 63.8494 612.927C67.6064 612.927 70.4913 614.358 72.504 617.221C74.539 620.083 75.5565 624.265 75.5565 629.767V632.316Z" fill="#DCDCDC"/>
<path d="M121.459 619.2C121.459 621.347 120.699 623.002 119.178 624.165C117.68 625.327 114.963 626.501 111.027 627.687C107.091 628.872 103.96 630.191 101.634 631.645C97.1841 634.44 94.9589 638.086 94.9589 642.581C94.9589 646.517 96.5579 649.759 99.7558 652.309C102.976 654.858 107.147 656.133 112.268 656.133C115.667 656.133 118.698 655.507 121.359 654.254C124.02 653.002 126.111 651.213 127.632 648.887C129.152 646.584 129.913 644.023 129.913 641.205H121.459C121.459 643.755 120.654 645.745 119.044 647.176C117.456 648.63 115.175 649.357 112.201 649.357C109.428 649.357 107.27 648.764 105.727 647.579C104.206 646.394 103.446 644.739 103.446 642.614C103.446 640.825 104.273 639.327 105.928 638.119C107.583 636.934 110.311 635.771 114.113 634.631C117.915 633.512 120.967 632.226 123.271 630.773C125.574 629.342 127.263 627.687 128.336 625.808C129.41 623.952 129.946 621.772 129.946 619.267C129.946 615.197 128.381 611.954 125.25 609.539C122.141 607.146 117.915 605.95 112.57 605.95C109.037 605.95 105.783 606.598 102.808 607.895C99.8565 609.215 97.5531 611.026 95.8982 613.33C94.2656 615.633 93.4494 618.317 93.4494 621.38H101.936C101.936 618.607 102.853 616.46 104.687 614.94C106.521 613.419 109.148 612.659 112.57 612.659C115.522 612.659 117.736 613.251 119.212 614.437C120.71 615.644 121.459 617.232 121.459 619.2Z" fill="#DCDCDC"/>
<path d="M179.606 606.621H171.153V628.324H149.315V606.621H140.828V655.462H149.315V635.134H171.153V655.462H179.606V606.621Z" fill="#DCDCDC"/>
<path d="M222.134 613.397H244.308V606.621H213.647V655.462H222.134V613.397Z" fill="#DCDCDC"/>
<path d="M282.26 617.992H263.341L259.383 606.621H250.56L269.01 655.462H276.625L295.108 606.621H286.252L282.26 617.992ZM265.723 624.835H279.879L272.801 645.097L265.723 624.835Z" fill="#DCDCDC"/>
<path d="M341.38 622.521C340.888 617.31 338.965 613.24 335.61 610.31C332.256 607.403 327.794 605.95 322.226 605.95C318.334 605.95 314.902 606.867 311.927 608.7C308.975 610.556 306.694 613.184 305.084 616.583C303.474 619.983 302.635 623.93 302.568 628.425V632.987C302.568 637.594 303.385 641.653 305.017 645.164C306.65 648.675 308.987 651.381 312.028 653.281C315.092 655.182 318.625 656.133 322.628 656.133C328.018 656.133 332.356 654.668 335.644 651.738C338.931 648.809 340.843 644.672 341.38 639.327H332.926C332.524 642.838 331.495 645.365 329.84 646.908C328.208 648.473 325.804 649.256 322.628 649.256C318.938 649.256 316.098 647.903 314.108 645.197C312.14 642.514 311.133 638.566 311.089 633.356V629.029C311.089 623.751 312.028 619.725 313.906 616.952C315.807 614.179 318.58 612.793 322.226 612.793C325.558 612.793 328.062 613.542 329.74 615.04C331.417 616.539 332.479 619.032 332.926 622.521H341.38Z" fill="#DCDCDC"/>
<path d="M391.409 629.767C391.409 624.981 390.581 620.776 388.926 617.154C387.271 613.553 384.901 610.78 381.815 608.835C378.751 606.911 375.218 605.95 371.215 605.95C367.256 605.95 363.723 606.911 360.614 608.835C357.528 610.78 355.135 613.542 353.436 617.12C351.759 620.698 350.909 624.824 350.886 629.498V632.249C350.886 637.012 351.725 641.217 353.402 644.862C355.102 648.507 357.484 651.291 360.547 653.214C363.633 655.16 367.167 656.133 371.148 656.133C375.128 656.133 378.65 655.171 381.714 653.248C384.8 651.347 387.182 648.596 388.859 644.996C390.536 641.418 391.386 637.247 391.409 632.484V629.767ZM382.922 632.316C382.922 637.728 381.893 641.876 379.836 644.761C377.801 647.646 374.905 649.088 371.148 649.088C367.48 649.088 364.606 647.646 362.526 644.761C360.469 641.899 359.418 637.84 359.373 632.584V629.767C359.373 624.399 360.413 620.251 362.493 617.321C364.595 614.392 367.502 612.927 371.215 612.927C374.972 612.927 377.857 614.358 379.869 617.221C381.904 620.083 382.922 624.265 382.922 629.767V632.316Z" fill="#DCDCDC"/>
<path d="M428.825 619.2C428.825 621.347 428.064 623.002 426.544 624.165C425.045 625.327 422.328 626.501 418.392 627.687C414.456 628.872 411.325 630.191 409 631.645C404.549 634.44 402.324 638.086 402.324 642.581C402.324 646.517 403.923 649.759 407.121 652.309C410.341 654.858 414.512 656.133 419.633 656.133C423.033 656.133 426.063 655.507 428.724 654.254C431.385 653.002 433.476 651.213 434.997 648.887C436.518 646.584 437.278 644.023 437.278 641.205H428.825C428.825 643.755 428.02 645.745 426.409 647.176C424.822 648.63 422.541 649.357 419.566 649.357C416.793 649.357 414.635 648.764 413.092 647.579C411.571 646.394 410.811 644.739 410.811 642.614C410.811 640.825 411.638 639.327 413.293 638.119C414.948 636.934 417.677 635.771 421.478 634.631C425.28 633.512 428.333 632.226 430.636 630.773C432.939 629.342 434.628 627.687 435.701 625.808C436.775 623.952 437.311 621.772 437.311 619.267C437.311 615.197 435.746 611.954 432.615 609.539C429.507 607.146 425.28 605.95 419.935 605.95C416.402 605.95 413.148 606.598 410.174 607.895C407.222 609.215 404.918 611.026 403.263 613.33C401.631 615.633 400.815 618.317 400.815 621.38H409.301C409.301 618.607 410.218 616.46 412.052 614.94C413.886 613.419 416.514 612.659 419.935 612.659C422.887 612.659 425.101 613.251 426.577 614.437C428.075 615.644 428.825 617.232 428.825 619.2Z" fill="#DCDCDC"/>
<path d="M483.483 648.619H468.253V606.621H459.834V648.619H444.738V655.462H483.483V648.619Z" fill="#DCDCDC"/>
<path d="M521.905 628.425H501.845V613.397H525.293V606.621H493.358V655.462H525.058V648.619H501.845V635.134H521.905V628.425Z" fill="#DCDCDC"/>
<path d="M23.4479 543.467H31.9012V577.716C31.9012 582.39 30.4364 586.102 27.5068 588.853C24.5996 591.604 20.7531 592.979 15.9674 592.979C10.8685 592.979 6.93261 591.693 4.15957 589.121C1.38652 586.55 0 582.972 0 578.387H8.45331C8.45331 580.981 9.09067 582.938 10.3654 584.257C11.6624 585.554 13.5298 586.203 15.9674 586.203C18.2484 586.203 20.0599 585.454 21.4016 583.955C22.7658 582.435 23.4479 580.344 23.4479 577.683V543.467Z" fill="black"/>
<path d="M84.0434 569.162C84.0434 573.948 83.216 578.152 81.5611 581.775C79.9062 585.376 77.5357 588.149 74.4496 590.094C71.3858 592.017 67.8524 592.979 63.8494 592.979C59.8911 592.979 56.3577 592.017 53.2492 590.094C50.163 588.149 47.7702 585.387 46.0706 581.809C44.3933 578.23 43.5435 574.104 43.5212 569.431V566.68C43.5212 561.916 44.3598 557.712 46.037 554.067C47.7366 550.422 50.1183 547.638 53.1821 545.714C56.2682 543.769 59.8016 542.796 63.7823 542.796C67.7629 542.796 71.2852 543.758 74.3489 545.681C77.4351 547.582 79.8167 550.332 81.494 553.933C83.1712 557.511 84.021 561.682 84.0434 566.445V569.162ZM75.5565 566.613C75.5565 561.201 74.5278 557.052 72.4704 554.168C70.4353 551.283 67.5393 549.84 63.7823 549.84C60.1147 549.84 57.241 551.283 55.1612 554.168C53.1038 557.03 52.0527 561.089 52.008 566.344V569.162C52.008 574.529 53.0479 578.678 55.1277 581.607C57.2298 584.537 60.1371 586.002 63.8494 586.002C67.6064 586.002 70.4913 584.57 72.504 581.708C74.539 578.845 75.5565 574.664 75.5565 569.162V566.613Z" fill="black"/>
<path d="M121.459 579.729C121.459 577.582 120.699 575.927 119.178 574.764C117.68 573.601 114.963 572.427 111.027 571.242C107.091 570.057 103.96 568.737 101.634 567.284C97.1841 564.488 94.9589 560.843 94.9589 556.348C94.9589 552.412 96.5579 549.169 99.7558 546.62C102.976 544.071 107.147 542.796 112.268 542.796C115.667 542.796 118.698 543.422 121.359 544.674C124.02 545.927 126.111 547.716 127.632 550.042C129.152 552.345 129.913 554.906 129.913 557.723H121.459C121.459 555.174 120.654 553.184 119.044 551.752C117.456 550.299 115.175 549.572 112.201 549.572C109.428 549.572 107.27 550.165 105.727 551.35C104.206 552.535 103.446 554.19 103.446 556.314C103.446 558.104 104.273 559.602 105.928 560.81C107.583 561.995 110.311 563.158 114.113 564.298C117.915 565.416 120.967 566.702 123.271 568.156C125.574 569.587 127.263 571.242 128.336 573.12C129.41 574.977 129.946 577.157 129.946 579.662C129.946 583.732 128.381 586.975 125.25 589.39C122.141 591.783 117.915 592.979 112.57 592.979C109.037 592.979 105.783 592.331 102.808 591.033C99.8565 589.714 97.5531 587.903 95.8982 585.599C94.2656 583.296 93.4494 580.612 93.4494 577.548H101.936C101.936 580.321 102.853 582.468 104.687 583.989C106.521 585.51 109.148 586.27 112.57 586.27C115.522 586.27 117.736 585.677 119.212 584.492C120.71 583.285 121.459 581.697 121.459 579.729Z" fill="black"/>
<path d="M179.606 592.308H171.153V570.605H149.315V592.308H140.828V543.467H149.315V563.795H171.153V543.467H179.606V592.308Z" fill="black"/>
<path d="M222.134 585.532H244.308V592.308H213.647V543.467H222.134V585.532Z" fill="black"/>
<path d="M282.26 580.936H263.341L259.383 592.308H250.56L269.01 543.467H276.625L295.108 592.308H286.252L282.26 580.936ZM265.723 574.093H279.879L272.801 553.832L265.723 574.093Z" fill="black"/>
<path d="M340.642 576.408C340.15 581.619 338.227 585.689 334.872 588.618C331.518 591.525 327.056 592.979 321.488 592.979C317.596 592.979 314.164 592.062 311.189 590.228C308.237 588.372 305.956 585.745 304.346 582.345C302.736 578.946 301.897 574.999 301.83 570.504V565.942C301.83 561.335 302.647 557.276 304.279 553.765C305.912 550.254 308.249 547.548 311.29 545.647C314.354 543.746 317.887 542.796 321.89 542.796C327.28 542.796 331.618 544.261 334.906 547.19C338.193 550.12 340.105 554.257 340.642 559.602H332.188C331.786 556.091 330.757 553.564 329.102 552.021C327.47 550.455 325.066 549.673 321.89 549.673C318.2 549.673 315.36 551.026 313.37 553.732C311.402 556.415 310.395 560.362 310.351 565.573V569.9C310.351 575.178 311.29 579.203 313.168 581.976C315.069 584.749 317.842 586.136 321.488 586.136C324.82 586.136 327.324 585.387 329.002 583.888C330.679 582.39 331.741 579.897 332.188 576.408H340.642Z" fill="black"/>
<path d="M390.671 569.162C390.671 573.948 389.843 578.152 388.188 581.775C386.533 585.376 384.163 588.149 381.077 590.094C378.013 592.017 374.48 592.979 370.477 592.979C366.518 592.979 362.985 592.017 359.876 590.094C356.79 588.149 354.397 585.387 352.698 581.809C351.021 578.23 350.171 574.104 350.148 569.431V566.68C350.148 561.916 350.987 557.712 352.664 554.067C354.364 550.422 356.746 547.638 359.809 545.714C362.895 543.769 366.429 542.796 370.41 542.796C374.39 542.796 377.912 543.758 380.976 545.681C384.062 547.582 386.444 550.332 388.121 553.933C389.798 557.511 390.648 561.682 390.671 566.445V569.162ZM382.184 566.613C382.184 561.201 381.155 557.052 379.098 554.168C377.063 551.283 374.167 549.84 370.41 549.84C366.742 549.84 363.868 551.283 361.788 554.168C359.731 557.03 358.68 561.089 358.635 566.344V569.162C358.635 574.529 359.675 578.678 361.755 581.607C363.857 584.537 366.764 586.002 370.477 586.002C374.234 586.002 377.118 584.57 379.131 581.708C381.166 578.845 382.184 574.664 382.184 569.162V566.613Z" fill="black"/>
<path d="M428.087 579.729C428.087 577.582 427.326 575.927 425.806 574.764C424.307 573.601 421.59 572.427 417.654 571.242C413.718 570.057 410.587 568.737 408.262 567.284C403.811 564.488 401.586 560.843 401.586 556.348C401.586 552.412 403.185 549.169 406.383 546.62C409.603 544.071 413.774 542.796 418.895 542.796C422.295 542.796 425.325 543.422 427.986 544.674C430.647 545.927 432.738 547.716 434.259 550.042C435.78 552.345 436.54 554.906 436.54 557.723H428.087C428.087 555.174 427.282 553.184 425.671 551.752C424.084 550.299 421.803 549.572 418.828 549.572C416.055 549.572 413.897 550.165 412.354 551.35C410.833 552.535 410.073 554.19 410.073 556.314C410.073 558.104 410.9 559.602 412.555 560.81C414.21 561.995 416.939 563.158 420.74 564.298C424.542 565.416 427.595 566.702 429.898 568.156C432.201 569.587 433.89 571.242 434.963 573.12C436.037 574.977 436.573 577.157 436.573 579.662C436.573 583.732 435.008 586.975 431.877 589.39C428.769 591.783 424.542 592.979 419.197 592.979C415.664 592.979 412.41 592.331 409.436 591.033C406.484 589.714 404.18 587.903 402.525 585.599C400.893 583.296 400.077 580.612 400.077 577.548H408.564C408.564 580.321 409.48 582.468 411.314 583.989C413.148 585.51 415.776 586.27 419.197 586.27C422.149 586.27 424.363 585.677 425.839 584.492C427.337 583.285 428.087 581.697 428.087 579.729Z" fill="black"/>
<path d="M482.745 550.31H467.515V592.308H459.096V550.31H444V543.467H482.745V550.31Z" fill="black"/>
<path d="M521.167 570.504H501.107V585.532H524.555V592.308H492.62V543.467H524.32V550.31H501.107V563.795H521.167V570.504Z" fill="black"/>
</svg>
