<svg width="460" height="282" viewBox="0 0 460 282" fill="none" xmlns="http://www.w3.org/2000/svg">
<path d="M333.26 117.575L330.94 119.755L333.3 121.575C337.85 115.455 344.98 110.725 350.92 106.045C352.43 104.845 350.3 102.735 348.8 103.925C342.6 108.815 335.46 113.675 330.71 120.055C329.71 121.465 331.87 122.995 333.06 121.875L335.38 119.705C336.79 118.375 334.67 116.255 333.26 117.575Z" fill="#313131"/>
<path d="M323.12 140.895C323.518 140.895 323.899 140.736 324.181 140.455C324.462 140.174 324.62 139.792 324.62 139.395C324.62 138.997 324.462 138.615 324.181 138.334C323.899 138.053 323.518 137.895 323.12 137.895C322.722 137.895 322.341 138.053 322.059 138.334C321.778 138.615 321.62 138.997 321.62 139.395C321.62 139.792 321.778 140.174 322.059 140.455C322.341 140.736 322.722 140.895 323.12 140.895Z" fill="#313131"/>
<path d="M190.26 160.545L197.48 156.115C199.13 155.115 197.62 152.505 195.97 153.525L188.75 157.955C187.1 158.955 188.61 161.565 190.26 160.545Z" fill="#313131"/>
<path d="M192.26 155.435C189.943 156.584 187.978 158.335 186.57 160.505C185.51 162.125 188.11 163.635 189.16 162.025C190.306 160.298 191.899 158.915 193.77 158.025C195.51 157.175 193.99 154.595 192.26 155.435Z" fill="#313131"/>
<path d="M230.26 76.4745C229.52 72.0845 226.64 67.7545 222.32 66.6945C221.672 66.4967 220.99 66.4328 220.316 66.5067C219.642 66.5806 218.99 66.7908 218.4 67.1245C217.05 68.0145 216.5 69.6845 216.03 71.2245C209.493 92.6099 200.956 113.332 190.53 133.115C187.08 139.675 183.24 145.995 179.47 152.385L178.08 154.735C177.107 156.5 175.975 158.173 174.7 159.735C173.136 161.506 171.227 162.938 169.09 163.945C168.075 164.542 166.875 164.745 165.72 164.515C164.08 164.025 163.28 162.165 163.1 160.465C161.47 145.225 162.38 129.945 166.87 115.215C169.01 108.215 171.87 100.935 170.38 93.7545C170.02 92.0945 169.38 90.3845 169.8 88.7545C170.47 85.8545 173.64 84.4545 176.18 82.9045C182.42 79.1045 186.84 71.7345 186.25 64.3345C186.265 63.8347 186.173 63.3375 185.982 62.8756C185.791 62.4137 185.504 61.9975 185.14 61.6545C184.34 61.0745 180.9 57.1545 180.79 58.8345C177.98 60.6145 175.23 62.4545 172.5 64.3545L113.6 105.205C113.209 105.506 112.737 105.682 112.245 105.711C111.752 105.74 111.263 105.619 110.84 105.365C110.95 102.125 112.42 99.4345 113 96.3045C117.92 69.8245 125.54 44.1245 129.34 17.3045C130.05 12.3045 130.64 6.95451 127.08 2.84451C126.24 1.80625 125.106 1.04626 123.826 0.664336C122.547 0.282413 121.181 0.296414 119.91 0.704505C115.91 2.14451 115.44 6.58451 115.21 10.3845C115.06 12.7945 114.88 15.1945 114.67 17.6045C113.91 26.1845 112.733 34.7145 111.14 43.1945C108.64 56.4945 105.08 69.9545 102.05 83.1945C100.763 88.8745 99.4499 94.5412 98.1099 100.194C96.8399 105.564 95.48 110.904 94.4 116.304C93.48 120.854 90.0299 123.475 86.3399 125.994C76.678 132.622 67.3781 139.762 58.4799 147.385C49.3999 155.165 39.7299 162.215 30.1099 169.295L27.1099 171.485C23.1099 174.395 19.2099 177.315 15.2199 180.175C13.4179 181.672 11.4679 182.983 9.39997 184.085C7.55997 184.885 5.46001 184.985 3.69001 186.085C0.37001 188.085 -0.550103 192.885 1.1999 196.325C2.9499 199.765 6.83001 201.805 10.69 202.095C13.0818 202.279 15.4828 201.884 17.69 200.945C19.7864 199.948 21.7569 198.706 23.56 197.245C33.8733 189.518 44.0733 181.641 54.16 173.615C64.25 165.615 75.0799 157.795 84.3699 148.855C85.1699 148.085 87.2799 146.075 86.8399 148.785L85.68 155.875L85.2399 158.575C83.8599 166.985 81.7399 175.215 80.3399 183.575L79.3399 189.875C78.7799 193.205 78.18 196.535 77.67 199.875C77.1 203.675 76.2399 207.475 75.5899 211.275C75.1499 213.855 74.7099 216.434 74.3499 219.035C73.8499 222.734 73.6 226.465 73.05 230.155C72.83 231.615 72.51 233.055 72.16 234.495C71.74 236.185 70.9399 238.035 71.2199 239.814C71.4658 240.879 72.0535 241.834 72.8933 242.533C73.733 243.231 74.7785 243.636 75.8699 243.685C79.0799 243.955 83.7999 242.325 85.13 239.145C85.9414 236.831 86.4196 234.413 86.55 231.965C86.8 229.675 87.1599 227.404 87.4699 225.124C88.1366 220.145 88.8033 215.161 89.4699 210.175C90.1199 205.595 90.8 201.025 91.55 196.455C91.66 195.765 91.77 195.075 91.89 194.375C94.26 180.015 97.1799 165.795 99.9699 151.525C100.73 147.655 101.87 143.885 102.97 140.105C103.67 137.715 103.15 134.885 104.76 133.185C106.83 131.172 109.071 129.345 111.46 127.725L113.46 126.215C114.98 125.085 116.46 123.944 118.05 122.854C127.43 116.164 136.65 109.255 146.05 102.655C148.38 101.025 150.73 99.4245 153.05 97.8345C155.37 96.2445 156.83 95.3645 156.28 98.8345C155.68 102.635 153.12 105.834 152.13 109.494C150.841 114.314 149.839 119.206 149.13 124.145C147.715 133.877 147.464 143.743 148.38 153.535C149.25 162.705 151.25 172.065 157.1 179.335C158.468 181.101 160.214 182.539 162.21 183.545C170.43 187.485 177.53 180.995 182.98 175.125L196.59 160.455C188.777 193.215 180.97 225.978 173.17 258.745C171.57 265.484 170.02 272.915 174.9 278.745C176.063 280.2 177.682 281.221 179.496 281.644C181.31 282.067 183.214 281.866 184.9 281.074C188.62 279.204 189.19 275.154 189.65 271.474C191.99 252.934 196.12 234.685 200.25 216.475L228.99 89.6745C230.04 85.3345 231.03 80.8645 230.26 76.4745ZM182.09 62.8745C181.904 62.5139 181.747 62.1395 181.62 61.7545C181.8 62.1045 181.95 62.4645 182.13 62.8745H182.09ZM133.26 97.3745H133.07C133.095 97.1712 133.148 96.9725 133.23 96.7845C133.373 96.6081 133.538 96.4502 133.72 96.3145L133.97 96.4945C133.73 96.7645 133.49 97.0745 133.26 97.3745ZM189.99 160.755C189.99 159.985 190.39 159.755 191.11 159.655C191.26 160.635 190.84 160.815 189.98 160.755H189.99Z" fill="#313131"/>
<path d="M257.26 173.304C255.18 171.924 252.06 172.124 249.85 170.714C247.16 168.994 246.51 165.165 247.47 162.115C248.43 159.064 250.63 156.584 252.69 154.114C257.338 148.589 261.589 142.741 265.41 136.614C267.63 133.064 269.7 129.414 271.77 125.774L274.28 121.364C276.15 118.084 278.01 114.794 280.08 111.634C282.38 108.124 285.49 104.454 289.68 104.264C292.95 104.104 295.93 106.184 298.13 108.614C298.59 109.006 298.929 109.521 299.106 110.099C299.283 110.676 299.291 111.292 299.13 111.874C297.96 119.484 292.13 125.394 288.23 132.004C286.36 135.144 284.88 138.504 282.97 141.624C279.46 147.324 275.81 152.865 273.97 159.365C273.451 161.176 273.278 163.069 273.46 164.944C273.55 165.88 273.731 166.804 274 167.704C274.23 168.465 274.65 169.235 274.17 170.005C274.02 170.244 273.79 170.484 273.81 170.774C273.841 170.927 273.926 171.063 274.049 171.159C274.171 171.254 274.325 171.302 274.48 171.294C274.796 171.271 275.098 171.156 275.35 170.964C278.71 168.964 281.28 165.894 283.88 163.014C296.46 149.014 308.3 132.544 314.57 114.694C314.957 113.306 315.59 111.998 316.44 110.834C318.81 108.074 323.44 108.464 326.32 110.664C328.62 112.424 329.95 114.934 331.24 117.464C331.61 118.194 331.79 119.304 332.55 119.754C332.665 119.829 332.796 119.874 332.931 119.886C333.067 119.898 333.204 119.877 333.33 119.824C333.79 119.604 333.85 118.974 333.78 118.464C333.72 118.249 333.72 118.02 333.78 117.804C333.875 117.633 334.013 117.488 334.18 117.384C335.306 116.716 336.373 115.953 337.37 115.104C338.415 114.052 339.374 112.918 340.24 111.714C346.16 103.864 355.24 99.0245 364.58 96.4045C373.92 93.7845 383.58 93.6045 393.11 93.8345C399.99 94.0012 406.86 94.3812 413.72 94.9745C418.82 95.4145 426.28 94.9045 430.9 97.2445C431.126 97.3182 431.362 97.3554 431.6 97.3545C435.39 97.7645 441.24 99.7045 444.76 98.0045C446.44 97.1945 448.06 96.0045 449.92 95.9345C453.33 95.7345 455.92 98.9845 457.23 102.134C458.262 104.603 458.92 107.212 459.18 109.874C459.433 111.376 459.245 112.918 458.64 114.314C457.36 116.774 454.16 117.564 451.41 117.254C441.87 116.164 432.41 113.104 422.82 111.824C412.358 110.432 401.815 109.727 391.26 109.714C384.07 109.714 376.81 110.044 369.89 111.954C362.933 113.753 356.603 117.426 351.59 122.574C349.143 125.318 347.142 128.43 345.66 131.794C344.88 133.474 344.19 135.184 343.55 136.914C342.91 138.644 342.22 140.004 342.28 141.844C342.34 142.286 342.34 142.733 342.28 143.174C342.179 143.523 342.038 143.859 341.86 144.174C340.894 146.309 340.547 148.672 340.86 150.994C341.031 152.737 340.83 154.496 340.27 156.154C339.722 157.747 338.622 159.092 337.17 159.947C335.718 160.801 334.009 161.109 332.35 160.814C330.385 160.559 328.517 159.81 326.92 158.636C325.324 157.463 324.051 155.904 323.22 154.104C321.92 151.384 321.74 148.284 321.64 145.314C321.408 142.932 321.02 140.567 320.48 138.234C320.254 137.142 320.285 136.013 320.57 134.934C320.7 134.504 320.91 133.934 320.39 133.744C320.152 133.707 319.907 133.733 319.682 133.821C319.457 133.909 319.26 134.055 319.11 134.244C318.819 134.671 318.587 135.136 318.42 135.624C317.89 136.774 316.84 137.564 316.32 138.694C315.888 139.824 315.671 141.025 315.68 142.234C315.48 146.054 313.2 148.554 311.37 151.684C309.46 154.964 307.37 158.154 305.26 161.274C300.99 167.504 296.37 173.474 291.78 179.464C291.106 180.293 290.507 181.18 289.99 182.115C289.69 182.685 289.45 183.284 289.11 183.824C288.599 184.561 287.982 185.218 287.28 185.774C283.542 188.949 279.222 191.364 274.56 192.884C273.501 193.298 272.365 193.476 271.23 193.404C269.943 193.164 268.747 192.576 267.77 191.704C263.667 188.452 260.859 183.842 259.85 178.704C259.56 177.154 259.4 175.474 258.4 174.244C258.082 173.863 257.695 173.544 257.26 173.304Z" fill="#313131"/>
<path d="M258.31 55.3546C246.1 104.235 242.91 154.465 235.88 204.175C235.53 206.655 235.13 209.175 233.76 211.305C232.39 213.435 229.76 214.875 227.37 214.105C220.16 211.755 221.43 196.885 221.95 191.275C223.79 171.405 226.57 151.875 229.13 132.075C230.41 122.261 231.813 112.465 233.34 102.685C237.18 78.1146 242.51 53.6846 248.75 29.5446C249.63 26.1446 251.23 22.0946 254.75 21.6346C256.33 21.5031 257.898 21.9948 259.12 23.0046C262.12 25.2446 263.39 29.1346 263.44 32.8446C263.49 36.5546 262.44 40.1646 261.44 43.7446C260.32 47.6046 259.277 51.4746 258.31 55.3546Z" fill="#313131"/>
<path d="M190.79 161.495L193.29 159.855L191.47 157.495L191.33 157.625C191.065 157.909 190.921 158.285 190.928 158.674C190.934 159.062 191.092 159.433 191.367 159.708C191.642 159.983 192.012 160.14 192.401 160.147C192.79 160.154 193.166 160.01 193.45 159.745L193.6 159.625C194.84 158.485 193.21 156.325 191.78 157.265L189.27 158.905C188.934 159.112 188.692 159.441 188.593 159.823C188.494 160.205 188.547 160.61 188.74 160.955C188.942 161.283 189.261 161.521 189.633 161.622C190.005 161.722 190.401 161.677 190.74 161.495H190.79Z" fill="#313131"/>
<path d="M132.7 98.8245C133.91 97.9545 135.15 97.1445 136.43 96.3745C136.6 96.2747 136.749 96.1424 136.868 95.9851C136.987 95.8278 137.073 95.6487 137.123 95.4578C137.173 95.267 137.184 95.0683 137.157 94.873C137.13 94.6777 137.065 94.4896 136.965 94.3195C136.865 94.1495 136.733 94.0007 136.576 93.8818C136.418 93.7629 136.239 93.6761 136.048 93.6264C135.858 93.5768 135.659 93.5652 135.463 93.5923C135.268 93.6194 135.08 93.6847 134.91 93.7845C133.64 94.5545 132.39 95.3645 131.18 96.2345C130.846 96.4437 130.605 96.7727 130.507 97.154C130.408 97.5353 130.459 97.9399 130.65 98.2845C130.852 98.6126 131.171 98.8512 131.543 98.9516C131.915 99.052 132.311 99.0065 132.65 98.8245H132.7Z" fill="#313131"/>
<path d="M314.41 145.615C316.79 141.261 319.32 136.998 322 132.825C323 131.195 320.45 129.695 319.41 131.315C316.743 135.481 314.213 139.745 311.82 144.105C310.89 145.795 313.48 147.315 314.41 145.615Z" fill="#313131"/>
<path d="M132.13 96.0145C130.697 96.8738 129.356 97.8792 128.13 99.0145C126.89 100.135 128.56 102.395 129.95 101.365C133.817 98.5179 137.797 95.8512 141.89 93.3645C143.54 92.3645 142.03 89.7545 140.38 90.7745C136.28 93.2945 132.297 95.9612 128.43 98.7745L130.26 101.015C131.309 100.07 132.451 99.236 133.67 98.5245C133.998 98.3169 134.233 97.99 134.325 97.6126C134.417 97.2353 134.36 96.8369 134.164 96.5014C133.968 96.1658 133.65 95.9193 133.276 95.8135C132.903 95.7078 132.502 95.7512 132.16 95.9345L132.13 96.0145Z" fill="#313131"/>
<path d="M191.4 158.535L187.07 162.535L189.43 164.355C191.75 160.888 194.157 157.478 196.65 154.125C197.8 152.575 195.2 151.075 194.06 152.605C191.56 155.938 189.153 159.351 186.84 162.845C185.84 164.305 187.99 165.795 189.19 164.665L193.52 160.615C194.93 159.285 192.8 157.175 191.4 158.495V158.535Z" fill="#313131"/>
</svg>
