<svg width="263" height="37" viewBox="0 0 263 37" fill="none" xmlns="http://www.w3.org/2000/svg">
<g clip-path="url(#clip0)">
<path d="M17.8625 28.569H17.7094C16.9439 28.569 16.6377 28.5323 16.2932 27.7611L7.77019 8.22559L7.65536 20.7474C7.61709 25.8883 7.73192 26.0352 8.84194 26.3657L10.9089 26.9777C11.1386 27.0512 11.2151 27.1246 11.2151 27.7856C11.2151 28.4466 11.1386 28.5567 10.9089 28.5567C10.0285 28.5567 7.80847 28.2997 5.32048 28.2997C2.83248 28.2997 1.18658 28.5567 0.306215 28.5567C0.0765536 28.5567 0 28.4466 0 27.7856C0 27.1246 0.0765536 27.0267 0.306215 26.9288L1.99039 26.3168C3.1387 25.9128 3.21525 25.8394 3.86596 20.6985L5.85635 4.99415C6.00946 3.89252 5.51186 3.59875 4.36356 3.41515L2.67938 3.1581C2.44972 3.12138 2.37316 3.01122 2.37316 2.35024C2.37316 1.68926 2.44972 1.5791 2.67938 1.5791C3.18973 1.5791 8.11469 1.83615 10.5261 1.83615C12.172 1.83615 13.7159 1.76271 14.8514 1.76271C15.2342 1.76271 15.349 1.83615 15.4894 2.20336L21.5371 16.7816L27.0617 2.20336C27.2148 1.83615 27.2914 1.76271 27.6997 1.76271C28.58 1.76271 30.6087 1.83615 32.6374 1.83615C35.4316 1.83615 38.4937 1.5791 39.3741 1.5791C39.6037 1.5791 39.6803 1.68926 39.6803 2.35024C39.6803 3.01122 39.5527 3.12138 39.3486 3.1581L37.6389 3.41515C37.2561 3.48859 37.1413 3.56203 37.1795 3.92924L38.7106 26.1821C38.7489 26.5493 38.7872 26.6228 39.1699 26.6962L40.8541 26.9533C41.0838 26.99 41.1603 27.1001 41.1603 27.7611C41.1603 28.4221 41.0838 28.5323 40.8541 28.5323C39.9738 28.5323 36.9499 28.2752 33.7729 28.2752C30.5959 28.2752 27.5338 28.5323 26.6534 28.5323C26.4238 28.5323 26.3472 28.4221 26.3472 27.7611C26.3472 27.1001 26.4238 26.99 26.6534 26.9533L28.3376 26.6962C28.7204 26.6228 28.8352 26.5493 28.7969 26.1821L27.5976 8.48263L19.1001 27.7611C18.7556 28.4955 18.6408 28.569 17.8625 28.569Z" fill="#BC811A"/>
<path d="M54.353 24.1987C53.1282 27.1364 50.7933 28.8623 47.9735 28.8623C45.0262 28.8623 42.9976 26.5856 42.9976 23.7213C42.9976 21.4814 43.7248 20.1961 45.7152 19.168C47.5142 18.2499 50.385 17.4421 54.0085 16.6709V15.4959C54.0085 12.852 53.1664 11.2118 51.7119 11.2118C51.3291 11.2118 51.176 11.3219 51.074 11.8238L50.806 13.5864C50.4233 16.2303 48.8156 17.4788 46.6721 17.4788C46.3796 17.5003 46.0856 17.4627 45.8092 17.3684C45.5327 17.2741 45.2799 17.1253 45.0671 16.9316C44.8543 16.7378 44.6862 16.5034 44.5737 16.2434C44.4612 15.9835 44.4067 15.7038 44.4138 15.4224C44.4138 13.0723 49.1601 9.47363 55.0165 9.47363C60.2221 9.47363 62.6718 11.4566 62.6718 15.0185V21.7507C62.6718 24.6883 63.3098 24.7618 64.3177 24.1008C64.4326 24.0274 64.4708 23.9906 64.5474 23.9906C64.8919 23.9906 65.466 24.7985 65.466 25.0188C65.466 25.2391 65.3129 25.3493 65.0833 25.5696L64.9302 25.7165C62.6336 27.9198 60.9877 28.8378 59.1121 28.8378C56.9176 28.8623 55.3099 27.3934 54.353 24.1987ZM54.0468 23.6479V21.0407C54.0509 20.6982 53.9817 20.3585 53.8434 20.0427C53.7051 19.7269 53.5008 19.4417 53.243 19.2047C52.851 18.8049 52.3199 18.5568 51.7502 18.507C50.9847 18.507 50.6402 18.9476 50.6402 20.0493C50.6402 22.1056 52.0947 23.905 53.3578 23.905C53.4851 23.9118 53.6125 23.8924 53.7313 23.848C53.8502 23.8037 53.9577 23.7355 54.0468 23.6479Z" fill="#BC811A"/>
<path d="M80.3425 28.5324C79.4621 28.5324 76.9741 28.2753 73.0316 28.2753C70.2374 28.2753 67.7111 28.5324 66.8308 28.5324C66.6011 28.5324 66.5245 28.4589 66.5245 27.7612C66.5245 27.0635 66.6011 26.9901 66.8308 26.9534L68.1066 26.6963C68.4894 26.6229 68.566 26.5862 68.566 26.219V16.5246C68.566 16.1574 68.4894 16.1207 68.1066 16.0473L66.8308 15.8269C66.6011 15.7902 66.5245 15.7168 66.5245 15.1293C66.5245 14.5417 66.6011 14.5172 66.8308 14.4316C70.0978 13.1099 73.1831 11.408 76.0172 9.36407C76.1039 9.29612 76.2115 9.25741 76.3234 9.25391C76.5913 9.25391 77.3186 9.54767 77.3186 9.80472C77.3186 10.4167 77.1655 13.3666 77.1655 15.7535C78.3138 12.1916 80.4573 9.47423 82.7922 9.47423C85.1271 9.47423 86.1223 11.1267 86.1223 13.1463C86.1223 16.6348 84.0171 18.3607 82.218 18.3607C81.4478 18.3291 80.709 18.0585 80.1128 17.5896C79.4899 17.0864 78.7354 16.7563 77.931 16.6348C77.7574 16.6228 77.584 16.6612 77.4334 16.745V26.219C77.4334 26.5862 77.51 26.6596 77.8928 26.6963L80.3425 26.9534C80.5721 26.9901 80.6487 27.1003 80.6487 27.7612C80.6487 28.4222 80.5721 28.5324 80.3425 28.5324Z" fill="#BC811A"/>
<path d="M115.978 28.5322C115.098 28.5322 111.998 28.2751 108.438 28.2751C105.248 28.2751 102.122 28.5322 101.242 28.5322C101.012 28.5322 100.936 28.422 100.936 27.761C100.936 27.1 101.012 26.9899 101.242 26.9532L102.518 26.7696C102.9 26.6961 102.862 26.5492 102.594 26.2187L98.2434 20.2699V26.182C98.2434 26.5492 98.3199 26.6227 98.7027 26.6961L99.8127 26.9532C100.042 26.9899 100.119 27.1 100.119 27.761C100.119 28.422 100.042 28.5322 99.8127 28.5322C98.9324 28.5322 96.623 28.2751 93.8415 28.2751C91.0601 28.2751 88.5211 28.5322 87.6407 28.5322C87.411 28.5322 87.3345 28.422 87.3345 27.761C87.3345 27.1 87.411 26.9899 87.6407 26.9532L88.9166 26.6961C89.2994 26.6227 89.3759 26.5492 89.3759 26.182V7.27074C89.3759 6.90353 89.2994 6.86681 88.9166 6.79337L87.6407 6.57304C87.411 6.53632 87.3345 6.46288 87.3345 5.87535C87.3345 5.28781 87.411 5.26333 87.6407 5.17765C91.0326 3.83445 94.2591 2.13493 97.2609 0.110163C97.3476 0.0422122 97.4552 0.00350305 97.5671 0C97.8351 0 98.5623 0.293767 98.5623 0.550814C98.5623 1.16283 98.2561 3.67209 98.2561 8.18876V18.6542L101.089 16.5244C106.409 12.5218 106.486 12.1546 105.72 11.9343L103.079 11.2366C102.849 11.1632 102.773 11.0897 102.773 10.4287C102.773 9.76777 102.849 9.6576 103.079 9.6576C103.959 9.6576 107.098 9.91465 109.127 9.91465C111.155 9.91465 114.23 9.6576 115.098 9.6576C115.328 9.6576 115.404 9.76777 115.404 10.4287C115.404 11.0897 115.328 11.1632 115.098 11.2366L112.112 12.0812C111.347 12.3015 110.352 12.7422 105.261 16.451L105.146 16.5611L113.911 26.2187C114.01 26.3606 114.14 26.4802 114.292 26.5689C114.444 26.6577 114.615 26.7136 114.792 26.7328L115.978 26.9532C116.208 26.9899 116.285 27.1 116.285 27.761C116.285 28.422 116.208 28.5322 115.978 28.5322Z" fill="#BC811A"/>
<path d="M126.275 28.8623C120.572 28.8623 116.17 25.1167 116.17 19.3148C116.17 13.4028 120.802 9.47363 127.615 9.47363C133.318 9.47363 136.419 12.1175 136.419 15.6427C136.434 15.9628 136.409 16.2835 136.342 16.5975C136.313 16.6802 136.256 16.7509 136.179 16.7978C136.102 16.8446 136.011 16.8646 135.921 16.8545C132.897 17.0014 128.534 17.0749 124.897 16.9647C125.408 18.6841 126.325 20.2674 127.577 21.5915C129.031 22.9869 130.065 23.3541 131.443 23.3541C132.838 23.3382 134.171 22.7976 135.155 21.8486C135.5 21.5548 136.431 22.2525 136.304 22.6197C134.734 26.3653 130.409 28.8623 126.275 28.8623ZM124.668 16.1568L125.892 16.01C127.653 15.8264 128.444 14.6146 128.444 12.7418C128.444 11.3464 127.806 10.612 126.76 10.612C125.573 10.612 124.387 11.6402 124.387 13.8434C124.407 14.6212 124.501 15.3955 124.668 16.1568Z" fill="#BC811A"/>
<path d="M146.217 28.8627C142.198 28.8627 140.093 26.4147 140.093 22.4366V12.375C140.093 12.0078 140.055 11.9711 139.634 11.8977L138.256 11.7141C137.988 11.6773 137.949 11.6039 137.949 10.9796C137.949 10.3554 138.026 10.2085 138.256 10.1718C142.275 9.25376 144.457 7.96852 146.944 5.4715C147.174 5.25118 147.212 5.17773 147.825 5.17773C148.437 5.17773 148.552 5.21446 148.59 5.4715C148.769 6.89352 148.872 8.32347 148.897 9.75561C150.007 9.75561 151.959 9.71889 153.222 9.71889C153.605 9.71889 153.758 9.90249 153.758 10.894C153.758 11.8854 153.605 11.9956 153.222 11.9956C151.882 11.9956 150.236 11.9956 148.935 11.9589V19.2418C148.935 22.6569 149.892 23.526 151.538 23.526C151.858 23.4703 152.17 23.3799 152.469 23.2567C152.89 23.2567 153.541 23.8687 153.388 24.2114C152.798 25.575 151.805 26.7425 150.53 27.5694C149.255 28.3962 147.756 28.8459 146.217 28.8627Z" fill="#BC811A"/>
<path d="M167.576 36.5375C166.695 36.5375 164.207 36.2805 161.413 36.2805C158.619 36.2805 156.093 36.5375 155.212 36.5375C154.983 36.5375 154.906 36.4274 154.906 35.7664C154.906 35.1054 154.983 34.9953 155.212 34.9585L156.488 34.7015C156.871 34.6281 156.947 34.5546 156.947 34.1874V16.5246C156.947 16.1574 156.871 16.1207 156.488 16.0473L155.212 15.8269C154.983 15.7902 154.906 15.7168 154.906 15.1293C154.906 14.5417 154.983 14.5172 155.212 14.4316C158.479 13.1099 161.565 11.408 164.399 9.36407C164.485 9.29612 164.593 9.25741 164.705 9.25391C164.973 9.25391 165.7 9.54767 165.7 9.80472C165.7 10.4167 165.547 11.347 165.547 13.6237C166.823 10.7227 169.183 9.47423 171.824 9.47423C175.805 9.47423 179.786 12.5343 179.786 18.6545C179.786 25.0439 175.882 28.716 169.579 28.716C168.313 28.7327 167.051 28.5845 165.828 28.2753V34.1874C165.828 34.5546 165.904 34.6281 166.287 34.7015L167.563 34.9585C167.793 34.9953 167.869 35.0687 167.869 35.7664C167.869 36.4641 167.78 36.5375 167.576 36.5375ZM169.987 27.5409C170.791 27.5409 171.327 26.8432 171.327 25.5213C171.327 21.9226 169.26 16.3778 167.193 14.3948C167.082 14.2617 166.943 14.1532 166.784 14.0771C166.626 14.001 166.452 13.959 166.274 13.9542C166.108 13.9519 165.946 14.0037 165.815 14.1011V18.8381C165.815 22.3266 167.346 25.7049 168.647 26.9534C168.812 27.1393 169.018 27.2882 169.249 27.3897C169.481 27.4912 169.733 27.5428 169.987 27.5409Z" fill="#BC811A"/>
<path d="M182.12 27.761C182.12 27.1 182.197 26.9899 182.427 26.9532L183.702 26.6961C184.085 26.6227 184.162 26.5492 184.162 26.182V7.27074C184.162 6.90353 184.085 6.86681 183.702 6.79337L182.427 6.57304C182.197 6.53632 182.12 6.46288 182.12 5.87535C182.12 5.28781 182.197 5.26333 182.427 5.17765C185.81 3.83283 189.027 2.13335 192.021 0.110163C192.111 0.0396464 192.224 0.000780064 192.34 0C192.608 0 193.335 0.293767 193.335 0.550814C193.335 1.16283 193.029 3.67209 193.029 8.18876V26.182C193.029 26.5492 193.106 26.6227 193.489 26.6961L194.764 26.9532C194.994 26.9899 195.071 27.1 195.071 27.761C195.071 28.422 194.994 28.5322 194.764 28.5322C193.884 28.5322 191.396 28.2751 188.602 28.2751C185.808 28.2751 183.281 28.5322 182.401 28.5322C182.197 28.5322 182.12 28.422 182.12 27.761Z" fill="#BC811A"/>
<path d="M208.111 24.1987C206.886 27.1364 204.551 28.8623 201.732 28.8623C198.784 28.8623 196.756 26.5856 196.756 23.7213C196.756 21.4814 197.483 20.1961 199.473 19.168C201.272 18.2499 204.143 17.4421 207.767 16.6709V15.4959C207.767 12.852 206.924 11.2118 205.47 11.2118C205.087 11.2118 204.934 11.3219 204.832 11.8238L204.564 13.5864C204.181 16.2303 202.574 17.4788 200.43 17.4788C200.138 17.5003 199.844 17.4627 199.567 17.3684C199.291 17.2741 199.038 17.1253 198.825 16.9316C198.612 16.7378 198.444 16.5034 198.332 16.2434C198.219 15.9835 198.165 15.7038 198.172 15.4224C198.172 13.0723 202.918 9.47363 208.775 9.47363C213.98 9.47363 216.43 11.4566 216.43 15.0185V21.7507C216.43 24.6883 217.068 24.7618 218.076 24.1008C218.191 24.0274 218.229 23.9906 218.305 23.9906C218.65 23.9906 219.224 24.7985 219.224 25.0188C219.224 25.2391 219.071 25.3493 218.841 25.5696L218.688 25.7165C216.392 27.9198 214.746 28.8378 212.87 28.8378C210.676 28.8623 209.068 27.3934 208.111 24.1987ZM207.805 23.6479V21.0407C207.809 20.6982 207.74 20.3585 207.601 20.0427C207.463 19.7269 207.259 19.4417 207.001 19.2047C206.609 18.8049 206.078 18.5568 205.508 18.507C204.743 18.507 204.398 18.9476 204.398 20.0493C204.398 22.1056 205.853 23.905 207.116 23.905C207.243 23.9118 207.371 23.8924 207.489 23.848C207.608 23.8037 207.716 23.7355 207.805 23.6479Z" fill="#BC811A"/>
<path d="M230.542 28.8623C224.838 28.8623 220.704 25.0433 220.704 19.3148C220.704 13.4395 225.719 9.47363 232.494 9.47363C237.355 9.47363 240.073 11.9217 240.073 14.3698C240.071 14.721 239.994 15.0683 239.846 15.3897C239.698 15.7111 239.483 15.9997 239.214 16.2376C238.944 16.4754 238.626 16.6573 238.28 16.7719C237.934 16.8865 237.567 16.9313 237.202 16.9035C235.479 16.9035 234.216 15.8753 233.106 13.8434C231.69 11.273 231.154 10.8323 230.312 10.8323C229.47 10.8323 228.934 11.3831 228.934 12.7785C228.934 15.9732 230.656 20.2696 232.953 22.4728C234.101 23.5745 234.867 23.905 236.092 23.905C237.17 23.8812 238.198 23.4605 238.963 22.7299C239.307 22.4728 240.238 23.1338 240.111 23.501C238.924 26.2551 235.288 28.8623 230.542 28.8623Z" fill="#BC811A"/>
<path d="M252.857 28.8623C247.153 28.8623 242.752 25.1167 242.752 19.3148C242.752 13.4028 247.383 9.47363 254.196 9.47363C259.9 9.47363 263 12.1175 263 15.6427C263.016 15.9628 262.99 16.2835 262.924 16.5975C262.895 16.6802 262.837 16.7509 262.761 16.7978C262.684 16.8446 262.593 16.8646 262.502 16.8545C259.479 17.0014 255.115 17.0749 251.479 16.9647C251.989 18.6841 252.906 20.2674 254.158 21.5915C255.613 22.9869 256.646 23.3541 258.024 23.3541C259.419 23.3382 260.753 22.7976 261.737 21.8486C262.081 21.5548 263.013 22.2525 262.885 22.6197C261.316 26.3653 256.991 28.8623 252.857 28.8623ZM251.249 16.1568L252.474 16.01C254.235 15.8264 255.026 14.6146 255.026 12.7418C255.026 11.3464 254.388 10.612 253.342 10.612C252.155 10.612 250.968 11.6402 250.968 13.8434C250.988 14.6212 251.082 15.3955 251.249 16.1568Z" fill="#BC811A"/>
</g>
<defs>
<clipPath id="clip0">
<rect width="263" height="36.5373" fill="white"/>
</clipPath>
</defs>
</svg>
