<svg width="599" height="168" viewBox="0 0 599 168" fill="none" xmlns="http://www.w3.org/2000/svg">
<path d="M596.214 85.6343C596.214 111.769 576.627 133.768 549.999 140.316V165.408H48.2149V140.316C21.5761 133.768 2 111.769 2 85.6343C2 59.4999 21.5761 37.4892 48.2149 30.9419V2H549.999V30.9419C576.67 37.4892 596.214 59.489 596.214 85.6343Z" stroke="#A0A0A0" stroke-width="4" stroke-miterlimit="10"/>
<path d="M118.328 102.73V52H109.188L92.8047 92.4297H92.5234L76.1055 52H67V102.73H74.1719V65.3945H74.418L89.7461 102.73H95.582L110.875 65.3945H111.121V102.73H118.328Z" fill="#A0A0A0"/>
<path d="M147.359 97.3516C143.281 97.3516 140.609 95.2422 140.609 92.0078C140.609 88.8438 143.175 86.8398 147.71 86.5234L156.816 85.9609V88.8789C156.816 93.6953 152.667 97.3516 147.359 97.3516ZM145.249 103.363C150.101 103.363 154.777 100.762 156.921 96.6484H157.097V102.73H164.374V77.2422C164.374 69.8242 158.644 65.0781 149.679 65.0781C140.538 65.0781 134.843 70 134.421 76.6797H141.593C142.261 73.375 145.003 71.2656 149.398 71.2656C154.038 71.2656 156.816 73.7266 156.816 77.8398V80.6875L146.691 81.2852C137.902 81.7773 132.945 85.75 132.945 92.2188C132.945 98.8633 138.007 103.363 145.249 103.363Z" fill="#A0A0A0"/>
<path d="M180.397 102.73H187.991V80.582C187.991 75.3438 191.014 72.0742 195.901 72.0742C197.378 72.0742 198.714 72.25 199.311 72.4961V65.4297C198.749 65.3242 197.8 65.1484 196.71 65.1484C192.35 65.1484 189.046 67.7148 187.815 72.0391H187.639V65.7461H180.397V102.73Z" fill="#A0A0A0"/>
<path d="M220.607 81.6016H220.537V52H212.943V102.73H220.537V89.4414L223.701 86.3125L236.252 102.73H245.076L229.15 81.6719L244.479 65.7461H235.549L220.607 81.6016Z" fill="#A0A0A0"/>
<path d="M271.365 71.1953C276.673 71.1953 280.259 75.168 280.435 80.8281H261.943C262.33 75.2383 266.056 71.1953 271.365 71.1953ZM280.4 91.8672C279.38 95.1016 276.181 97.2812 271.857 97.2812C265.775 97.2812 261.908 93.0273 261.908 86.5938V86.1367H288.029V83.5352C288.029 72.3203 281.63 65.0781 271.365 65.0781C260.923 65.0781 254.244 72.8125 254.244 84.4141C254.244 96.0859 260.818 103.434 271.681 103.434C280.154 103.434 286.552 98.6172 287.607 91.8672H280.4Z" fill="#A0A0A0"/>
<path d="M304.79 56.9922V65.7461H299.411V71.7578H304.79V92.9922C304.79 100.129 307.708 102.977 315.196 102.977C316.884 102.977 318.571 102.836 319.415 102.625V96.6133C318.923 96.7188 317.692 96.7891 316.919 96.7891C313.825 96.7891 312.419 95.3477 312.419 92.1484V71.7578H319.45V65.7461H312.419V56.9922H304.79Z" fill="#A0A0A0"/>
<path d="M353.613 65.1484C348.27 65.1484 344.016 67.8555 341.836 72.1094H341.695V65.7461H334.348V114.965H341.942V96.6484H342.117C344.227 100.762 348.445 103.363 353.754 103.363C363.035 103.363 369.188 95.9453 369.188 84.2383C369.188 72.5312 363 65.1484 353.613 65.1484ZM351.61 96.9297C345.774 96.9297 341.906 91.9375 341.906 84.2383C341.906 76.6094 345.809 71.5469 351.61 71.5469C357.621 71.5469 361.383 76.5039 361.383 84.2383C361.383 92.0078 357.621 96.9297 351.61 96.9297Z" fill="#A0A0A0"/>
<path d="M383.98 102.73H391.574V52H383.98V102.73Z" fill="#A0A0A0"/>
<path d="M420.956 97.3516C416.878 97.3516 414.206 95.2422 414.206 92.0078C414.206 88.8438 416.772 86.8398 421.307 86.5234L430.413 85.9609V88.8789C430.413 93.6953 426.265 97.3516 420.956 97.3516ZM418.847 103.363C423.698 103.363 428.374 100.762 430.518 96.6484H430.694V102.73H437.972V77.2422C437.972 69.8242 432.241 65.0781 423.276 65.0781C414.136 65.0781 408.44 70 408.018 76.6797H415.19C415.858 73.375 418.6 71.2656 422.995 71.2656C427.636 71.2656 430.413 73.7266 430.413 77.8398V80.6875L420.288 81.2852C411.499 81.7773 406.542 85.75 406.542 92.2188C406.542 98.8633 411.604 103.363 418.847 103.363Z" fill="#A0A0A0"/>
<path d="M485.74 78.4727C485.073 71.1953 479.272 65.0781 469.744 65.0781C459.233 65.0781 452.342 72.4961 452.342 84.2383C452.342 96.1914 459.233 103.434 469.815 103.434C478.709 103.434 485.002 98.0898 485.811 90.2148H478.498C477.619 94.5039 474.561 97.0703 469.885 97.0703C463.979 97.0703 460.076 92.3594 460.076 84.2383C460.076 76.293 463.944 71.4062 469.815 71.4062C474.772 71.4062 477.725 74.5352 478.498 78.4727H485.74Z" fill="#A0A0A0"/>
<path d="M515.298 71.1953C520.607 71.1953 524.193 75.168 524.369 80.8281H505.877C506.263 75.2383 509.99 71.1953 515.298 71.1953ZM524.334 91.8672C523.314 95.1016 520.115 97.2812 515.791 97.2812C509.709 97.2812 505.841 93.0273 505.841 86.5938V86.1367H531.962V83.5352C531.962 72.3203 525.564 65.0781 515.298 65.0781C504.857 65.0781 498.177 72.8125 498.177 84.4141C498.177 96.0859 504.752 103.434 515.615 103.434C524.087 103.434 530.486 98.6172 531.541 91.8672H524.334Z" fill="#A0A0A0"/>
</svg>
