<svg width="594" height="151" viewBox="0 0 594 151" fill="none" xmlns="http://www.w3.org/2000/svg">
<path d="M88.6819 97.3529H82.34V72.6353L82.793 60.8588H82.7283L69.7207 97.3529H63.9612L50.9537 60.8588H50.889L51.4067 72.6353V97.3529H45V54.6471H55.2895L63.8965 79.3647L66.8733 89.5235H67.0028L70.0443 79.3647L78.5866 54.6471H88.6819V97.3529Z" fill="#A0A0A0"/>
<path d="M129.393 86.1588H111.403L107.326 97.3529H100.207L116.321 54.6471H124.604L140.718 97.3529H133.405L129.393 86.1588ZM127.322 80.5294L122.404 66.8118L120.463 60.6647H120.268L118.456 66.6824L113.409 80.5294H127.322Z" fill="#A0A0A0"/>
<path d="M168.224 80.2706H159.035V97.3529H152.175V54.6471H169.583C174.199 54.6471 177.845 55.7902 180.52 58.0765C183.195 60.3196 184.532 63.4471 184.532 67.4588C184.532 70.5216 183.734 73.0882 182.138 75.1588C180.584 77.1863 178.363 78.6314 175.472 79.4941L187.056 97.3529H179.096L168.224 80.2706ZM159.035 74.5118H169.001C171.805 74.5118 173.897 73.951 175.278 72.8294C176.658 71.6647 177.349 69.8961 177.349 67.5235C177.349 65.151 176.658 63.4039 175.278 62.2824C173.897 61.1176 171.805 60.5353 169.001 60.5353H159.035V74.5118Z" fill="#A0A0A0"/>
<path d="M213.386 76.7765L206.462 84.2176V97.3529H199.537V54.6471H206.462V75.8706L226.07 54.6471H234.548L218.369 72.1176L234.936 97.3529H226.782L213.386 76.7765Z" fill="#A0A0A0"/>
<path d="M278.423 91.4V97.3529H246.584V54.6471H277.517V60.6H253.508V72.8941H272.276V78.7176H253.508V91.4H278.423Z" fill="#A0A0A0"/>
<path d="M323.383 60.6H308.758V97.3529H301.833V60.6H287.208V54.6471H323.383V60.6Z" fill="#A0A0A0"/>
<path d="M351.996 54.6471C356.612 54.6471 360.257 55.8333 362.932 58.2059C365.65 60.5784 367.009 63.8353 367.009 67.9765C367.009 72.1176 365.65 75.3745 362.932 77.7471C360.257 80.0765 356.612 81.2412 351.996 81.2412H342.483V97.3529H335.558V54.6471H351.996ZM350.895 75.3529C353.915 75.3529 356.159 74.749 357.626 73.5412C359.093 72.2902 359.826 70.4353 359.826 67.9765C359.826 63.0157 356.849 60.5353 350.895 60.5353H342.483V75.3529H350.895Z" fill="#A0A0A0"/>
<path d="M410.494 91.4V97.3529H380.014V54.6471H386.938V91.4H410.494Z" fill="#A0A0A0"/>
<path d="M446.775 86.1588H428.784L424.707 97.3529H417.589L433.703 54.6471H441.986L458.1 97.3529H450.787L446.775 86.1588ZM444.704 80.5294L439.786 66.8118L437.844 60.6647H437.65L435.838 66.6824L430.79 80.5294H444.704Z" fill="#A0A0A0"/>
<path d="M503.438 86.0294C502.144 89.8686 499.922 92.8235 496.773 94.8941C493.667 96.9647 489.999 98 485.771 98C481.673 98 478.114 97.1157 475.094 95.3471C472.074 93.5784 469.744 91.0333 468.105 87.7118C466.465 84.3902 465.645 80.4863 465.645 76C465.645 71.5137 466.465 67.6098 468.105 64.2882C469.744 60.9667 472.074 58.4216 475.094 56.6529C478.114 54.8843 481.651 54 485.707 54C489.978 54 493.559 54.8843 496.449 56.6529C499.383 58.4216 501.497 61.0314 502.791 64.4824L496.255 67.3941C495.392 64.849 494.141 62.9941 492.502 61.8294C490.862 60.6216 488.727 60.0176 486.095 60.0176C482.083 60.0176 478.869 61.4412 476.453 64.2882C474.08 67.0922 472.893 70.9961 472.893 76C472.893 81.0471 474.037 84.9726 476.323 87.7765C478.61 90.5804 481.781 91.9824 485.836 91.9824C488.597 91.9824 490.905 91.2922 492.761 89.9118C494.659 88.5314 496.018 86.5039 496.838 83.8294L503.438 86.0294Z" fill="#A0A0A0"/>
<path d="M548 91.4V97.3529H516.161V54.6471H547.094V60.6H523.085V72.8941H541.852V78.7176H523.085V91.4H548Z" fill="#A0A0A0"/>
<rect x="1.5" y="1.5" width="591" height="148" stroke="#A0A0A0" stroke-width="3"/>
</svg>
