<svg width="465" height="165" viewBox="0 0 465 165" fill="none" xmlns="http://www.w3.org/2000/svg">
<path d="M336.266 65.4199C330.922 65.4199 326.668 68.127 324.488 72.3809H324.348V66.0176H317V115.236H324.594V96.9199H324.77C326.879 101.033 331.098 103.635 336.406 103.635C345.688 103.635 351.84 96.2168 351.84 84.5098C351.84 72.8027 345.652 65.4199 336.266 65.4199ZM334.262 97.2012C328.426 97.2012 324.559 92.209 324.559 84.5098C324.559 76.8809 328.461 71.8184 334.262 71.8184C340.273 71.8184 344.035 76.7754 344.035 84.5098C344.035 92.2793 340.273 97.2012 334.262 97.2012Z" fill="#A0A0A0"/>
<path d="M365.192 103.002H372.786V52.2715H365.192V103.002Z" fill="#A0A0A0"/>
<path d="M419.537 78.7441C418.869 71.4668 413.068 65.3496 403.541 65.3496C393.029 65.3496 386.138 72.7676 386.138 84.5098C386.138 96.4629 393.029 103.705 403.611 103.705C412.505 103.705 418.798 98.3613 419.607 90.4863H412.295C411.416 94.7754 408.357 97.3418 403.681 97.3418C397.775 97.3418 393.873 92.6309 393.873 84.5098C393.873 76.5645 397.74 71.6777 403.611 71.6777C408.568 71.6777 411.521 74.8066 412.295 78.7441H419.537Z" fill="#A0A0A0"/>
<path d="M447.655 71.4668C452.963 71.4668 456.549 75.4395 456.725 81.0996H438.233C438.62 75.5098 442.346 71.4668 447.655 71.4668ZM456.69 92.1387C455.67 95.373 452.471 97.5527 448.147 97.5527C442.065 97.5527 438.198 93.2988 438.198 86.8652V86.4082H464.319V83.8066C464.319 72.5918 457.92 65.3496 447.655 65.3496C437.213 65.3496 430.534 73.084 430.534 84.6855C430.534 96.3574 437.108 103.705 447.971 103.705C456.444 103.705 462.842 98.8887 463.897 92.1387H456.69Z" fill="#A0A0A0"/>
<path d="M0 103.002H7.59375V80.1504C7.59375 75.4043 10.793 71.8887 15.293 71.8887C19.582 71.8887 22.2891 74.5957 22.2891 78.8496V103.002H29.7422V79.9043C29.7422 75.2285 32.8711 71.8887 37.3711 71.8887C41.8711 71.8887 44.4375 74.6309 44.4375 79.4121V103.002H52.0664V77.584C52.0664 70.2363 47.2852 65.3848 39.9727 65.3848C34.6992 65.3848 30.3398 68.127 28.4414 72.627H28.2656C26.7891 68.0215 23.0625 65.3848 17.9297 65.3848C12.9375 65.3848 9.07031 68.127 7.41797 72.2402H7.24219V66.0176H0V103.002Z" fill="#A0A0A0"/>
<path d="M66.6141 103.002H74.2078V80.8535C74.2078 75.6152 77.2312 72.3457 82.118 72.3457C83.5945 72.3457 84.9305 72.5215 85.5281 72.7676V65.7012C84.9656 65.5957 84.0164 65.4199 82.9266 65.4199C78.5672 65.4199 75.2625 67.9863 74.032 72.3105H73.8562V66.0176H66.6141V103.002Z" fill="#A0A0A0"/>
<path d="M105.384 81.873H105.314V52.2715H97.7203V103.002H105.314V89.7129L108.478 86.584L121.029 103.002H129.853L113.927 81.9434L129.255 66.0176H120.326L105.384 81.873Z" fill="#A0A0A0"/>
<path d="M143.205 57.2637V66.0176H137.827V72.0293H143.205V93.2637C143.205 100.4 146.123 103.248 153.612 103.248C155.299 103.248 156.987 103.107 157.83 102.896V96.8848C157.338 96.9902 156.108 97.0605 155.334 97.0605C152.241 97.0605 150.834 95.6191 150.834 92.4199V72.0293H157.866V66.0176H150.834V57.2637H143.205Z" fill="#A0A0A0"/>
<line x1="152.607" y1="2.08489" x2="344.118" y2="162.782" stroke="#A0A0A0" stroke-width="5"/>
<line x1="149.393" y1="163.085" x2="340.904" y2="2.38799" stroke="#A0A0A0" stroke-width="5"/>
</svg>
