<svg xmlns="http://www.w3.org/2000/svg" viewBox="0 0 193.91 179.53"><defs><style>.cls-1{fill:#666;}.cls-2{fill:gray;}.cls-3{fill:#999;}.cls-4{fill:#b3b3b3;}.cls-5{fill:#ccc;}.cls-6{fill:#e6e6e6;}.cls-7{fill:#bc811a;}</style></defs><title>mkt_logos_2</title><g id="Layer_2" data-name="Layer 2"><g id="Layer_1-2" data-name="Layer 1"><path class="cls-1" d="M1.46.47H4.8L9.75,15,14.66.47H18V17.68H15.75V7.52q0-.52,0-1.74c0-.82,0-1.69,0-2.62L10.89,17.68H8.58l-5-14.52v.53c0,.42,0,1.07,0,1.93s0,1.5,0,1.9V17.68H1.46Z"/><path class="cls-1" d="M28.21.47h2.63l6.25,17.21H34.54l-1.8-5.15H26l-1.87,5.15H21.73Zm3.87,10.16L29.43,3l-2.76,7.61Z"/><path class="cls-1" d="M41.16.47H49A7.75,7.75,0,0,1,52.17,1a4.08,4.08,0,0,1,2.38,4.07,4.54,4.54,0,0,1-.64,2.53,4.57,4.57,0,0,1-1.78,1.58,3.61,3.61,0,0,1,1.51,1.08,3.9,3.9,0,0,1,.57,2.17l.08,2.31a7.19,7.19,0,0,0,.17,1.46,1.45,1.45,0,0,0,.75,1.06v.38H52.35a2.11,2.11,0,0,1-.19-.57A12,12,0,0,1,52,15.75l-.14-2.87a2.42,2.42,0,0,0-1.21-2.26,5,5,0,0,0-2-.32H43.49v7.38H41.16Zm7.57,7.89a4.31,4.31,0,0,0,2.53-.66,2.71,2.71,0,0,0,.92-2.37,2.57,2.57,0,0,0-1.29-2.51A4.25,4.25,0,0,0,49,2.47H43.49V8.36Z"/><path class="cls-1" d="M59.89.47h2.27V8.9L70.77.47H74l-7.35,7,7.51,10.26H71.13L65,9l-2.81,2.65v6H59.89Z"/><path class="cls-1" d="M77.8.47H90.29V2.58H80.07V7.8h9.45v2H80.07v5.83h10.4v2H77.8Z"/><path class="cls-1" d="M107.78.47V2.52H102V17.68H99.62V2.52h-5.8v-2Z"/><path class="cls-1" d="M111.83.47h7.7a5.25,5.25,0,0,1,3.69,1.29,4.7,4.7,0,0,1,1.4,3.64,5.24,5.24,0,0,1-1.25,3.51,4.72,4.72,0,0,1-3.84,1.5h-5.37v7.27h-2.33Zm9,2.37a4.85,4.85,0,0,0-2.1-.37h-4.61v6h4.61a4.42,4.42,0,0,0,2.53-.67,2.68,2.68,0,0,0,1-2.36A2.59,2.59,0,0,0,120.87,2.84Z"/><path class="cls-1" d="M129.29.47h2.33V15.63h8.64v2h-11Z"/><path class="cls-1" d="M149.34.47H152l6.24,17.21h-2.55l-1.8-5.15h-6.75l-1.87,5.15h-2.39Zm3.87,10.16L150.56,3l-2.75,7.61Z"/><path class="cls-1" d="M174.18,1.72a6.12,6.12,0,0,1,2,3.92h-2.27A4.77,4.77,0,0,0,172.38,3a4.75,4.75,0,0,0-3.19-1,5,5,0,0,0-4,1.79c-1,1.19-1.54,3-1.54,5.48A8.11,8.11,0,0,0,165,14.21a4.84,4.84,0,0,0,4.14,1.88,4.36,4.36,0,0,0,3.86-2,7.81,7.81,0,0,0,1-2.74h2.28a7.87,7.87,0,0,1-2,4.56,7.8,7.8,0,0,1-10.45.39q-2.65-2.4-2.66-7.42a9.56,9.56,0,0,1,2-6.25A7.21,7.21,0,0,1,169.17,0,6.91,6.91,0,0,1,174.18,1.72Z"/><path class="cls-1" d="M181.24.47h12.49V2.58H183.52V7.8H193v2h-9.44v5.83h10.39v2H181.24Z"/><path class="cls-2" d="M3.84,27a.49.49,0,0,1,.43-.36h.39a.46.46,0,0,1,.4.27l5,12.26h.1l5-12.26a.46.46,0,0,1,.41-.27H16a.48.48,0,0,1,.43.36l3,16.13a.41.41,0,0,1-.44.55H17.35a.49.49,0,0,1-.45-.33L15.12,32.62h-.07l-4.32,11a.41.41,0,0,1-.41.26H9.89a.44.44,0,0,1-.41-.26l-4.34-11H5L3.31,43.35a.45.45,0,0,1-.43.33H1.32c-.34,0-.5-.21-.46-.55Z"/><path class="cls-2" d="M22.06,43.06l7.36-16.15a.57.57,0,0,1,.41-.27h.24a.55.55,0,0,1,.41.27L37.8,43.06a.42.42,0,0,1-.41.62H35.88a.54.54,0,0,1-.55-.36L33.84,40H26c-.48,1.1-1,2.18-1.46,3.28a.6.6,0,0,1-.55.36H22.46A.42.42,0,0,1,22.06,43.06ZM32.93,38,30,31.39h-.12L26.93,38Z"/><path class="cls-2" d="M41.64,27.34a.46.46,0,0,1,.46-.46h6.52A5.19,5.19,0,0,1,53.86,32a5.33,5.33,0,0,1-3.56,4.87L53.59,43a.45.45,0,0,1-.41.69H51.31a.45.45,0,0,1-.38-.21l-3.19-6.36H44.11v6.12a.46.46,0,0,1-.45.45H42.1a.45.45,0,0,1-.46-.45ZM48.43,35a3,3,0,0,0,2.93-3,3,3,0,0,0-2.93-2.86H44.16V35Z"/><path class="cls-2" d="M59,27.46a.57.57,0,0,1,.58-.58H61a.59.59,0,0,1,.57.58v6.65l6.77-7a.63.63,0,0,1,.46-.24h1.8a.5.5,0,0,1,.33.87L64,34.8l7.34,8.09a.51.51,0,0,1-.43.79H69a.53.53,0,0,1-.43-.16l-7-7.88v7.47a.58.58,0,0,1-.57.57H59.62a.57.57,0,0,1-.58-.57Z"/><path class="cls-2" d="M75.62,27.34a.47.47,0,0,1,.46-.46h9.6a.47.47,0,0,1,.46.46v1.34a.47.47,0,0,1-.46.46H78.1V34h6.4a.48.48,0,0,1,.46.46v1.34a.46.46,0,0,1-.46.46H78.1v5.16h7.58a.47.47,0,0,1,.46.46v1.32a.46.46,0,0,1-.46.45h-9.6a.46.46,0,0,1-.46-.45Z"/><path class="cls-2" d="M93.5,29.14H89.59a.46.46,0,0,1-.45-.46V27.34a.46.46,0,0,1,.45-.46H99.91a.46.46,0,0,1,.46.46v1.34a.46.46,0,0,1-.46.46H96V43.23a.47.47,0,0,1-.46.45H94a.47.47,0,0,1-.46-.45Z"/><path class="cls-2" d="M104.4,27.34a.46.46,0,0,1,.46-.46h5.47a5.36,5.36,0,1,1,0,10.71h-3.48v5.64a.46.46,0,0,1-.45.45h-1.56a.45.45,0,0,1-.46-.45Zm5.78,7.89a3.05,3.05,0,0,0,3-3.07,3,3,0,0,0-3-2.88h-3.31v5.95Z"/><path class="cls-2" d="M120.1,27.34a.46.46,0,0,1,.45-.46h1.59a.47.47,0,0,1,.45.46V41.45h6.51a.46.46,0,0,1,.45.46v1.32a.45.45,0,0,1-.45.45h-8.55a.45.45,0,0,1-.45-.45Z"/><path class="cls-2" d="M132,43.06l7.37-16.15a.54.54,0,0,1,.4-.27H140a.55.55,0,0,1,.4.27l7.32,16.15a.42.42,0,0,1-.4.62h-1.52a.56.56,0,0,1-.55-.36L143.78,40h-7.85c-.48,1.1-1,2.18-1.46,3.28a.59.59,0,0,1-.55.36h-1.51A.42.42,0,0,1,132,43.06ZM142.87,38l-3-6.58h-.12L136.87,38Z"/><path class="cls-2" d="M158.93,26.64a8.38,8.38,0,0,1,5.81,2.23.46.46,0,0,1,0,.68l-1.06,1.08c-.16.21-.38.21-.6,0A6.45,6.45,0,0,0,159,29a6.23,6.23,0,0,0,0,12.46,6.4,6.4,0,0,0,4.12-1.59.44.44,0,0,1,.58,0l1.1,1.08a.45.45,0,0,1,0,.65,8.25,8.25,0,0,1-5.83,2.32,8.64,8.64,0,1,1,0-17.28Z"/><path class="cls-2" d="M169.63,27.34a.46.46,0,0,1,.46-.46h9.6a.46.46,0,0,1,.45.46v1.34a.46.46,0,0,1-.45.46H172.1V34h6.41a.48.48,0,0,1,.46.46v1.34a.46.46,0,0,1-.46.46H172.1v5.16h7.59a.46.46,0,0,1,.45.46v1.32a.45.45,0,0,1-.45.45h-9.6a.45.45,0,0,1-.46-.45Z"/><path class="cls-3" d="M3.84,53a.49.49,0,0,1,.43-.36h.39a.46.46,0,0,1,.4.27l5,12.26h.1l5-12.26a.46.46,0,0,1,.41-.27H16a.48.48,0,0,1,.43.36l3,16.13a.41.41,0,0,1-.44.55H17.35a.49.49,0,0,1-.45-.33L15.12,58.62h-.07l-4.32,11a.41.41,0,0,1-.41.26H9.89a.44.44,0,0,1-.41-.26l-4.34-11H5L3.31,69.35a.45.45,0,0,1-.43.33H1.32c-.34,0-.5-.21-.46-.55Z"/><path class="cls-3" d="M21.7,69.06l7.36-16.15a.57.57,0,0,1,.41-.27h.24a.55.55,0,0,1,.41.27l7.32,16.15a.42.42,0,0,1-.41.62H35.52a.55.55,0,0,1-.55-.36L33.48,66H25.63c-.48,1.1-1,2.18-1.46,3.28a.6.6,0,0,1-.55.36H22.1A.42.42,0,0,1,21.7,69.06ZM32.57,64l-2.95-6.58H29.5L26.57,64Z"/><path class="cls-3" d="M40.92,53.34a.46.46,0,0,1,.46-.46H47.9A5.19,5.19,0,0,1,53.14,58a5.33,5.33,0,0,1-3.56,4.87L52.87,69a.45.45,0,0,1-.41.69H50.59a.45.45,0,0,1-.38-.21L47,63.11H43.39v6.12a.46.46,0,0,1-.45.45H41.38a.45.45,0,0,1-.46-.45ZM47.71,61a3,3,0,0,0,2.93-3,3,3,0,0,0-2.93-2.86H43.44V61Z"/><path class="cls-3" d="M58,53.46a.57.57,0,0,1,.58-.58h1.39a.59.59,0,0,1,.57.58v6.65l6.77-7a.63.63,0,0,1,.46-.24h1.8a.5.5,0,0,1,.34.87l-6.94,7,7.34,8.09a.5.5,0,0,1-.43.79H67.92a.53.53,0,0,1-.43-.16l-7-7.88v7.47a.58.58,0,0,1-.57.57H58.54a.57.57,0,0,1-.58-.57Z"/><path class="cls-3" d="M74.18,53.34a.47.47,0,0,1,.46-.46h9.6a.47.47,0,0,1,.46.46v1.34a.47.47,0,0,1-.46.46H76.66V60h6.4a.48.48,0,0,1,.46.46v1.34a.46.46,0,0,1-.46.46h-6.4v5.16h7.58a.47.47,0,0,1,.46.46v1.32a.46.46,0,0,1-.46.45h-9.6a.46.46,0,0,1-.46-.45Z"/><path class="cls-3" d="M91.7,55.14H87.79a.46.46,0,0,1-.45-.46V53.34a.46.46,0,0,1,.45-.46H98.11a.46.46,0,0,1,.46.46v1.34a.46.46,0,0,1-.46.46H94.2V69.23a.47.47,0,0,1-.46.45H92.16a.47.47,0,0,1-.46-.45Z"/><path class="cls-3" d="M102.24,53.34a.46.46,0,0,1,.46-.46h5.47a5.36,5.36,0,1,1,0,10.71h-3.48v5.64a.46.46,0,0,1-.45.45H102.7a.45.45,0,0,1-.46-.45ZM108,61.23a3.05,3.05,0,0,0,3-3.07,3,3,0,0,0-3-2.88h-3.31v5.95Z"/><path class="cls-3" d="M117.58,53.34a.46.46,0,0,1,.45-.46h1.59a.47.47,0,0,1,.45.46V67.45h6.51a.46.46,0,0,1,.45.46v1.32a.45.45,0,0,1-.45.45H118a.45.45,0,0,1-.45-.45Z"/><path class="cls-3" d="M129.12,69.06l7.37-16.15a.54.54,0,0,1,.41-.27h.24a.55.55,0,0,1,.4.27l7.32,16.15a.42.42,0,0,1-.4.62h-1.52a.56.56,0,0,1-.55-.36L140.9,66h-7.85c-.48,1.1-1,2.18-1.46,3.28a.59.59,0,0,1-.55.36h-1.51A.42.42,0,0,1,129.12,69.06ZM140,64l-3-6.58h-.12L134,64Z"/><path class="cls-3" d="M155.69,52.64a8.38,8.38,0,0,1,5.81,2.23.46.46,0,0,1,0,.68l-1.06,1.08c-.16.21-.38.21-.6,0A6.45,6.45,0,0,0,155.71,55a6.23,6.23,0,0,0,0,12.46,6.4,6.4,0,0,0,4.12-1.59.44.44,0,0,1,.58,0l1.1,1.08a.45.45,0,0,1,0,.65,8.25,8.25,0,0,1-5.83,2.32,8.64,8.64,0,1,1,0-17.28Z"/><path class="cls-3" d="M166,53.34a.46.46,0,0,1,.46-.46h9.6a.46.46,0,0,1,.45.46v1.34a.46.46,0,0,1-.45.46H168.5V60h6.41a.48.48,0,0,1,.46.46v1.34a.46.46,0,0,1-.46.46H168.5v5.16h7.59a.46.46,0,0,1,.45.46v1.32a.45.45,0,0,1-.45.45h-9.6a.45.45,0,0,1-.46-.45Z"/><path class="cls-4" d="M1,95.68,3.46,78.45h.28l7,14.14,6.94-14.14H18l2.45,17.23H18.75L17.07,83.35,11,95.68h-.43L4.34,83.25,2.69,95.68Z"/><path class="cls-4" d="M34.66,82.94h1.61V95.68H34.66V93.5A6.48,6.48,0,0,1,29.52,96a6.7,6.7,0,0,1,.05-13.4,6,6,0,0,1,5.09,2.67Zm-10,6.38a5.12,5.12,0,0,0,5,5.19,5.16,5.16,0,1,0-5-5.19Z"/><path class="cls-4" d="M41,84.79c1-1.4,2-2.19,3.29-2.19a2.58,2.58,0,0,1,1.46.43l-.86,1.4a1.92,1.92,0,0,0-.87-.24c-1.2,0-2.28,1-2.76,2.78A18,18,0,0,0,41,90.83v4.85H39.31V82.94H41Z"/><path class="cls-4" d="M47.21,78h1.63v10l5.88-5.13h2.42l-7,6.07,7.39,6.67H55.22L48.84,90v5.73H47.21Z"/><path class="cls-4" d="M60.31,89.44a4.85,4.85,0,0,0,4.8,5.07A5.33,5.33,0,0,0,70,91.46l1.37.72A6.38,6.38,0,0,1,65.28,96a6.47,6.47,0,0,1-6.65-6.65,6.57,6.57,0,0,1,6.55-6.75c3.63,0,6.56,2.62,6.6,6.84ZM70,88a4.67,4.67,0,0,0-4.77-3.81c-2.28,0-4,1.22-4.73,3.81Z"/><path class="cls-4" d="M76.29,78.19h1.64v4.75h2.61v1.44H77.93v11.3H76.29V84.38H74V82.94h2.25Z"/><path class="cls-4" d="M84.62,85.27a6,6,0,0,1,5.07-2.67,6.7,6.7,0,0,1,0,13.4,6.43,6.43,0,0,1-5.12-2.5v6.84H83V82.94h1.63Zm-.12,4.1a5,5,0,0,0,5.07,5.14,5.14,5.14,0,0,0,5-5.19,5.06,5.06,0,1,0-10.11.05Z"/><path class="cls-4" d="M99.09,78h1.64V95.68H99.09Z"/><path class="cls-4" d="M115.22,82.94h1.61V95.68h-1.61V93.5a6.45,6.45,0,0,1-5.13,2.5,6.7,6.7,0,0,1,0-13.4,6,6,0,0,1,5.09,2.67Zm-10,6.38a5.12,5.12,0,0,0,5,5.19,5.16,5.16,0,1,0-5-5.19Z"/><path class="cls-4" d="M132.91,93.12a6.86,6.86,0,0,1-6,2.88,6.65,6.65,0,0,1-7-6.58,6.82,6.82,0,0,1,7.12-6.82,6.6,6.6,0,0,1,5.86,3l-1.32.82A5.49,5.49,0,0,0,127,84.19a5.16,5.16,0,1,0,0,10.32,5.67,5.67,0,0,0,4.58-2.23Z"/><path class="cls-4" d="M137.13,89.44c.08,2.93,2.07,5.07,4.8,5.07a5.35,5.35,0,0,0,4.88-3.05l1.37.72A6.39,6.39,0,0,1,142.1,96a6.47,6.47,0,0,1-6.65-6.65A6.58,6.58,0,0,1,142,82.6c3.62,0,6.55,2.62,6.6,6.84ZM146.81,88A4.68,4.68,0,0,0,142,84.19c-2.28,0-4,1.22-4.73,3.81Z"/><path class="cls-5" d="M18.72,106.15c-1.27.27-1.44.75-1.44,2.67v9.72c0,1.94.17,2.4,1.44,2.66v.48H12.17v-.48c1.39-.19,1.54-.81,1.54-2.66V108.41l-5.09,9.27-4.78-9.27v10.13c0,1.82.12,2.5,1.58,2.66v.48H.62v-.48c1.3-.26,1.47-.74,1.47-2.66v-9.72c0-1.92-.17-2.4-1.47-2.67v-.48H7.51v.48a.64.64,0,0,0-.5.68,1.55,1.55,0,0,0,.24.79l2.47,4.61,2.5-4.52a2.08,2.08,0,0,0,.4-1,.56.56,0,0,0-.45-.58v-.48h6.55Z"/><path class="cls-5" d="M32.06,118.49c0,2.09.48,2.59,1.61,2.86v.33H29.83a3.51,3.51,0,0,1-.84-2A4.7,4.7,0,0,1,27.74,121a6.65,6.65,0,0,1-3.48,1c-2.44,0-3.79-1.3-3.79-3,0-3.36,4.42-4.53,8.4-5.28a3.58,3.58,0,0,0-.24-1.87,2.45,2.45,0,0,0-2.13-.89,5,5,0,0,0-4.85,3.22l-.24-.05.41-4.11a.85.85,0,0,0,.76.34c.44,0,2-.53,2.55-.65a13.15,13.15,0,0,1,2.59-.26c4,0,4.34,1.85,4.34,4Zm-8.32.07a1.71,1.71,0,0,0,1.8,1.66,3.36,3.36,0,0,0,2.83-1.66,8.3,8.3,0,0,0,.55-3.74C25,115.61,23.74,117.17,23.74,118.56Z"/><path class="cls-5" d="M44.06,112.32a2.62,2.62,0,0,0-1.6-.55,2.45,2.45,0,0,0-2.28,1.49,9.25,9.25,0,0,0-.48,3.67v1.95c0,1.53,0,2.35,1.56,2.47v.33h-6v-.33c1.35-.22,1.39-.89,1.39-2.47v-6.13c0-1.53,0-2.23-1.39-2.47V110l3.84-.32a5.26,5.26,0,0,1,.63,2.67,4.72,4.72,0,0,1,4-2.74,6.93,6.93,0,0,1,1,.1Z"/><path class="cls-5" d="M58.44,110a7.26,7.26,0,0,0-3.91,2l-1,.84a24.18,24.18,0,0,1,4.34,6.43c.87,1.66,1,1.87,1.83,2v.33h-6v-.33c.36,0,.94-.19.94-.87,0-.84-1.2-3.48-3.36-5.64l-1.44,1.28v2.76c0,1.56,0,2.4,1.65,2.47v.33H45.29v-.33c1.34-.22,1.39-.89,1.39-2.47v-10.4c0-1.51,0-2.33-1.51-2.47v-.34l4.61-.55v9.7l3-2.83c.86-.82,1-1.08,1-1.35,0-.5-.65-.6-.84-.62v-.34h5.52Z"/><path class="cls-5" d="M63.34,116.16a4.63,4.63,0,0,0,7.8,3,5.31,5.31,0,0,0,1.1-1.68l.31.12-1.34,4.25a.89.89,0,0,0-.63-.24,26.5,26.5,0,0,1-3.24.31c-4.77,0-7.44-2.88-7.44-6.31,0-4,3.29-6.22,6.7-6.22a6.08,6.08,0,0,1,4.18,1.51,5.23,5.23,0,0,1,1.7,2.9Zm5.71-2.71c-.55-2.38-2.19-2.54-2.76-2.54a2.88,2.88,0,0,0-2.4,1.32,4.88,4.88,0,0,0-.67,2.73Z"/><path class="cls-5" d="M78.17,109.87H80.4a1.7,1.7,0,0,0,1.25-.36l-.7,1.83c-.19-.17-.29-.19-.77-.19h-2v6.91c0,1.27.43,2.28,1.7,2.28a3,3,0,0,0,2.31-1.51l.26.09-1,2.5a8.76,8.76,0,0,1-3.24.58c-3.17,0-3.17-2.57-3.17-3.51v-7.27H73.44v-.31a3,3,0,0,0,2-3.1,5.29,5.29,0,0,0-.17-1.25,16.17,16.17,0,0,0,2.86-1.25Z"/><path class="cls-5" d="M89.21,109.66c3.29,0,5.21.43,6.65,2.33A6.71,6.71,0,0,1,97.18,116a5.35,5.35,0,0,1-3.05,5.09,12.43,12.43,0,0,1-4.59.7c-.62,0-1.25,0-1.87,0v2.3c0,1.52,0,2.33,1.54,2.48v.33h-6v-.33c1.35-.22,1.39-.89,1.39-2.48V112.44c0-1.51,0-2.23-1.39-2.47v-.31ZM87.67,118c0,1.27.12,1.63.48,1.92a2.33,2.33,0,0,0,1.61.5c3,0,4.1-2.42,4.1-4.56a4.69,4.69,0,0,0-2.18-4.23,9.15,9.15,0,0,0-4-.62Z"/><path class="cls-5" d="M103.32,118.88c0,1.53,0,2.3,1.46,2.47v.33H98.85v-.33c1.32-.24,1.37-.87,1.37-2.47v-10.4c0-1.51,0-2.3-1.49-2.47v-.34l4.59-.55Z"/><path class="cls-5" d="M117.79,118.49c0,2.09.48,2.59,1.61,2.86v.33h-3.84a3.45,3.45,0,0,1-.84-2,4.7,4.7,0,0,1-1.25,1.32,6.65,6.65,0,0,1-3.48,1c-2.45,0-3.79-1.3-3.79-3,0-3.36,4.41-4.53,8.4-5.28a3.58,3.58,0,0,0-.24-1.87,2.47,2.47,0,0,0-2.14-.89,5,5,0,0,0-4.85,3.22l-.24-.05.41-4.11a.87.87,0,0,0,.77.34c.43,0,1.94-.53,2.54-.65a13.33,13.33,0,0,1,2.6-.26c4,0,4.34,1.85,4.34,4Zm-8.33.07a1.71,1.71,0,0,0,1.8,1.66,3.34,3.34,0,0,0,2.83-1.66,8.16,8.16,0,0,0,.56-3.74C110.71,115.61,109.46,117.17,109.46,118.56Z"/><path class="cls-5" d="M132.05,113.55l-.27.07a4.66,4.66,0,0,0-1.1-1.61,3.86,3.86,0,0,0-2.64-1.08c-2.11,0-3.82,1.8-3.82,4.47a4.76,4.76,0,0,0,4.54,5,5,5,0,0,0,2.9-1,4,4,0,0,0,1.15-1.39l.27.14-1.39,3.72a1.33,1.33,0,0,0-.67-.14,4.7,4.7,0,0,0-.53,0,18,18,0,0,1-2.19.17c-3.93,0-7.39-2.38-7.39-6.63,0-4,3.22-5.83,6.14-5.83a14.45,14.45,0,0,1,2.24.22,7.24,7.24,0,0,0,.88.07,1.58,1.58,0,0,0,1.06-.31Z"/><path class="cls-5" d="M137.4,116.16a4.63,4.63,0,0,0,7.8,3,5.14,5.14,0,0,0,1.1-1.68l.31.12-1.34,4.25a.88.88,0,0,0-.62-.24,27,27,0,0,1-3.24.31c-4.78,0-7.44-2.88-7.44-6.31,0-4,3.28-6.22,6.69-6.22a6.08,6.08,0,0,1,4.18,1.51,5.17,5.17,0,0,1,1.7,2.9Zm5.71-2.71c-.55-2.38-2.18-2.54-2.76-2.54a2.88,2.88,0,0,0-2.4,1.32,4.88,4.88,0,0,0-.67,2.73Z"/><path class="cls-6" d="M12.29,147.68l1.82-1.82V134.48l-5.06,9.08L4,134.51v11.35l1.83,1.82H.17L2,145.86V132.51L.17,130.69H5.86l4.27,7.58,4.27-7.58h5.09l-1.82,1.82v13.35l1.82,1.82Z"/><path class="cls-6" d="M27.89,147.68v-1.92l-2.16,1.59a3.47,3.47,0,0,1-2.14.65c-1.65,0-2.9-1.35-2.9-3.48,0-2.93,2.69-4.3,5.37-4.3h1.83v-1.59c0-1-.41-1.94-1.54-1.94a3,3,0,0,0-2.13.94L21.77,140v-3.65a9.34,9.34,0,0,1,4.77-1.13c2.55,0,4.9,1.27,4.9,3.45V146l1.71,1.7Zm0-6.07H26.66a2.24,2.24,0,0,0-2.54,2.55c0,1,.53,1.63,1.2,1.63a2.17,2.17,0,0,0,1-.41l1.54-1.13Z"/><path class="cls-6" d="M38.64,146l1.7,1.7h-7l1.71-1.7v-7.37L33.43,137l5.21-1.77v2.13l.79-.86a4.31,4.31,0,0,1,3-1.27,6.61,6.61,0,0,1,1.2.19v4.87l-2.88-2.88-2.16,2.14Z"/><path class="cls-6" d="M53.74,147.68v-1.36L49.37,142v4l1.7,1.7h-7l1.71-1.7V132.87l-1.66-1.65,5.21-1.78v12l4.56-4.56-1.42-1.42h5.64L52.66,141l6.69,6.69Z"/><path class="cls-6" d="M63.14,141.44c0,3.34.53,4.95,3,4.95a4.93,4.93,0,0,0,3.53-1.71l.93.94A7,7,0,0,1,65,148a6.42,6.42,0,0,1,.24-12.82c3.24,0,6.31,2.47,5.28,6.26Zm0-1.51h3.68c.57-1.18.43-3.24-1.61-3.24C63.7,136.69,63.14,138,63.14,139.93Z"/><path class="cls-6" d="M77.18,137v9a2,2,0,0,0,2.43-1l.84.84a3.64,3.64,0,0,1-3.34,2.08,3.17,3.17,0,0,1-3.48-3.14v-6.94H71.45l5.73-5.73v3.38H80.3V137Z"/><path class="cls-6" d="M80.83,137,86,135.18v1.75a4.41,4.41,0,0,1,3.46-1.75c2.61,0,4.89,2.66,4.89,6.41S92.11,148,89.5,148A4.25,4.25,0,0,1,86,146.22v4.56l1.7,1.7h-7l1.71-1.7V138.61Zm7.49.1a2.82,2.82,0,0,0-2.28,1.8v5.47a2.8,2.8,0,0,0,2.28,1.8c1.34,0,2-1.34,2-4.53S89.66,137.05,88.32,137.05Z"/><path class="cls-6" d="M95.49,147.68,97.2,146V132.87l-1.66-1.65,5.21-1.78V146l1.71,1.7Z"/><path class="cls-6" d="M110.64,147.68v-1.92l-2.16,1.59a3.47,3.47,0,0,1-2.14.65c-1.65,0-2.9-1.35-2.9-3.48,0-2.93,2.69-4.3,5.37-4.3h1.83v-1.59c0-1-.41-1.94-1.54-1.94a3,3,0,0,0-2.13.94L104.52,140v-3.65a9.34,9.34,0,0,1,4.77-1.13c2.55,0,4.9,1.27,4.9,3.45V146l1.71,1.7Zm0-6.07h-1.23a2.24,2.24,0,0,0-2.54,2.55c0,1,.53,1.63,1.2,1.63a2.17,2.17,0,0,0,1-.41l1.54-1.13Z"/><path class="cls-6" d="M122.71,148a6.43,6.43,0,0,1,0-12.82,8.75,8.75,0,0,1,4.66,1.13V140L125,137.63a2.76,2.76,0,0,0-2.14-.94c-2,0-2,1.94-2,4.9,0,3.45.79,4.85,2.88,4.85a4.24,4.24,0,0,0,2.8-1.3l.84,1.08A6,6,0,0,1,122.71,148Z"/><path class="cls-6" d="M133.2,141.44c0,3.34.53,4.95,3,4.95a4.91,4.91,0,0,0,3.53-1.71l.94.94A7,7,0,0,1,135,148a6.42,6.42,0,0,1,.24-12.82c3.24,0,6.31,2.47,5.28,6.26Zm0-1.51h3.67c.58-1.18.43-3.24-1.61-3.24C133.75,136.69,133.2,138,133.2,139.93Z"/><path class="cls-7" d="M12.14,173.89H12c-.52,0-.73,0-1-.57l-5.8-13.83-.08,8.86c0,3.64,0,3.75.81,4l1.4.42c.16.05.21.1.21.57s0,.55-.21.55c-.6,0-2.11-.19-3.8-.19s-2.8.19-3.4.19c-.16,0-.21-.08-.21-.55s.05-.52.21-.57l1.14-.42c.78-.28.83-.34,1.28-4L4,157.2c.1-.78-.24-1-1-1.12l-1.14-.18c-.16,0-.21-.11-.21-.57s0-.55.21-.55c.34,0,3.69.18,5.33.18,1.12,0,2.16-.05,2.94-.05.26,0,.34.05.44.31l4.11,10.33,3.74-10.33c.11-.26.16-.31.42-.31.6,0,2,.05,3.35.05,1.9,0,4-.18,4.58-.18.15,0,.21.08.21.55s-.06.54-.21.57l-1.15.18c-.25,0-.33.11-.31.36l1,15.76c0,.26.06.31.31.37l1.15.18c.15,0,.21.1.21.57s-.06.55-.21.55c-.6,0-2.65-.19-4.81-.19s-4.24.19-4.84.19c-.15,0-.21-.08-.21-.55s.06-.55.21-.57l1.15-.18c.26-.06.33-.11.31-.37l-.83-12.53L13,173.32C12.74,173.84,12.66,173.89,12.14,173.89Z"/><path class="cls-7" d="M36.35,170.8A4.7,4.7,0,0,1,32,174.1a3.42,3.42,0,0,1-3.38-3.64,3.17,3.17,0,0,1,1.85-3.22,23.87,23.87,0,0,1,5.64-1.77v-.83c0-1.88-.57-3-1.56-3-.26,0-.36.08-.42.42L34,163.28c-.26,1.88-1.35,2.76-2.81,2.76a1.42,1.42,0,0,1-1.53-1.46c0-1.66,3.22-4.21,7.2-4.21,3.54,0,5.2,1.4,5.2,3.93v4.78c0,2.08.42,2.13,1.12,1.67.08-.06.1-.08.16-.08.23,0,.62.57.62.73s-.1.23-.26.39l-.1.1c-1.56,1.56-2.68,2.21-4,2.21C38.09,174.1,37,173.06,36.35,170.8Zm-.21-.39v-1.85a1.75,1.75,0,0,0-.55-1.3,1.55,1.55,0,0,0-1-.49c-.52,0-.75.31-.75,1.09,0,1.46,1,2.73,1.84,2.73A.61.61,0,0,0,36.14,170.41Z"/><path class="cls-7" d="M53.43,173.87c-.6,0-2.29-.19-5-.19-1.89,0-3.61.19-4.21.19-.15,0-.21-.06-.21-.55s.06-.55.21-.57l.89-.18c.26-.06.31-.08.31-.34v-6.87c0-.26-.05-.28-.31-.33l-.89-.16c-.15,0-.21-.08-.21-.49s.06-.45.21-.5a29.45,29.45,0,0,0,6.24-3.59.35.35,0,0,1,.21-.07c.18,0,.68.2.68.38,0,.42-.11,2.53-.11,4.22.78-2.52,2.24-4.45,3.82-4.45s2.27,1.17,2.27,2.6c0,2.47-1.43,3.69-2.66,3.69a2.44,2.44,0,0,1-1.43-.54,3.06,3.06,0,0,0-1.48-.68.63.63,0,0,0-.34.08v6.71c0,.26.06.31.32.34l1.66.18c.16,0,.21.1.21.57S53.59,173.87,53.43,173.87Z"/><path class="cls-7" d="M77.06,173.87c-.59,0-2.7-.19-5.12-.19-2.16,0-4.29.19-4.89.19-.15,0-.2-.08-.2-.55s.05-.55.2-.57l.86-.13c.26-.05.24-.16,0-.39L65,168v4.18c0,.26,0,.31.31.37l.75.18c.16,0,.21.1.21.57s0,.55-.21.55c-.6,0-2.16-.19-4.05-.19s-3.62.19-4.22.19c-.15,0-.2-.08-.2-.55s.05-.55.2-.57l.89-.18c.26-.06.31-.11.31-.37V158.81c0-.26-.05-.29-.31-.34l-.89-.15c-.15,0-.2-.08-.2-.5s.05-.44.2-.49a33.45,33.45,0,0,0,6.53-3.59.37.37,0,0,1,.21-.08c.18,0,.67.21.67.39,0,.44-.2,2.21-.2,5.41v7.41L67,165.36c3.61-2.83,3.67-3.09,3.15-3.25l-1.8-.49c-.15-.05-.21-.1-.21-.57s.06-.55.21-.55c.6,0,2.73.18,4.11.18s3.46-.18,4.06-.18c.15,0,.2.08.2.55s0,.52-.2.57l-2,.6c-.52.15-1.2.47-4.66,3.09l-.07.08,6,6.84a.83.83,0,0,0,.6.36l.8.16c.16,0,.21.1.21.57S77.22,173.87,77.06,173.87Z"/><path class="cls-7" d="M83.49,174.1a6.54,6.54,0,0,1-6.87-6.76c0-4.19,3.15-7,7.78-7,3.87,0,6,1.87,6,4.37a2.46,2.46,0,0,1-.06.68.27.27,0,0,1-.28.18c-2.06.1-5,.15-7.49.08A8.2,8.2,0,0,0,84.37,169,3.36,3.36,0,0,0,87,170.2a3.6,3.6,0,0,0,2.52-1.07c.23-.2.88.29.78.55A7.54,7.54,0,0,1,83.49,174.1Zm-1.1-9,.84-.1c1.19-.13,1.74-1,1.74-2.31,0-1-.42-1.51-1.15-1.51s-1.61.73-1.61,2.29A9.24,9.24,0,0,0,82.39,165.1Z"/><path class="cls-7" d="M96.46,174.1c-2.73,0-4.16-1.74-4.16-4.55v-7.12c0-.26,0-.29-.31-.34l-.94-.13c-.18,0-.21-.08-.21-.52s.06-.55.21-.57a10.56,10.56,0,0,0,5.9-3.33c.16-.16.19-.21.6-.21s.5,0,.52.21a28.77,28.77,0,0,1,.21,3l2.94,0c.26,0,.36.13.36.84s-.1.78-.36.78c-.91,0-2,0-2.91,0v5.15c0,2.42.65,3,1.76,3a3,3,0,0,0,.65-.15c.29,0,.73.41.63.67A5.34,5.34,0,0,1,96.46,174.1Z"/><path class="cls-7" d="M110.4,179.53c-.6,0-2.29-.18-4.19-.18s-3.61.18-4.21.18c-.16,0-.21-.07-.21-.54s0-.55.21-.57l.88-.19c.26,0,.31-.1.31-.36V165.36c0-.26,0-.28-.31-.33l-.88-.16c-.16,0-.21-.08-.21-.49s0-.45.21-.5a29.45,29.45,0,0,0,6.24-3.59.35.35,0,0,1,.21-.07c.18,0,.67.2.67.38,0,.45-.1,1.1-.1,2.71a4.45,4.45,0,0,1,4.26-2.94c2.71,0,5.41,2.19,5.41,6.5,0,4.53-2.65,7.13-6.94,7.13a9.41,9.41,0,0,1-2.55-.32v4.19c0,.26,0,.31.31.36l.89.19c.15,0,.2.07.2.57S110.55,179.53,110.4,179.53Zm1.63-6.37c.55,0,.91-.49.91-1.43,0-2.54-1.4-6.47-2.8-7.88a.87.87,0,0,0-.63-.31.49.49,0,0,0-.31.11V167a9.23,9.23,0,0,0,1.92,5.75A1.2,1.2,0,0,0,112,173.16Z"/><path class="cls-7" d="M119.7,173.32c0-.47,0-.55.21-.57l.88-.18c.26-.06.32-.11.32-.37V158.81c0-.26-.06-.29-.32-.34l-.88-.15c-.16,0-.21-.08-.21-.5s0-.44.21-.49a33.74,33.74,0,0,0,6.53-3.59.37.37,0,0,1,.21-.08c.18,0,.67.21.67.39,0,.44-.21,2.21-.21,5.41V172.2c0,.26.06.31.32.37l.88.18c.16,0,.21.1.21.57s-.05.55-.21.55c-.6,0-2.29-.19-4.19-.19s-3.61.19-4.21.19C119.75,173.87,119.7,173.79,119.7,173.32Z"/><path class="cls-7" d="M136.78,170.8a4.69,4.69,0,0,1-4.31,3.3,3.42,3.42,0,0,1-3.38-3.64,3.16,3.16,0,0,1,1.84-3.22,24.14,24.14,0,0,1,5.65-1.77v-.83c0-1.88-.58-3-1.56-3-.26,0-.37.08-.42.42l-.18,1.24c-.26,1.88-1.35,2.76-2.81,2.76a1.42,1.42,0,0,1-1.53-1.46c0-1.66,3.22-4.21,7.2-4.21,3.53,0,5.2,1.4,5.2,3.93v4.78c0,2.08.42,2.13,1.12,1.67.07-.06.1-.08.15-.08.24,0,.63.57.63.73s-.11.23-.26.39l-.11.1c-1.56,1.56-2.68,2.21-3.95,2.21C138.53,174.1,137.43,173.06,136.78,170.8Zm-.2-.39v-1.85a1.78,1.78,0,0,0-.55-1.3,1.57,1.57,0,0,0-1-.49c-.52,0-.76.31-.76,1.09,0,1.46,1,2.73,1.85,2.73A.61.61,0,0,0,136.58,170.41Z"/><path class="cls-7" d="M151.45,174.1a6.42,6.42,0,0,1-6.68-6.76c0-4.16,3.4-7,8-7,3.31,0,5.15,1.74,5.15,3.46a1.81,1.81,0,0,1-1.95,1.79c-1.17,0-2-.72-2.78-2.15-1-1.82-1.33-2.14-1.9-2.14s-.93.39-.93,1.38a11,11,0,0,0,2.73,6.87,2.67,2.67,0,0,0,2.13,1,2.89,2.89,0,0,0,1.95-.83c.23-.18.88.28.78.54A7,7,0,0,1,151.45,174.1Z"/><path class="cls-7" d="M166,174.1a6.54,6.54,0,0,1-6.86-6.76c0-4.19,3.15-7,7.77-7,3.88,0,6,1.87,6,4.37a2.94,2.94,0,0,1,0,.68.27.27,0,0,1-.28.18c-2.06.1-5,.15-7.49.08a8.2,8.2,0,0,0,1.82,3.27,3.35,3.35,0,0,0,2.62,1.25,3.62,3.62,0,0,0,2.53-1.07c.23-.2.88.29.78.55A7.54,7.54,0,0,1,166,174.1Zm-1.09-9,.83-.1c1.2-.13,1.75-1,1.75-2.31,0-1-.42-1.51-1.15-1.51s-1.61.73-1.61,2.29A9.24,9.24,0,0,0,164.94,165.1Z"/></g></g></svg>