<svg width="413" height="60" viewBox="0 0 413 60" fill="none" xmlns="http://www.w3.org/2000/svg">
<g clip-path="url(#clip0)">
<path d="M28 46.6801H27.76C26.56 46.6801 26.08 46.6201 25.54 45.3601L12.18 13.4401L12 33.9001C11.94 42.3001 12.12 42.5401 13.86 43.0801L17.1 44.0801C17.46 44.2001 17.58 44.3201 17.58 45.4001C17.58 46.4801 17.46 46.6601 17.1 46.6601C15.72 46.6601 12.24 46.2401 8.34 46.2401C4.44 46.2401 1.86 46.6601 0.48 46.6601C0.12 46.6601 0 46.4801 0 45.4001C0 44.3201 0.12 44.1601 0.48 44.0001L3.12 43.0001C4.92 42.3401 5.04 42.2201 6.06 33.8201L9.18 8.16008C9.42 6.36008 8.64 5.88008 6.84 5.58008L4.2 5.16008C3.84 5.10008 3.72 4.92008 3.72 3.84008C3.72 2.76008 3.84 2.58008 4.2 2.58008C5 2.58008 12.72 3.00008 16.5 3.00008C19.08 3.00008 21.5 2.88008 23.28 2.88008C23.88 2.88008 24.06 3.00008 24.28 3.60008L33.76 27.4201L42.42 3.60008C42.66 3.00008 42.78 2.88008 43.42 2.88008C44.8 2.88008 47.98 3.00008 51.16 3.00008C55.54 3.00008 60.34 2.58008 61.72 2.58008C62.08 2.58008 62.2 2.76008 62.2 3.84008C62.2 4.92008 62 5.10008 61.68 5.16008L59 5.58008C58.4 5.70008 58.22 5.82008 58.28 6.42008L60.68 42.7801C60.74 43.3801 60.8 43.5001 61.4 43.6201L64.04 44.0401C64.4 44.1001 64.52 44.2801 64.52 45.3601C64.52 46.4401 64.4 46.6201 64.04 46.6201C62.66 46.6201 57.92 46.2001 52.94 46.2001C47.96 46.2001 43.16 46.6201 41.78 46.6201C41.42 46.6201 41.3 46.4401 41.3 45.3601C41.3 44.2801 41.42 44.1001 41.78 44.0401L44.42 43.6201C45.02 43.5001 45.2 43.3801 45.14 42.7801L43.26 13.8601L29.94 45.3601C29.4 46.5601 29.22 46.6801 28 46.6801Z" fill="#313131"/>
<path d="M85.1999 39.5405C83.2799 44.3405 79.6199 47.1605 75.1999 47.1605C70.5799 47.1605 67.3999 43.4405 67.3999 38.7605C67.3999 35.1005 68.5399 33.0005 71.6599 31.3205C74.4799 29.8205 78.9799 28.5005 84.6599 27.2405V25.3205C84.6599 21.0005 83.3399 18.3205 81.0599 18.3205C80.4599 18.3205 80.2199 18.5005 80.0599 19.3205L79.6399 22.2005C79.0399 26.5205 76.5199 28.5605 73.1599 28.5605C72.7013 28.5956 72.2405 28.5341 71.8072 28.3801C71.3738 28.2261 70.9776 27.9829 70.644 27.6663C70.3104 27.3497 70.047 26.9667 69.8706 26.542C69.6942 26.1172 69.6088 25.6602 69.6199 25.2005C69.6199 21.3605 77.0599 15.4805 86.2399 15.4805C94.3999 15.4805 98.2399 18.7205 98.2399 24.5405V35.5405C98.2399 40.3405 99.2399 40.4605 100.82 39.3805C101 39.2605 101.06 39.2005 101.18 39.2005C101.72 39.2005 102.62 40.5205 102.62 40.8805C102.62 41.2405 102.38 41.4205 102.02 41.7805L101.78 42.0205C98.1799 45.6205 95.5999 47.1205 92.6599 47.1205C89.2199 47.1605 86.6999 44.7605 85.1999 39.5405ZM84.7199 38.6405V34.3805C84.7263 33.8208 84.6178 33.2658 84.4011 32.7498C84.1843 32.2338 83.864 31.7677 83.4599 31.3805C82.8454 30.7273 82.013 30.3218 81.1199 30.2405C79.9199 30.2405 79.3799 30.9605 79.3799 32.7605C79.3799 36.1205 81.6599 39.0605 83.6399 39.0605C83.8395 39.0716 84.0391 39.0399 84.2254 38.9675C84.4117 38.895 84.5803 38.7835 84.7199 38.6405V38.6405Z" fill="#313131"/>
<path d="M125.94 46.6201C124.56 46.6201 120.66 46.2001 114.48 46.2001C110.1 46.2001 106.14 46.6201 104.76 46.6201C104.4 46.6201 104.28 46.5001 104.28 45.3601C104.28 44.2201 104.4 44.1001 104.76 44.0401L106.76 43.6201C107.36 43.5001 107.48 43.4401 107.48 42.8401V27.0001C107.48 26.4001 107.36 26.3401 106.76 26.2201L104.76 25.8601C104.4 25.8001 104.28 25.6801 104.28 24.7201C104.28 23.7601 104.4 23.7201 104.76 23.5801C109.881 21.4206 114.717 18.6397 119.16 15.3001C119.296 15.1891 119.465 15.1258 119.64 15.1201C120.06 15.1201 121.2 15.6001 121.2 16.0201C121.2 17.0201 120.96 21.8401 120.96 25.7401C122.76 19.9201 126.12 15.4801 129.78 15.4801C133.44 15.4801 135 18.1801 135 21.4801C135 27.1801 131.7 30.0001 128.88 30.0001C127.673 29.9486 126.515 29.5064 125.58 28.7401C124.604 27.918 123.421 27.3786 122.16 27.1801C121.888 27.1605 121.616 27.2232 121.38 27.3601V42.8401C121.38 43.4401 121.5 43.5601 122.1 43.6201L125.94 44.0401C126.3 44.1001 126.42 44.2801 126.42 45.3601C126.42 46.4401 126.3 46.6201 125.94 46.6201Z" fill="#313131"/>
<path d="M181.8 46.62C180.42 46.62 175.56 46.2 169.98 46.2C164.98 46.2 160.08 46.62 158.7 46.62C158.34 46.62 158.22 46.44 158.22 45.36C158.22 44.28 158.34 44.1 158.7 44.04L160.7 43.74C161.3 43.62 161.24 43.38 160.82 42.84L154 33.12V42.78C154 43.38 154.12 43.5 154.72 43.62L156.46 44.04C156.82 44.1 156.94 44.28 156.94 45.36C156.94 46.44 156.82 46.62 156.46 46.62C155.08 46.62 151.46 46.2 147.1 46.2C142.74 46.2 138.76 46.62 137.38 46.62C137.02 46.62 136.9 46.44 136.9 45.36C136.9 44.28 137.02 44.1 137.38 44.04L139.38 43.62C139.98 43.5 140.1 43.38 140.1 42.78V11.88C140.1 11.28 139.98 11.22 139.38 11.1L137.38 10.74C137.02 10.68 136.9 10.56 136.9 9.6C136.9 8.64 137.02 8.6 137.38 8.46C142.697 6.26529 147.754 3.48836 152.46 0.18C152.596 0.0689725 152.764 0.00572379 152.94 0C153.36 0 154.5 0.48 154.5 0.9C154.5 1.9 154.02 6 154.02 13.38V30.48L158.46 27C166.8 20.46 166.92 19.86 165.72 19.5L161.58 18.36C161.22 18.24 161.1 18.12 161.1 17.04C161.1 15.96 161.22 15.78 161.58 15.78C162.96 15.78 167.88 16.2 171.06 16.2C174.24 16.2 179.06 15.78 180.42 15.78C180.78 15.78 180.9 15.96 180.9 17.04C180.9 18.12 180.78 18.24 180.42 18.36L175.74 19.74C174.54 20.1 172.98 20.82 165 26.88L164.82 27.06L178.56 42.84C178.715 43.0719 178.919 43.2671 179.157 43.4122C179.396 43.5573 179.663 43.6487 179.94 43.68L181.8 44.04C182.16 44.1 182.28 44.28 182.28 45.36C182.28 46.44 182.16 46.62 181.8 46.62Z" fill="#313131"/>
<path d="M197.94 47.1605C189 47.1605 182.1 41.0405 182.1 31.5605C182.1 21.9005 189.36 15.4805 200.04 15.4805C208.98 15.4805 213.84 19.8005 213.84 25.5605C213.865 26.0834 213.824 26.6074 213.72 27.1205C213.675 27.2557 213.585 27.3712 213.465 27.4477C213.344 27.5242 213.201 27.557 213.06 27.5405C208.32 27.7805 201.48 27.9005 195.78 27.7205C196.58 30.5298 198.017 33.1168 199.98 35.2805C202.26 37.5605 203.88 38.1605 206.04 38.1605C208.227 38.1345 210.317 37.2512 211.86 35.7005C212.4 35.2205 213.86 36.3605 213.66 36.9605C211.2 43.0805 204.42 47.1605 197.94 47.1605ZM195.42 26.4005L197.34 26.1605C200.1 25.8605 201.34 23.8805 201.34 20.8205C201.34 18.5405 200.34 17.3405 198.7 17.3405C196.84 17.3405 194.98 19.0205 194.98 22.6205C195.011 23.8913 195.158 25.1565 195.42 26.4005V26.4005Z" fill="#313131"/>
<path d="M229.2 47.16C222.9 47.16 219.6 43.16 219.6 36.66V20.22C219.6 19.62 219.54 19.56 218.88 19.44L216.72 19.14C216.3 19.08 216.24 18.96 216.24 17.94C216.24 16.92 216.36 16.68 216.72 16.62C223.02 15.12 226.44 13.02 230.34 8.93996C230.7 8.57996 230.76 8.45996 231.72 8.45996C232.68 8.45996 232.86 8.51996 232.92 8.93996C233.2 11.2635 233.361 13.5999 233.4 15.94C235.14 15.94 238.2 15.88 240.18 15.88C240.78 15.88 241.02 16.18 241.02 17.8C241.02 19.42 240.78 19.6 240.18 19.6C238.08 19.6 235.5 19.6 233.46 19.54V31.44C233.46 37.02 234.96 38.44 237.54 38.44C238.042 38.349 238.532 38.2014 239 38C239.66 38 240.68 39 240.44 39.56C239.516 41.7879 237.959 43.6957 235.96 45.0467C233.962 46.3977 231.612 47.1325 229.2 47.16Z" fill="#313131"/>
<path d="M262.68 59.7001C261.3 59.7001 257.4 59.2801 253.02 59.2801C248.64 59.2801 244.68 59.7001 243.3 59.7001C242.94 59.7001 242.82 59.5201 242.82 58.4401C242.82 57.3601 242.94 57.1801 243.3 57.1201L245.3 56.7001C245.9 56.5801 246.02 56.4601 246.02 55.8601V27.0001C246.02 26.4001 245.9 26.3401 245.3 26.2201L243.3 25.8601C242.94 25.8001 242.82 25.6801 242.82 24.7201C242.82 23.7601 242.94 23.7201 243.3 23.5801C248.421 21.4206 253.257 18.6397 257.7 15.3001C257.836 15.1891 258.005 15.1258 258.18 15.1201C258.6 15.1201 259.74 15.6001 259.74 16.0201C259.74 17.0201 259.5 18.5401 259.5 22.2601C261.5 17.5201 265.2 15.4801 269.34 15.4801C275.58 15.4801 281.82 20.4801 281.82 30.4801C281.82 40.9201 275.7 46.9201 265.82 46.9201C263.837 46.9474 261.858 46.7052 259.94 46.2001V55.8601C259.94 56.4601 260.06 56.5801 260.66 56.7001L262.66 57.1201C263.02 57.1801 263.14 57.3001 263.14 58.4401C263.14 59.5801 263 59.7001 262.68 59.7001ZM266.46 45.0001C267.72 45.0001 268.56 43.8601 268.56 41.7001C268.56 35.8201 265.32 26.7601 262.08 23.5201C261.907 23.3025 261.688 23.1253 261.44 23.001C261.191 22.8766 260.918 22.8081 260.64 22.8001C260.38 22.7963 260.126 22.8809 259.92 23.0401V30.7801C259.92 36.4801 262.32 42.0001 264.36 44.0401C264.619 44.3439 264.941 44.5872 265.304 44.7531C265.666 44.9189 266.061 45.0033 266.46 45.0001V45.0001Z" fill="#313131"/>
<path d="M285.48 45.36C285.48 44.28 285.6 44.1 285.96 44.04L287.96 43.62C288.56 43.5 288.68 43.38 288.68 42.78V11.88C288.68 11.28 288.56 11.22 287.96 11.1L285.96 10.74C285.6 10.68 285.48 10.56 285.48 9.6C285.48 8.64 285.6 8.6 285.96 8.46C291.263 6.26264 296.307 3.48578 301 0.18C301.141 0.0647801 301.318 0.00127458 301.5 0C301.92 0 303.06 0.48 303.06 0.9C303.06 1.9 302.58 6 302.58 13.38V42.78C302.58 43.38 302.7 43.5 303.3 43.62L305.3 44.04C305.66 44.1 305.78 44.28 305.78 45.36C305.78 46.44 305.66 46.62 305.3 46.62C303.92 46.62 300.02 46.2 295.64 46.2C291.26 46.2 287.3 46.62 285.92 46.62C285.6 46.62 285.48 46.44 285.48 45.36Z" fill="#313131"/>
<path d="M326.22 39.5405C324.3 44.3405 320.64 47.1605 316.22 47.1605C311.6 47.1605 308.42 43.4405 308.42 38.7605C308.42 35.1005 309.56 33.0005 312.68 31.3205C315.5 29.8205 320 28.5005 325.68 27.2405V25.3205C325.68 21.0005 324.36 18.3205 322.08 18.3205C321.48 18.3205 321.24 18.5005 321.08 19.3205L320.66 22.2005C320.06 26.5205 317.54 28.5605 314.18 28.5605C313.721 28.5956 313.261 28.5341 312.827 28.3801C312.394 28.2261 311.998 27.9829 311.664 27.6663C311.331 27.3497 311.067 26.9667 310.891 26.542C310.714 26.1172 310.629 25.6602 310.64 25.2005C310.64 21.3605 318.08 15.4805 327.26 15.4805C335.42 15.4805 339.26 18.7205 339.26 24.5405V35.5405C339.26 40.3405 340.26 40.4605 341.84 39.3805C342.02 39.2605 342.08 39.2005 342.2 39.2005C342.74 39.2005 343.64 40.5205 343.64 40.8805C343.64 41.2405 343.4 41.4205 343.04 41.7805L342.8 42.0205C339.2 45.6205 336.62 47.1205 333.68 47.1205C330.24 47.1605 327.72 44.7605 326.22 39.5405ZM325.74 38.6405V34.3805C325.746 33.8208 325.638 33.2658 325.421 32.7498C325.204 32.2338 324.884 31.7677 324.48 31.3805C323.866 30.7273 323.033 30.3218 322.14 30.2405C320.94 30.2405 320.4 30.9605 320.4 32.7605C320.4 36.1205 322.68 39.0605 324.66 39.0605C324.86 39.0716 325.059 39.0399 325.246 38.9675C325.432 38.895 325.6 38.7835 325.74 38.6405V38.6405Z" fill="#313131"/>
<path d="M361.38 47.1605C352.44 47.1605 345.96 40.9205 345.96 31.5605C345.96 21.9605 353.82 15.4805 364.44 15.4805C372.06 15.4805 376.32 19.4805 376.32 23.4805C376.318 24.0545 376.197 24.6218 375.965 25.1469C375.733 25.6721 375.396 26.1438 374.973 26.5324C374.551 26.921 374.053 27.2182 373.51 27.4055C372.968 27.5927 372.392 27.6659 371.82 27.6205C369.12 27.6205 367.14 25.9405 365.4 22.6205C363.18 18.4205 362.34 17.7005 361.02 17.7005C359.7 17.7005 358.86 18.6005 358.86 20.8805C358.86 26.1005 361.56 33.1205 365.16 36.7205C366.96 38.5205 368.16 39.0605 370.08 39.0605C371.771 39.0216 373.382 38.3342 374.58 37.1405C375.12 36.7205 376.58 37.8005 376.38 38.4005C374.52 42.9005 368.82 47.1605 361.38 47.1605Z" fill="#313131"/>
<path d="M396.36 47.1605C387.42 47.1605 380.52 41.0405 380.52 31.5605C380.52 21.9005 387.78 15.4805 398.46 15.4805C407.4 15.4805 412.26 19.8005 412.26 25.5605C412.285 26.0834 412.244 26.6074 412.14 27.1205C412.095 27.2557 412.005 27.3712 411.885 27.4477C411.764 27.5242 411.622 27.557 411.48 27.5405C406.74 27.7805 399.9 27.9005 394.2 27.7205C395 30.5298 396.437 33.1168 398.4 35.2805C400.68 37.5605 402.3 38.1605 404.46 38.1605C406.647 38.1345 408.737 37.2512 410.28 35.7005C410.82 35.2205 412.28 36.3605 412.08 36.9605C409.62 43.0805 402.84 47.1605 396.36 47.1605ZM393.84 26.4005L395.76 26.1605C398.52 25.8605 399.76 23.8805 399.76 20.8205C399.76 18.5405 398.76 17.3405 397.12 17.3405C395.26 17.3405 393.4 19.0205 393.4 22.6205C393.431 23.8913 393.578 25.1565 393.84 26.4005V26.4005Z" fill="#313131"/>
</g>
<defs>
<clipPath id="clip0">
<rect width="412.26" height="59.7" fill="white"/>
</clipPath>
</defs>
</svg>
