<svg width="185" height="26" viewBox="0 0 185 26" fill="none" xmlns="http://www.w3.org/2000/svg">
<g clip-path="url(#clip0)">
<path d="M12.5649 20.3296H12.4572C11.9187 20.3296 11.7033 20.3034 11.461 19.7547L5.46573 5.85318L5.38495 14.7637C5.35803 18.422 5.4388 18.5265 6.21962 18.7617L7.67356 19.1972C7.8351 19.2495 7.88895 19.3018 7.88895 19.7721C7.88895 20.2425 7.8351 20.3209 7.67356 20.3209C7.05429 20.3209 5.49265 20.1379 3.74254 20.1379C1.99243 20.1379 0.834667 20.3209 0.215398 20.3209C0.0538495 20.3209 0 20.2425 0 19.7721C0 19.3018 0.0538495 19.2321 0.215398 19.1624L1.40009 18.7269C2.20783 18.4394 2.26168 18.3872 2.7194 14.7289L4.11949 3.55369C4.22719 2.76977 3.87716 2.56072 3.06942 2.43007L1.88473 2.24715C1.72318 2.22102 1.66933 2.14263 1.66933 1.67228C1.66933 1.20193 1.72318 1.12354 1.88473 1.12354C2.24373 1.12354 5.70805 1.30645 7.40431 1.30645C8.56207 1.30645 9.64804 1.25419 10.4468 1.25419C10.7161 1.25419 10.7968 1.30645 10.8956 1.56776L15.1497 11.9416L19.0358 1.56776C19.1435 1.30645 19.1974 1.25419 19.4845 1.25419C20.1038 1.25419 21.5308 1.30645 22.9578 1.30645C24.9233 1.30645 27.0773 1.12354 27.6966 1.12354C27.8581 1.12354 27.912 1.20193 27.912 1.67228C27.912 2.14263 27.8222 2.22102 27.6786 2.24715L26.476 2.43007C26.2068 2.48233 26.126 2.53459 26.1529 2.7959L27.2299 18.6311C27.2568 18.8924 27.2838 18.9446 27.553 18.9969L28.7377 19.1798C28.8992 19.2059 28.9531 19.2843 28.9531 19.7547C28.9531 20.225 28.8992 20.3034 28.7377 20.3034C28.1184 20.3034 25.9914 20.1205 23.7566 20.1205C21.5219 20.1205 19.3679 20.3034 18.7486 20.3034C18.5871 20.3034 18.5332 20.225 18.5332 19.7547C18.5332 19.2843 18.5871 19.2059 18.7486 19.1798L19.9333 18.9969C20.2025 18.9446 20.2833 18.8924 20.2564 18.6311L19.4127 6.0361L13.4355 19.7547C13.1931 20.2773 13.1124 20.3296 12.5649 20.3296Z" fill="black"/>
<path d="M38.233 17.2198C37.3714 19.3103 35.729 20.5384 33.7456 20.5384C31.6724 20.5384 30.2454 18.9183 30.2454 16.8801C30.2454 15.2862 30.7569 14.3716 32.157 13.6399C33.4225 12.9867 35.4418 12.4118 37.9907 11.8631V11.0269C37.9907 9.14547 37.3984 7.97831 36.3752 7.97831C36.106 7.97831 35.9983 8.0567 35.9265 8.41382L35.738 9.66809C35.4688 11.5495 34.3379 12.4379 32.8301 12.4379C32.6244 12.4532 32.4176 12.4265 32.2231 12.3594C32.0286 12.2923 31.8508 12.1864 31.7011 12.0485C31.5515 11.9106 31.4332 11.7438 31.3541 11.5589C31.2749 11.3739 31.2366 11.1749 31.2416 10.9746C31.2416 9.30226 34.5802 6.74146 38.6997 6.74146C42.3615 6.74146 44.0847 8.15251 44.0847 10.6872V15.4778C44.0847 17.5683 44.5334 17.6205 45.2424 17.1502C45.3232 17.0979 45.3501 17.0718 45.404 17.0718C45.6463 17.0718 46.0502 17.6466 46.0502 17.8034C46.0502 17.9602 45.9425 18.0386 45.7809 18.1954L45.6732 18.2999C44.0578 19.8678 42.9 20.521 41.5807 20.521C40.037 20.5384 38.9062 19.4932 38.233 17.2198ZM38.0176 16.8279V14.9726C38.0205 14.7289 37.9718 14.4872 37.8746 14.2624C37.7773 14.0377 37.6336 13.8347 37.4522 13.6661C37.1765 13.3816 36.8029 13.205 36.4022 13.1696C35.8637 13.1696 35.6213 13.4832 35.6213 14.2671C35.6213 15.7304 36.6445 17.0108 37.533 17.0108C37.6225 17.0157 37.7121 17.0018 37.7957 16.9703C37.8793 16.9387 37.955 16.8902 38.0176 16.8279V16.8279Z" fill="black"/>
<path d="M56.5148 20.3036C55.8955 20.3036 54.1454 20.1206 51.3721 20.1206C49.4066 20.1206 47.6296 20.3036 47.0103 20.3036C46.8488 20.3036 46.7949 20.2513 46.7949 19.7548C46.7949 19.2583 46.8488 19.2061 47.0103 19.1799L47.9078 18.997C48.1771 18.9448 48.2309 18.9186 48.2309 18.6573V11.7588C48.2309 11.4975 48.1771 11.4714 47.9078 11.4191L47.0103 11.2623C46.8488 11.2362 46.7949 11.184 46.7949 10.7659C46.7949 10.3478 46.8488 10.3304 47.0103 10.2694C49.3084 9.32888 51.4787 8.11779 53.4723 6.66335C53.5333 6.615 53.6089 6.58745 53.6877 6.58496C53.8761 6.58496 54.3877 6.79401 54.3877 6.97692C54.3877 7.41243 54.28 9.51159 54.28 11.2101C55.0877 8.67541 56.5955 6.74174 58.2379 6.74174C59.8804 6.74174 60.5804 7.91762 60.5804 9.35481C60.5804 11.8372 59.0995 13.0654 57.8341 13.0654C57.2923 13.0429 56.7726 12.8503 56.3532 12.5166C55.915 12.1586 55.3843 11.9237 54.8185 11.8372C54.6964 11.8287 54.5744 11.856 54.4685 11.9156V18.6573C54.4685 18.9186 54.5223 18.9709 54.7916 18.997L56.5148 19.1799C56.6763 19.2061 56.7302 19.2845 56.7302 19.7548C56.7302 20.2252 56.6763 20.3036 56.5148 20.3036Z" fill="black"/>
<path d="M81.5818 20.3035C80.9625 20.3035 78.7816 20.1206 76.2776 20.1206C74.0339 20.1206 71.835 20.3035 71.2158 20.3035C71.0542 20.3035 71.0004 20.2251 71.0004 19.7548C71.0004 19.2844 71.0542 19.206 71.2158 19.1799L72.1133 19.0492C72.3825 18.997 72.3556 18.8925 72.1671 18.6573L69.1067 14.4241V18.6312C69.1067 18.8925 69.1605 18.9447 69.4298 18.997L70.2106 19.1799C70.3721 19.206 70.426 19.2844 70.426 19.7548C70.426 20.2251 70.3721 20.3035 70.2106 20.3035C69.5913 20.3035 67.9669 20.1206 66.0103 20.1206C64.0538 20.1206 62.2678 20.3035 61.6485 20.3035C61.487 20.3035 61.4331 20.2251 61.4331 19.7548C61.4331 19.2844 61.487 19.206 61.6485 19.1799L62.546 18.997C62.8152 18.9447 62.8691 18.8925 62.8691 18.6312V5.17387C62.8691 4.91256 62.8152 4.88643 62.546 4.83417L61.6485 4.67739C61.487 4.65126 61.4331 4.599 61.4331 4.1809C61.4331 3.76281 61.487 3.74539 61.6485 3.68442C64.0345 2.7286 66.304 1.51922 68.4156 0.078392C68.4766 0.0300383 68.5523 0.00249277 68.631 0C68.8195 0 69.331 0.209045 69.331 0.39196C69.331 0.827471 69.1156 2.61307 69.1156 5.82714V13.2744L71.1081 11.7588C74.8506 8.91055 74.9045 8.64925 74.366 8.49246L72.5082 7.99598C72.3466 7.94372 72.2928 7.89146 72.2928 7.42111C72.2928 6.95075 72.3466 6.87236 72.5082 6.87236C73.1274 6.87236 75.3353 7.05528 76.7623 7.05528C78.1893 7.05528 80.3522 6.87236 80.9625 6.87236C81.1241 6.87236 81.1779 6.95075 81.1779 7.42111C81.1779 7.89146 81.1241 7.94372 80.9625 7.99598L78.8624 8.59699C78.3239 8.75377 77.6239 9.06734 74.0429 11.7065L73.9621 11.7849L80.1279 18.6573C80.1975 18.7583 80.289 18.8433 80.3959 18.9065C80.5029 18.9697 80.6227 19.0095 80.7471 19.0231L81.5818 19.1799C81.7434 19.206 81.7972 19.2844 81.7972 19.7548C81.7972 20.2251 81.7434 20.3035 81.5818 20.3035Z" fill="black"/>
<path d="M88.8249 20.5384C84.8131 20.5384 81.7168 17.8731 81.7168 13.7445C81.7168 9.53743 84.9747 6.74146 89.7673 6.74146C93.7791 6.74146 95.96 8.62286 95.96 11.1314C95.971 11.3592 95.9529 11.5874 95.9061 11.8108C95.8859 11.8697 95.8455 11.92 95.7915 11.9533C95.7376 11.9866 95.6735 12.0009 95.61 11.9937C93.4829 12.0982 90.4135 12.1505 87.8556 12.0721C88.2147 13.2956 88.8597 14.4223 89.7404 15.3646C90.7635 16.3575 91.4905 16.6188 92.4598 16.6188C93.4413 16.6075 94.3791 16.2228 95.0715 15.5475C95.3138 15.3384 95.969 15.8349 95.8792 16.0962C94.7753 18.7616 91.7328 20.5384 88.8249 20.5384ZM87.6941 11.4972L88.5557 11.3927C89.7942 11.2621 90.3507 10.3997 90.3507 9.06708C90.3507 8.07412 89.9019 7.55151 89.166 7.55151C88.3313 7.55151 87.4966 8.28316 87.4966 9.851C87.5106 10.4044 87.5766 10.9555 87.6941 11.4972V11.4972Z" fill="black"/>
<path d="M102.852 20.5388C100.025 20.5388 98.5444 18.7968 98.5444 15.966V8.80618C98.5444 8.54487 98.5175 8.51874 98.2213 8.46648L97.252 8.33583C97.0635 8.3097 97.0366 8.25744 97.0366 7.81321C97.0366 7.36899 97.0905 7.26447 97.252 7.23834C100.079 6.58507 101.614 5.6705 103.364 3.89362C103.525 3.73683 103.552 3.68457 103.983 3.68457C104.414 3.68457 104.495 3.7107 104.522 3.89362C104.648 4.90553 104.719 5.92308 104.737 6.94219C105.518 6.94219 106.891 6.91606 107.78 6.91606C108.049 6.91606 108.157 7.04671 108.157 7.75224C108.157 8.45777 108.049 8.53616 107.78 8.53616C106.837 8.53616 105.679 8.53616 104.764 8.51003V13.6926C104.764 16.1228 105.437 16.7412 106.595 16.7412C106.82 16.7016 107.04 16.6373 107.25 16.5496C107.546 16.5496 108.004 16.9851 107.896 17.229C107.482 18.1993 106.783 19.0301 105.886 19.6185C104.989 20.2069 103.935 20.5269 102.852 20.5388Z" fill="black"/>
<path d="M117.876 26C117.257 26 115.507 25.8171 113.542 25.8171C111.576 25.8171 109.799 26 109.18 26C109.018 26 108.964 25.9216 108.964 25.4513C108.964 24.9809 109.018 24.9025 109.18 24.8764L110.077 24.6935C110.346 24.6412 110.4 24.589 110.4 24.3277V11.7588C110.4 11.4975 110.346 11.4714 110.077 11.4191L109.18 11.2623C109.018 11.2362 108.964 11.184 108.964 10.7659C108.964 10.3478 109.018 10.3304 109.18 10.2694C111.478 9.32888 113.648 8.11779 115.642 6.66335C115.703 6.615 115.778 6.58745 115.857 6.58496C116.046 6.58496 116.557 6.79401 116.557 6.97692C116.557 7.41243 116.449 8.07441 116.449 9.69451C117.347 7.63019 119.007 6.74174 120.865 6.74174C123.665 6.74174 126.465 8.9193 126.465 13.2744C126.465 17.8211 123.719 20.4342 119.286 20.4342C118.395 20.4461 117.508 20.3406 116.647 20.1206V24.3277C116.647 24.589 116.701 24.6412 116.97 24.6935L117.867 24.8764C118.029 24.9025 118.083 24.9548 118.083 25.4513C118.083 25.9478 118.02 26 117.876 26ZM119.573 19.598C120.138 19.598 120.515 19.1015 120.515 18.1608C120.515 15.6 119.061 11.6543 117.607 10.2433C117.529 10.1485 117.431 10.0713 117.32 10.0172C117.208 9.963 117.086 9.93315 116.961 9.92968C116.844 9.92804 116.73 9.96489 116.638 10.0342V13.4051C116.638 15.8875 117.715 18.2915 118.63 19.1799C118.746 19.3122 118.891 19.4182 119.054 19.4904C119.217 19.5627 119.394 19.5994 119.573 19.598V19.598Z" fill="black"/>
<path d="M128.107 19.7548C128.107 19.2844 128.161 19.206 128.323 19.1799L129.22 18.997C129.49 18.9447 129.543 18.8925 129.543 18.6312V5.17387C129.543 4.91256 129.49 4.88643 129.22 4.83417L128.323 4.67739C128.161 4.65126 128.107 4.599 128.107 4.1809C128.107 3.76281 128.161 3.74539 128.323 3.68442C130.703 2.72745 132.966 1.51809 135.072 0.078392C135.135 0.0282125 135.215 0.000555095 135.296 0C135.485 0 135.996 0.209045 135.996 0.39196C135.996 0.827471 135.781 2.61307 135.781 5.82714V18.6312C135.781 18.8925 135.835 18.9447 136.104 18.997L137.002 19.1799C137.163 19.206 137.217 19.2844 137.217 19.7548C137.217 20.2251 137.163 20.3035 137.002 20.3035C136.382 20.3035 134.632 20.1206 132.667 20.1206C130.701 20.1206 128.924 20.3035 128.305 20.3035C128.161 20.3035 128.107 20.2251 128.107 19.7548Z" fill="black"/>
<path d="M146.39 17.2198C145.528 19.3103 143.886 20.5384 141.903 20.5384C139.829 20.5384 138.402 18.9183 138.402 16.8801C138.402 15.2862 138.914 14.3716 140.314 13.6399C141.579 12.9867 143.599 12.4118 146.148 11.8631V11.0269C146.148 9.14547 145.555 7.97831 144.532 7.97831C144.263 7.97831 144.155 8.0567 144.083 8.41382L143.895 9.66809C143.626 11.5495 142.495 12.4379 140.987 12.4379C140.781 12.4532 140.575 12.4265 140.38 12.3594C140.186 12.2923 140.008 12.1864 139.858 12.0485C139.708 11.9106 139.59 11.7438 139.511 11.5589C139.432 11.3739 139.394 11.1749 139.399 10.9746C139.399 9.30226 142.737 6.74146 146.857 6.74146C150.518 6.74146 152.242 8.15251 152.242 10.6872V15.4778C152.242 17.5683 152.69 17.6205 153.399 17.1502C153.48 17.0979 153.507 17.0718 153.561 17.0718C153.803 17.0718 154.207 17.6466 154.207 17.8034C154.207 17.9602 154.099 18.0386 153.938 18.1954L153.83 18.2999C152.215 19.8678 151.057 20.521 149.738 20.521C148.194 20.5384 147.063 19.4932 146.39 17.2198ZM146.175 16.8279V14.9726C146.177 14.7289 146.129 14.4872 146.032 14.2624C145.934 14.0377 145.791 13.8347 145.609 13.6661C145.333 13.3816 144.96 13.205 144.559 13.1696C144.021 13.1696 143.778 13.4832 143.778 14.2671C143.778 15.7304 144.801 17.0108 145.69 17.0108C145.78 17.0157 145.869 17.0018 145.953 16.9703C146.036 16.9387 146.112 16.8902 146.175 16.8279V16.8279Z" fill="black"/>
<path d="M162.168 20.5384C158.156 20.5384 155.248 17.8209 155.248 13.7445C155.248 9.56357 158.775 6.74146 163.541 6.74146C166.961 6.74146 168.872 8.4835 168.872 10.2255C168.871 10.4755 168.817 10.7226 168.713 10.9513C168.609 11.18 168.458 11.3854 168.268 11.5547C168.078 11.7239 167.855 11.8534 167.611 11.9349C167.368 12.0165 167.11 12.0483 166.853 12.0286C165.641 12.0286 164.753 11.2969 163.972 9.851C162.976 8.02186 162.599 7.70829 162.006 7.70829C161.414 7.70829 161.037 8.10025 161.037 9.09321C161.037 11.3666 162.249 14.4239 163.864 15.9917C164.672 16.7756 165.21 17.0108 166.072 17.0108C166.831 16.9939 167.554 16.6945 168.091 16.1746C168.334 15.9917 168.989 16.4621 168.899 16.7234C168.065 18.6832 165.507 20.5384 162.168 20.5384Z" fill="black"/>
<path d="M177.865 20.5384C173.853 20.5384 170.757 17.8731 170.757 13.7445C170.757 9.53743 174.015 6.74146 178.807 6.74146C182.819 6.74146 185 8.62286 185 11.1314C185.011 11.3592 184.993 11.5874 184.946 11.8108C184.926 11.8697 184.886 11.92 184.832 11.9533C184.778 11.9866 184.714 12.0009 184.65 11.9937C182.523 12.0982 179.454 12.1505 176.896 12.0721C177.255 13.2956 177.9 14.4223 178.78 15.3646C179.804 16.3575 180.531 16.6188 181.5 16.6188C182.481 16.6075 183.419 16.2228 184.112 15.5475C184.354 15.3384 185.009 15.8349 184.919 16.0962C183.815 18.7616 180.773 20.5384 177.865 20.5384ZM176.734 11.4972L177.596 11.3927C178.834 11.2621 179.391 10.3997 179.391 9.06708C179.391 8.07412 178.942 7.55151 178.206 7.55151C177.371 7.55151 176.537 8.28316 176.537 9.851C176.551 10.4044 176.617 10.9555 176.734 11.4972V11.4972Z" fill="black"/>
</g>
<defs>
<clipPath id="clip0">
<rect width="185" height="26" fill="white"/>
</clipPath>
</defs>
</svg>
