<svg width="342" height="43" viewBox="0 0 342 43" fill="none" xmlns="http://www.w3.org/2000/svg">
<path d="M0 0.820164H15.8805C23.9706 0.820164 29.7235 5.27248 29.7235 13.2984C29.7235 19.2153 26.3676 23.0817 21.6334 24.8392L30.6823 42.0627H21.2139L13.4834 25.8937H8.44962V42.0627H0V0.820164ZM14.8018 19.0981C18.5173 19.0981 21.0941 17.2234 21.0941 13.5327C21.0941 10.1349 18.8169 8.08447 14.8018 8.08447H8.3897V19.0395H14.8018V19.0981ZM34.5775 28.2956C34.5775 20.0354 39.7312 13.2398 49.1396 13.2398C56.5705 13.2398 63.2224 17.6921 63.2224 29.233V30.2875H42.6676C42.7875 34.3883 45.3044 36.7316 49.2595 36.7316C52.2558 36.7316 54.0536 35.5599 54.6529 33.5681H62.7429C61.904 37.5518 58.0687 42.7657 49.2595 42.7657C39.8511 42.7657 34.5775 36.7316 34.5775 28.2956ZM55.1922 25.0736C55.1922 21.4414 52.6753 19.0395 49.1396 19.0395C45.4242 19.0395 42.9672 21.3828 42.6077 25.0736H55.1922ZM72.3911 20.5041H67.9565V13.8842H72.3911V9.78338C72.3911 4.21798 76.1065 0.820164 81.5598 0.820164H86.7135V7.55722H83.3576C81.44 7.55722 80.3613 8.61172 80.3613 10.4864V13.8842H86.6536V20.5041H80.3613V42.0627H72.3911V20.5041ZM91.5675 28.0613C91.5675 19.0981 97.8598 13.0055 106.489 13.0055C115.418 13.0055 121.291 18.9223 121.291 28.0613C121.291 36.673 115.478 43 106.369 43C96.9609 43 91.5675 36.2629 91.5675 28.0613ZM113.141 28.0613C113.141 22.906 110.744 19.6839 106.489 19.6839C102.534 19.6839 99.7175 22.6131 99.7175 28.0613C99.7175 33.2166 102.115 36.4387 106.489 36.4387C111.104 36.3801 113.141 32.8651 113.141 28.0613ZM128.542 13.8842H136.632V19.9183C137.711 16.0518 140.707 13.6499 144.602 13.6499H147.599V21.6758H143.524C139.329 21.6758 136.752 24.1362 136.752 28.6471V42.0627H128.542V13.8842ZM154.85 13.8842H162.58V17.985C164.138 14.8215 166.955 13.1812 171.15 13.1812C175.345 13.1812 177.802 15.4074 178.76 18.3365C179.959 15.6417 183.075 13.1812 187.45 13.1812C193.742 13.1812 196.619 17.6335 196.619 21.6758V42.0627H188.409V23.6676C188.409 22.1444 187.33 19.8011 184.334 19.8011C181.457 19.8011 179.779 21.7929 179.779 24.8392V42.0627H171.809V23.6676C171.809 21.2071 169.831 19.6839 167.614 19.6839C165.217 19.6839 162.94 20.8556 162.94 25.0736V42.0627H154.97V13.8842H154.85ZM203.989 34.3883C203.989 28.5886 208.184 25.4251 214.716 25.4251H222.447V23.5504C222.447 20.5041 220.529 18.9809 217.653 18.9809C214.896 18.9809 212.978 20.5041 212.859 23.0817H205.248C205.847 16.4619 211.061 13.1812 218.132 13.1812C225.982 13.1812 230.417 17.282 230.417 24.0191V42.0627H222.447V37.9619C221.248 40.5395 218.851 42.7657 213.997 42.7657C210.162 42.7657 203.989 40.891 203.989 34.3883ZM222.447 31.4591V30.1703H217.173C214.177 30.1703 212.259 31.2248 212.259 33.6853C212.259 35.9114 214.297 37.0831 216.814 37.0831C220.11 37.0831 222.447 35.0913 222.447 31.4591ZM240.724 33.5681V20.5041H236.17V13.8842H240.724V5.79973H248.695V13.8842H255.346V20.5041H248.695V32.2793C248.695 34.0368 249.653 34.9741 251.571 34.9741H255.286V42.0627H249.474C244.26 42.0627 240.724 39.0164 240.724 33.5681ZM262.418 4.80381C262.418 2.16757 264.635 0 267.332 0C270.028 0 272.246 2.16757 272.246 4.80381C272.246 7.44005 270.028 9.60763 267.332 9.60763C264.635 9.66621 262.418 7.49864 262.418 4.80381ZM263.377 13.8842H271.467V42.0627H263.377V13.8842ZM278.957 28.0613C278.957 19.0981 285.25 13.0055 293.879 13.0055C302.808 13.0055 308.681 18.9223 308.681 28.0613C308.681 36.673 302.868 43 293.759 43C284.351 43 278.957 36.2629 278.957 28.0613ZM300.531 28.0613C300.531 22.906 298.134 19.6839 293.879 19.6839C289.924 19.6839 287.107 22.6131 287.107 28.0613C287.107 33.2166 289.504 36.4387 293.879 36.4387C298.433 36.3801 300.531 32.8651 300.531 28.0613ZM315.932 13.8842H323.902V17.7507C325.46 14.9387 328.457 13.1812 332.711 13.1812C338.225 13.1812 342 16.6962 342 23.7847V42.0627H333.79V24.7221C333.79 21.5586 332.112 19.8011 329.236 19.8011C326.479 19.8011 324.202 21.9101 324.202 25.8352V42.1213H315.992V13.8842H315.932Z" fill="#658DA2"/>
</svg>
