<svg width="13" height="18" viewBox="0 0 13 18" fill="none" xmlns="http://www.w3.org/2000/svg">
<path d="M11.375 1.63636H8.125V0H4.875V1.63636H1.625C0.73125 1.63636 0 2.37273 0 3.27273V16.3636C0 17.2636 0.73125 18 1.625 18H11.375C12.2688 18 13 17.2636 13 16.3636V3.27273C13 2.37273 12.2688 1.63636 11.375 1.63636ZM5.6875 0.818182H7.3125V1.63636H5.6875V0.818182ZM12.1875 16.3636C12.1875 16.8545 11.8625 17.1818 11.375 17.1818H1.625C1.1375 17.1818 0.8125 16.8545 0.8125 16.3636V3.27273C0.8125 2.78182 1.1375 2.45455 1.625 2.45455H4.875H8.125H11.375C11.8625 2.45455 12.1875 2.78182 12.1875 3.27273V16.3636ZM7.8 9.32727V9.16364C8.53125 8.67273 9.01875 7.77273 9.01875 6.79091C8.9375 5.31818 7.88125 4.09091 6.5 4.09091C5.11875 4.09091 4.0625 5.31818 4.0625 6.87273C4.0625 7.85455 4.55 8.75455 5.28125 9.24545V9.40909C3.16875 9.65455 1.625 10.5545 1.625 11.7V13.9091H11.375V11.7C11.375 10.5545 9.83125 9.65455 7.8 9.32727ZM10.5625 13.0909H2.4375V11.7C2.4375 11.1273 3.575 10.3909 5.3625 10.1455L6.0125 10.0636L6.175 8.83636L5.6875 8.50909C5.2 8.18182 4.875 7.52727 4.875 6.79091C4.875 5.80909 5.60625 4.90909 6.5 4.90909C7.39375 4.90909 8.125 5.80909 8.125 6.87273C8.125 7.60909 7.8 8.18182 7.3125 8.59091L6.90625 8.83636L7.06875 10.0636L7.71875 10.1455C9.50625 10.3909 10.6438 11.1273 10.6438 11.7V13.0909H10.5625ZM1.625 14.7273H11.375V15.5455H1.625V14.7273Z" fill="black"/>
</svg>
