<svg width="14" height="15" viewBox="0 0 14 15" fill="none" xmlns="http://www.w3.org/2000/svg">
<path d="M5.74194 2.5602C5.74194 1.4972 5.12903 0.496737 4.09677 0.059033C3.87097 -0.0347607 3.64516 0.121562 3.64516 0.340414L3.6129 2.37261L2.96774 2.84158L2.25806 2.34135L2.29032 0.30915C2.29032 0.0902976 2.06452 -0.0660252 1.83871 0.0277685C0.806452 0.434208 0.16129 1.40341 0.129032 2.49767C0.129032 3.46687 0.645161 4.40481 1.51613 4.87378L1.45161 10.095C0.580645 10.5639 0 11.4706 0 12.4398C0 13.5028 0.612903 14.5033 1.64516 14.941C1.83871 15.0348 2.09677 14.8784 2.09677 14.6596L2.12903 12.6274L2.87097 12.1584L3.51613 12.6274L3.45161 14.6908C3.45161 14.9097 3.67742 15.066 3.90323 14.9722C4.93548 14.5345 5.58065 13.5966 5.6129 12.5023C5.6129 11.5331 5.09677 10.5952 4.22581 10.1262L4.29032 4.90504C5.16129 4.43607 5.74194 3.5294 5.74194 2.5602ZM3.74194 10.5952C4.48387 10.9391 4.96774 11.6895 4.96774 12.5023C4.96774 13.1589 4.64516 13.7529 4.09677 14.1594L4.12903 12.5023C4.12903 12.4085 4.09677 12.3147 4 12.2522L3.06452 11.5644C2.96774 11.4706 2.80645 11.4706 2.67742 11.5644L1.6129 12.1897C1.51613 12.2522 1.48387 12.346 1.45161 12.4398L1.41935 14.0968C0.903226 13.6904 0.612903 13.0964 0.612903 12.4398C0.612903 11.6269 1.12903 10.9078 1.87097 10.5639C2 10.5014 2.06452 10.4076 2.06452 10.2825L2.16129 4.68619C2.16129 4.56113 2.09677 4.46734 1.96774 4.40481C1.25806 4.0609 0.774194 3.31055 0.774194 2.49767C0.774194 1.84111 1.09677 1.24709 1.64516 0.840647L1.6129 2.49767C1.6129 2.59146 1.67742 2.68526 1.74194 2.74779L2.77419 3.43561C2.87097 3.49813 3.03226 3.49813 3.16129 3.43561L4.12903 2.74779C4.22581 2.68526 4.25806 2.59146 4.25806 2.49767L4.29032 0.840647C4.80645 1.24709 5.09677 1.84111 5.09677 2.49767C5.09677 3.31055 4.58065 4.02963 3.83871 4.37354C3.70968 4.43607 3.64516 4.52987 3.64516 4.65492L3.58065 10.3138C3.58065 10.4389 3.64516 10.5327 3.74194 10.5952Z" fill="black"/>
<path d="M13.6774 0.997034H11.5806V0.340478C11.5806 0.15289 11.4516 0.027832 11.2581 0.027832H9.06451C8.87096 0.027832 8.74193 0.15289 8.74193 0.340478V1.0283H6.64515C6.4516 1.0283 6.32257 1.15336 6.32257 1.34094V3.4982C6.32257 3.68579 6.4516 3.81084 6.64515 3.81084H8.74193V13.1902C8.74193 13.9406 9.38709 14.5659 10.1613 14.5659C10.9355 14.5659 11.5806 13.9406 11.5806 13.1902V3.81084H13.6774C13.871 3.81084 14 3.68579 14 3.4982V1.30968C14 1.15336 13.871 0.997034 13.6774 0.997034ZM9.38709 0.653123H10.9355V1.0283H9.38709V0.653123V0.653123ZM10.9355 13.1277C10.9355 13.5341 10.5806 13.878 10.1613 13.878C9.74193 13.878 9.38709 13.5341 9.38709 13.1277V3.74832H10.9355V13.1277ZM13.3548 3.15429C11.0645 3.15429 9.29031 3.15429 6.96773 3.15429V1.62232C9.25805 1.62232 11.0322 1.62232 13.3548 1.62232V3.15429Z" fill="black"/>
</svg>
