<svg width="298" height="143" viewBox="0 0 298 143" version="1.1" xmlns="http://www.w3.org/2000/svg" xmlns:xlink="http://www.w3.org/1999/xlink">
<g id="Canvas" fill="none">
<g id="Logo Horizontal">
<g id="Rectangle">
<rect width="91.0565" height="103.645" transform="matrix(0.985197 -0.171426 0.188206 0.98213 14.5991 15.7845)" fill="#FFAD33"/>
</g>
<g id="Rectangle_2">
<rect width="91.192" height="103.476" transform="matrix(0.998012 -0.0630191 0.0630191 0.998012 0 38.965)" fill="#658FFC"/>
</g>
<g id="Rectangle_3">
<path d="M -4.56482e-06 -9.29223e-07L 90.9818 -9.29223e-07L 90.9818 103.738L -4.56482e-06 103.738L -4.56482e-06 -9.29223e-07Z" transform="matrix(0.983517 0.180813 -0.201471 0.979495 66.3319 21.4031)" fill="#FC5900"/>
</g>
<g id="Idea Desk">
<path d="M 2.56 64L 2.56 62.656L 8.448 61.696L 8.448 15.104L 2.56 14.208L 2.56 12.8L 21.376 12.8L 21.376 14.208L 15.488 15.104L 15.488 61.696L 21.376 62.656L 21.376 64L 2.56 64ZM 38.7855 64.64C 35.7562 64.64 33.0895 63.936 30.7855 62.528C 28.4815 61.0773 26.6895 59.072 25.4095 56.512C 24.1295 53.9093 23.4895 50.88 23.4895 47.424C 23.4895 43.968 24.1295 40.96 25.4095 38.4C 26.6895 35.7973 28.4815 33.792 30.7855 32.384C 33.0895 30.976 35.7562 30.272 38.7855 30.272C 41.2602 30.272 43.4148 30.9333 45.2495 32.256C 47.0842 33.536 48.5348 35.3067 49.6015 37.568L 49.6015 14.72L 45.1215 14.08L 45.1215 12.8L 56.0015 12.8L 56.0015 62.08L 60.4815 62.72L 60.4815 64L 49.6015 64L 49.6015 57.344C 48.5348 59.6053 47.0842 61.3973 45.2495 62.72C 43.4148 64 41.2602 64.64 38.7855 64.64ZM 39.4255 63.04C 41.3028 63.04 42.9882 62.5067 44.4815 61.44C 46.0175 60.3307 47.2335 58.88 48.1295 57.088C 49.0682 55.2533 49.5588 53.2693 49.6015 51.136L 49.6015 43.776C 49.5588 41.6427 49.0682 39.68 48.1295 37.888C 47.2335 36.0533 46.0175 34.6027 44.4815 33.536C 42.9882 32.4267 41.3028 31.872 39.4255 31.872C 33.4948 31.872 30.5295 35.9893 30.5295 44.224L 30.5295 50.624C 30.5295 58.9013 33.4948 63.04 39.4255 63.04ZM 78.248 64.64C 75.0907 64.64 72.232 63.936 69.672 62.528C 67.112 61.0773 65.0853 59.0507 63.592 56.448C 62.0987 53.8453 61.352 50.8373 61.352 47.424C 61.352 44.0107 62.0773 41.024 63.528 38.464C 65.0213 35.8613 67.0053 33.856 69.48 32.448C 71.9973 30.9973 74.792 30.272 77.864 30.272C 80.552 30.272 82.9627 30.8693 85.096 32.064C 87.2293 33.2587 88.8933 34.9227 90.088 37.056C 91.2827 39.1467 91.9013 41.5573 91.944 44.288L 68.392 44.288L 68.392 50.624C 68.392 54.3787 69.224 57.4293 70.888 59.776C 72.5947 62.08 75.048 63.232 78.248 63.232C 81.192 63.232 83.7947 62.4 86.056 60.736C 88.3173 59.072 89.704 56.9173 90.216 54.272L 91.688 54.272C 91.0907 57.4293 89.576 59.9467 87.144 61.824C 84.712 63.7013 81.7467 64.64 78.248 64.64ZM 84.904 42.688C 84.904 38.976 84.328 36.224 83.176 34.432C 82.024 32.5973 80.232 31.68 77.8 31.68C 74.9413 31.68 72.7227 32.6827 71.144 34.688C 69.5653 36.6933 68.6693 39.36 68.456 42.688L 84.904 42.688ZM 103.563 64.64C 100.832 64.64 98.5923 63.936 96.843 62.528C 95.0937 61.0773 94.219 58.944 94.219 56.128C 94.219 52.1173 95.9043 49.28 99.275 47.616C 102.646 45.9093 106.55 45.056 110.987 45.056L 115.275 45.056L 115.275 40.128C 115.275 37.9093 115.019 36.2027 114.507 35.008C 114.038 33.7707 113.291 32.9173 112.267 32.448C 111.243 31.936 109.856 31.68 108.107 31.68C 106.102 31.68 104.608 32.0853 103.627 32.896C 102.646 33.664 102.155 34.7093 102.155 36.032C 102.155 37.2693 102.752 38.08 103.947 38.464C 103.947 39.5307 103.542 40.4693 102.731 41.28C 101.92 42.0907 100.96 42.496 99.851 42.496C 98.6563 42.496 97.6963 42.176 96.971 41.536C 96.2457 40.8533 95.883 39.8293 95.883 38.464C 95.883 35.9893 97.1203 34.0053 99.595 32.512C 102.07 31.0187 105.163 30.272 108.875 30.272C 117.408 30.272 121.675 33.984 121.675 41.408L 121.675 59.712C 121.675 60.6507 121.867 61.376 122.251 61.888C 122.678 62.3573 123.275 62.592 124.043 62.592C 124.768 62.592 125.344 62.3573 125.771 61.888C 126.198 61.376 126.411 60.6933 126.411 59.84L 127.755 59.84C 127.755 61.3333 127.264 62.5067 126.283 63.36C 125.344 64.2133 124.022 64.64 122.315 64.64C 120.352 64.64 118.688 64.0853 117.323 62.976C 116 61.824 115.318 60.0533 115.275 57.664C 114.251 59.84 112.672 61.5467 110.539 62.784C 108.448 64.0213 106.123 64.64 103.563 64.64ZM 107.083 61.824C 108.235 61.824 109.408 61.4827 110.603 60.8C 111.84 60.1173 112.886 59.136 113.739 57.856C 114.592 56.5333 115.104 54.9547 115.275 53.12L 115.275 46.464L 110.987 46.464C 107.488 46.464 104.864 47.2533 103.115 48.832C 101.408 50.368 100.555 52.544 100.555 55.36C 100.555 57.7067 101.11 59.3707 102.219 60.352C 103.328 61.3333 104.95 61.824 107.083 61.824Z" transform="translate(13.1157 43.7738)" fill="white"/>
<path d="M 139.06 62.656L 144.948 61.696L 144.948 15.104L 139.06 14.208L 139.06 12.8L 163.572 12.8C 168.265 12.8 172.425 13.8667 176.052 16C 179.721 18.0907 182.58 21.0773 184.628 24.96C 186.676 28.8 187.7 33.28 187.7 38.4C 187.7 43.52 186.676 48.0213 184.628 51.904C 182.58 55.744 179.721 58.7307 176.052 60.864C 172.383 62.9547 168.223 64 163.572 64L 139.06 64L 139.06 62.656ZM 163.572 62.464C 166.687 62.464 169.439 61.7387 171.828 60.288C 174.26 58.8373 176.159 56.6827 177.524 53.824C 178.889 50.9227 179.572 47.424 179.572 43.328L 179.572 33.472C 179.572 29.376 178.889 25.8987 177.524 23.04C 176.159 20.1813 174.26 18.0267 171.828 16.576C 169.439 15.1253 166.687 14.4 163.572 14.4L 151.988 14.4L 151.988 62.464L 163.572 62.464ZM 207.573 64.64C 204.416 64.64 201.557 63.936 198.997 62.528C 196.437 61.0773 194.41 59.0507 192.917 56.448C 191.424 53.8453 190.677 50.8373 190.677 47.424C 190.677 44.0107 191.402 41.024 192.853 38.464C 194.346 35.8613 196.33 33.856 198.805 32.448C 201.322 30.9973 204.117 30.272 207.189 30.272C 209.877 30.272 212.288 30.8693 214.421 32.064C 216.554 33.2587 218.218 34.9227 219.413 37.056C 220.608 39.1467 221.226 41.5573 221.269 44.288L 197.717 44.288L 197.717 50.624C 197.717 54.3787 198.549 57.4293 200.213 59.776C 201.92 62.08 204.373 63.232 207.573 63.232C 210.517 63.232 213.12 62.4 215.381 60.736C 217.642 59.072 219.029 56.9173 219.541 54.272L 221.013 54.272C 220.416 57.4293 218.901 59.9467 216.469 61.824C 214.037 63.7013 211.072 64.64 207.573 64.64ZM 214.229 42.688C 214.229 38.976 213.653 36.224 212.501 34.432C 211.349 32.5973 209.557 31.68 207.125 31.68C 204.266 31.68 202.048 32.6827 200.469 34.688C 198.89 36.6933 197.994 39.36 197.781 42.688L 214.229 42.688ZM 235.96 64.64C 232.461 64.64 229.539 63.8933 227.192 62.4C 224.845 60.9067 223.672 58.9653 223.672 56.576C 223.672 55.3387 223.992 54.3787 224.632 53.696C 225.315 52.9707 226.211 52.608 227.32 52.608C 228.173 52.608 228.899 52.8213 229.496 53.248C 230.093 53.6747 230.52 54.272 230.776 55.04C 229.837 56.064 229.368 57.152 229.368 58.304C 229.368 59.6267 229.965 60.7787 231.16 61.76C 232.355 62.7413 233.955 63.232 235.96 63.232C 238.648 63.232 240.845 62.6347 242.552 61.44C 244.259 60.2027 245.112 58.56 245.112 56.512C 245.112 55.3173 244.749 54.4213 244.024 53.824C 243.299 53.2267 241.891 52.544 239.8 51.776L 230.136 48.256C 226.339 46.8907 224.44 44.352 224.44 40.64C 224.44 37.6107 225.485 35.136 227.576 33.216C 229.667 31.2533 232.547 30.272 236.216 30.272C 239.245 30.272 241.827 30.976 243.96 32.384C 246.136 33.7493 247.224 35.712 247.224 38.272C 247.224 39.296 246.947 40.128 246.392 40.768C 245.837 41.3653 245.112 41.664 244.216 41.664C 243.32 41.664 242.573 41.4293 241.976 40.96C 241.421 40.448 241.144 39.7653 241.144 38.912C 241.699 38.4853 242.083 38.0373 242.296 37.568C 242.509 37.056 242.616 36.4587 242.616 35.776C 242.616 34.5813 242.083 33.6 241.016 32.832C 239.992 32.064 238.392 31.68 236.216 31.68C 234.339 31.68 232.717 31.9787 231.352 32.576C 230.029 33.1307 229.027 33.8773 228.344 34.816C 227.661 35.7547 227.32 36.7147 227.32 37.696C 227.32 38.72 227.683 39.5307 228.408 40.128C 229.176 40.7253 230.563 41.3867 232.568 42.112L 241.528 45.312C 243.619 46.08 245.197 47.1467 246.264 48.512C 247.331 49.8773 247.864 51.648 247.864 53.824C 247.864 56.9387 246.883 59.52 244.92 61.568C 242.957 63.616 239.971 64.64 235.96 64.64ZM 249.117 64L 249.117 62.72L 253.597 62.08L 253.597 14.72L 249.117 14.08L 249.117 12.8L 259.997 12.8L 259.997 45.632L 274.653 33.6L 269.085 32.128L 269.085 30.848L 281.117 30.848L 281.117 32.128L 277.021 33.6L 266.397 42.304L 281.373 62.144L 284.829 62.72L 284.829 64L 269.853 64L 269.853 62.72L 273.693 62.08L 261.661 46.208L 259.997 47.616L 259.997 62.08L 263.837 62.72L 263.837 64L 249.117 64Z" transform="translate(13.1157 43.7738)" fill="black"/>
</g>
</g>
</g>
</svg>

