<svg width="641" height="201" viewBox="0 0 641 201" fill="none" xmlns="http://www.w3.org/2000/svg">
<rect width="160" height="100" transform="translate(320.575 100.636)" fill="#787878"/>
<path d="M8.49902 10.8438L7.83105 14.3418H10.4941V15.0361H7.68164L6.92578 19H6.13477L6.9082 15.0361H3.74414L2.98828 19H2.21484L2.9707 15.0361H0.483398V14.3418H3.11133L3.7793 10.8438H1.16895V10.1406H3.90234L4.6582 6.15039H5.45801L4.67578 10.1406H7.88379L8.65723 6.15039H9.41309L8.63965 10.1406H11.1445V10.8438H8.49902ZM3.86719 14.3418H7.05762L7.74316 10.8438H4.55273L3.86719 14.3418ZM13.6723 19L18.9633 6.99414H11.6947V6.15039H20.0092V6.79199L14.7006 19H13.6723ZM25.2352 5.93066C26.325 5.93066 27.201 6.20898 27.8631 6.76562C28.5311 7.32227 28.865 8.0752 28.865 9.02441C28.865 9.68066 28.657 10.2607 28.241 10.7646C27.8309 11.2686 27.1629 11.7344 26.2371 12.1621C27.3621 12.625 28.1531 13.1318 28.6102 13.6826C29.0672 14.2334 29.2957 14.9014 29.2957 15.6865C29.2957 16.7471 28.9236 17.5938 28.1795 18.2266C27.4412 18.8594 26.448 19.1758 25.2 19.1758C23.9051 19.1758 22.9119 18.8799 22.2205 18.2881C21.5291 17.6963 21.1834 16.835 21.1834 15.7041C21.1834 14.9365 21.4266 14.2627 21.9129 13.6826C22.3992 13.1025 23.1521 12.6074 24.1717 12.1973C23.2283 11.752 22.5633 11.2832 22.1766 10.791C21.7898 10.293 21.5965 9.69824 21.5965 9.00684C21.5965 8.3916 21.7518 7.85254 22.0623 7.38965C22.3729 6.9209 22.8064 6.56055 23.3631 6.30859C23.9256 6.05664 24.5496 5.93066 25.2352 5.93066ZM22.0799 15.8359C22.0799 16.6445 22.3523 17.2715 22.8973 17.7168C23.448 18.1621 24.2156 18.3848 25.2 18.3848C26.1609 18.3848 26.9344 18.1504 27.5203 17.6816C28.1063 17.207 28.3992 16.5654 28.3992 15.7568C28.3992 15.0303 28.1678 14.4414 27.7049 13.9902C27.2479 13.5332 26.3631 13.0557 25.0506 12.5576C23.9725 12.9736 23.2078 13.4336 22.7566 13.9375C22.3055 14.4414 22.0799 15.0742 22.0799 15.8359ZM25.2176 6.72168C24.3914 6.72168 23.7264 6.92676 23.2225 7.33691C22.7244 7.74121 22.4754 8.29785 22.4754 9.00684C22.4754 9.41699 22.5662 9.78027 22.7479 10.0967C22.9354 10.4072 23.202 10.6914 23.5477 10.9492C23.8992 11.2012 24.4852 11.4971 25.3055 11.8369C26.2605 11.4678 26.9461 11.0605 27.3621 10.6152C27.7781 10.1699 27.9861 9.63379 27.9861 9.00684C27.9861 8.30371 27.7371 7.74707 27.2391 7.33691C26.7469 6.92676 26.073 6.72168 25.2176 6.72168ZM32.4387 19L37.7297 6.99414H30.4611V6.15039H38.7756V6.79199L33.467 19H32.4387ZM44.0016 5.93066C45.0914 5.93066 45.9674 6.20898 46.6295 6.76562C47.2975 7.32227 47.6314 8.0752 47.6314 9.02441C47.6314 9.68066 47.4234 10.2607 47.0074 10.7646C46.5973 11.2686 45.9293 11.7344 45.0035 12.1621C46.1285 12.625 46.9195 13.1318 47.3766 13.6826C47.8336 14.2334 48.0621 14.9014 48.0621 15.6865C48.0621 16.7471 47.69 17.5938 46.9459 18.2266C46.2076 18.8594 45.2145 19.1758 43.9664 19.1758C42.6715 19.1758 41.6783 18.8799 40.9869 18.2881C40.2955 17.6963 39.9498 16.835 39.9498 15.7041C39.9498 14.9365 40.193 14.2627 40.6793 13.6826C41.1656 13.1025 41.9186 12.6074 42.9381 12.1973C41.9947 11.752 41.3297 11.2832 40.943 10.791C40.5563 10.293 40.3629 9.69824 40.3629 9.00684C40.3629 8.3916 40.5182 7.85254 40.8287 7.38965C41.1393 6.9209 41.5729 6.56055 42.1295 6.30859C42.692 6.05664 43.316 5.93066 44.0016 5.93066ZM40.8463 15.8359C40.8463 16.6445 41.1188 17.2715 41.6637 17.7168C42.2145 18.1621 42.982 18.3848 43.9664 18.3848C44.9273 18.3848 45.7008 18.1504 46.2867 17.6816C46.8727 17.207 47.1656 16.5654 47.1656 15.7568C47.1656 15.0303 46.9342 14.4414 46.4713 13.9902C46.0143 13.5332 45.1295 13.0557 43.817 12.5576C42.7389 12.9736 41.9742 13.4336 41.523 13.9375C41.0719 14.4414 40.8463 15.0742 40.8463 15.8359ZM43.984 6.72168C43.1578 6.72168 42.4928 6.92676 41.9889 7.33691C41.4908 7.74121 41.2418 8.29785 41.2418 9.00684C41.2418 9.41699 41.3326 9.78027 41.5143 10.0967C41.7018 10.4072 41.9684 10.6914 42.3141 10.9492C42.6656 11.2012 43.2516 11.4971 44.0719 11.8369C45.027 11.4678 45.7125 11.0605 46.1285 10.6152C46.5445 10.1699 46.7525 9.63379 46.7525 9.00684C46.7525 8.30371 46.5035 7.74707 46.0055 7.33691C45.5133 6.92676 44.8395 6.72168 43.984 6.72168ZM51.2051 19L56.4961 6.99414H49.2275V6.15039H57.542V6.79199L52.2334 19H51.2051ZM62.768 5.93066C63.8578 5.93066 64.7338 6.20898 65.3959 6.76562C66.0639 7.32227 66.3979 8.0752 66.3979 9.02441C66.3979 9.68066 66.1898 10.2607 65.7738 10.7646C65.3637 11.2686 64.6957 11.7344 63.7699 12.1621C64.8949 12.625 65.6859 13.1318 66.143 13.6826C66.6 14.2334 66.8285 14.9014 66.8285 15.6865C66.8285 16.7471 66.4564 17.5938 65.7123 18.2266C64.974 18.8594 63.9809 19.1758 62.7328 19.1758C61.4379 19.1758 60.4447 18.8799 59.7533 18.2881C59.0619 17.6963 58.7162 16.835 58.7162 15.7041C58.7162 14.9365 58.9594 14.2627 59.4457 13.6826C59.932 13.1025 60.685 12.6074 61.7045 12.1973C60.7611 11.752 60.0961 11.2832 59.7094 10.791C59.3227 10.293 59.1293 9.69824 59.1293 9.00684C59.1293 8.3916 59.2846 7.85254 59.5951 7.38965C59.9057 6.9209 60.3393 6.56055 60.8959 6.30859C61.4584 6.05664 62.0824 5.93066 62.768 5.93066ZM59.6127 15.8359C59.6127 16.6445 59.8852 17.2715 60.4301 17.7168C60.9809 18.1621 61.7484 18.3848 62.7328 18.3848C63.6938 18.3848 64.4672 18.1504 65.0531 17.6816C65.6391 17.207 65.932 16.5654 65.932 15.7568C65.932 15.0303 65.7006 14.4414 65.2377 13.9902C64.7807 13.5332 63.8959 13.0557 62.5834 12.5576C61.5053 12.9736 60.7406 13.4336 60.2895 13.9375C59.8383 14.4414 59.6127 15.0742 59.6127 15.8359ZM62.7504 6.72168C61.9242 6.72168 61.2592 6.92676 60.7553 7.33691C60.2572 7.74121 60.0082 8.29785 60.0082 9.00684C60.0082 9.41699 60.099 9.78027 60.2807 10.0967C60.4682 10.4072 60.7348 10.6914 61.0805 10.9492C61.432 11.2012 62.018 11.4971 62.8383 11.8369C63.7934 11.4678 64.4789 11.0605 64.8949 10.6152C65.3109 10.1699 65.5189 9.63379 65.5189 9.00684C65.5189 8.30371 65.2699 7.74707 64.7719 7.33691C64.2797 6.92676 63.6059 6.72168 62.7504 6.72168Z" transform="translate(366.674 171.636)" fill="white"/>
<rect width="160" height="100" transform="translate(0.575256 0.635742)" fill="#D7EDFA"/>
<path d="M8.49902 10.8438L7.83105 14.3418H10.4941V15.0361H7.68164L6.92578 19H6.13477L6.9082 15.0361H3.74414L2.98828 19H2.21484L2.9707 15.0361H0.483398V14.3418H3.11133L3.7793 10.8438H1.16895V10.1406H3.90234L4.6582 6.15039H5.45801L4.67578 10.1406H7.88379L8.65723 6.15039H9.41309L8.63965 10.1406H11.1445V10.8438H8.49902ZM3.86719 14.3418H7.05762L7.74316 10.8438H4.55273L3.86719 14.3418ZM15.8344 9.26172C16.5258 9.26172 17.1234 9.3877 17.6273 9.63965C18.1313 9.8916 18.5824 10.3223 18.9809 10.9316H19.0336C18.9984 10.1934 18.9809 9.46973 18.9809 8.76074V5.32422H19.8422V19H19.2709L19.0512 17.541H18.9809C18.2543 18.6309 17.2113 19.1758 15.852 19.1758C14.5336 19.1758 13.5258 18.7656 12.8285 17.9453C12.1313 17.125 11.7826 15.9297 11.7826 14.3594C11.7826 12.707 12.1283 11.4443 12.8197 10.5713C13.5111 9.69824 14.516 9.26172 15.8344 9.26172ZM15.8344 10.0527C14.7914 10.0527 14.0063 10.4189 13.4789 11.1514C12.9574 11.8838 12.6967 12.9473 12.6967 14.3418C12.6967 17.0488 13.7484 18.4023 15.852 18.4023C16.9301 18.4023 17.7211 18.0889 18.225 17.4619C18.7289 16.835 18.9809 15.8008 18.9809 14.3594V14.21C18.9809 12.7334 18.7318 11.6729 18.2338 11.0283C17.7416 10.3779 16.9418 10.0527 15.8344 10.0527ZM23.4949 19L28.7859 6.99414H21.5174V6.15039H29.8318V6.79199L24.5232 19H23.4949ZM35.4006 19.1758C34.0119 19.1758 32.9279 18.748 32.1486 17.8926C31.3752 17.0371 30.9885 15.8389 30.9885 14.2979C30.9885 12.7744 31.3635 11.5557 32.1135 10.6416C32.8635 9.72168 33.8742 9.26172 35.1457 9.26172C36.2707 9.26172 37.1584 9.6543 37.8088 10.4395C38.4592 11.2246 38.7844 12.291 38.7844 13.6387V14.3418H31.9025C31.9143 15.6543 32.2189 16.6562 32.8166 17.3477C33.4201 18.0391 34.2814 18.3848 35.4006 18.3848C35.9455 18.3848 36.423 18.3467 36.8332 18.2705C37.2492 18.1943 37.7736 18.0303 38.4064 17.7783V18.5693C37.8674 18.8037 37.3693 18.9619 36.9123 19.0439C36.4553 19.1318 35.9514 19.1758 35.4006 19.1758ZM35.1457 10.0352C34.2258 10.0352 33.4875 10.3398 32.9309 10.9492C32.3742 11.5527 32.049 12.4258 31.9553 13.5684H37.8615C37.8615 12.4609 37.6213 11.5967 37.1408 10.9756C36.6604 10.3486 35.9953 10.0352 35.1457 10.0352ZM44.0191 9.26172C44.7105 9.26172 45.3082 9.3877 45.8121 9.63965C46.316 9.8916 46.7672 10.3223 47.1656 10.9316H47.2184C47.1832 10.1934 47.1656 9.46973 47.1656 8.76074V5.32422H48.027V19H47.4557L47.2359 17.541H47.1656C46.4391 18.6309 45.3961 19.1758 44.0367 19.1758C42.7184 19.1758 41.7105 18.7656 41.0133 17.9453C40.316 17.125 39.9674 15.9297 39.9674 14.3594C39.9674 12.707 40.3131 11.4443 41.0045 10.5713C41.6959 9.69824 42.7008 9.26172 44.0191 9.26172ZM44.0191 10.0527C42.9762 10.0527 42.191 10.4189 41.6637 11.1514C41.1422 11.8838 40.8814 12.9473 40.8814 14.3418C40.8814 17.0488 41.9332 18.4023 44.0367 18.4023C45.1148 18.4023 45.9059 18.0889 46.4098 17.4619C46.9137 16.835 47.1656 15.8008 47.1656 14.3594V14.21C47.1656 12.7334 46.9166 11.6729 46.4186 11.0283C45.9264 10.3779 45.1266 10.0527 44.0191 10.0527ZM53.8945 10.2021H51.6445V19H50.7744V10.2021H48.999V9.69238L50.7744 9.36719V8.62891C50.7744 7.45703 50.9883 6.59863 51.416 6.05371C51.8496 5.50293 52.5557 5.22754 53.5342 5.22754C54.0615 5.22754 54.5889 5.30664 55.1162 5.46484L54.9141 6.2207C54.4453 6.07422 53.9795 6.00098 53.5166 6.00098C52.8369 6.00098 52.3535 6.20312 52.0664 6.60742C51.7852 7.00586 51.6445 7.65625 51.6445 8.55859V9.44629H53.8945V10.2021ZM60.641 19L60.4213 17.4883H60.351C59.8705 18.1035 59.3754 18.54 58.8656 18.7979C58.3617 19.0498 57.7641 19.1758 57.0727 19.1758C56.1352 19.1758 55.4057 18.9355 54.8842 18.4551C54.3627 17.9746 54.102 17.3096 54.102 16.46C54.102 15.5283 54.4887 14.8047 55.2621 14.2891C56.0414 13.7734 57.1664 13.501 58.6371 13.4717L60.4564 13.4189V12.7861C60.4564 11.8779 60.2719 11.1924 59.9027 10.7295C59.5336 10.2666 58.9389 10.0352 58.1186 10.0352C57.2338 10.0352 56.3168 10.2812 55.3676 10.7734L55.0424 10.0176C56.0912 9.52539 57.1283 9.2793 58.1537 9.2793C59.2025 9.2793 59.9848 9.55176 60.5004 10.0967C61.0219 10.6416 61.2826 11.4912 61.2826 12.6455V19H60.641ZM57.1254 18.3848C58.1449 18.3848 58.9477 18.0947 59.5336 17.5146C60.1254 16.9287 60.4213 16.1172 60.4213 15.0801V14.1396L58.7514 14.21C57.4096 14.2744 56.4516 14.4854 55.8773 14.8428C55.309 15.1943 55.0248 15.7451 55.0248 16.4951C55.0248 17.0928 55.2064 17.5586 55.5697 17.8926C55.9389 18.2207 56.4574 18.3848 57.1254 18.3848Z" transform="translate(49.4681 71.6357)" fill="black"/>
<rect width="160" height="100" transform="translate(0.575256 100.636)" fill="white"/>
<path d="M8.49902 10.8438L7.83105 14.3418H10.4941V15.0361H7.68164L6.92578 19H6.13477L6.9082 15.0361H3.74414L2.98828 19H2.21484L2.9707 15.0361H0.483398V14.3418H3.11133L3.7793 10.8438H1.16895V10.1406H3.90234L4.6582 6.15039H5.45801L4.67578 10.1406H7.88379L8.65723 6.15039H9.41309L8.63965 10.1406H11.1445V10.8438H8.49902ZM3.86719 14.3418H7.05762L7.74316 10.8438H4.55273L3.86719 14.3418ZM15.8871 10.2021H13.6371V19H12.767V10.2021H10.9916V9.69238L12.767 9.36719V8.62891C12.767 7.45703 12.9809 6.59863 13.4086 6.05371C13.8422 5.50293 14.5482 5.22754 15.5268 5.22754C16.0541 5.22754 16.5814 5.30664 17.1088 5.46484L16.9066 6.2207C16.4379 6.07422 15.9721 6.00098 15.5092 6.00098C14.8295 6.00098 14.3461 6.20312 14.059 6.60742C13.7777 7.00586 13.6371 7.65625 13.6371 8.55859V9.44629H15.8871V10.2021ZM21.2836 10.2021H19.0336V19H18.1635V10.2021H16.3881V9.69238L18.1635 9.36719V8.62891C18.1635 7.45703 18.3773 6.59863 18.8051 6.05371C19.2387 5.50293 19.9447 5.22754 20.9232 5.22754C21.4506 5.22754 21.9779 5.30664 22.5053 5.46484L22.3031 6.2207C21.8344 6.07422 21.3686 6.00098 20.9057 6.00098C20.226 6.00098 19.7426 6.20312 19.4555 6.60742C19.1742 7.00586 19.0336 7.65625 19.0336 8.55859V9.44629H21.2836V10.2021ZM25.7977 10.2021H23.5477V19H22.6775V10.2021H20.9021V9.69238L22.6775 9.36719V8.62891C22.6775 7.45703 22.8914 6.59863 23.3191 6.05371C23.7527 5.50293 24.4588 5.22754 25.4373 5.22754C25.9646 5.22754 26.492 5.30664 27.0193 5.46484L26.8172 6.2207C26.3484 6.07422 25.8826 6.00098 25.4197 6.00098C24.74 6.00098 24.2566 6.20312 23.9695 6.60742C23.6883 7.00586 23.5477 7.65625 23.5477 8.55859V9.44629H25.7977V10.2021ZM31.1941 10.2021H28.9441V19H28.074V10.2021H26.2986V9.69238L28.074 9.36719V8.62891C28.074 7.45703 28.2879 6.59863 28.7156 6.05371C29.1492 5.50293 29.8553 5.22754 30.8338 5.22754C31.3611 5.22754 31.8885 5.30664 32.4158 5.46484L32.2137 6.2207C31.7449 6.07422 31.2791 6.00098 30.8162 6.00098C30.1365 6.00098 29.6531 6.20312 29.366 6.60742C29.0848 7.00586 28.9441 7.65625 28.9441 8.55859V9.44629H31.1941V10.2021Z" transform="translate(63.8873 171.636)" fill="black"/>
<rect width="160" height="100" transform="translate(480.575 100.636)" fill="black"/>
<path d="M8.49902 10.8438L7.83105 14.3418H10.4941V15.0361H7.68164L6.92578 19H6.13477L6.9082 15.0361H3.74414L2.98828 19H2.21484L2.9707 15.0361H0.483398V14.3418H3.11133L3.7793 10.8438H1.16895V10.1406H3.90234L4.6582 6.15039H5.45801L4.67578 10.1406H7.88379L8.65723 6.15039H9.41309L8.63965 10.1406H11.1445V10.8438H8.49902ZM3.86719 14.3418H7.05762L7.74316 10.8438H4.55273L3.86719 14.3418ZM20.0092 12.54C20.0092 14.7959 19.6635 16.4658 18.9721 17.5498C18.2865 18.6338 17.2465 19.1758 15.852 19.1758C14.5102 19.1758 13.4906 18.6191 12.7934 17.5059C12.0961 16.3867 11.7475 14.7314 11.7475 12.54C11.7475 10.3018 12.0844 8.64355 12.7582 7.56543C13.4379 6.4873 14.4691 5.94824 15.852 5.94824C17.2055 5.94824 18.2367 6.50781 18.9457 7.62695C19.6547 8.74023 20.0092 10.3779 20.0092 12.54ZM12.6967 12.54C12.6967 14.5322 12.9574 16.0059 13.4789 16.9609C14.0004 17.9102 14.7914 18.3848 15.852 18.3848C16.9594 18.3848 17.765 17.8926 18.2689 16.9082C18.7787 15.9238 19.0336 14.4678 19.0336 12.54C19.0336 10.6416 18.7787 9.2002 18.2689 8.21582C17.765 7.23145 16.9594 6.73926 15.852 6.73926C14.7445 6.73926 13.9418 7.23145 13.4438 8.21582C12.9457 9.2002 12.6967 10.6416 12.6967 12.54ZM29.3924 12.54C29.3924 14.7959 29.0467 16.4658 28.3553 17.5498C27.6697 18.6338 26.6297 19.1758 25.2352 19.1758C23.8934 19.1758 22.8738 18.6191 22.1766 17.5059C21.4793 16.3867 21.1307 14.7314 21.1307 12.54C21.1307 10.3018 21.4676 8.64355 22.1414 7.56543C22.8211 6.4873 23.8523 5.94824 25.2352 5.94824C26.5887 5.94824 27.6199 6.50781 28.3289 7.62695C29.0379 8.74023 29.3924 10.3779 29.3924 12.54ZM22.0799 12.54C22.0799 14.5322 22.3406 16.0059 22.8621 16.9609C23.3836 17.9102 24.1746 18.3848 25.2352 18.3848C26.3426 18.3848 27.1482 17.8926 27.6521 16.9082C28.1619 15.9238 28.4168 14.4678 28.4168 12.54C28.4168 10.6416 28.1619 9.2002 27.6521 8.21582C27.1482 7.23145 26.3426 6.73926 25.2352 6.73926C24.1277 6.73926 23.325 7.23145 22.827 8.21582C22.3289 9.2002 22.0799 10.6416 22.0799 12.54ZM38.7756 12.54C38.7756 14.7959 38.4299 16.4658 37.7385 17.5498C37.0529 18.6338 36.0129 19.1758 34.6184 19.1758C33.2766 19.1758 32.257 18.6191 31.5598 17.5059C30.8625 16.3867 30.5139 14.7314 30.5139 12.54C30.5139 10.3018 30.8508 8.64355 31.5246 7.56543C32.2043 6.4873 33.2355 5.94824 34.6184 5.94824C35.9719 5.94824 37.0031 6.50781 37.7121 7.62695C38.4211 8.74023 38.7756 10.3779 38.7756 12.54ZM31.4631 12.54C31.4631 14.5322 31.7238 16.0059 32.2453 16.9609C32.7668 17.9102 33.5578 18.3848 34.6184 18.3848C35.7258 18.3848 36.5314 17.8926 37.0354 16.9082C37.5451 15.9238 37.8 14.4678 37.8 12.54C37.8 10.6416 37.5451 9.2002 37.0354 8.21582C36.5314 7.23145 35.7258 6.73926 34.6184 6.73926C33.5109 6.73926 32.7082 7.23145 32.2102 8.21582C31.7121 9.2002 31.4631 10.6416 31.4631 12.54ZM48.1588 12.54C48.1588 14.7959 47.8131 16.4658 47.1217 17.5498C46.4361 18.6338 45.3961 19.1758 44.0016 19.1758C42.6598 19.1758 41.6402 18.6191 40.943 17.5059C40.2457 16.3867 39.8971 14.7314 39.8971 12.54C39.8971 10.3018 40.234 8.64355 40.9078 7.56543C41.5875 6.4873 42.6188 5.94824 44.0016 5.94824C45.3551 5.94824 46.3863 6.50781 47.0953 7.62695C47.8043 8.74023 48.1588 10.3779 48.1588 12.54ZM40.8463 12.54C40.8463 14.5322 41.107 16.0059 41.6285 16.9609C42.15 17.9102 42.941 18.3848 44.0016 18.3848C45.109 18.3848 45.9146 17.8926 46.4186 16.9082C46.9283 15.9238 47.1832 14.4678 47.1832 12.54C47.1832 10.6416 46.9283 9.2002 46.4186 8.21582C45.9146 7.23145 45.109 6.73926 44.0016 6.73926C42.8941 6.73926 42.0914 7.23145 41.5934 8.21582C41.0953 9.2002 40.8463 10.6416 40.8463 12.54Z" transform="translate(535.923 171.636)" fill="white"/>
<rect width="160" height="100" transform="translate(160.575 100.636)" fill="#B8B8B8"/>
<path d="M8.49902 10.8438L7.83105 14.3418H10.4941V15.0361H7.68164L6.92578 19H6.13477L6.9082 15.0361H3.74414L2.98828 19H2.21484L2.9707 15.0361H0.483398V14.3418H3.11133L3.7793 10.8438H1.16895V10.1406H3.90234L4.6582 6.15039H5.45801L4.67578 10.1406H7.88379L8.65723 6.15039H9.41309L8.63965 10.1406H11.1445V10.8438H8.49902ZM3.86719 14.3418H7.05762L7.74316 10.8438H4.55273L3.86719 14.3418ZM16.3705 9.26172C17.7064 9.26172 18.7113 9.68359 19.3852 10.5273C20.0648 11.3652 20.4047 12.5928 20.4047 14.21C20.4047 15.7979 20.0473 17.0225 19.3324 17.8838C18.6234 18.7451 17.6244 19.1758 16.3354 19.1758C15.6557 19.1758 15.0434 19.0352 14.4984 18.7539C13.9535 18.4727 13.5229 18.0742 13.2064 17.5586H13.1273L12.8813 19H12.3363V5.32422H13.2064V8.76074C13.2064 9.27637 13.1947 9.75098 13.1713 10.1846L13.1449 10.9316H13.2064C13.5697 10.3574 14.0063 9.93555 14.516 9.66602C15.0316 9.39648 15.6498 9.26172 16.3705 9.26172ZM16.3529 10.0527C15.2279 10.0527 14.4223 10.375 13.9359 11.0195C13.4496 11.6641 13.2064 12.7275 13.2064 14.21V14.3594C13.2064 15.8008 13.4584 16.835 13.9623 17.4619C14.4721 18.0889 15.2631 18.4023 16.3354 18.4023C17.3783 18.4023 18.1635 18.0391 18.6908 17.3125C19.2182 16.5801 19.4818 15.54 19.4818 14.1924C19.4818 11.4326 18.4389 10.0527 16.3529 10.0527ZM25.6746 5.93066C26.7645 5.93066 27.6404 6.20898 28.3025 6.76562C28.9705 7.32227 29.3045 8.0752 29.3045 9.02441C29.3045 9.68066 29.0965 10.2607 28.6805 10.7646C28.2703 11.2686 27.6023 11.7344 26.6766 12.1621C27.8016 12.625 28.5926 13.1318 29.0496 13.6826C29.5066 14.2334 29.7352 14.9014 29.7352 15.6865C29.7352 16.7471 29.3631 17.5938 28.6189 18.2266C27.8807 18.8594 26.8875 19.1758 25.6395 19.1758C24.3445 19.1758 23.3514 18.8799 22.66 18.2881C21.9686 17.6963 21.6229 16.835 21.6229 15.7041C21.6229 14.9365 21.866 14.2627 22.3523 13.6826C22.8387 13.1025 23.5916 12.6074 24.6111 12.1973C23.6678 11.752 23.0027 11.2832 22.616 10.791C22.2293 10.293 22.0359 9.69824 22.0359 9.00684C22.0359 8.3916 22.1912 7.85254 22.5018 7.38965C22.8123 6.9209 23.2459 6.56055 23.8025 6.30859C24.365 6.05664 24.9891 5.93066 25.6746 5.93066ZM22.5193 15.8359C22.5193 16.6445 22.7918 17.2715 23.3367 17.7168C23.8875 18.1621 24.6551 18.3848 25.6395 18.3848C26.6004 18.3848 27.3738 18.1504 27.9598 17.6816C28.5457 17.207 28.8387 16.5654 28.8387 15.7568C28.8387 15.0303 28.6072 14.4414 28.1443 13.9902C27.6873 13.5332 26.8025 13.0557 25.49 12.5576C24.4119 12.9736 23.6473 13.4336 23.1961 13.9375C22.7449 14.4414 22.5193 15.0742 22.5193 15.8359ZM25.657 6.72168C24.8309 6.72168 24.1658 6.92676 23.6619 7.33691C23.1639 7.74121 22.9148 8.29785 22.9148 9.00684C22.9148 9.41699 23.0057 9.78027 23.1873 10.0967C23.3748 10.4072 23.6414 10.6914 23.9871 10.9492C24.3387 11.2012 24.9246 11.4971 25.7449 11.8369C26.7 11.4678 27.3855 11.0605 27.8016 10.6152C28.2176 10.1699 28.4256 9.63379 28.4256 9.00684C28.4256 8.30371 28.1766 7.74707 27.6785 7.33691C27.1863 6.92676 26.5125 6.72168 25.657 6.72168ZM35.5764 9.26172C36.9123 9.26172 37.9172 9.68359 38.591 10.5273C39.2707 11.3652 39.6105 12.5928 39.6105 14.21C39.6105 15.7979 39.2531 17.0225 38.5383 17.8838C37.8293 18.7451 36.8303 19.1758 35.5412 19.1758C34.8615 19.1758 34.2492 19.0352 33.7043 18.7539C33.1594 18.4727 32.7287 18.0742 32.4123 17.5586H32.3332L32.0871 19H31.5422V5.32422H32.4123V8.76074C32.4123 9.27637 32.4006 9.75098 32.3771 10.1846L32.3508 10.9316H32.4123C32.7756 10.3574 33.2121 9.93555 33.7219 9.66602C34.2375 9.39648 34.8557 9.26172 35.5764 9.26172ZM35.5588 10.0527C34.4338 10.0527 33.6281 10.375 33.1418 11.0195C32.6555 11.6641 32.4123 12.7275 32.4123 14.21V14.3594C32.4123 15.8008 32.6643 16.835 33.1682 17.4619C33.6779 18.0889 34.4689 18.4023 35.5412 18.4023C36.5842 18.4023 37.3693 18.0391 37.8967 17.3125C38.424 16.5801 38.6877 15.54 38.6877 14.1924C38.6877 11.4326 37.6447 10.0527 35.5588 10.0527ZM44.8805 5.93066C45.9703 5.93066 46.8463 6.20898 47.5084 6.76562C48.1764 7.32227 48.5104 8.0752 48.5104 9.02441C48.5104 9.68066 48.3023 10.2607 47.8863 10.7646C47.4762 11.2686 46.8082 11.7344 45.8824 12.1621C47.0074 12.625 47.7984 13.1318 48.2555 13.6826C48.7125 14.2334 48.941 14.9014 48.941 15.6865C48.941 16.7471 48.5689 17.5938 47.8248 18.2266C47.0865 18.8594 46.0934 19.1758 44.8453 19.1758C43.5504 19.1758 42.5572 18.8799 41.8658 18.2881C41.1744 17.6963 40.8287 16.835 40.8287 15.7041C40.8287 14.9365 41.0719 14.2627 41.5582 13.6826C42.0445 13.1025 42.7975 12.6074 43.817 12.1973C42.8736 11.752 42.2086 11.2832 41.8219 10.791C41.4352 10.293 41.2418 9.69824 41.2418 9.00684C41.2418 8.3916 41.3971 7.85254 41.7076 7.38965C42.0182 6.9209 42.4518 6.56055 43.0084 6.30859C43.5709 6.05664 44.1949 5.93066 44.8805 5.93066ZM41.7252 15.8359C41.7252 16.6445 41.9977 17.2715 42.5426 17.7168C43.0934 18.1621 43.8609 18.3848 44.8453 18.3848C45.8063 18.3848 46.5797 18.1504 47.1656 17.6816C47.7516 17.207 48.0445 16.5654 48.0445 15.7568C48.0445 15.0303 47.8131 14.4414 47.3502 13.9902C46.8932 13.5332 46.0084 13.0557 44.6959 12.5576C43.6178 12.9736 42.8531 13.4336 42.402 13.9375C41.9508 14.4414 41.7252 15.0742 41.7252 15.8359ZM44.8629 6.72168C44.0367 6.72168 43.3717 6.92676 42.8678 7.33691C42.3697 7.74121 42.1207 8.29785 42.1207 9.00684C42.1207 9.41699 42.2115 9.78027 42.3932 10.0967C42.5807 10.4072 42.8473 10.6914 43.193 10.9492C43.5445 11.2012 44.1305 11.4971 44.9508 11.8369C45.9059 11.4678 46.5914 11.0605 47.0074 10.6152C47.4234 10.1699 47.6314 9.63379 47.6314 9.00684C47.6314 8.30371 47.3824 7.74707 46.8844 7.33691C46.3922 6.92676 45.7184 6.72168 44.8629 6.72168ZM54.7822 9.26172C56.1182 9.26172 57.123 9.68359 57.7969 10.5273C58.4766 11.3652 58.8164 12.5928 58.8164 14.21C58.8164 15.7979 58.459 17.0225 57.7441 17.8838C57.0352 18.7451 56.0361 19.1758 54.7471 19.1758C54.0674 19.1758 53.4551 19.0352 52.9102 18.7539C52.3652 18.4727 51.9346 18.0742 51.6182 17.5586H51.5391L51.293 19H50.748V5.32422H51.6182V8.76074C51.6182 9.27637 51.6064 9.75098 51.583 10.1846L51.5566 10.9316H51.6182C51.9814 10.3574 52.418 9.93555 52.9277 9.66602C53.4434 9.39648 54.0615 9.26172 54.7822 9.26172ZM54.7646 10.0527C53.6396 10.0527 52.834 10.375 52.3477 11.0195C51.8613 11.6641 51.6182 12.7275 51.6182 14.21V14.3594C51.6182 15.8008 51.8701 16.835 52.374 17.4619C52.8838 18.0889 53.6748 18.4023 54.7471 18.4023C55.79 18.4023 56.5752 18.0391 57.1025 17.3125C57.6299 16.5801 57.8936 15.54 57.8936 14.1924C57.8936 11.4326 56.8506 10.0527 54.7646 10.0527ZM64.0863 5.93066C65.1762 5.93066 66.0522 6.20898 66.7143 6.76562C67.3822 7.32227 67.7162 8.0752 67.7162 9.02441C67.7162 9.68066 67.5082 10.2607 67.0922 10.7646C66.682 11.2686 66.0141 11.7344 65.0883 12.1621C66.2133 12.625 67.0043 13.1318 67.4613 13.6826C67.9184 14.2334 68.1469 14.9014 68.1469 15.6865C68.1469 16.7471 67.7748 17.5938 67.0307 18.2266C66.2924 18.8594 65.2992 19.1758 64.0512 19.1758C62.7563 19.1758 61.7631 18.8799 61.0717 18.2881C60.3803 17.6963 60.0346 16.835 60.0346 15.7041C60.0346 14.9365 60.2777 14.2627 60.7641 13.6826C61.2504 13.1025 62.0033 12.6074 63.0229 12.1973C62.0795 11.752 61.4145 11.2832 61.0277 10.791C60.641 10.293 60.4477 9.69824 60.4477 9.00684C60.4477 8.3916 60.6029 7.85254 60.9135 7.38965C61.224 6.9209 61.6576 6.56055 62.2143 6.30859C62.7768 6.05664 63.4008 5.93066 64.0863 5.93066ZM60.9311 15.8359C60.9311 16.6445 61.2035 17.2715 61.7484 17.7168C62.2992 18.1621 63.0668 18.3848 64.0512 18.3848C65.0121 18.3848 65.7855 18.1504 66.3715 17.6816C66.9574 17.207 67.2504 16.5654 67.2504 15.7568C67.2504 15.0303 67.0189 14.4414 66.5561 13.9902C66.099 13.5332 65.2143 13.0557 63.9018 12.5576C62.8236 12.9736 62.059 13.4336 61.6078 13.9375C61.1566 14.4414 60.9311 15.0742 60.9311 15.8359ZM64.0688 6.72168C63.2426 6.72168 62.5775 6.92676 62.0736 7.33691C61.5756 7.74121 61.3266 8.29785 61.3266 9.00684C61.3266 9.41699 61.4174 9.78027 61.599 10.0967C61.7865 10.4072 62.0531 10.6914 62.3988 10.9492C62.7504 11.2012 63.3363 11.4971 64.1566 11.8369C65.1117 11.4678 65.7973 11.0605 66.2133 10.6152C66.6293 10.1699 66.8373 9.63379 66.8373 9.00684C66.8373 8.30371 66.5883 7.74707 66.0902 7.33691C65.598 6.92676 64.9242 6.72168 64.0688 6.72168Z" transform="translate(205.836 171.636)" fill="black"/>
<rect width="160" height="100" transform="translate(160.575 0.635742)" fill="#FC5900"/>
<path d="M8.49902 10.8438L7.83105 14.3418H10.4941V15.0361H7.68164L6.92578 19H6.13477L6.9082 15.0361H3.74414L2.98828 19H2.21484L2.9707 15.0361H0.483398V14.3418H3.11133L3.7793 10.8438H1.16895V10.1406H3.90234L4.6582 6.15039H5.45801L4.67578 10.1406H7.88379L8.65723 6.15039H9.41309L8.63965 10.1406H11.1445V10.8438H8.49902ZM3.86719 14.3418H7.05762L7.74316 10.8438H4.55273L3.86719 14.3418ZM15.8871 10.2021H13.6371V19H12.767V10.2021H10.9916V9.69238L12.767 9.36719V8.62891C12.767 7.45703 12.9809 6.59863 13.4086 6.05371C13.8422 5.50293 14.5482 5.22754 15.5268 5.22754C16.0541 5.22754 16.5814 5.30664 17.1088 5.46484L16.9066 6.2207C16.4379 6.07422 15.9721 6.00098 15.5092 6.00098C14.8295 6.00098 14.3461 6.20312 14.059 6.60742C13.7777 7.00586 13.6371 7.65625 13.6371 8.55859V9.44629H15.8871V10.2021ZM20.6473 19.1758C19.282 19.1758 18.2127 18.7451 17.4393 17.8838C16.6658 17.0225 16.2791 15.8213 16.2791 14.2803C16.2791 12.6982 16.6805 11.4678 17.4832 10.5889C18.2859 9.7041 19.3846 9.26172 20.7791 9.26172C21.6053 9.26172 22.3963 9.40527 23.1521 9.69238L22.9148 10.4658C22.0887 10.1904 21.3709 10.0527 20.7615 10.0527C19.5896 10.0527 18.702 10.416 18.0984 11.1426C17.4949 11.8633 17.1932 12.9033 17.1932 14.2627C17.1932 15.5518 17.4949 16.5625 18.0984 17.2949C18.702 18.0215 19.5457 18.3848 20.6297 18.3848C21.4969 18.3848 22.3025 18.2295 23.0467 17.9189V18.7275C22.4373 19.0264 21.6375 19.1758 20.6473 19.1758ZM27.6135 11.2744C28.9846 11.2744 30.0627 11.6055 30.8479 12.2676C31.6389 12.9297 32.0344 13.8408 32.0344 15.001C32.0344 16.3193 31.6242 17.3447 30.8039 18.0771C29.9836 18.8096 28.8527 19.1758 27.4113 19.1758C26.7727 19.1758 26.1662 19.1143 25.592 18.9912C25.0178 18.8623 24.5373 18.6807 24.1506 18.4463V17.541C24.7834 17.8633 25.3459 18.0889 25.8381 18.2178C26.3303 18.3408 26.8547 18.4023 27.4113 18.4023C28.5363 18.4023 29.4387 18.1064 30.1184 17.5146C30.798 16.917 31.1379 16.1113 31.1379 15.0977C31.1379 14.1426 30.8068 13.3926 30.1447 12.8477C29.4826 12.3027 28.5832 12.0303 27.4465 12.0303C26.6848 12.0303 25.8879 12.1445 25.0559 12.373L24.5285 12.0303L25.0383 6.15039H31.2258V6.99414H25.8645L25.4689 11.5293C26.383 11.3594 27.0979 11.2744 27.6135 11.2744ZM41.3824 11.5996C41.3824 13.2871 41.1598 14.6992 40.7145 15.8359C40.275 16.9727 39.6305 17.8135 38.7809 18.3584C37.9371 18.9033 36.9146 19.1758 35.7135 19.1758C35.1041 19.1758 34.5416 19.0996 34.026 18.9473V18.1914C34.2779 18.2734 34.5797 18.3379 34.9313 18.3848C35.2887 18.4258 35.5611 18.4463 35.7486 18.4463C37.1959 18.4463 38.3297 17.9248 39.15 16.8818C39.9703 15.833 40.4273 14.3066 40.5211 12.3027H40.4156C39.9879 12.8652 39.4781 13.2988 38.8863 13.6035C38.2945 13.9023 37.6764 14.0518 37.0318 14.0518C35.8424 14.0518 34.9137 13.7236 34.2457 13.0674C33.5836 12.4111 33.2525 11.4795 33.2525 10.2725C33.2525 8.9834 33.6158 7.94043 34.3424 7.14355C35.0748 6.34668 36.024 5.94824 37.19 5.94824C38.0338 5.94824 38.7721 6.1709 39.4049 6.61621C40.0377 7.05566 40.524 7.70313 40.8639 8.55859C41.2096 9.41406 41.3824 10.4277 41.3824 11.5996ZM37.19 6.72168C36.2643 6.72168 35.526 7.03516 34.9752 7.66211C34.4244 8.2832 34.149 9.13574 34.149 10.2197C34.149 11.2393 34.4039 12.0127 34.9137 12.54C35.4234 13.0674 36.1529 13.3311 37.1021 13.3311C37.6939 13.3311 38.2447 13.1992 38.7545 12.9355C39.2701 12.6719 39.6773 12.3232 39.9762 11.8896C40.2809 11.4502 40.4332 11.0049 40.4332 10.5537C40.4332 9.86816 40.2955 9.22656 40.0201 8.62891C39.7506 8.03125 39.3697 7.56543 38.8775 7.23145C38.3912 6.8916 37.8287 6.72168 37.19 6.72168ZM50.9326 12.54C50.9326 14.7959 50.5869 16.4658 49.8955 17.5498C49.21 18.6338 48.1699 19.1758 46.7754 19.1758C45.4336 19.1758 44.4141 18.6191 43.7168 17.5059C43.0195 16.3867 42.6709 14.7314 42.6709 12.54C42.6709 10.3018 43.0078 8.64355 43.6816 7.56543C44.3613 6.4873 45.3926 5.94824 46.7754 5.94824C48.1289 5.94824 49.1602 6.50781 49.8691 7.62695C50.5781 8.74023 50.9326 10.3779 50.9326 12.54ZM43.6201 12.54C43.6201 14.5322 43.8809 16.0059 44.4023 16.9609C44.9238 17.9102 45.7148 18.3848 46.7754 18.3848C47.8828 18.3848 48.6885 17.8926 49.1924 16.9082C49.7021 15.9238 49.957 14.4678 49.957 12.54C49.957 10.6416 49.7021 9.2002 49.1924 8.21582C48.6885 7.23145 47.8828 6.73926 46.7754 6.73926C45.668 6.73926 44.8652 7.23145 44.3672 8.21582C43.8691 9.2002 43.6201 10.6416 43.6201 12.54ZM60.3158 12.54C60.3158 14.7959 59.9701 16.4658 59.2787 17.5498C58.5932 18.6338 57.5531 19.1758 56.1586 19.1758C54.8168 19.1758 53.7973 18.6191 53.1 17.5059C52.4027 16.3867 52.0541 14.7314 52.0541 12.54C52.0541 10.3018 52.391 8.64355 53.0648 7.56543C53.7445 6.4873 54.7758 5.94824 56.1586 5.94824C57.5121 5.94824 58.5434 6.50781 59.2523 7.62695C59.9613 8.74023 60.3158 10.3779 60.3158 12.54ZM53.0033 12.54C53.0033 14.5322 53.2641 16.0059 53.7855 16.9609C54.307 17.9102 55.098 18.3848 56.1586 18.3848C57.266 18.3848 58.0717 17.8926 58.5756 16.9082C59.0854 15.9238 59.3402 14.4678 59.3402 12.54C59.3402 10.6416 59.0854 9.2002 58.5756 8.21582C58.0717 7.23145 57.266 6.73926 56.1586 6.73926C55.0512 6.73926 54.2484 7.23145 53.7504 8.21582C53.2523 9.2002 53.0033 10.6416 53.0033 12.54Z" transform="translate(209.346 71.6357)" fill="white"/>
<rect width="160" height="100" transform="translate(320.575 0.635742)" fill="#658FFC"/>
<path d="M8.49902 10.8438L7.83105 14.3418H10.4941V15.0361H7.68164L6.92578 19H6.13477L6.9082 15.0361H3.74414L2.98828 19H2.21484L2.9707 15.0361H0.483398V14.3418H3.11133L3.7793 10.8438H1.16895V10.1406H3.90234L4.6582 6.15039H5.45801L4.67578 10.1406H7.88379L8.65723 6.15039H9.41309L8.63965 10.1406H11.1445V10.8438H8.49902ZM3.86719 14.3418H7.05762L7.74316 10.8438H4.55273L3.86719 14.3418ZM11.8881 13.5244C11.8881 11.8545 12.1137 10.4512 12.5648 9.31445C13.0219 8.17188 13.6664 7.3252 14.4984 6.77441C15.3363 6.22363 16.3441 5.94824 17.5219 5.94824C18.0727 5.94824 18.5766 6.01563 19.0336 6.15039V6.92383C18.6059 6.76562 18.0902 6.68652 17.4867 6.68652C16.0395 6.68652 14.9115 7.20801 14.1029 8.25098C13.3002 9.29395 12.849 10.8115 12.7494 12.8037H12.8637C13.309 12.2295 13.8188 11.7959 14.393 11.5029C14.9672 11.21 15.5736 11.0635 16.2123 11.0635C17.4135 11.0635 18.351 11.4062 19.0248 12.0918C19.7045 12.7773 20.0443 13.7236 20.0443 14.9307C20.0443 16.2432 19.6869 17.2803 18.9721 18.042C18.2631 18.7979 17.3051 19.1758 16.098 19.1758C14.7973 19.1758 13.7689 18.6807 13.0131 17.6904C12.2631 16.6943 11.8881 15.3057 11.8881 13.5244ZM16.098 18.4023C17.059 18.4023 17.8061 18.1006 18.3393 17.4971C18.8725 16.8936 19.1391 16.0322 19.1391 14.9131C19.1391 13.9287 18.8754 13.1611 18.348 12.6104C17.8207 12.0596 17.1029 11.7842 16.1947 11.7842C15.5971 11.7842 15.0404 11.916 14.5248 12.1797C14.015 12.4434 13.6078 12.7949 13.3031 13.2344C12.9984 13.668 12.8461 14.1133 12.8461 14.5703C12.8461 15.2207 12.9896 15.8477 13.2768 16.4512C13.5697 17.0488 13.9623 17.5234 14.4545 17.875C14.9525 18.2266 15.5004 18.4023 16.098 18.4023ZM24.8396 11.2744C26.2107 11.2744 27.2889 11.6055 28.074 12.2676C28.865 12.9297 29.2605 13.8408 29.2605 15.001C29.2605 16.3193 28.8504 17.3447 28.0301 18.0771C27.2098 18.8096 26.0789 19.1758 24.6375 19.1758C23.9988 19.1758 23.3924 19.1143 22.8182 18.9912C22.2439 18.8623 21.7635 18.6807 21.3768 18.4463V17.541C22.0096 17.8633 22.5721 18.0889 23.0643 18.2178C23.5564 18.3408 24.0809 18.4023 24.6375 18.4023C25.7625 18.4023 26.6648 18.1064 27.3445 17.5146C28.0242 16.917 28.3641 16.1113 28.3641 15.0977C28.3641 14.1426 28.033 13.3926 27.3709 12.8477C26.7088 12.3027 25.8094 12.0303 24.6727 12.0303C23.9109 12.0303 23.1141 12.1445 22.282 12.373L21.7547 12.0303L22.2645 6.15039H28.452V6.99414H23.0906L22.6951 11.5293C23.6092 11.3594 24.324 11.2744 24.8396 11.2744ZM34.6184 5.93066C35.7082 5.93066 36.5842 6.20898 37.2463 6.76562C37.9143 7.32227 38.2482 8.0752 38.2482 9.02441C38.2482 9.68066 38.0402 10.2607 37.6242 10.7646C37.2141 11.2686 36.5461 11.7344 35.6203 12.1621C36.7453 12.625 37.5363 13.1318 37.9934 13.6826C38.4504 14.2334 38.6789 14.9014 38.6789 15.6865C38.6789 16.7471 38.3068 17.5938 37.5627 18.2266C36.8244 18.8594 35.8313 19.1758 34.5832 19.1758C33.2883 19.1758 32.2951 18.8799 31.6037 18.2881C30.9123 17.6963 30.5666 16.835 30.5666 15.7041C30.5666 14.9365 30.8098 14.2627 31.2961 13.6826C31.7824 13.1025 32.5354 12.6074 33.5549 12.1973C32.6115 11.752 31.9465 11.2832 31.5598 10.791C31.173 10.293 30.9797 9.69824 30.9797 9.00684C30.9797 8.3916 31.135 7.85254 31.4455 7.38965C31.7561 6.9209 32.1896 6.56055 32.7463 6.30859C33.3088 6.05664 33.9328 5.93066 34.6184 5.93066ZM31.4631 15.8359C31.4631 16.6445 31.7355 17.2715 32.2805 17.7168C32.8313 18.1621 33.5988 18.3848 34.5832 18.3848C35.5441 18.3848 36.3176 18.1504 36.9035 17.6816C37.4895 17.207 37.7824 16.5654 37.7824 15.7568C37.7824 15.0303 37.551 14.4414 37.0881 13.9902C36.6311 13.5332 35.7463 13.0557 34.4338 12.5576C33.3557 12.9736 32.591 13.4336 32.1398 13.9375C31.6887 14.4414 31.4631 15.0742 31.4631 15.8359ZM34.6008 6.72168C33.7746 6.72168 33.1096 6.92676 32.6057 7.33691C32.1076 7.74121 31.8586 8.29785 31.8586 9.00684C31.8586 9.41699 31.9494 9.78027 32.1311 10.0967C32.3186 10.4072 32.5852 10.6914 32.9309 10.9492C33.2824 11.2012 33.8684 11.4971 34.6887 11.8369C35.6438 11.4678 36.3293 11.0605 36.7453 10.6152C37.1613 10.1699 37.3693 9.63379 37.3693 9.00684C37.3693 8.30371 37.1203 7.74707 36.6223 7.33691C36.1301 6.92676 35.4563 6.72168 34.6008 6.72168ZM44.0367 10.2021H41.7867V19H40.9166V10.2021H39.1412V9.69238L40.9166 9.36719V8.62891C40.9166 7.45703 41.1305 6.59863 41.5582 6.05371C41.9918 5.50293 42.6979 5.22754 43.6764 5.22754C44.2037 5.22754 44.7311 5.30664 45.2584 5.46484L45.0563 6.2207C44.5875 6.07422 44.1217 6.00098 43.6588 6.00098C42.9791 6.00098 42.4957 6.20312 42.2086 6.60742C41.9273 7.00586 41.7867 7.65625 41.7867 8.55859V9.44629H44.0367V10.2021ZM49.4332 10.2021H47.1832V19H46.3131V10.2021H44.5377V9.69238L46.3131 9.36719V8.62891C46.3131 7.45703 46.527 6.59863 46.9547 6.05371C47.3883 5.50293 48.0943 5.22754 49.0729 5.22754C49.6002 5.22754 50.1275 5.30664 50.6549 5.46484L50.4527 6.2207C49.984 6.07422 49.5182 6.00098 49.0553 6.00098C48.3756 6.00098 47.8922 6.20312 47.6051 6.60742C47.3238 7.00586 47.1832 7.65625 47.1832 8.55859V9.44629H49.4332V10.2021ZM54.2109 19.1758C52.8457 19.1758 51.7764 18.7451 51.0029 17.8838C50.2295 17.0225 49.8428 15.8213 49.8428 14.2803C49.8428 12.6982 50.2441 11.4678 51.0469 10.5889C51.8496 9.7041 52.9482 9.26172 54.3428 9.26172C55.1689 9.26172 55.96 9.40527 56.7158 9.69238L56.4785 10.4658C55.6523 10.1904 54.9346 10.0527 54.3252 10.0527C53.1533 10.0527 52.2656 10.416 51.6621 11.1426C51.0586 11.8633 50.7568 12.9033 50.7568 14.2627C50.7568 15.5518 51.0586 16.5625 51.6621 17.2949C52.2656 18.0215 53.1094 18.3848 54.1934 18.3848C55.0605 18.3848 55.8662 18.2295 56.6104 17.9189V18.7275C56.001 19.0264 55.2012 19.1758 54.2109 19.1758Z" transform="translate(371.723 71.6357)" fill="white"/>
<rect width="160" height="100" transform="translate(480.575 0.635742)" fill="#FFAD33"/>
<path d="M8.49902 10.8438L7.83105 14.3418H10.4941V15.0361H7.68164L6.92578 19H6.13477L6.9082 15.0361H3.74414L2.98828 19H2.21484L2.9707 15.0361H0.483398V14.3418H3.11133L3.7793 10.8438H1.16895V10.1406H3.90234L4.6582 6.15039H5.45801L4.67578 10.1406H7.88379L8.65723 6.15039H9.41309L8.63965 10.1406H11.1445V10.8438H8.49902ZM3.86719 14.3418H7.05762L7.74316 10.8438H4.55273L3.86719 14.3418ZM15.8871 10.2021H13.6371V19H12.767V10.2021H10.9916V9.69238L12.767 9.36719V8.62891C12.767 7.45703 12.9809 6.59863 13.4086 6.05371C13.8422 5.50293 14.5482 5.22754 15.5268 5.22754C16.0541 5.22754 16.5814 5.30664 17.1088 5.46484L16.9066 6.2207C16.4379 6.07422 15.9721 6.00098 15.5092 6.00098C14.8295 6.00098 14.3461 6.20312 14.059 6.60742C13.7777 7.00586 13.6371 7.65625 13.6371 8.55859V9.44629H15.8871V10.2021ZM21.2836 10.2021H19.0336V19H18.1635V10.2021H16.3881V9.69238L18.1635 9.36719V8.62891C18.1635 7.45703 18.3773 6.59863 18.8051 6.05371C19.2387 5.50293 19.9447 5.22754 20.9232 5.22754C21.4506 5.22754 21.9779 5.30664 22.5053 5.46484L22.3031 6.2207C21.8344 6.07422 21.3686 6.00098 20.9057 6.00098C20.226 6.00098 19.7426 6.20312 19.4555 6.60742C19.1742 7.00586 19.0336 7.65625 19.0336 8.55859V9.44629H21.2836V10.2021ZM28.0477 19L27.8279 17.4883H27.7576C27.2771 18.1035 26.782 18.54 26.2723 18.7979C25.7684 19.0498 25.1707 19.1758 24.4793 19.1758C23.5418 19.1758 22.8123 18.9355 22.2908 18.4551C21.7693 17.9746 21.5086 17.3096 21.5086 16.46C21.5086 15.5283 21.8953 14.8047 22.6688 14.2891C23.448 13.7734 24.573 13.501 26.0438 13.4717L27.8631 13.4189V12.7861C27.8631 11.8779 27.6785 11.1924 27.3094 10.7295C26.9402 10.2666 26.3455 10.0352 25.5252 10.0352C24.6404 10.0352 23.7234 10.2812 22.7742 10.7734L22.449 10.0176C23.4979 9.52539 24.535 9.2793 25.5604 9.2793C26.6092 9.2793 27.3914 9.55176 27.907 10.0967C28.4285 10.6416 28.6893 11.4912 28.6893 12.6455V19H28.0477ZM24.532 18.3848C25.5516 18.3848 26.3543 18.0947 26.9402 17.5146C27.532 16.9287 27.8279 16.1172 27.8279 15.0801V14.1396L26.158 14.21C24.8162 14.2744 23.8582 14.4854 23.284 14.8428C22.7156 15.1943 22.4314 15.7451 22.4314 16.4951C22.4314 17.0928 22.6131 17.5586 22.9764 17.8926C23.3455 18.2207 23.8641 18.3848 24.532 18.3848ZM34.3898 9.26172C35.0813 9.26172 35.6789 9.3877 36.1828 9.63965C36.6867 9.8916 37.1379 10.3223 37.5363 10.9316H37.5891C37.5539 10.1934 37.5363 9.46973 37.5363 8.76074V5.32422H38.3977V19H37.8264L37.6066 17.541H37.5363C36.8098 18.6309 35.7668 19.1758 34.4074 19.1758C33.0891 19.1758 32.0813 18.7656 31.384 17.9453C30.6867 17.125 30.3381 15.9297 30.3381 14.3594C30.3381 12.707 30.6838 11.4443 31.3752 10.5713C32.0666 9.69824 33.0715 9.26172 34.3898 9.26172ZM34.3898 10.0527C33.3469 10.0527 32.5617 10.4189 32.0344 11.1514C31.5129 11.8838 31.2521 12.9473 31.2521 14.3418C31.2521 17.0488 32.3039 18.4023 34.4074 18.4023C35.4855 18.4023 36.2766 18.0889 36.7805 17.4619C37.2844 16.835 37.5363 15.8008 37.5363 14.3594V14.21C37.5363 12.7334 37.2873 11.6729 36.7893 11.0283C36.2971 10.3779 35.4973 10.0527 34.3898 10.0527ZM47.7193 9.17383C47.7193 9.9707 47.4674 10.6416 46.9635 11.1865C46.4654 11.7314 45.7945 12.0801 44.9508 12.2324V12.2852C45.982 12.4141 46.7672 12.7422 47.3063 13.2695C47.8453 13.7969 48.1148 14.5059 48.1148 15.3965C48.1148 16.5977 47.7047 17.5293 46.8844 18.1914C46.0699 18.8477 44.8951 19.1758 43.36 19.1758C42.0533 19.1758 40.9137 18.9326 39.941 18.4463V17.5762C40.4332 17.834 40.984 18.0361 41.5934 18.1826C42.2086 18.3291 42.7857 18.4023 43.3248 18.4023C44.6197 18.4023 45.5924 18.1416 46.2428 17.6201C46.8932 17.0928 47.2184 16.3516 47.2184 15.3965C47.2184 14.5469 46.8844 13.8936 46.2164 13.4365C45.5543 12.9795 44.5787 12.751 43.2896 12.751H41.901V11.9072H43.3072C44.3736 11.9072 45.2174 11.6553 45.8385 11.1514C46.4654 10.6416 46.7789 9.95312 46.7789 9.08594C46.7789 8.37109 46.524 7.7998 46.0143 7.37207C45.5104 6.93848 44.8482 6.72168 44.0279 6.72168C43.3893 6.72168 42.8063 6.8125 42.2789 6.99414C41.7516 7.16992 41.1598 7.47461 40.5035 7.9082L40.0729 7.31934C40.5709 6.90332 41.1715 6.5752 41.8746 6.33496C42.5777 6.08887 43.2896 5.96582 44.0104 5.96582C45.1939 5.96582 46.108 6.24707 46.7525 6.80957C47.3971 7.36621 47.7193 8.1543 47.7193 9.17383ZM57.1025 9.17383C57.1025 9.9707 56.8506 10.6416 56.3467 11.1865C55.8486 11.7314 55.1777 12.0801 54.334 12.2324V12.2852C55.3652 12.4141 56.1504 12.7422 56.6895 13.2695C57.2285 13.7969 57.498 14.5059 57.498 15.3965C57.498 16.5977 57.0879 17.5293 56.2676 18.1914C55.4531 18.8477 54.2783 19.1758 52.7432 19.1758C51.4365 19.1758 50.2969 18.9326 49.3242 18.4463V17.5762C49.8164 17.834 50.3672 18.0361 50.9766 18.1826C51.5918 18.3291 52.1689 18.4023 52.708 18.4023C54.0029 18.4023 54.9756 18.1416 55.626 17.6201C56.2764 17.0928 56.6016 16.3516 56.6016 15.3965C56.6016 14.5469 56.2676 13.8936 55.5996 13.4365C54.9375 12.9795 53.9619 12.751 52.6729 12.751H51.2842V11.9072H52.6904C53.7568 11.9072 54.6006 11.6553 55.2217 11.1514C55.8486 10.6416 56.1621 9.95312 56.1621 9.08594C56.1621 8.37109 55.9072 7.7998 55.3975 7.37207C54.8936 6.93848 54.2314 6.72168 53.4111 6.72168C52.7725 6.72168 52.1895 6.8125 51.6621 6.99414C51.1348 7.16992 50.543 7.47461 49.8867 7.9082L49.4561 7.31934C49.9541 6.90332 50.5547 6.5752 51.2578 6.33496C51.9609 6.08887 52.6729 5.96582 53.3936 5.96582C54.5771 5.96582 55.4912 6.24707 56.1357 6.80957C56.7803 7.36621 57.1025 8.1543 57.1025 9.17383Z" transform="translate(531.265 71.6357)" fill="white"/>
</svg>
