<svg width="2576" height="1731" viewBox="0 0 2576 1731" fill="none" xmlns="http://www.w3.org/2000/svg">
<path d="M163.205 12.543C155.135 12.033 148.205 14.933 142.015 19.643C135.032 25.0757 128.616 31.2001 122.865 37.923C117.245 44.5203 111.234 50.7749 104.865 56.653C101.545 59.734 97.6375 62.1129 93.3761 63.6474C89.1146 65.1818 84.5872 65.8402 80.0653 65.583C73.057 65.276 66.2237 63.2976 60.1353 59.813C46.3998 51.6184 33.8954 41.5179 22.9953 29.813C17.9053 24.443 13.7353 18.203 9.12526 12.373C6.89526 9.55302 5.21529 6.18305 1.59529 4.71305C0.205289 4.15305 -0.404769 3.11304 0.285231 1.71305C0.975231 0.313045 2.44528 -0.466989 3.83528 0.303011C6.04229 1.51146 8.11114 2.95664 10.0053 4.61301C11.3202 5.9792 12.5084 7.46195 13.5553 9.043C17.5553 14.143 21.5553 19.223 25.5553 24.353C30.7352 31.083 37.4753 36.143 44.1353 41.173C50.4822 45.8676 57.104 50.1786 63.9653 54.083C68.1634 56.6703 72.9281 58.197 77.8481 58.5315C82.7681 58.866 87.6956 57.9982 92.2053 56.003C99.9931 52.8877 106.733 47.6189 111.635 40.813C116.465 34.073 122.635 28.623 128.545 22.893C132.204 19.186 136.078 15.6967 140.145 12.443C147.645 6.69303 156.235 4.89303 165.645 6.01303C176.565 7.31303 186.185 11.303 195.505 17.213C213.229 28.6672 228.093 44.0303 238.955 62.123C247.215 75.773 255.255 89.583 264.955 102.293C265.043 102.426 265.14 102.553 265.245 102.673C273.195 111.673 281.195 120.723 292.475 125.673C300.845 129.313 309.665 130.773 318.835 128.673C328.425 126.54 337.663 123.059 346.275 118.333C352.985 114.553 359.975 110.803 363.585 103.333C364.351 101.616 365.019 99.8562 365.585 98.063C366.235 96.173 367.065 94.423 369.455 94.683C371.355 94.893 372.745 97.013 372.625 99.383C372.523 100.321 372.311 101.244 371.995 102.133C369.545 110.133 363.865 115.493 357.205 120.033C346.735 127.173 334.905 131.263 322.865 134.593C317.345 136.113 311.385 136.233 305.605 136.593C303.655 136.723 301.605 135.593 299.605 135.213C284.455 131.963 273.065 122.813 263.225 111.573C253.725 100.703 246.085 88.573 238.935 76.003C229.245 59.003 218.035 43.223 203.015 30.413C194.125 22.833 184.525 16.543 173.015 13.693C169.875 12.903 166.495 12.903 163.205 12.543Z" transform="translate(388.68 518.946) rotate(88.745)" fill="black"/>
<path d="M9.334 10.0748C7.994 16.6148 10.334 22.0147 11.424 27.5547C12.984 35.6347 14.604 43.7347 16.394 51.7347C17.884 58.5147 19.654 65.2448 21.224 72.0148C22.974 79.5648 24.644 87.1247 26.334 94.6847C26.4389 95.1489 26.5091 95.6202 26.544 96.0947C26.864 99.6447 26.194 101.465 24.474 101.785C22.524 102.145 20.614 100.355 19.804 97.3447C19.054 94.5947 18.264 91.8447 17.684 89.0547C16.374 82.8647 15.224 76.6447 13.924 70.4547C11.314 58.0847 8.61401 45.7447 6.02401 33.3747C4.88401 27.9547 4.024 22.4848 2.834 17.0648C2.144 13.8348 1.19401 10.6547 0.274006 7.48474C-0.645994 4.31474 0.773979 1.48474 4.18398 1.48474C12.084 1.29474 19.994 1.29473 27.894 1.41473C37.544 1.57473 47.164 1.91472 56.834 1.28472C62.834 0.894723 68.834 1.10473 74.754 0.044733C75.791 -0.109706 76.8479 0.139034 77.7072 0.739801C78.5665 1.34057 79.1629 2.24769 79.374 3.27471C79.5196 4.30145 79.2849 5.34605 78.7139 6.21173C78.1429 7.0774 77.2752 7.7044 76.274 7.97473C74.7583 8.44288 73.1889 8.71509 71.604 8.78472C59.604 9.18472 47.604 9.59472 35.604 9.78472C28.314 9.91472 21.024 9.68474 13.734 9.67474C12.284 9.73474 10.894 9.93476 9.334 10.0748Z" transform="translate(405.89 486.233) rotate(88.745)" fill="black"/>
<path d="M29.3518 11.1998C28.8249 12.4314 28.3937 13.7019 28.0618 14.9998C26.3518 27.2498 22.6418 38.9998 19.3818 50.8898C17.6222 57.9409 15.1042 64.7808 11.8718 71.2898C10.9895 73.1342 9.8701 74.8554 8.54183 76.4098C6.64183 78.4098 4.68183 78.4598 2.54183 76.9698C0.111826 75.2398 -0.578233 73.4098 0.481767 70.8998C2.68177 65.6698 5.33179 60.5998 7.13179 55.2398C9.79179 47.3398 11.7919 39.2398 14.2219 31.2398C16.7793 22.4641 18.5956 13.4893 19.6518 4.40979C20.0818 1.02979 21.2018 -0.120238 24.6518 0.0097618C27.3241 0.0469168 29.9711 0.533723 32.4818 1.44976C39.6318 4.33976 46.7818 7.31976 53.6518 10.8198C58.1112 13.2071 62.3336 16.0131 66.2618 19.1998C73.8618 25.1198 81.2618 31.3598 88.6918 37.4398C90.7718 39.1298 93.0319 40.6098 94.9719 42.4398C95.726 43.0513 96.2503 43.9006 96.4592 44.8488C96.6681 45.797 96.5491 46.788 96.1218 47.6598C95.0418 49.7298 93.2019 51.1698 90.7019 50.6598C89.0519 50.3198 86.9518 49.8998 86.0118 48.7398C80.4818 41.8698 72.9318 37.3798 66.4318 31.6698C62.5121 28.2791 58.1361 25.4549 53.4318 23.2798C48.1818 20.7998 43.3218 17.4798 38.1718 14.7498C35.2935 13.4186 32.3497 12.2338 29.3518 11.1998Z" transform="translate(2061.19 432.597) rotate(52.2546)" fill="black"/>
<path d="M15.9149 44.3864C15.5549 52.6564 15.585 60.9764 14.685 69.1864C13.9854 74.5092 12.6423 79.7273 10.685 84.7264C9.98496 86.6164 7.43491 88.1264 5.38491 89.0764C4.38491 89.5364 2.38491 88.6064 1.26491 87.7264C-0.155088 86.5864 -0.305035 84.7964 0.444965 82.9464C1.74497 79.7464 3.44498 76.5564 3.96498 73.2064C4.96498 66.4964 5.18498 59.6764 5.71498 52.9064C5.90498 50.5464 6.19498 48.1964 6.20498 45.8364C6.20498 41.8964 6.06494 37.9564 5.91494 34.0264C5.53494 24.5764 6.51495 15.0264 4.67495 5.67638C4.45649 4.74367 4.54415 3.76542 4.92495 2.8864C5.57495 1.7564 6.50488 0.396377 7.60488 0.0463768C8.44488 -0.213623 10.0949 0.666409 10.7449 1.51641C11.7984 2.89601 12.5266 4.49585 12.8749 6.1964C14.6103 15.843 15.5502 25.6158 15.685 35.4164C15.685 38.4164 15.9849 41.4164 16.1449 44.3664L15.9149 44.3864Z" transform="translate(2044.76 493.218) rotate(52.2546)" fill="black"/>
<path d="M46.3063 1.49606C42.8063 11.2961 39.5962 20.8161 36.0062 30.1861C33.4162 36.9661 30.3363 43.5561 27.4463 50.1861C26.9463 51.3461 26.2163 52.4161 25.8263 53.5961C23.2963 61.3061 18.3663 67.476 13.1063 73.396C11.1063 75.666 8.60625 77.446 5.38625 77.606C3.46625 77.716 1.49632 77.8061 0.456323 75.6661C-0.583677 73.5261 0.286352 71.926 1.73635 70.546C3.73635 68.546 6.0163 66.8161 8.0563 64.8461C9.57351 63.5215 10.8966 61.9898 11.9864 60.296C17.3975 50.4879 22.0769 40.2935 25.9864 29.796C29.1464 21.566 32.7563 13.5061 36.1963 5.38607C36.5054 4.83419 36.8599 4.30903 37.2562 3.81607C40.0362 -0.613934 41.1663 -0.903941 46.3063 1.49606Z" transform="translate(1925.46 515.831) rotate(52.2546)" fill="black"/>
<path d="M49.458 15.6757C39.708 16.5557 30.188 14.8357 20.718 12.9757C15.288 11.9157 9.89802 10.5657 4.58802 8.97568C2.81272 8.47052 1.29878 7.30372 0.358043 5.71567C-1.05196 2.55567 1.90807 -0.654334 5.63807 0.115666C9.53807 0.925666 13.4981 1.38569 17.3781 2.57569C23.2481 4.38569 29.488 4.98566 35.478 6.45566C42.088 8.08566 48.6881 6.38569 55.3081 6.85569C60.7781 7.25569 66.308 6.61567 71.848 6.43567C72.008 6.43567 72.168 6.43567 72.328 6.43567C74.328 6.62567 76.638 6.29566 77.328 8.98566C77.838 11.0657 76.6081 12.8557 73.5081 13.5057C68.8853 14.4793 64.2112 15.1905 59.5081 15.6357C56.1381 15.9357 52.758 15.6757 49.458 15.6757Z" transform="translate(1693.1 435.101) rotate(52.2546)" fill="black"/>
<path d="M3.47999 -3.05176e-07C5.98999 1.61 6.48002 3.81 6.70002 6.29C7.83002 19.48 9.12002 32.68 10.2 45.86C10.62 50.72 10.89 55.59 11.2 60.46C11.66 67.69 12.14 74.93 12.55 82.16C12.73 85.47 11.16 87.83 8.34998 89.46C5.46998 88.39 4.16999 86.34 4.41999 83.53C5.28999 73.86 3.42 64.33 3 54.73C2.45 42.27 1 29.85 4.88281e-06 17.41C0.0656323 16.355 0.222862 15.3077 0.469976 14.28C0.739869 13.2244 0.78417 12.1238 0.59998 11.05C-0.700019 7.41 1.4 4.37 2.12 1.05C2.25 0.740003 2.85999 0.5 3.47999 -3.05176e-07Z" transform="translate(1369.23 342.652) rotate(52.2546)" fill="black"/>
<path d="M4.88281e-06 6.74405C0.480179 5.7223 1.25447 4.86716 2.22364 4.28815C3.19281 3.70914 4.31266 3.43264 5.43995 3.49405C7.64782 3.39788 9.85997 3.49826 12.0501 3.79404C22.9301 5.79404 33.71 4.93405 44.5 3.08405C47.45 2.57405 50.5 2.66403 53.5 2.22403C56.3 1.81403 59.03 0.944052 61.82 0.494052C63.98 0.154052 66.2 0.174041 68.4 0.0140407C70.6 -0.145959 71.6301 1.07404 71.9301 3.01404C72.2801 5.24404 70.7801 6.08404 68.9301 6.54404C64.4901 7.66404 60.05 8.74404 55.61 9.85404C45.0699 12.6396 34.2012 13.9851 23.3001 13.854C19.0801 13.764 14.8799 12.7541 10.6899 12.0641C8.82995 11.7641 7.03005 11.064 5.17005 10.834C3.98865 10.7792 2.85417 10.355 1.92664 9.62119C0.999116 8.88742 0.325275 7.88112 4.88281e-06 6.74405V6.74405Z" transform="translate(1613.31 345.927) rotate(52.2546)" fill="black"/>
<path d="M18.2203 -1.2207e-06C18.7334 0.812726 19.1085 1.70478 19.3303 2.64C19.2729 3.90275 19.1022 5.15779 18.8203 6.39C17.1103 17.8 15.3703 29.2 13.7203 40.62C13.2403 43.88 13.0003 47.17 12.7203 50.45C12.0903 57.68 11.1903 64.86 8.72032 71.73C8.07708 73.6757 7.0804 75.486 5.78032 77.07C5.26837 77.5182 4.67208 77.8596 4.02641 78.0743C3.38074 78.2889 2.69869 78.3725 2.02031 78.32C0.280308 78.2 -0.099692 76.5 0.020308 75.04C0.258752 72.8711 0.653099 70.7222 1.2003 68.61C1.9803 65.61 3.31031 62.61 3.77031 59.55C5.01031 51.11 5.60032 42.55 7.09032 34.17C8.09032 28.3 8.55033 22.28 10.8603 16.61C12.1503 13.44 12.5803 9.89999 13.3203 6.50999C13.9703 3.71999 15.7303 1.87 18.2203 -1.2207e-06Z" transform="translate(1462.06 284.435) rotate(52.2546)" fill="black"/>
<path d="M61.6697 1.99073C61.6395 3.20218 61.2551 4.37822 60.5637 5.37348C59.8724 6.36875 58.9045 7.13961 57.7798 7.59074C50.0798 11.1907 42.3797 14.7807 34.6997 18.4407C32.1391 19.6184 29.6544 20.9543 27.2598 22.4407C20.7498 26.6007 14.3498 30.9007 7.89979 35.1307C7.1613 35.7096 6.35949 36.2027 5.50977 36.6007C3.74977 37.2407 1.87973 37.1407 0.77973 35.5307C0.199772 34.7573 -0.0722057 33.796 0.0164855 32.8333C0.105177 31.8706 0.548195 30.9752 1.25971 30.3207C2.17474 29.219 3.20008 28.2138 4.31971 27.3207C10.9397 22.8707 17.5097 18.3207 24.4597 14.3907C32.4597 9.84072 40.9897 6.70073 49.4597 3.33073C51.5278 2.59654 53.5483 1.73491 55.5098 0.75074C58.0998 -0.64926 59.9497 -0.00926971 61.6697 1.99073Z" transform="translate(1545.82 284.377) rotate(52.2546)" fill="black"/>
<path d="M7.51555 1.52588e-06C8.99919 2.41013 9.81699 5.17066 9.88554 8C10.8255 19.81 11.7655 31.61 12.6255 43.42C13.0341 50.0512 12.2897 56.7031 10.4255 63.08C9.72552 65.58 7.98556 67.81 6.58556 70.08C5.34556 72.08 3.41556 72.15 1.58556 71.14C-0.244444 70.13 -0.274426 68.55 0.415574 66.63C1.63557 63.24 3.05557 59.83 3.53557 56.31C4.27487 51.3834 4.5194 46.3953 4.26555 41.42C3.32402 28.8203 3.23714 16.1714 4.00554 3.56C4.13554 1.15 5.10555 0.180002 7.51555 1.52588e-06Z" transform="translate(1261.62 418.187) rotate(52.2546)" fill="black"/>
<path d="M34.4767 -5.49316e-06C34.7453 2.65772 34.8522 5.32931 34.7967 7.99999C34.1967 15.22 33.3667 22.43 32.6167 29.65C31.7567 37.87 27.1867 44.24 22.3367 50.54C18.4067 55.66 12.6867 57.92 7.19672 60.54C5.905 61.1295 4.47855 61.3609 3.06672 61.21C0.146719 60.87 -0.933254 58.45 0.906746 56.21C2.42754 54.2462 4.35044 52.6301 6.5467 51.47C12.26 48.8072 17.1815 44.7025 20.8267 39.56C24.4867 34.5 25.0867 28.49 26.4667 22.75C27.9067 16.81 28.8267 10.75 30.0267 4.74999C30.4567 2.51999 31.8967 1.24999 34.4767 -5.49316e-06Z" transform="translate(1137.37 449.814) rotate(52.2546)" fill="black"/>
<path d="M4.52182 41.4261C4.18354 41.4395 3.84543 41.3955 3.52182 41.2961C1.87182 40.7161 -0.288169 40.0961 0.0318313 38.0661C0.488317 36.4416 1.56604 35.0621 3.03183 34.2261C4.91183 33.1561 7.18186 32.7761 9.31186 32.1661C18.9119 29.4061 26.3119 23.4061 32.8219 16.1661C36.8219 11.6961 40.5519 6.97607 44.6919 2.64607C45.9719 1.29607 48.1318 0.566076 50.0318 0.0860762C51.9318 -0.393924 53.0318 1.20608 52.2918 3.08608C52.0399 3.66616 51.7029 4.20543 51.2918 4.68608C46.7118 10.9061 42.2918 17.2161 37.4618 23.2861C35.4061 25.6723 33.107 27.8374 30.6018 29.7461C27.9127 32.1485 25.0333 34.329 21.9918 36.2661C16.6873 39.41 10.6833 41.1834 4.52182 41.4261V41.4261Z" transform="translate(1797.53 518.96) rotate(52.2546)" fill="black"/>
<path d="M36.2489 9.62539C35.5982 10.6839 35.0657 11.7758 34.6559 12.8912C32.5441 23.4192 27.9622 33.5175 23.9362 43.7361C21.7631 49.7961 18.6534 55.6745 14.6614 61.2684C13.5719 62.8536 12.1894 64.3329 10.549 65.6687C8.20254 67.3876 5.78198 67.4305 3.13911 66.15C0.138103 64.6632 -0.714108 63.0904 0.594974 60.9332C3.31194 56.4384 6.58467 52.0812 8.80764 47.4746C12.0927 40.6852 14.5628 33.7238 17.5638 26.8484C20.7222 19.3063 22.9653 11.5931 24.2697 3.78989C24.8007 0.885027 26.1839 -0.103336 30.4446 0.00838956C33.7448 0.0403216 37.0138 0.458696 40.1144 1.24597C48.9446 3.72971 57.7747 6.29081 66.2591 9.2988C71.7664 11.3506 76.9809 13.7621 81.8322 16.5008C91.2181 21.5886 100.357 26.9515 109.533 32.1768C112.102 33.6292 114.893 34.9012 117.289 36.4739C118.22 36.9995 118.867 37.7294 119.125 38.5443C119.383 39.3592 119.236 40.2109 118.709 40.9602C117.375 42.7392 115.103 43.9767 112.015 43.5384C109.978 43.2462 107.384 42.8853 106.223 41.8884C99.3937 35.9841 90.0696 32.1252 82.0422 27.2179C77.2013 24.3039 71.7971 21.8767 65.9874 20.0073C59.5038 17.8759 53.5017 15.0226 47.1416 12.6763C43.5869 11.5323 39.9513 10.5141 36.2489 9.62539Z" transform="matrix(0.9262 -0.377033 -0.361939 -0.932202 2289.97 1470.1)" fill="black"/>
<path d="M19.6547 38.1469C19.2101 45.2544 19.2472 52.4048 18.1357 59.4607C17.2718 64.0353 15.613 68.5199 13.1957 72.8162C12.3313 74.4405 9.18198 75.7383 6.65027 76.5547C5.41529 76.9501 2.94533 76.1508 1.56214 75.3945C-0.191531 74.4148 -0.376713 72.8764 0.549525 71.2864C2.155 68.5363 4.2545 65.7947 4.89669 62.9156C6.13167 57.1489 6.40337 51.2876 7.05791 45.4692C7.29256 43.441 7.65069 41.4213 7.66304 39.3931C7.66304 36.0069 7.49009 32.6208 7.30485 29.2432C6.83555 21.1216 8.04585 12.9141 5.77348 4.87844C5.50369 4.07684 5.61194 3.23611 6.08223 2.48066C6.88496 1.5095 8.03341 0.340657 9.3919 0.0398575C10.4293 -0.183594 12.467 0.57273 13.2698 1.30324C14.5709 2.48891 15.4701 3.86386 15.9003 5.32536C18.0435 13.6159 19.2042 22.015 19.3707 30.4378C19.3707 33.0161 19.7411 35.5944 19.9387 38.1297L19.6547 38.1469Z" transform="matrix(0.9262 -0.377033 -0.361939 -0.932202 2317.71 1412.32)" fill="black"/>
<path d="M57.1875 1.28575C52.8651 9.70815 48.9007 17.8899 44.4671 25.9428C41.2685 31.7697 37.4648 37.4333 33.8957 43.1313C33.2782 44.1282 32.3767 45.0478 31.8951 46.062C28.7706 52.6882 22.6821 57.9908 16.1861 63.0786C13.7161 65.0295 10.6286 66.5593 6.65193 66.6968C4.28077 66.7914 1.84793 66.8687 0.563551 65.0295C-0.720831 63.1904 0.35364 61.8153 2.14437 60.6293C4.61433 58.9104 7.43003 57.4236 9.94939 55.7305C11.8231 54.5922 13.4571 53.2758 14.8029 51.8201C21.4856 43.3907 27.2646 34.6294 32.0927 25.6076C35.9953 18.5345 40.4535 11.6075 44.7018 4.62894C45.0835 4.15464 45.5213 3.7033 46.0108 3.27963C49.4441 -0.527632 50.8397 -0.776873 57.1875 1.28575Z" transform="matrix(0.9262 -0.377033 -0.361939 -0.932202 2220.98 1351.33)" fill="black"/>
<path d="M61.0798 13.4721C49.0387 14.2284 37.2817 12.7502 25.5864 11.1517C18.8805 10.2407 12.2239 9.08044 5.66613 7.71395C3.47366 7.2798 1.60397 6.27703 0.442177 4.91221C-1.29915 2.19642 2.35644 -0.562353 6.96292 0.0994062C11.7794 0.795543 16.6699 1.1909 21.4616 2.21362C28.711 3.76918 36.4172 4.28482 43.8148 5.54818C51.978 6.94904 60.129 5.48804 68.3046 5.89197C75.0599 6.23574 81.8893 5.68569 88.7311 5.531C88.9287 5.531 89.1263 5.531 89.3239 5.531C91.7938 5.69429 94.6466 5.41067 95.4988 7.72253C96.1286 9.51014 94.6097 11.0485 90.7812 11.6072C85.0722 12.4439 79.2997 13.0551 73.4915 13.4377C69.3296 13.6956 65.1553 13.4721 61.0798 13.4721Z" transform="matrix(0.9262 -0.377033 -0.361939 -0.932202 1943.49 1339.68)" fill="black"/>
<path d="M4.29772 -2.62277e-07C7.39753 1.38368 8.00271 3.27442 8.27441 5.4058C9.66994 16.7417 11.2631 28.0861 12.5968 39.4134C13.1155 43.5902 13.449 47.7756 13.8318 51.961C14.3999 58.1747 14.9927 64.3969 15.499 70.6106C15.7213 73.4553 13.7824 75.4836 10.3121 76.8844C6.75533 75.9648 5.14986 74.203 5.45861 71.788C6.53305 63.4774 4.22365 55.287 3.70496 47.0365C3.02571 36.328 1.23499 25.6539 6.03019e-06 14.9626C0.0810547 14.056 0.275231 13.1559 0.580412 12.2726C0.913725 11.3655 0.968437 10.4196 0.740966 9.49668C-0.864512 6.36836 1.72898 3.7557 2.61816 0.902402C2.77871 0.635979 3.53203 0.429714 4.29772 -2.62277e-07Z" transform="matrix(0.9262 -0.377033 -0.361939 -0.932202 1571.03 1306.2)" fill="black"/>
<path d="M6.03019e-06 5.79603C0.593013 4.91791 1.54925 4.18297 2.74615 3.68536C3.94306 3.18774 5.32607 2.95011 6.71824 3.00289C9.44492 2.92023 12.1769 3.00651 14.8816 3.2607C28.3182 4.97956 41.6313 4.24046 54.9568 2.65052C58.6 2.21221 62.3667 2.28954 66.0716 1.9114C69.5296 1.55903 72.901 0.811345 76.3466 0.424602C79.0142 0.132396 81.7559 0.149575 84.4729 0.012067C87.1898 -0.125442 88.4619 0.923061 88.8324 2.59035C89.2647 4.50688 87.4122 5.22879 85.1275 5.62413C79.6441 6.58669 74.1607 7.51487 68.6774 8.46884C55.6606 10.8628 42.2379 12.0192 28.7752 11.9065C23.5635 11.8292 18.3765 10.9612 13.2019 10.3682C10.9048 10.1104 8.68199 9.50875 6.38492 9.31109C4.92591 9.26393 3.52485 8.89934 2.37937 8.26872C1.23389 7.6381 0.401709 6.77325 6.03019e-06 5.79603V5.79603Z" transform="matrix(0.9262 -0.377033 -0.361939 -0.932202 1804.31 1388.44)" fill="black"/>
<path d="M22.5018 -1.04911e-06C23.1355 0.69848 23.5987 1.46514 23.8726 2.26889C23.8017 3.35413 23.5909 4.43275 23.2427 5.49174C21.1309 15.2978 18.9821 25.0953 16.9444 34.91C16.3516 37.7117 16.0552 40.5392 15.7094 43.3581C14.9313 49.5718 13.8199 55.7425 10.7694 61.6468C9.97506 63.3189 8.74417 64.8748 7.13859 66.2361C6.50635 66.6213 5.76994 66.9148 4.97255 67.0992C4.17516 67.2837 3.33284 67.3555 2.49505 67.3104C0.346176 67.2073 -0.123118 65.7463 0.02508 64.4915C0.319555 62.6275 0.806566 60.7807 1.48235 58.9654C2.44564 56.3871 4.08817 53.8088 4.65627 51.1789C6.18765 43.9254 6.91629 36.5687 8.75642 29.3667C9.9914 24.3218 10.5595 19.1481 13.4123 14.2751C15.0055 11.5507 15.5365 8.50833 16.4503 5.59487C17.2531 3.19707 19.4267 1.60713 22.5018 -1.04911e-06Z" transform="matrix(0.9262 -0.377033 -0.361939 -0.932202 1617.29 1388.53)" fill="black"/>
<path d="M76.161 1.71089C76.1238 2.75204 75.649 3.76276 74.7952 4.61812C73.9414 5.47348 72.7461 6.13598 71.3571 6.52369C61.8477 9.61763 52.3382 12.703 42.8536 15.8485C39.6913 16.8606 36.6226 18.0087 33.6654 19.2862C25.6256 22.8614 17.7217 26.557 9.7561 30.1923C8.84409 30.6898 7.85386 31.1136 6.80448 31.4557C4.6309 32.0057 2.32144 31.9198 0.962954 30.5361C0.246715 29.8714 -0.0891728 29.0452 0.0203593 28.2179C0.129891 27.3905 0.677012 26.621 1.55572 26.0585C2.68577 25.1116 3.95204 24.2477 5.33477 23.4802C13.5104 19.6558 21.6242 15.7453 30.2073 12.3678C40.0872 8.45739 50.6216 5.75879 61.0819 2.86252C63.6359 2.23154 66.1313 1.49103 68.5536 0.645207C71.7522 -0.557992 74.0369 -0.00796665 76.161 1.71089Z" transform="matrix(0.9262 -0.377033 -0.361939 -0.932202 1696.51 1417.77)" fill="black"/>
<path d="M9.28158 1.31138e-06C11.1138 2.07133 12.1238 4.44381 12.2085 6.87543C13.3694 17.0253 14.5302 27.1665 15.5923 37.3164C16.0969 43.0154 15.1776 48.7322 12.8753 54.2127C12.0109 56.3613 9.86203 58.2778 8.13305 60.2287C6.60167 61.9476 4.21815 62.0077 1.95814 61.1397C-0.301884 60.2717 -0.338912 58.9138 0.513226 57.2637C2.01991 54.3502 3.77358 51.4196 4.36637 48.3944C5.27939 44.1604 5.58138 39.8734 5.26788 35.5975C4.10511 24.769 3.99782 13.8981 4.94677 3.05956C5.10732 0.988341 6.30527 0.154698 9.28158 1.31138e-06Z" transform="matrix(0.9262 -0.377033 -0.361939 -0.932202 1523.15 1203.85)" fill="black"/>
<path d="M42.5782 -4.72099e-06C42.9099 2.28412 43.0419 4.58017 42.9734 6.87544C42.2324 13.0805 41.2073 19.277 40.2811 25.4821C39.219 32.5466 33.5752 38.0212 27.5855 43.4356C22.732 47.8359 15.6679 49.7782 8.88784 52.0299C7.29258 52.5366 5.53094 52.7355 3.78735 52.6058C0.181195 52.3136 -1.15255 50.2337 1.11982 48.3086C2.99797 46.6209 5.37273 45.2319 8.08507 44.2349C15.1409 41.9464 21.2189 38.4187 25.7207 33.9991C30.2407 29.6504 30.9817 24.4852 32.686 19.552C34.4644 14.447 35.6006 9.23888 37.0825 4.08229C37.6136 2.16576 39.3919 1.07428 42.5782 -4.72099e-06Z" transform="matrix(0.926248 -0.376915 -0.362183 -0.932107 1428.17 1133.39)" fill="black"/>
<path d="M5.58437 35.6027C5.1666 35.6142 4.74904 35.5765 4.34939 35.491C2.31167 34.9925 -0.355883 34.4597 0.0393111 32.7151C0.603063 31.3189 1.93403 30.1333 3.74426 29.4148C6.06603 28.4952 8.86948 28.1687 11.5 27.6444C23.3558 25.2724 32.4947 20.1158 40.5345 13.8936C45.4744 10.0519 50.0809 5.99543 55.1937 2.27411C56.7745 1.11388 59.442 0.486502 61.7885 0.0739763C64.1349 -0.338549 65.4934 1.03654 64.5795 2.65226C64.2684 3.1508 63.8522 3.61427 63.3446 4.02735C57.6883 9.37299 52.2296 14.796 46.2646 20.0127C43.726 22.0635 40.8866 23.9242 37.7927 25.5646C34.4717 27.6294 30.9157 29.5033 27.1595 31.1681C20.6085 33.8701 13.1937 35.3942 5.58437 35.6027V35.6027Z" transform="matrix(0.9262 -0.377033 -0.361939 -0.932202 2102.17 1304.07)" fill="black"/>
<path d="M74.207 54.22C76.054 55.4466 77.7726 56.6232 79.5625 57.7856C83.8413 60.5597 87.8062 63.7901 92.7267 65.3518C95.2939 66.1648 97.9467 66.6924 100.571 67.3842C105.941 68.8104 111.075 70.6716 115.504 74.2372C117.429 75.7847 116.887 78.081 117.85 79.8851C117.992 80.149 117.094 81.2686 116.474 81.5681C115.575 82.0402 114.561 82.2456 113.55 82.16C109.328 81.4469 105.078 80.9477 101.341 78.4518C95.9928 74.8862 90.2878 71.834 83.9838 70.3222C80.4183 69.4665 76.6387 69.3096 72.9519 68.896C71.162 68.682 69.3365 68.6393 67.5679 68.3184C67.024 68.1494 66.4356 68.1975 65.9264 68.4528C65.4172 68.7081 65.0267 69.1506 64.8366 69.6876C64.2611 70.7862 63.8685 71.9712 63.6743 73.1961C63.2749 78.4803 62.7828 83.7859 62.8542 89.0772C62.9058 91.639 63.5919 94.148 64.8509 96.3796C66.8263 99.9452 69.4077 103.375 69.8427 107.704C69.9711 109.009 70.0995 110.157 69.0655 111.141C68.8161 111.369 68.6126 111.642 68.4664 111.947C68.0171 113.017 68.2453 114.657 66.434 114.578C65.5767 114.55 64.7482 114.262 64.0581 113.753C63.3679 113.244 62.8487 112.537 62.569 111.726C61.4784 109.248 60.5656 106.696 59.8377 104.088C59.0196 100.444 57.4984 96.9951 55.3594 93.9336C53.5908 91.4805 52.2715 88.6993 50.5529 86.1962C46.5238 80.3487 42.295 74.6366 38.3301 68.7534C37.1178 66.9635 35.7557 66.0364 33.6449 66.0435C27.0129 66.0435 20.388 64.6173 13.7417 65.8795C12.0022 66.3232 10.2169 66.5625 8.42191 66.5926C5.56944 66.4643 5.24141 65.4659 6.56068 62.9486C6.9981 62.0491 7.61362 61.2478 8.36994 60.5932C9.12626 59.9386 10.0077 59.4444 10.9606 59.1406C15.4961 57.5004 19.896 55.4609 24.3173 53.5141C26.8132 52.4159 27.0914 51.4674 25.7436 49.0571C21.3008 41.0773 16.8153 33.126 12.3726 25.1462C9.69128 20.3327 7.10262 15.4621 4.39277 10.6628C3.45146 9.00123 2.25342 7.47517 1.18374 5.90631C-0.427903 3.58868 -0.413654 2.89696 1.34775 1.3281C3.39439 -0.490346 4.15033 -0.433309 6.19698 1.44932C12.9146 7.61066 19.5251 13.8932 26.421 19.8478C30.7639 23.5988 35.5132 26.8933 40.1414 30.302C43.7569 32.962 47.5507 35.3937 51.1305 38.1463C53.6336 40.0504 56.1223 39.7723 58.6753 38.6384C68.174 34.4524 77.5587 30.0454 86.6652 25.0892C87.9295 24.4005 89.3553 24.0632 90.7942 24.1122C93.3471 24.2477 94.5024 26.1232 93.3186 28.3909C91.5358 31.7569 90.1167 35.3081 87.4781 38.2533C83.7271 42.4322 80.3826 46.9605 76.8455 51.3319C76.0682 52.152 75.241 53.0291 74.207 54.22ZM67.6178 57.7001C63.7884 54.8476 60.2442 52.2875 56.7571 49.6347C54.9957 48.3011 53.1915 48.4224 51.3302 49.2496C47.401 50.9611 43.4503 52.6298 39.5352 54.3698C38.5844 54.8574 37.6629 55.4003 36.7755 55.9957C37.6954 57.2508 38.487 58.1921 39.1145 59.2333C40.4837 61.5081 42.4305 62.2426 45.0619 62.3139C50.6741 62.4779 56.2863 62.9058 61.8772 63.405C62.6007 63.5174 63.3414 63.4167 64.0087 63.1153C64.676 62.8139 65.2412 62.3249 65.6353 61.7078C66.3865 60.4185 67.0489 59.0795 67.6178 57.7001V57.7001ZM46.4667 43.5161C36.9751 35.9072 27.7973 28.5407 18.6052 21.1813C18.2445 20.9062 17.8576 20.6674 17.45 20.4682C17.3442 20.4288 17.2277 20.4288 17.1219 20.4682C17.0238 20.5089 16.9326 20.5642 16.851 20.6322C18.1489 25.0963 31.313 47.3669 33.7733 49.107C37.8951 47.2172 42.566 46.2901 46.4739 43.4876L46.4667 43.5161ZM61.7988 45.0921C64.7511 47.3242 67.1828 49.271 69.7572 51.0253C70.1313 51.2161 70.5439 51.3198 70.9638 51.3284C71.3837 51.337 71.8001 51.2505 72.1818 51.0752C73.2399 50.4697 74.1545 49.6426 74.8631 48.6506C77.3234 45.1778 79.6624 41.6193 82.037 38.0893C82.8072 36.9341 83.5346 35.7575 84.6471 34.0246L61.7988 45.0921ZM56.9924 82.4738C58.2403 78.3519 59.5239 74.3085 60.6506 70.2295C61.0856 68.6606 60.2584 67.9761 58.333 67.7621C55.8799 67.4912 53.4411 67.049 50.9808 66.8636C49.034 66.6996 47.0159 66.2931 44.9122 67.3414C45.2328 68.1021 45.6168 68.8344 46.0603 69.5307C49.3882 73.8094 52.7303 78.0596 56.0867 82.2812C56.2436 82.4381 56.7071 82.3882 56.9995 82.4452L56.9924 82.4738ZM32.2186 61.7363L32.6394 60.6809C31.9262 59.9678 31.0848 58.6842 30.4501 58.7697C28.0613 59.0383 25.7945 59.9667 23.9037 61.4511C23.9821 61.7292 24.0535 62.0073 24.1319 62.2783L32.2186 61.7363ZM68.9299 63.1126C71.0693 63.6189 72.9376 64.1395 75.241 63.1697C74.4067 62.5136 73.9004 62.1143 73.3798 61.7435C73.0347 61.4613 72.6702 61.2039 72.2888 60.9732C70.3634 59.8394 69.6716 60.2459 68.9371 63.0841L68.9299 63.1126Z" transform="translate(115.158 1002.18) rotate(88.745)" fill="black"/>
<path d="M56.9937 52.892C59.4744 55.5029 61.7092 58.1065 64.2261 60.4281C68.4932 64.406 73.0569 68.0656 77.2445 72.123C79.9205 74.7122 83.4355 75.4644 86.4803 77.1857C87.8255 77.9596 89.3154 78.6322 89.3733 80.2595C89.5252 82.9355 91.3838 84.1216 93.3004 84.9823C94.766 85.6244 95.9805 86.7296 96.7576 88.1283C97.394 89.1843 98.204 90.2981 97.3 91.6216C96.5261 92.7716 94.3419 93.6178 92.9605 92.9307C90.6004 91.7969 88.3593 90.4304 86.2705 88.8516C82.7773 86.1033 79.6674 82.8704 76.1018 80.2305C71.873 77.1107 67.4841 74.2138 62.9532 71.5516C59.4382 69.4615 55.634 67.8486 51.9599 66.0116C49.7323 64.8978 49.0669 65.1292 48.5896 67.4002C47.6711 72.0868 46.7308 76.8024 46.022 81.5035C45.6821 83.7527 45.9497 86.0816 45.7472 88.3526C45.6939 89.4667 45.3417 90.5459 44.7275 91.477C42.8254 94.0517 40.7641 93.965 38.9849 91.289C37.7771 89.4881 36.7573 87.557 35.7158 85.6476C32.0128 78.8274 28.223 72.0434 24.6936 65.1292C23.1206 61.951 21.7909 58.658 20.7158 55.2787C19.8551 52.7039 18.141 51.3731 15.7326 50.5703C11.6101 49.2034 7.50936 47.7859 3.4375 46.3683C1.79574 45.8042 0.248064 45.2328 0.067253 43.0486C-0.193114 39.9821 0.190134 39.0997 3.24945 38.4054C6.69209 37.6315 10.1999 37.1687 14.0547 36.5033C13.4689 33.6465 13.2302 30.6523 12.2177 27.9473C9.56338 20.8523 8.65936 13.3233 6.37391 6.14877C6.17949 5.13888 6.12354 4.10722 6.20758 3.08223C6.16405 2.4485 6.34018 1.81913 6.7064 1.3001C7.07261 0.781071 7.60648 0.404096 8.21813 0.232649C8.80218 -0.0208735 9.45503 -0.0687948 10.0698 0.0967322C10.6847 0.262259 11.2251 0.631452 11.6029 1.14394C13.2515 2.88911 14.7993 4.7267 16.239 6.64781C21.2269 13.6049 26.622 20.2607 32.3962 26.5804C34.3055 28.7067 36.0124 30.9922 37.7772 33.2631C39.1224 35.0062 40.6701 36.0621 43.0207 35.7077C47.7651 34.9845 52.553 34.6012 57.2758 33.7694C61.7671 32.9811 66.1644 31.7226 70.6413 30.8764C71.9668 30.6166 73.3393 30.7498 74.5901 31.2598C77.3602 32.5182 77.635 34.7964 75.5087 37.0457C73.3823 39.295 71.4585 41.3852 69.2598 43.3958C67.8017 44.668 66.1997 45.7651 64.4865 46.6649C60.9064 48.6104 60.0819 49.1817 56.9937 52.892ZM24.0572 43.9599C24.2235 46.8529 25.7134 48.2994 27.7891 49.1817C31.5452 50.8355 35.3108 52.4628 39.0862 54.0636C41.0656 54.9503 43.0912 55.7301 45.1542 56.3997C45.5673 56.5063 45.9997 56.5147 46.4166 56.4243C46.8335 56.3338 47.2235 56.1471 47.5553 55.879C47.9169 55.4161 47.7072 54.0853 47.2732 53.485C45.8268 51.5395 44.1272 49.8688 42.7313 47.8871C40.5616 44.864 37.929 43.3307 34.0524 43.7285C30.8123 44.0684 27.5143 43.9021 24.0572 43.9599V43.9599ZM29.4454 56.4793C29.4454 60.6235 35.9546 73.3091 39.4695 75.6814C40.5327 71.4142 41.6392 67.27 42.5361 63.0897C42.5022 62.7234 42.3781 62.3712 42.1749 62.0645C41.9717 61.7578 41.6958 61.5062 41.3716 61.3322C37.4444 59.6398 33.4594 58.0921 29.4454 56.5082V56.4793ZM16.926 18.7766C16.6584 19.6228 16.4848 19.8687 16.5354 20.0423C17.9819 24.9458 19.4285 29.8639 21.0413 34.7241C21.2194 35.1168 21.4866 35.4626 21.8218 35.7338C22.1571 36.005 22.551 36.1942 22.9723 36.2863C25.2459 36.3971 27.5244 36.356 29.7925 36.1634C30.1541 36.1634 30.4651 35.404 30.9352 34.8326L16.926 18.7766ZM52.0756 49.0805C56.2342 46.1875 60.5954 44.6108 63.7777 40.4015L48.3003 43.4175C49.7829 45.6596 50.875 47.2941 52.0756 49.0805V49.0805Z" transform="translate(668.614 1170.5) rotate(88.745)" fill="black"/>
<path d="M72.9779 44.5009C72.9779 45.5909 72.9779 46.5009 72.9779 47.4409C72.9779 51.5709 69.978 53.331 66.298 51.341C65.3044 50.881 64.4313 50.1963 63.7479 49.341C61.7479 46.271 58.7479 46.3409 55.7479 46.8109C52.0079 47.4309 48.308 48.461 44.548 48.711C37.758 49.161 30.9379 49.2009 24.1279 49.3309C23.0053 49.3963 21.8897 49.1159 20.9313 48.5277C19.9729 47.9394 19.2179 47.0715 18.7679 46.0409C17.7079 43.8009 18.9379 42.1009 20.4379 40.5509C20.8679 40.1009 21.2379 39.5509 21.9279 38.7509C20.9279 38.3709 20.1279 38.0309 19.3179 37.7509C14.9379 36.4209 10.4279 35.3909 6.17786 33.7509C-0.952139 30.9509 -2.09211 22.6309 3.70789 17.7509C8.55789 13.6609 14.708 12.3409 20.278 9.89095C21.558 9.33095 22.9379 8.96091 24.5179 8.42091C24.2879 6.90091 24.0979 5.5709 23.8579 3.9709C25.0079 3.8409 26.1779 3.33095 26.7379 3.71095C31.3879 6.89095 36.1579 5.38096 40.9579 4.40096C46.3779 3.29096 51.7579 1.85092 57.2379 1.24092C64.2379 0.440921 71.3879 0.130931 78.4679 0.000930648C81.6479 -0.0590694 82.6679 2.79093 83.9279 6.00093C81.7479 6.85093 79.838 8.00094 77.798 8.32094C67.528 10.1409 57.2079 11.7109 46.9379 13.5009C45.2739 13.9607 43.6594 14.5837 42.1179 15.3609C42.9779 18.9609 45.528 20.7409 47.668 22.7309C50.898 25.7309 54.398 28.4609 57.668 31.4109C60.428 33.8809 63.668 33.9809 67.048 33.6209C74.118 32.8809 81.1879 32.1209 88.2379 31.2909C90.2379 31.0509 92.2379 30.4509 94.2379 30.1709C96.5523 29.7854 98.892 29.5715 101.238 29.531C103.628 29.531 106.968 33.361 106.868 35.531C106.738 38.371 104.868 40.131 101.618 40.531C92.8279 41.641 84.0379 42.7409 75.2479 43.8809C74.4769 44.0307 73.7181 44.238 72.9779 44.5009ZM45.6179 32.2309L35.9279 19.5009C35.3827 18.6205 34.5426 17.9622 33.5573 17.6435C32.5719 17.3248 31.5055 17.3665 30.548 17.7609C24.908 19.7609 19.2379 21.6409 13.6279 23.7009C12.7379 24.0309 12.088 25.041 11.278 25.781C15.908 29.271 37.1179 33.2609 45.6179 32.2609V32.2309Z" transform="translate(300.933 1093.58) rotate(88.745)" fill="black"/>
<path d="M43.009 46.0704C45.2835 46.9924 47.8176 47.0458 50.129 46.2204C56.679 43.9704 63.339 42.0504 69.899 39.8104C73.319 38.6404 76.529 36.8104 79.989 35.8104C83.7652 34.7185 87.6152 33.8997 91.509 33.3604C93.669 33.0204 95.409 35.1704 95.869 38.0904C96.269 40.6704 95.619 41.5904 92.869 42.4404C92.1053 42.6001 91.361 42.8415 90.649 43.1604C83.859 47.0104 76.5189 49.2604 68.9589 51.0104C61.3989 52.7604 53.839 54.4704 46.419 56.6904C41.699 58.1004 37.779 55.7504 33.549 54.9804C31.629 54.6304 30.549 50.5704 31.189 47.8204C32.349 43.0369 34.8748 38.694 38.4589 35.3204C40.2589 33.5904 42.1389 31.9304 43.8489 30.1204C48.7223 24.9737 53.5424 19.7837 58.309 14.5504C58.959 13.8304 59.159 12.7004 59.809 11.1904C58.109 11.3904 57.049 11.4204 56.019 11.6404C48.429 13.2304 40.859 14.9104 33.259 16.4704C27.369 17.6804 21.439 18.6804 15.569 19.9604C13.789 20.3404 12.189 21.5104 10.419 22.0404C8.19773 22.7846 5.90009 23.2777 3.56903 23.5104C1.42903 23.6404 -0.681073 20.2504 0.208927 18.2504C0.6129 17.1283 1.30207 16.1306 2.20856 15.3556C3.11506 14.5806 4.20769 14.055 5.37897 13.8304C9.37897 13.1104 13.379 12.2204 17.439 11.4804C21.499 10.7404 25.529 10.2604 29.519 9.40037C35.079 8.21037 40.5189 6.74037 46.0989 5.40037C53.7889 3.60037 61.4789 1.77038 69.2189 0.160379C70.9042 -0.177697 72.653 0.0216789 74.2189 0.730386C77.0589 2.17039 77.639 5.59038 75.559 8.47038C69.669 16.6304 64.099 25.0404 56.419 31.7804C53.119 34.6804 50.419 38.3004 47.419 41.5604C46.199 42.9904 44.809 44.3004 43.009 46.0704Z" transform="translate(365.801 1073.64) rotate(88.745)" fill="black"/>
<path d="M41.8774 66.5374C40.6874 63.9674 39.7975 62.3174 39.1375 60.5874C35.0275 49.8074 30.5075 39.1474 27.0875 28.1474C25.1475 21.9174 24.0874 15.2774 25.4174 8.4474C26.4874 2.8974 31.5975 -1.7826 37.4175 0.667398C41.2782 2.38537 45.0347 4.32872 48.6675 6.48741C50.5955 7.59691 52.379 8.94042 53.9774 10.4874C57.3674 13.7774 60.7374 17.1174 63.8174 20.6874C71.8774 30.0207 79.834 39.4141 87.6874 48.8674C89.4993 51.2744 91.1688 53.7854 92.6874 56.3874C93.0274 56.9174 93.5374 57.5274 93.4974 58.0674C93.533 59.2479 93.2387 60.415 92.6475 61.4374C91.7475 62.5274 90.3875 62.2974 89.3075 61.2274C85.7475 57.6574 81.9875 54.2274 78.6475 50.4974C70.6875 41.5174 62.8474 32.4307 55.1274 23.2374C50.5474 17.7674 44.8574 13.8574 38.7374 10.4574C35.4274 8.61741 33.3075 9.56739 33.3875 13.3174C33.4975 18.3174 33.3874 23.3174 35.4374 28.1274C37.1384 32.1708 38.477 36.3572 39.4374 40.6374C40.8074 46.7374 43.7774 52.1074 46.3574 57.6374C47.9948 60.8516 49.2661 64.2395 50.1475 67.7374C51.2375 72.9074 48.3075 76.0674 42.9075 76.1074C41.1707 76.221 39.4306 75.9408 37.8174 75.2874C33.3074 73.0674 28.6374 70.9474 24.6174 67.9874C17.2474 62.5574 9.77744 57.1074 4.31744 49.5574C2.31744 46.7874 -0.432565 44.2074 0.0574345 40.3474C0.217435 39.1074 0.927413 37.3474 1.84741 36.9674C2.76741 36.5874 4.62745 37.3574 5.44745 38.2174C9.44745 42.4374 13.1275 47.0574 17.2675 51.1574C23.39 57.3452 30.5091 62.4599 38.3274 66.2874C39.0574 66.6574 40.0774 66.4374 41.8774 66.5374Z" transform="translate(713.115 942.76) rotate(88.745)" fill="black"/>
<path d="M72.0544 31.27C69.1644 28.49 66.8145 26.46 64.7345 24.18C60.4045 19.42 56.2245 14.53 51.9745 9.70003C50.9745 8.52003 49.8345 7.37998 48.7645 6.20998C47.9165 5.44002 47.3644 4.39785 47.2037 3.26381C47.043 2.12977 47.2838 0.975251 47.8845 1.46484e-05C49.1973 0.743853 50.4362 1.61107 51.5844 2.58998C53.8844 4.94998 55.9645 7.53001 58.2245 9.93001C59.1915 10.9575 60.2794 11.8642 61.4645 12.63C66.5095 15.8624 71.2521 19.544 75.6345 23.63C78.1745 26.04 81.6345 27.55 84.8845 29.13C87.8845 30.59 90.1945 36.71 88.5345 39.65C87.0245 42.35 83.7945 43.37 81.3445 41.41C79.2845 39.78 77.4545 39.84 75.2245 40.53C71.9045 41.53 68.5345 42.42 64.7545 43.47C64.5345 44.11 64.1245 45.1 63.8645 46.13C62.9445 49.66 61.4445 50.53 58.1045 49.21C57.1045 48.81 56.2545 47.99 55.2645 47.53C54.4719 47.0424 53.5547 46.7958 52.6245 46.82C48.7576 47.4528 44.9335 48.3244 41.1744 49.43C36.7444 50.85 32.4944 52.83 28.1744 54.43C26.8824 54.9591 25.5006 55.2341 24.1045 55.24C20.6145 55.09 18.9144 51.96 20.4644 48.84C22.3644 45.03 22.3445 45.04 19.5245 42.12C11.512 33.8087 5.13745 24.062 0.734469 13.39C0.267228 12.2256 0.0197396 10.9846 0.00448828 9.72999C-0.0402105 8.84244 0.252418 7.97083 0.823702 7.29011C1.39499 6.6094 2.2026 6.16997 3.08444 6.06001C3.82902 6.10247 4.55405 6.31466 5.20401 6.68037C5.85398 7.04609 6.41167 7.55562 6.83444 8.17C11.0444 15.1 14.4945 22.51 19.7545 28.75C22.5554 32.1724 25.6761 35.3199 29.0744 38.15C33.3544 41.61 40.4145 41.08 44.5045 37.37C43.9843 36.3093 43.3577 35.3042 42.6345 34.37C37.1445 28.49 31.4645 22.78 26.1145 16.78C23.5316 13.8053 21.2535 10.5792 19.3144 7.14998C19.0365 6.45387 18.9287 5.70148 19 4.95534C19.0713 4.20919 19.3197 3.49086 19.7245 2.86C20.9745 1.33 22.9245 1.72001 24.2845 3.25001C25.5652 4.64167 26.7416 6.12568 27.8044 7.69002C31.6462 13.4676 36.453 18.5415 42.0145 22.69C45.825 25.7849 49.4293 29.1253 52.8044 32.69C54.8044 34.69 56.3944 36.17 59.6744 34.62C62.2944 33.39 65.5244 33.5 68.4644 32.91C69.7057 32.4667 70.9067 31.9181 72.0544 31.27V31.27Z" transform="translate(625.607 967.456) rotate(88.745)" fill="black"/>
<path d="M53.4531 -4.88281e-06C54.8378 0.47053 56.1963 1.01464 57.523 1.63C61.293 3.63 65.043 5.57 68.733 7.63C76.1396 11.6801 82.008 18.0545 85.4331 25.77C87.3331 30.04 85.0831 33.34 83.4331 36.77C83.1431 37.39 81.553 37.46 80.533 37.66C77.633 38.22 74.5331 38.34 71.8231 39.33C65.1331 41.72 58.6431 44.68 51.9531 47.07C43.5131 50.07 34.953 52.76 26.423 55.57C25.823 55.77 25.213 55.95 24.593 56.09C23.5069 56.3796 22.3597 56.3445 21.2933 55.989C20.2269 55.6336 19.2881 54.9734 18.593 54.09C17.373 52.67 17.743 49.53 19.123 47.48C19.563 46.84 20.013 46.21 20.633 45.33C18.993 42.64 17.4131 39.92 15.7031 37.33C11.7031 31.11 7.44306 25.01 3.56306 18.69C2.04686 16.1103 0.892654 13.3343 0.133007 10.44C-0.216993 9.18 0.13307 6.93002 1.07307 6.28002C2.80307 5.03002 4.32301 6.61997 5.38301 8.03997C8.59301 12.34 11.753 16.69 14.893 21.04C18.573 26.16 22.203 31.31 25.893 36.44C26.543 37.34 27.183 38.25 27.893 39.11C30.543 42.38 31.533 42.68 35.663 41.24C38.163 40.37 40.603 39.34 43.663 38.17C38.413 31.84 33.273 26.17 28.713 20.02C24.153 13.87 19.603 8.13001 16.233 1.02001C19.463 -0.0599854 21.4531 1.81999 22.9331 3.17999C27.2031 7.17999 31.003 11.58 35.103 15.72C38.883 19.54 42.783 23.23 46.673 26.93C48.843 28.99 51.133 30.93 53.293 33C53.8367 33.5801 54.5408 33.985 55.3156 34.1631C56.0904 34.3413 56.9007 34.2845 57.643 34C63.443 32.09 69.253 30.2 75.223 28.25C75.5143 27.1883 75.508 26.067 75.2047 25.0087C74.9013 23.9504 74.3126 22.9961 73.503 22.25C69.323 17.95 65.143 13.64 60.863 9.44C58.613 7.24 56.133 5.28 53.863 3.13C53.3985 2.54406 53.0213 1.894 52.743 1.20001L53.4531 -4.88281e-06Z" transform="translate(509.135 1014.72) rotate(88.745)" fill="black"/>
<path d="M19.042 50.82C18.692 51.39 18.392 51.9101 18.042 52.4101C16.042 55.4101 15.142 55.41 12.522 53.2C8.732 49.96 7.29199 45.3101 5.33199 41.0901C3.47889 36.7239 1.99046 32.2118 0.881981 27.6001C-1.39802 19.3101 0.881961 11.9301 6.11196 5.43008C8.60196 2.33008 12.562 1.16008 16.202 0.870083C24.672 0.180083 33.2019 0.0800874 41.7019 8.74148e-05C47.1035 -0.00989603 52.436 1.21456 57.292 3.58004C63.092 6.35004 68.832 9.58004 73.002 14.58C76.922 19.29 79.002 28.3101 75.282 35.6701C69.072 47.8801 58.622 53.3401 45.422 53.9401C37.522 54.3001 29.582 54.0601 21.962 51.3601C21.0045 51.103 20.0281 50.9224 19.042 50.82V50.82ZM13.722 44.0501C17.952 40.2601 21.9219 41.9801 25.7219 42.7201C36.2219 44.7901 46.5019 45.65 56.7219 40.88C61.2123 38.8987 64.8994 35.455 67.182 31.1101C68.4693 28.7162 68.8412 25.9357 68.2284 23.2876C67.6156 20.6396 66.06 18.3051 63.852 16.7201C57.962 12.7201 51.6019 9.53008 44.4619 8.24008C34.9698 6.62738 25.2808 6.54299 15.762 7.99008C14.3433 8.16311 12.9832 8.65977 11.7869 9.44174C10.5905 10.2237 9.58981 11.2701 8.86196 12.5001C5.96196 17.1301 6.60196 22.0201 7.86196 26.7201C9.26196 32.3201 11.512 37.7001 13.722 44.0501V44.0501Z" transform="translate(344.651 958.819) rotate(88.745)" fill="black"/>
<path d="M0 53.1841C0.54 49.9741 2.58998 48.7242 5.28998 48.3942C12.82 47.4442 20.38 46.6541 27.91 45.6841C35.74 44.6841 43.55 43.5041 51.37 42.4241C60.25 41.1941 69.16 40.1142 78.02 38.7042C82.37 38.0242 86.63 36.8042 90.91 35.7042C91.9862 35.5021 92.9827 34.998 93.7831 34.2508C94.5835 33.5035 95.1547 32.5439 95.4301 31.4841C94.8508 30.6486 94.18 29.8806 93.4301 29.1941C83.9701 21.7341 73.4301 16.0241 62.9301 10.1941C61.2627 9.30071 59.6558 8.29855 58.12 7.19415C55.62 5.34415 55.28 4.12417 56.42 2.09417C57.0344 1.16512 57.9605 0.486218 59.0314 0.179989C60.1023 -0.126239 61.2474 -0.0396703 62.26 0.42413C63.83 1.14413 65.26 2.21413 66.75 3.05413C69.1 4.35413 71.49 5.55412 73.83 6.85412C80.01 10.2641 86.2099 13.5441 91.9399 17.8541C95.7879 20.5761 99.4249 23.5847 102.82 26.8541C106.4 30.4641 106.82 35.9941 103.27 39.6041C101.605 41.286 99.6193 42.6157 97.4301 43.5142C88.8701 47.0342 79.7999 48.5141 70.6899 49.6641C63.9399 50.5141 57.16 51.1042 50.41 51.9542C43.41 52.8442 36.41 54.1241 29.41 54.8141C21.06 55.6341 12.67 56.1642 4.29999 54.9042C3.2059 54.7164 2.13143 54.4285 1.09003 54.0441C0.687172 53.8114 0.32002 53.5218 0 53.1841V53.1841Z" transform="translate(279.713 969.506) rotate(88.745)" fill="black"/>
<path d="M24.06 9.73894C23.77 13.5089 25.73 15.939 27.06 18.539C31.38 26.959 35.81 35.329 40.24 43.689C42.38 47.689 42.98 52.109 43.08 56.549C43.2 62.109 36.69 66.839 31.45 64.769C27.9898 63.2374 24.6474 61.4525 21.45 59.4289C13.7477 54.9415 7.29682 48.5904 2.68997 40.959C1.17997 38.519 0.590029 35.429 2.92969e-05 32.539C0.0144129 31.9444 0.177493 31.3629 0.474456 30.8476C0.771418 30.3323 1.19275 29.8995 1.69998 29.589C2.41998 29.269 4.05003 30.069 4.75003 30.839C6.75003 33.069 8.44001 35.589 10.36 37.839C15.3272 43.7913 21.1706 48.9536 27.69 53.149C27.82 53.229 27.95 53.329 28.09 53.399C30.17 54.399 32.68 56.649 34.48 54.659C35.69 53.339 35.71 49.969 34.97 48.009C32.25 40.829 30.39 33.2089 25.37 27.0589C24.7963 26.1151 24.2884 25.1328 23.85 24.1189C22.4 21.6789 20.76 19.349 19.42 16.859C18.08 14.369 16.58 11.859 15.97 9.16899C14.52 2.77899 19.62 -1.30105 26.06 0.378955C32.8 2.13895 38.5 5.78895 44.26 9.37895C53.8 15.319 62.43 22.509 70.92 29.829C73.67 32.199 75.79 35.349 77.92 38.439C75.61 40.339 74.18 39.279 72.73 38.299L58.24 28.3689C52.77 24.6189 47.47 20.559 41.76 17.229C36.87 14.379 31.51 12.369 26.33 10.029C25.5868 9.84628 24.8253 9.74895 24.06 9.73894V9.73894Z" transform="translate(411.54 936.641) rotate(88.745)" fill="black"/>
<path d="M27.3675 0C32.4375 0.79 37.0675 1.31 41.4875 3C47.9975 5.41 54.5476 7.73002 60.9176 10.46C65.8576 12.58 70.4476 15.56 73.6476 19.98C79.0776 27.47 75.7775 35.24 69.3675 40.25C62.6975 45.48 54.8276 47.09 46.6776 48.55C35.9776 50.47 25.2676 49.74 14.5676 49.97C11.2499 49.9275 7.9375 49.6905 4.64756 49.26C1.29756 48.93 0.107547 47.93 0.00754729 45.61C-0.112453 42.69 1.18754 41.2 4.62754 40.7C6.80754 40.39 9.18761 39.77 11.1976 40.31C16.5976 41.75 21.9476 40.59 27.1976 40.31C35.0476 39.86 42.8576 38.56 50.6476 37.39C55.198 36.6275 59.4523 34.6318 62.9476 31.62C66.9476 28.34 66.9475 25.11 62.8275 21.94C61.3239 20.7985 59.7209 19.7945 58.0376 18.94C49.1876 14.45 40.3376 9.94002 31.4076 5.65002C29.1876 4.50002 28.0475 3 27.3675 0Z" transform="translate(566.497 1002.35) rotate(88.745)" fill="black"/>
<path d="M15.9556 2.24062C17.4756 -0.599379 19.4356 0.000613764 21.2756 0.170614C35.4856 1.44061 45.6656 9.59061 54.5856 19.7906C57.3956 23.0106 60.1256 26.3106 62.6456 29.7906C65.7556 34.0406 65.4755 38.0606 62.3755 42.4406C59.8859 45.94 56.2483 48.4559 52.0955 49.5506C43.2505 52.0524 34.0862 53.2417 24.8956 53.0806C18.5956 53.0306 12.2956 52.0106 6.01556 51.2206C4.47487 50.9715 3.02279 50.3349 1.79559 49.3706C0.956988 48.7401 0.36511 47.8362 0.122253 46.8155C-0.120605 45.7948 0.000747681 44.7213 0.465514 43.7806C1.32551 41.6606 3.21561 41.9006 4.93561 42.0406C9.34561 42.3906 13.7356 43.0406 18.1456 43.2406C22.7156 43.4506 27.3056 43.2406 31.8856 43.2406C32.505 43.1552 33.1169 43.0214 33.7155 42.8406C36.6526 42.5224 39.5703 42.0451 42.4556 41.4106C46.0868 40.4043 49.6341 39.1171 53.0656 37.5606C53.4304 37.3813 53.7513 37.1239 54.0054 36.8067C54.2596 36.4894 54.4408 36.1202 54.5362 35.7251C54.6316 35.3299 54.639 34.9187 54.5577 34.5204C54.4763 34.1221 54.3083 33.7467 54.0656 33.4206C53.3049 32.0312 52.4214 30.7126 51.4256 29.4806C43.8656 20.9506 36.6056 12.0706 26.0656 6.9106C23.6656 5.7306 21.1755 4.76061 18.7455 3.67061C17.8955 3.25061 17.1056 2.81062 15.9556 2.24062Z" transform="translate(427.959 1066.01) rotate(88.745)" fill="black"/>
<path d="M9.46097 9.77796C9.12921 10.8504 9.04694 11.9845 9.22024 13.0937C9.39355 14.2029 9.81785 15.2578 10.461 16.178C14.071 21.338 17.531 26.608 21.021 31.848C21.9483 33.1222 22.7582 34.4777 23.4409 35.898C24.3009 37.898 23.441 39.958 21.611 41.288C19.781 42.618 18.121 41.858 16.971 40.528C14.7564 38.0652 12.7684 35.4078 11.031 32.588C7.93103 27.278 5.03096 21.848 2.33096 16.288C1.17328 13.6909 0.417959 10.9326 0.0909708 8.10798C-0.479029 3.82798 1.65098 1.108 5.85098 0.437996C8.32642 -0.0286907 10.8577 -0.123094 13.361 0.157966C19.101 1.06797 24.761 2.56796 30.501 3.52796C35.151 4.29796 39.881 4.61795 44.581 5.13795C46.931 5.40795 49.301 5.54798 51.581 5.98798C54.531 6.54798 56.811 9.44798 56.581 11.988C56.351 14.378 54.4409 16.088 51.0709 16.128C47.6059 16.1765 44.144 15.8985 40.731 15.298C31.101 13.588 21.511 11.618 11.891 9.78797C11.0828 9.71516 10.2698 9.71181 9.46097 9.77796V9.77796Z" transform="translate(443.795 1061.18) rotate(88.745)" fill="black"/>
<path d="M32.7091 372.376C33.2535 372.327 33.8078 372.317 34.3473 372.322C45.3288 372.425 55.9919 376.024 64.7901 382.596C66.3302 375.478 67.0065 368.199 66.8044 360.919C66.745 358.79 66.5866 356.573 65.5226 354.727C64.0675 352.203 61.2365 350.877 58.6283 349.585C40.722 340.667 25.839 326.672 15.8372 309.348C14.2188 306.536 12.6993 303.216 13.7832 300.157C14.9413 296.885 18.8116 295.208 22.2712 295.519C25.7307 295.831 28.8537 297.618 31.8034 299.444C32.4913 299.87 33.2288 300.365 33.4564 301.137C34.0355 303.117 31.0313 304.141 29.0021 303.666C21.5189 301.914 21.7268 309.224 27.7252 308.615C29.799 308.412 31.7886 307.442 33.8722 307.576C34.9689 307.672 36.0215 308.053 36.9259 308.68C37.8304 309.308 38.5554 310.16 39.0293 311.154C39.4804 312.158 39.6903 313.253 39.6422 314.352C39.5941 315.451 39.2892 316.524 38.7521 317.484C46.8045 322.587 54.4016 328.085 61.088 334.93C63.5082 337.405 65.9383 340.058 69.1751 341.245C72.4119 342.433 76.7425 341.528 78.0837 338.355C79.4101 335.262 77.4255 331.807 75.3913 329.125C63.3868 313.305 47.0989 301.258 28.4577 294.411C25.6663 293.391 22.3504 291.936 21.9841 288.967C21.5387 285.408 25.993 283.107 29.5515 283.522C34.6492 284.111 40.3606 286.116 45.1515 287.977C52.0309 290.62 60.6525 294.277 68.1357 292.268C71.4666 291.372 74.9608 289.392 78.1233 290.783C78.0143 290.46 77.8416 290.162 77.6155 289.907C77.3894 289.652 77.1144 289.445 76.8068 289.298C77.861 288.66 78.2223 287.239 77.9748 286.032C77.6486 284.838 77.0715 283.728 76.2822 282.775C66.2847 268.947 53.4811 258.074 41.4594 246.19C38.2077 242.973 34.0652 240.905 30.7542 237.777C29.6356 236.718 28.2795 235.906 27.1957 234.807C22.7413 230.353 19.4105 228.581 12.8429 228.527C9.0468 228.497 4.2114 226.814 4.25594 223.018C4.25594 221.405 5.24579 219.984 6.05251 218.564C8.61761 214.032 9.59978 208.774 8.84388 203.622C8.57168 201.82 8.14109 199.801 9.20518 198.326C10.8335 196.069 14.3474 196.975 16.8468 198.203C33.3575 206.319 47.735 218.747 65.1217 224.77C66.6411 225.295 68.2496 225.76 69.8333 225.493C73.4661 224.849 75.1835 220.499 74.7182 217.218C74.3074 214.322 72.7385 211.749 71.1548 209.274C57.1286 187.141 41.004 164.652 17.2724 153.501C14.0703 152.016 10.1802 149.844 10.3979 146.31C10.5712 143.474 13.6694 141.539 16.5103 141.608C19.3511 141.677 21.9544 143.187 24.3399 144.706C34.7878 151.304 48.0963 161.821 61.4196 158.96C65.2503 158.134 68.9276 155.317 69.5364 151.447C70.0561 148.176 68.3585 145.013 66.646 142.162C58.2323 128.27 47.9973 115.372 35.9212 104.494C27.453 96.8669 17.4803 90.5913 6.37916 88.0474C4.10251 87.5228 1.48437 86.9388 0.405433 84.87C-0.950658 82.2667 1.30124 78.9705 4.10746 78.1044C6.91368 77.2383 9.92282 78.045 12.7587 78.7973C28.6486 83.0024 44.9477 85.4716 61.3701 86.1617C61.6923 86.2519 62.0297 86.2742 62.3609 86.2271C62.6922 86.1801 63.01 86.0647 63.2943 85.8883C63.5786 85.712 63.8232 85.4785 64.0125 85.2027C64.2018 84.9268 64.3318 84.6147 64.3941 84.286C72.397 63.9298 76.5791 41.0989 73.5651 19.2629C73.0701 15.4866 71.6844 11.5916 68.695 9.23079C67.7773 8.51396 66.7198 7.99703 65.5904 7.7132C64.4611 7.42936 63.2848 7.38491 62.1373 7.58269C59.5587 8.07761 58.7718 10.4582 56.5446 11.2055C54.9262 11.7499 53.1148 10.4236 52.6941 8.77546C52.2734 7.12736 52.9564 5.36543 53.9463 3.97964C58.2373 -1.73178 67.725 -0.905253 72.9266 3.97964C78.1283 8.86454 79.9545 16.3527 80.8058 23.4301C83.0181 41.9205 80.2713 60.7276 75.1637 78.6339C74.3965 81.3362 73.5651 84.0781 73.6789 86.8794C73.7878 90.1607 75.1637 93.254 76.0298 96.4166C77.515 101.766 77.6477 107.4 76.4158 112.813C75.6437 116.184 74.2233 119.599 71.4666 121.682C68.7099 123.766 64.3545 123.999 62.0234 121.45C64.899 126.627 68.7247 131.21 71.8873 136.218C75.0498 141.227 77.5888 146.899 77.4354 152.818C77.0493 167.735 61.4493 169.507 49.8186 169.002C62.1568 180.305 72.2063 193.874 79.42 208.972C81.2364 212.788 82.8845 216.782 83.1913 220.999C83.4982 225.216 82.2361 229.729 79.0439 232.496C73.2483 237.529 64.3397 234.951 57.4108 231.734C53.9859 230.16 18.4355 210.363 18.4009 210.388C16.1044 213.664 16.9854 218.356 19.3412 221.588C21.6971 224.82 25.2407 226.958 28.5864 229.12C39.5753 236.238 49.7739 244.507 59.0094 253.787C67.6705 262.439 76.8266 270.194 83.2854 280.81C85.3343 284.171 87.1755 288.15 86.0668 291.926C84.9038 295.886 80.8998 298.251 77.0444 299.702C71.1715 301.907 64.9084 302.882 58.6431 302.567C63.1915 307.348 68.7247 311.05 73.7432 315.336C78.7618 319.622 83.4041 324.74 85.2799 331.07C87.1557 337.4 85.567 345.106 80.1327 348.847C78.0243 350.298 75.3765 351.188 74.0055 353.351C71.8526 356.756 74.0055 361.102 74.8667 365.036C76.6732 373.247 72.5208 381.894 74.3272 390.104C75.8566 397.033 81.3106 402.339 85.0176 408.416C88.7246 414.494 90.2539 423.403 84.7998 427.976C104.808 431.124 124.238 437.22 142.458 446.065C146.913 448.228 152.06 452.43 150.214 457.023C148.675 460.859 143.503 461.339 139.38 461.017C119.619 459.452 100.41 453.742 83.0033 444.259C75.9605 440.418 69.2295 435.964 61.8304 432.876C54.4313 429.787 46.1116 428.11 38.3562 430.144C58.5026 450.761 70.3737 478.061 71.714 506.857C71.8279 509.618 71.7883 512.588 70.2293 514.86C68.6703 517.131 64.9633 518.092 63.1222 516.033C61.7215 514.469 61.9987 512.073 62.2907 510.005C63.8389 498.365 63.0146 486.532 59.8675 475.219C56.7203 463.906 51.3154 453.348 43.9785 444.18C38.3116 437.177 31.155 430.866 22.4097 428.703C20.925 428.342 19.3264 428.04 18.287 426.932C16.3915 424.902 17.7129 421.304 20.1281 419.933C22.5434 418.562 25.508 418.76 28.2746 418.998L54.174 421.23L30.5265 383.655C28.5468 380.478 26.7255 375.806 29.6505 373.455C30.5409 372.801 31.6053 372.425 32.7091 372.376ZM76.1387 421.487C76.0047 421.05 75.8062 420.634 75.5497 420.255C74.1095 418.557 72.5802 416.909 71.135 415.232C70.9269 414.999 70.794 414.709 70.7539 414.4C70.6747 412.618 69.2097 412.015 68.1258 411C66.7599 409.723 64.9138 408.288 64.6168 406.679C63.919 402.834 64.0378 398.84 63.7458 394.915C63.7115 394.213 63.423 393.548 62.9341 393.044C60.1279 390.758 57.2524 388.555 54.362 386.373C53.5404 385.754 52.6595 385.056 51.6993 384.804C48.9872 384.096 46.2552 383.537 43.4688 383.047C41.2218 382.641 40.2864 383.646 41.2119 385.685C42.4961 388.434 43.9387 391.106 45.5326 393.688C47.5123 396.974 49.6602 400.151 51.7191 403.388C52.3972 404.452 52.9168 405.64 53.6988 406.61C54.758 407.917 56.0349 409.045 57.1633 410.297C57.6978 410.891 58.0938 411.609 58.5837 412.247C60.3209 414.494 61.9393 416.86 63.8596 418.944C65.5386 420.704 67.3778 422.305 69.3533 423.724C70.5704 424.614 71.9339 425.284 73.3819 425.704C75.8813 426.432 78.4549 426.902 81.0087 427.417C81.4047 427.496 81.8699 427.224 82.3054 427.12C82.1866 426.679 82.2064 426.085 81.9194 425.833C80.8009 424.843 79.5932 423.932 78.3955 423.027C77.7026 422.517 76.9751 422.057 76.1387 421.487ZM56.505 104.004C57.292 103.652 57.287 103.652 57.7721 101.89C57.8544 101.669 57.9554 101.456 58.074 101.252C58.8708 99.4999 59.6775 97.7528 60.4545 95.9909C60.4876 95.8763 60.4968 95.756 60.4814 95.6377C60.4661 95.5194 60.4266 95.4054 60.3655 95.303C59.7072 94.3131 56.901 93.8182 55.7082 94.3626C55.3073 94.5408 54.5352 94.6645 54.362 94.4567C53.1198 92.9719 52.0111 93.6697 50.8283 94.4814C50.5299 94.6574 50.1831 94.7337 49.8384 94.6992C48.4427 94.5606 47.052 94.3973 45.6712 94.1746C44.4438 93.9766 43.2361 93.6549 42.0137 93.4371C40.034 93.0758 38.0097 92.6799 35.9905 92.4473C35.2233 92.3582 34.4067 92.6601 33.6099 92.7888C33.8969 93.447 34.0207 94.2735 34.5007 94.7388C35.9311 96.0949 37.5544 97.2134 38.9996 98.5744C41.3257 100.722 43.5875 102.935 45.8345 105.162C48.3091 107.636 50.7293 110.141 53.2237 112.586C53.4141 112.764 53.6399 112.9 53.8863 112.985C54.1327 113.07 54.3942 113.103 54.654 113.081C54.8832 112.981 55.0835 112.826 55.2367 112.629C55.3898 112.431 55.4907 112.199 55.53 111.952C55.53 111.23 55.0351 110.467 55.1391 109.779C55.4311 107.953 55.9755 106.142 56.505 104.004ZM89.9965 437.914L88.8335 438.523C89.1172 438.822 89.4287 439.094 89.7639 439.334C90.4717 439.745 91.2487 440.047 91.9366 440.468C92.6246 440.888 93.1888 441.507 93.9163 441.814C96.8859 443.091 100.301 443.393 102.944 445.531C103.107 445.618 103.285 445.674 103.468 445.694L108.913 447.045C109.759 447.253 110.818 447.209 111.387 447.713C112.753 448.881 114.277 448.886 115.876 448.891C116.361 448.888 116.843 448.973 117.297 449.144C119.949 450.213 122.612 451.208 125.512 451.406C126.116 451.445 126.863 451.509 127.269 451.871C128.754 453.177 130.046 452.861 131.308 451.633C131.555 451.329 131.766 450.997 131.936 450.643C131.63 450.409 131.298 450.212 130.947 450.054C128.417 449.233 125.864 448.5 123.354 447.629C121.578 447.016 119.89 446.026 118.108 445.556C114.005 444.487 109.838 443.67 105.735 442.685C102.662 441.957 99.5882 441.23 96.5691 440.324C94.3321 439.696 92.1989 438.745 89.9965 437.914ZM68.7544 102.356L68.0764 102.207C67.5072 103.722 66.943 105.236 66.359 106.736C66.2055 107.122 65.8987 107.448 65.7849 107.839C65.3741 109.26 64.795 110.695 64.7505 112.13C64.7505 112.66 66.1214 113.214 66.8638 113.759L67.4726 113.63C67.4231 109.829 69.1008 106.221 68.7544 102.37V102.356Z" transform="translate(1001.67 383.016) rotate(91.0062)" fill="black"/>
<path d="M0.0227774 6.39201C0.126536 6.18973 0.274402 6.01333 0.455458 5.87584C1.81423 4.53984 0.531367 2.26258 0.979229 0.607765C1.22973 -0.310732 2.78586 0.433173 3.54495 0.380036C4.30403 0.3269 5.06312 -0.0146894 5.77667 0.000492316C7.05952 0.000492316 7.05952 0.584992 8.30443 1.01008C9.1287 1.26345 9.85663 1.76108 10.3919 2.43716C10.6516 2.77891 10.8216 3.18018 10.8866 3.60444C10.9516 4.02869 10.9094 4.46246 10.7639 4.86625C10.5513 5.36725 10.1262 5.87584 10.2932 6.38443C10.3388 6.52865 10.4299 6.6577 10.483 6.80951C10.5842 7.16732 10.5546 7.54947 10.3995 7.88742C10.1021 8.65152 9.5996 9.31875 8.94735 9.81564C8.29511 10.3125 7.51841 10.6198 6.70275 10.7036C5.82221 10.7795 4.93408 10.5898 4.05354 10.6429C3.58004 10.738 3.09236 10.738 2.61886 10.6429C2.15265 10.4166 1.77387 10.0431 1.54095 9.58018C0.970502 8.72895 0.484892 7.82384 0.0910954 6.87783C0.0307292 6.75503 -0.000445191 6.61994 4.80373e-06 6.4831C0.00531946 6.45221 0.0129315 6.42177 0.0227774 6.39201V6.39201Z" transform="translate(870.842 366.1) rotate(88.1801)" fill="black"/>
<path d="M15.4797 7.80876C16.3451 7.70778 20.4473 1.49744 21.2646 0.575987C22.0818 -0.34547 24.3734 -0.0551788 25.3509 0.702183C25.9506 1.12235 26.5938 1.50238 27.2738 1.83826C28.2192 2.99954 29.0365 4.00937 29.8858 5.00656C30.9162 6.33149 31.7343 7.7518 32.3215 9.23513C32.4529 9.62424 32.7325 9.97224 33.1228 10.2323C33.8599 10.6236 34.8534 10.2323 35.6386 9.92937C45.2534 5.71339 55.2206 3.92096 65.5244 1.24495C67.1269 0.815778 69.2421 1.40904 71.101 1.63625C71.3093 1.63625 71.3894 2.26737 71.6138 2.57032C72.0465 3.13834 72.3829 3.97147 73.0399 4.18606C76.4692 5.3221 77.0781 7.7204 77.655 10.1692C79.1453 16.5815 73.9534 22.7919 69.2101 27.6516C65.6366 31.2996 54.4995 37.3837 59.339 42.2056L63.6816 46.4973C64.8614 47.5883 65.8776 48.7826 66.7103 50.0569C67.791 52.2275 68.2506 54.5592 68.0563 56.8858C68.093 61.007 67.2701 65.105 65.6206 69.0162C63.7777 73.1059 60.3966 75.8703 57.0955 79.1143C49.5059 86.4265 39.3602 91.8246 27.9148 94.6402C26.0054 95.0598 24.1493 95.6176 22.3703 96.3064C19.2615 97.6571 17.5629 99.9544 15.3836 102.05C12.4191 101.078 9.29424 100.409 8.74941 97.3668C8.74941 96.9881 8.15649 96.3443 7.83599 96.3443C5.881 96.3443 5.40028 94.918 4.19844 94.2995C0.801228 92.5449 0.817237 89.9446 0.576869 87.3064C0.496746 86.3597 0.208327 85.4383 7.82449e-06 84.4159C3.44529 83.4692 3.62153 81.0583 4.32661 78.6852C5.0846 78.1512 6.06588 77.8559 7.08284 77.8559C8.09979 77.8559 9.08107 78.1512 9.83906 78.6852C10.8646 79.329 11.746 79.0639 11.8742 77.8016C12.6594 70.0891 11.4576 61.8718 12.8677 54.3108C13.1882 52.6193 13.7971 50.9658 14.2458 49.2617C14.7586 47.3052 15.0631 45.3234 15.3515 43.3417C15.9124 39.4286 20.6236 28.1944 13.4927 28.4847C9.72689 28.6615 9.18209 28.3332 8.57316 25.4426C8.1405 23.3851 9.67883 22.0219 12.0024 21.05C14.5823 19.977 18.7167 17.7933 18.6686 15.2562V12.3655C18.7234 11.3988 18.555 10.4322 18.1719 9.5128C17.9518 9.06796 17.5873 8.67646 17.1149 8.37742C16.6424 8.07837 16.0786 7.88228 15.4797 7.80876V7.80876ZM48.5224 51.5464C48.6089 50.9863 48.4119 50.4219 47.974 49.9754C47.5361 49.5289 46.8926 49.2362 46.1828 49.1607C44.7386 49.0619 43.2905 49.3129 42.0324 49.8802C38.6833 51.1425 30.1262 53.7427 28.7801 56.6964C27.1777 60.1677 26.1361 63.803 24.9182 67.4005C24.8777 67.8222 24.9046 68.2463 24.9983 68.6628C25.0463 69.3523 25.0463 70.0433 24.9983 70.7328C24.6618 73.4089 24.2612 76.0723 23.9407 78.7483C23.8285 79.6824 24.3573 81.134 23.7805 81.4748C21.6011 82.737 22.5145 84.5294 22.178 86.0315C21.3127 90.3106 32.7542 85.6276 34.4528 84.7693C40.0751 81.8232 45.2149 78.3426 49.7563 74.4061C51.1509 73.2652 52.3619 71.9934 53.3618 70.6193C55.9171 66.2433 56.6302 61.3385 55.3969 56.6207C55.1045 55.3922 54.4116 54.2448 53.3861 53.291C52.3607 52.3372 51.038 51.6098 49.5479 51.1803L48.5224 51.5464ZM44.3079 35.8942C45.3495 35.7933 46.3591 35.8943 46.8719 35.604C48.8269 34.3417 50.0768 32.524 52.5285 31.4889C53.9066 30.9083 54.6918 29.3809 55.7334 28.2323C58.6182 25.1446 61.2412 21.9104 63.5855 18.5507C64.6751 16.7709 64.1303 14.3473 64.2264 12.2393C64.2264 12.0121 63.6175 11.5956 63.2169 11.5325C60.5248 11.0402 57.7365 10.0934 55.477 12.3529C55.2847 12.5296 54.772 12.5044 54.4194 12.5927C51.5554 13.0837 48.7592 13.7939 46.0706 14.7133C44.0355 15.5843 42.3529 16.9602 39.9332 17.3389C39.5301 17.3675 39.1488 17.4957 38.8435 17.705C37.161 19.2071 35.8309 21.0374 33.0106 21.4918C32.7863 21.4918 32.6581 22.0345 32.4978 22.3122C30.8954 25.1145 31.1037 28.0682 31.3761 31.0219C31.4881 31.84 31.4881 32.6652 31.3761 33.4833C30.9114 35.8185 30.1582 38.1411 29.7736 40.4889C29.4051 43.1902 30.7351 43.8339 33.8759 42.66C34.4756 42.3541 35.0485 42.0168 35.5906 41.6502C36.9526 40.9433 38.6352 39.5043 39.6608 39.7568C42.1606 40.3753 42.8657 39.517 43.4907 38.0401C43.8272 37.2828 44.0676 36.5506 44.3079 35.8816V35.8942Z" transform="translate(1974.23 253.722)" fill="black"/>
<path d="M2.19308 46.094C1.93668 46.9776 7.28887 45.4882 7.73756 45.1852C9.34002 44.0871 9.48423 42.4082 9.93292 40.7925C11.15 36.4843 11.9376 32.1077 12.2885 27.7028C12.3024 25.7489 12.6693 23.8066 13.3782 21.9342C14.8365 18.7785 15.6377 17.0114 13.6987 13.8557C12.561 11.9749 13.0898 11.0787 15.3973 10.0689C17.3202 9.19794 18.7785 7.96088 20.6053 7.0268C22.7002 6.05709 24.9615 5.33018 27.3196 4.86837L33.5211 3.39146C34.3655 3.16517 35.2344 3.00044 36.117 2.89923C38.6611 2.87007 41.1621 2.37754 43.4243 1.46022C48.2317 -0.67301 53.4396 -0.256495 58.2951 1.34659C62.8461 2.84869 64.2402 6.87531 62.8461 10.801C61.3718 14.9917 56.1157 17.9455 53.5037 21.7323C53.1101 22.3928 52.5974 23.005 51.9814 23.5499C51.2907 24.0247 50.5449 24.4473 49.754 24.8122C47.2381 26.1881 45.7959 28.3718 44.0973 30.3157C42.3011 32.122 40.2167 33.7384 37.8958 35.1249C42.7032 35.4152 47.8791 35.4657 51.757 38.0281C56.9009 41.411 60.9551 44.8949 62.6698 50.1711C64.3066 55.7375 64.334 61.5224 62.7499 67.0982C61.9968 69.5596 60.0257 71.6802 59.0001 74.0785C58.6644 75.1312 58.2086 76.1578 57.6381 77.1458C57.3496 77.6393 56.9018 78.0646 56.3395 78.3791C55.7771 78.6937 55.1197 78.8865 54.4332 78.9383C53.6319 78.9383 52.8307 78.6606 52.0776 78.6606C51.1731 78.7428 50.2912 78.9389 49.4655 79.2412C47.6349 79.7111 45.6483 79.6301 43.889 79.014C43.4881 78.8876 43.1272 78.6938 42.8313 78.446C42.4509 78.0377 42.2083 77.5599 42.1263 77.0575C41.6374 75.7453 41.5604 74.3591 41.9019 73.0183C42.0476 72.6048 42.2971 72.2186 42.6356 71.8826C42.9742 71.5465 43.395 71.2674 43.873 71.0618C44.9306 70.6578 46.2286 71.2385 47.0779 70.8093C47.439 70.6027 47.7305 70.3297 47.9272 70.0141C52.991 63.324 51.9974 53.3394 45.3472 47.4825C44.2141 46.417 42.6543 45.687 40.9244 45.4124C39.7535 45.3091 38.5692 45.3516 37.4151 45.5386L31.3738 46.2455C31.0265 46.2673 30.6884 46.3446 30.3803 46.4727C29.4028 46.9145 29.4989 48.0379 29.7072 48.9089C27.9445 47.0786 25.7011 46.7126 23.5859 48.3914C22.9361 48.9763 22.5675 49.7223 22.5442 50.4993C21.8543 50.758 21.1993 51.0709 20.5893 51.4334C20.2081 51.9155 20.0443 52.4847 20.1246 53.0492C20.1246 59.4489 20.397 65.8864 19.9002 72.2988C19.8594 73.9967 19.481 75.6791 18.7785 77.2847C17.4324 79.986 13.875 81.3745 11.3431 83.3436C10.1733 82.7125 9.16375 82.1697 8.13818 81.6143C7.87034 81.4822 7.65408 81.2944 7.51324 81.0715C6.71201 79.3422 5.91079 77.5876 5.10956 75.7321C7.43312 75.7321 7.91384 74.6845 7.84974 72.7911C7.82207 70.9321 8.03141 69.0757 8.47468 67.2497C9.17976 64.0183 9.4522 60.4461 6.79212 57.4166C6.37792 56.9563 5.7799 56.6186 5.09352 56.4573C4.04444 56.3203 3.05919 55.9693 2.23582 55.4392C1.41244 54.9091 0.779624 54.2184 0.400386 53.4358C0.0211477 52.6533 -0.0913053 51.8061 0.0742025 50.9787C0.23971 50.1513 0.677429 49.3724 1.34378 48.7196C1.80823 47.8871 2.09519 47 2.19308 46.094V46.094ZM25.5569 29.6845C25.921 30.4228 26.3716 31.1327 26.9029 31.8051C27.1276 31.9419 27.3944 32.0292 27.676 32.058C27.9575 32.0868 28.2438 32.0562 28.5054 31.9692C29.8184 31.2173 31.0414 30.3722 32.159 29.4447C34.787 27.2357 37.3029 24.9384 39.8989 22.7294C40.4918 22.2371 41.5013 22.0099 41.9981 21.4672C44.9146 18.5639 47.6868 15.5724 50.6033 12.6313C52.2057 11.0787 51.757 10.1067 49.2892 9.48824C46.8215 8.86972 45.0748 9.76592 42.8794 10.498C39.3362 11.6133 35.6875 12.5081 31.9667 13.174C31.2751 13.311 30.6575 13.6191 30.2047 14.0531C29.7518 14.4871 29.4876 15.024 29.4509 15.585C28.906 17.6173 28.265 19.6369 27.6882 21.6692L25.5569 29.6845Z" transform="translate(2056.61 259.137)" fill="black"/>
<path d="M2.70798 83.023C2.6788 82.8735 2.63593 82.7259 2.57976 82.5812C2.0189 81.319 -0.208572 80.4606 0.0157722 79.0974C0.240116 77.7341 2.70791 77.3554 3.42901 76.1184C3.67889 75.3516 3.728 74.5528 3.57328 73.7706C3.57328 72.0287 4.83919 70.4635 5.35198 68.7215C6.00899 66.5126 5.35199 64.19 5.76863 61.9432C6.21732 59.4186 7.93194 57.298 8.46075 54.8618C8.73317 53.6752 8.3005 52.5897 8.46075 51.4411C8.62099 50.2924 9.63055 48.8155 9.96706 47.4902C10.3723 44.9725 11.0206 42.4828 11.9061 40.0427C13.0759 37.5182 13.8931 34.8675 14.7905 32.2546C15.4104 32.5399 16.1451 32.6281 16.8448 32.5015C17.5445 32.3748 18.1566 32.0428 18.5562 31.573C19.3124 30.6131 19.9509 29.5987 20.4631 28.5435C21.4559 27.4663 22.2641 26.2906 22.8668 25.047C22.9928 24.1206 23.0464 23.189 23.0271 22.2574C23.3156 19.8339 25.6391 17.89 27.8345 16.1733C31.3278 15.9334 34.5968 17.789 36.5037 20.1115C38.2269 22.5216 39.5159 25.1088 40.3336 27.7987C41.6073 31.2937 43.5008 34.6296 45.9583 37.7076C48.0735 40.2321 50.7656 42.6052 51.4386 45.5841C53.773 41.1262 55.4245 36.465 56.3582 31.6992C56.6627 29.5691 57.1662 27.4596 57.8645 25.3878C58.4895 23.7974 59.4669 22.3079 60.0117 20.7048C60.6049 18.6731 60.959 16.6026 61.0694 14.5197C61.5836 10.1627 62.7178 5.86507 64.4506 1.70765C64.7711 0.962907 65.2999 0.0793496 66.2934 0.00361342C67.287 -0.0721227 68.4727 1.07651 69.6265 0.836677C70.3316 0.685205 70.8444 0.0667207 71.5494 0.15508C71.8992 0.232162 72.2013 0.407242 72.3988 0.647383C75.3473 3.5506 74.4019 7.74129 73.6968 11.4145C73.4879 12.0647 73.5497 12.7505 73.873 13.371C74.1693 13.6706 74.4371 13.987 74.6743 14.3177C74.8316 14.67 74.8703 15.0483 74.7864 15.4159C74.3377 18.8114 72.4949 21.9671 71.1328 25.2111C68.4086 31.7623 67.6234 38.7174 65.428 45.4074C65.1698 46.0693 64.9979 46.7502 64.9153 47.4396C64.9153 47.9572 64.9153 48.4747 64.9153 48.9923C64.6589 50.9867 62.6559 52.5897 62.1912 54.5462C61.4861 57.5378 64.4826 60.2012 67.2388 62.3345C65.7115 63.1442 64.3952 64.1768 63.3609 65.3765C62.6238 66.2475 62.0308 67.2068 61.2296 68.0399C60.3696 68.925 59.2762 69.6528 58.0247 70.1731C57.5709 70.389 57.0619 70.5227 56.5344 70.5644C55.4889 70.5178 54.5044 70.1616 53.7783 69.5672C50.4467 67.3803 47.692 64.7 45.6698 61.6781C43.5706 58.5603 42.7373 55.1395 40.0772 52.2237C39.5447 51.709 39.1126 51.1346 38.7952 50.5196C38.6385 50.212 38.5916 49.8766 38.6594 49.5496C38.7272 49.2226 38.9071 48.9164 39.1798 48.6641C38.6308 48.6332 38.0982 48.5034 37.623 48.2845C37.1479 48.0656 36.743 47.7636 36.4397 47.4018C35.8203 46.6894 35.3194 45.9173 34.9494 45.1045C33.582 42.6328 31.715 40.3522 29.4209 38.3514C27.498 41.9993 26.0237 45.925 24.5174 49.7118C23.0111 53.4986 21.6971 57.4494 22.6265 61.3246C22.9682 62.2973 23.1776 63.296 23.2514 64.3036C23.0262 65.851 22.3279 67.3323 21.2163 68.6205C16.966 74.7217 14.4611 81.4813 13.8771 88.4255C13.8915 88.9432 13.7252 89.454 13.3963 89.9024C13.0417 90.2195 12.5807 90.4514 12.0663 90.5714C10.9675 90.8758 9.79044 90.9621 8.63924 90.8226C7.48805 90.6831 6.3983 90.3221 5.46651 89.7716C4.53472 89.2211 3.78962 88.4981 3.29727 87.6667C2.80491 86.8352 2.58048 85.9209 2.64382 85.0048C2.74447 84.3472 2.76599 83.6837 2.70798 83.023V83.023Z" transform="translate(2500.67 235.197)" fill="black"/>
<path d="M13.0679 28.4534C15.6158 22.5839 18.1637 16.7144 20.5193 10.8448C20.984 9.69615 20.5193 8.32027 20.8879 7.13374C21.3107 5.99256 22.007 4.92569 22.939 3.9907C24.3332 2.51385 26.1439 2.42546 28.131 3.48576C28.3305 3.58642 28.5394 3.67506 28.7559 3.75087C34.8934 5.89672 32.7621 10.3777 30.9032 14.3539C28.8839 18.6127 27.6744 23.0831 27.3137 27.6203L33.1467 21.877C34.9735 20.0846 36.8003 18.2795 38.579 16.4745C39.9411 15.0986 41.2711 13.7102 42.6492 12.3469C46.2227 8.83781 50.3731 4.21785 55.1804 1.71855C56.206 1.20102 59.5872 -0.364174 60.8531 0.0776201C61.6063 0.342697 63.5933 2.28659 61.4781 2.60216L64.683 2.05939C66.2053 2.74102 65.2759 4.5839 64.1702 5.65683C58.4014 11.3286 52.3334 16.7985 45.9663 22.0663C44.0298 23.5014 42.4057 25.1773 41.1589 27.0271C40.3417 28.4409 39.252 30.3721 37.3291 30.0439C39.0918 30.3342 32.9704 35.7241 32.8903 35.8377C32.2653 36.8097 32.8903 37.668 34.4927 37.8447C37.0086 38.135 39.5405 38.3875 42.0243 38.804C42.394 38.8752 42.7381 39.0124 43.0298 39.205C43.3216 39.3976 43.5532 39.6405 43.7068 39.9148C44.1395 41.7199 45.3093 42.4394 47.713 41.5684L47.8252 42.9569L48.3219 42.7676C48.9309 43.2977 49.5398 43.8153 50.1167 44.358C51.4029 45.4078 52.5969 46.5253 53.6902 47.703C55.549 49.9246 58.5777 52.7521 58.8501 55.5544C58.9462 56.4758 58.8501 57.5235 59.6833 58.1799C60.132 58.5333 60.8692 58.7732 60.9012 59.2781C60.9333 59.783 60.5487 59.9471 60.4365 60.3005C60.3701 60.6828 60.4599 61.0719 60.6929 61.4113C61.6799 63.2539 63.0381 64.9588 64.7151 66.4604C61.9108 69.4267 64.9875 72.0143 61.5102 74.9554C58.786 77.2528 54.6356 76.5964 52.4562 74.1224C51.0824 72.237 50.1948 70.1565 49.8443 68.0003C49.173 65.615 48.2894 63.2698 47.2002 60.9821C46.6946 59.7636 45.9247 58.6233 44.9247 57.6119C44.4573 57.2363 44.0236 56.8356 43.6267 56.4127C43.2486 55.8637 42.9477 55.2838 42.7294 54.6834C41.1269 51.2753 34.9574 47.2234 30.086 48.5361C28.6438 48.9274 26.8811 48.8517 26.0959 50.5684C25.7914 51.3005 23.9165 51.6918 22.6666 52.0958C19.4617 53.1308 18.2759 55.3145 17.4105 57.6245C16.5452 59.9345 15.8081 62.5978 15.119 65.0845C14.9395 65.4934 14.9395 65.9379 15.119 66.3467C16.2568 67.8488 16.8978 69.2878 15.119 70.8151C15.0446 70.9283 15.0057 71.0538 15.0057 71.1813C15.0057 71.3087 15.0446 71.4342 15.119 71.5473C15.5908 72.0029 15.8856 72.5562 15.968 73.1406C16.0505 73.725 15.917 74.3157 15.5838 74.8418C14.8421 76.2799 13.6325 77.5388 12.0769 78.4917C10.5212 79.4445 8.67435 80.0578 6.72217 80.2696C5.48828 80.4589 4.35051 80.5347 3.6935 79.3103C3.25744 78.6706 2.62363 78.1279 1.85069 77.7324C0.632822 76.9877 0.809069 75.9274 0.424479 74.9428C-0.777363 71.9765 0.777032 69.7422 2.53973 67.3692C2.8346 66.77 2.89599 66.1152 2.71603 65.4884C2.13914 61.9288 -0.29661 56.2107 1.24175 52.7647C1.83328 51.7392 2.56971 50.7696 3.43711 49.8741C4.59954 48.2466 5.50373 46.5127 6.12927 44.7114C8.34066 39.2963 10.6802 33.9317 13.0679 28.4534Z" transform="translate(2292.66 247.796)" fill="black"/>
<path d="M0.523099 46.7617C-1.2396 42.3943 1.85313 37.5723 3.87223 33.5457L7.79822 25.6692C9.21166 22.6228 10.9262 19.6685 12.9261 16.8333C15.7785 13.0465 19.7045 10.2064 23.6786 7.13906C24.7522 6.31858 25.7938 5.67479 27.3322 6.70985C29.7999 8.40129 31.9152 4.45043 32.8126 3.51635C34.6427 1.76925 37.2064 0.596073 40.0397 0.209214C44.0288 -0.200224 48.0804 -0.00751099 51.9779 0.777173L58.3878 1.73651C59.8909 1.89956 61.3579 2.22671 62.7465 2.70848C64.5493 3.56679 66.1984 4.61113 67.65 5.81369C69.3588 6.85344 71.2074 7.74232 73.1624 8.46442C73.5951 8.65377 74.188 9.05772 74.188 9.36066C74.0919 11.3172 75.7904 12.5794 76.816 14.1194C77.597 15.4306 77.8054 16.9085 77.4089 18.3227C76.7506 20.5541 75.7553 22.7153 74.4444 24.7603C73.0022 27.0071 71.0953 29.0521 69.4127 31.2105C66.1374 35.4053 62.3827 39.3557 58.1955 43.0127C53.9009 46.7995 48.9333 49.6522 44.158 52.9341C41.3697 54.8402 37.7481 55.9889 34.6554 57.6425C29.5539 60.1701 23.7317 61.654 17.7174 61.9594C15.4519 62.1953 13.1476 61.9498 11.0429 61.2485C8.9383 60.5472 7.10991 59.4155 5.74707 57.9706C2.28577 54.4993 1.34035 50.7126 0.523099 46.7617ZM31.771 12.8319C31.3108 13.4921 30.7744 14.1174 30.1685 14.7C27.2461 16.7245 25.0054 19.2874 23.6465 22.16C23.168 22.8193 22.6326 23.4519 22.0441 24.0534C20.9224 25.7827 19.3199 27.4869 18.9353 29.3298C18.6495 30.8735 17.866 32.3337 16.6598 33.571C15.8419 34.5056 15.1694 35.5143 14.6567 36.5752C14.4387 37.2336 14.2887 37.9047 14.208 38.5821C13.519 41.0309 12.7819 43.4545 12.1249 45.9159C12.1249 46.2062 12.5255 46.5597 12.7017 46.9005C13.1761 47.6521 13.5211 48.4502 13.7273 49.2736C13.821 50.2127 14.2808 51.106 15.0438 51.8313C15.8068 52.5567 16.8358 53.0785 17.9899 53.3254C21.0506 53.742 23.9189 52.8205 26.6271 52.0632C30.6608 50.8719 34.5361 49.371 38.1968 47.5821C40.7685 46.205 43.1624 44.6323 45.3438 42.8865C46.7059 41.9146 47.6033 40.2357 49.1416 39.794C50.7978 39.1975 52.196 38.2321 53.1637 37.0169C54.9104 35.376 57.3462 33.9118 58.2115 31.9679C59.6377 28.8122 62.3459 26.5906 65.022 24.2428C65.2623 24.0282 65.2623 23.6495 65.4065 23.3592C65.7047 22.3412 66.2136 21.369 66.9129 20.4813C68.291 19.219 69.0441 18.1839 67.7942 16.6187C67.3931 15.8758 67.0558 15.1125 66.7846 14.334C66.0475 13.0717 65.5828 11.1783 64.3329 10.7491C61.128 9.61309 58.7082 7.03806 54.7181 6.96232C51.5132 6.96232 48.1962 6.65939 44.9432 6.73512C44.4672 6.85137 44.0372 7.06225 43.6948 7.34746C43.3524 7.63267 43.109 7.98257 42.9882 8.36342C42.9882 9.62569 42.3312 9.86552 40.9851 9.94126C38.918 10.0549 36.8508 10.2947 34.7035 10.4967C34.1266 11.7084 34.0305 13.3873 31.771 12.8319Z" transform="translate(2133.36 263.165)" fill="black"/>
<path d="M77.2224 16.2962L73.1842 17.2429C75.6199 19.1489 75.7962 21.1685 73.5688 23.0872C70.9728 25.3088 68.1365 27.3789 65.3161 29.3985C62.4958 31.4182 59.4832 33.5262 56.4545 35.4827C55.461 36.139 54.0188 36.341 52.9612 36.9595C49.7563 38.7898 46.8238 40.8852 43.5388 42.5893C39.5807 44.6341 35.4143 46.376 31.28 48.2568C27.9874 49.806 24.5905 51.2134 21.1044 52.4728C18.2333 53.3282 15.2809 54.0035 12.2748 54.4924C11.495 54.6953 10.646 54.6546 9.90316 54.3788C7.73984 53.2301 4.45484 53.369 3.3812 50.9076C2.64201 49.7604 2.01521 48.5704 1.5063 47.348C0.833272 44.2806 0.480727 41.1755 -9.78062e-06 38.0829C-9.78062e-06 37.9567 -9.78062e-06 37.7674 -9.78062e-06 37.7043C2.93249 35.3943 1.21786 31.9988 3.2049 29.3606C5.54449 26.3564 6.93865 22.9105 9.03787 19.78C11.4416 16.2078 14.0215 12.6735 16.8418 9.29059C18.342 7.8592 20.0344 6.55991 21.8896 5.41541C23.9247 3.87544 26.0078 2.38598 27.9308 0.770272C29.1967 -0.315279 33.7477 -0.176414 35.5585 0.707174C38.0423 1.96944 40.5582 3.724 43.9073 1.96944C44.356 1.71699 45.3655 2.15876 46.1187 2.18401C49.0672 2.28499 51.9997 2.34812 54.9482 2.43648C55.3438 2.36557 55.7545 2.36557 56.1501 2.43648C59.355 3.69875 63.3291 3.69875 66.0532 5.99608C67.3148 6.83487 68.7035 7.54717 70.1876 8.11669C70.3318 8.1798 70.5562 8.19243 70.6203 8.28079C72.8477 10.8937 74.995 13.5066 77.2224 16.2962ZM66.3096 16.9399C63.3771 14.0872 60.5248 11.4365 56.5346 9.78289C55.8937 9.51781 55.1886 9.06336 54.5637 9.11385C50.4293 9.40417 46.311 9.89648 42.1767 10.1616C40.4553 10.2138 38.7324 10.095 37.0488 9.80808C34.9015 9.49252 32.8664 8.8109 31.2479 10.7674C30.2134 11.7323 29.1056 12.647 27.9308 13.5065C26.4063 14.689 25.1106 16.0415 24.0849 17.5205C22.9792 19.5528 22.8831 21.9511 19.8865 23.0998C19.4859 23.2513 19.2936 23.8067 19.1333 24.2106C18.4122 26.1293 17.9315 28.1237 17.0021 29.9792C15.3195 33.3495 13.3324 36.6061 14.0856 40.3803C14.1995 41.2187 14.2477 42.0618 14.2298 42.9048C14.3099 44.3691 15.3035 44.8739 17.0982 44.4574C18.893 44.0408 20.9602 43.6495 22.8671 43.1951C24.0349 42.9786 25.1689 42.6611 26.2482 42.2484C28.1391 41.4153 29.8698 40.3929 31.7607 39.5724C32.594 39.2064 33.7477 39.2947 34.5169 38.9034C37.3693 37.4391 40.1255 35.8613 42.9298 34.334C43.3785 34.0941 43.8432 33.8669 44.3079 33.6524C47 32.3901 49.8043 31.3172 52.3202 29.9413C54.899 28.5241 57.3709 26.9899 59.7236 25.3466C61.2622 24.3767 62.5979 23.2224 63.6816 21.9259C64.7305 20.3064 65.6095 18.6219 66.3096 16.8894V16.9399Z" transform="translate(2217.43 260.382)" fill="black"/>
<path d="M15.4317 45.3028C15.672 45.3028 15.8163 45.5174 16.0566 45.5805C16.297 45.6436 16.6977 45.2019 16.6816 44.8484C16.8551 43.3336 16.4653 41.8117 15.5599 40.4683C14.1337 38.8021 12.5152 37.7418 11.8743 35.6717C11.7 35.8089 11.4636 35.886 11.2172 35.886C10.9708 35.886 10.7345 35.8089 10.5602 35.6717C10.2404 35.3704 10.0398 35.0017 9.98337 34.6114C9.14531 31.3409 8.53012 28.0375 8.14051 24.7152C8.14051 24.0715 7.85204 18.5427 7.41938 18.4039L10.0635 18.9467C7.96425 16.2202 8.66931 12.7489 9.43849 9.61847C9.56701 8.8408 9.8999 8.09278 10.416 7.42213C10.9602 6.90163 11.6753 6.5087 12.4834 6.28614C13.2915 6.06357 14.1616 6.0199 14.999 6.15986C15.8728 6.24042 16.6779 6.57319 17.2585 7.09393C17.5376 7.35551 17.6907 7.68627 17.6907 8.028C17.6907 8.36972 17.5376 8.70056 17.2585 8.96214C17.6004 8.93263 17.9271 8.83477 18.2075 8.67793C18.4879 8.52109 18.7129 8.31043 18.8609 8.0659C20.6076 9.58062 20.1749 12.2061 19.9506 14.0364L18.8289 23.4151C18.7802 23.5552 18.7737 23.7023 18.8099 23.8447C18.8461 23.9872 18.9239 24.121 19.0372 24.2356C19.2936 24.4375 19.7422 24.4123 20.0147 24.6142C20.5755 25.0182 20.0147 25.6998 19.6622 26.2552C19.5382 26.5833 19.5202 26.9307 19.6097 27.2657C19.6993 27.6008 19.8936 27.9129 20.175 28.1738C21.0049 28.9114 21.972 29.5455 23.0433 30.0546C23.4612 29.7384 23.8128 29.372 24.085 28.9691C25.19 27.5421 26.6379 26.2987 28.3475 25.3085C30.1787 23.8807 31.7239 22.2421 32.9305 20.4488C33.2675 19.8661 33.4787 19.2432 33.5554 18.6058H34.2284C34.3086 19.4137 34.3727 20.2216 34.4528 21.0294H34.8214C35.1099 20.3099 35.4624 19.5904 35.6707 18.8583C36.5295 16.5567 37.6894 14.3315 39.132 12.2187C40.7344 9.40388 43.8272 7.16967 44.2118 3.78679C44.356 2.36043 46.3751 1.07291 47.3045 -1.54086e-05C48.3577 0.556851 49.4931 1.01042 50.6857 1.35062C55.1405 2.04487 55.8937 6.82887 54.4034 8.92424C53.8823 9.85886 53.1117 10.6941 52.144 11.373C51.0383 12.0042 49.7723 11.2595 49.0672 12.8878C48.6666 13.8092 48.3461 14.9453 47.1763 15.2609C46.5195 14.2514 46.0192 13.1834 45.686 12.0799C44.0836 13.8976 44.8047 16.4095 45.686 18.5427L43.683 18.0252C43.4907 22.1402 40.2698 24.9045 38.427 28.5399C37.5296 30.307 37.161 32.2258 36.4239 34.0434C34.6452 38.474 30.8953 42.1345 27.9148 46.0728C24.5977 50.4529 23.1075 55.4136 20.3833 60.0588C18.6687 63.1008 16.7777 66.0798 15.015 69.1218C14.7646 69.6581 14.6715 70.2321 14.7426 70.8007C15.0311 74.1962 12.1786 76.7081 10.6884 79.6366C10.1772 80.5648 9.35103 81.364 8.30071 81.9465C7.33924 82.4766 5.64069 83.0699 4.85549 82.7543C2.74025 81.8707 0.544882 80.6716 0.0481201 78.6899C-0.208273 77.781 0.624981 76.6702 1.0256 75.6604C1.58645 74.2088 2.14736 72.7572 2.77232 71.3182C3.39727 69.8792 4.19842 68.2509 4.88747 66.7109C5.06374 66.2818 5.04772 65.8021 5.19194 65.3603C5.37242 64.6607 5.81316 64.0191 6.45795 63.5174L7.24313 58.2664H9.42245C9.42245 58.1401 9.63083 57.976 9.58276 57.9129C6.84255 54.6941 13.1082 48.0924 15.2875 45.4543C15.3223 45.3968 15.3713 45.3453 15.4317 45.3028V45.3028ZM13.4286 50.2509C13.028 51.6015 12.8037 52.3842 12.4672 53.5076L16.0085 53.0532L13.4286 50.2509ZM11.5698 29.9537L12.7716 33.1598L13.8292 32.9578C14.326 31.7082 12.8357 30.8625 11.5698 29.9537Z" transform="translate(2452.43 240.136)" fill="black"/>
<path d="M29.3891 55.0149C33.0266 53.9041 36.7763 53.1847 40.462 52.2001C40.8786 52.0865 47.9134 50.0038 46.8718 52.1244C48.6666 48.5017 55.9898 48.5269 59.3069 45.813C59.7575 45.3982 60.3006 45.0517 60.9093 44.7906C61.3036 44.6659 61.7197 44.5893 62.1433 44.5634C63.7623 44.3452 65.4101 44.29 67.0468 44.3993C68.3928 44.5381 71.0369 45.1188 71.4856 46.3432C71.9984 47.8074 69.5947 48.7667 68.6813 50.0416C68.5189 50.3163 68.2771 50.5574 67.9754 50.7454C67.6736 50.9334 67.3204 51.0633 66.9436 51.1246C66.5668 51.1859 66.177 51.177 65.8054 51.0985C65.4338 51.0201 65.0907 50.8742 64.8033 50.6727C64.7756 51.0267 64.6053 51.3644 64.3171 51.6368C64.0289 51.9093 63.6378 52.1022 63.2008 52.1875C62.3255 52.3479 61.4365 52.4576 60.5408 52.5157C58.5441 53.0071 56.688 53.8003 55.0764 54.8508C50.4132 57.2744 44.8849 58.158 39.6448 59.4708C34.4048 60.7835 30.03 62.9168 24.3734 63.6615C22.21 63.9518 20.3832 65.2898 17.8353 64.5577C17.1463 64.3557 15.8322 66.2113 14.6304 64.3179C14.342 65.8073 13.6369 66.5268 11.746 66.0724C10.6912 65.8995 9.60549 65.8781 8.54109 66.0093C7.2569 66.0189 5.98295 65.8287 4.79227 65.4496C3.60159 65.0706 2.51757 64.5101 1.60242 63.8004C0.416603 63.043 3.52446e-05 58.5998 0.673067 57.4006C0.865362 57.0472 0.36853 56.4539 -3.52102e-05 55.482C-3.52102e-05 49.8775 3.54143 44.008 2.7402 37.5073C3.55449 37.2398 4.22443 36.7566 4.63412 36.1412C5.04381 35.5257 5.16751 34.8167 4.98368 34.137C4.96888 33.9789 4.99529 33.82 5.06143 33.6702C5.12758 33.5204 5.23204 33.3829 5.36825 33.2661C8.95776 30.0599 9.95122 24.6826 12.1145 20.8075C14.2778 16.9323 16.5694 13.3348 18.4282 9.44706C19.5339 7.17497 23.5562 -2.27944 28.9244 0.51017L26.4405 3.47655C27.6156 3.76634 28.8521 3.8693 30.0781 3.77948C29.8497 3.50928 29.7622 3.18013 29.8338 2.86044C29.9054 2.54074 30.1306 2.2551 30.4627 2.06281C30.8059 1.88359 31.1968 1.76872 31.6052 1.72714C32.0135 1.68556 32.4286 1.71839 32.8183 1.82298C32.6306 4.53827 31.7648 7.19766 30.2704 9.64899C30.014 10.015 29.0846 10.1035 28.4276 10.2549C27.7706 10.4064 26.8252 10.52 26.1201 10.6462C26.6681 10.9863 27.2786 11.2588 27.9308 11.4541C29.1647 11.6561 29.2929 12.06 28.8923 12.9309C24.3573 22.5999 18.7648 31.8649 15.5599 41.8368C14.7266 44.3614 9.35837 57.6657 16.5854 57.5395C17.6924 57.4165 18.7716 57.17 19.7904 56.8074C21.9697 56.2394 24.3253 56.2646 26.5207 55.785C27.4082 55.5702 28.2801 55.3173 29.1326 55.0276L29.3891 55.0149ZM15.8483 33.8341C16.345 32.7738 17.4507 31.6756 15.7521 30.6153C13.2363 31.8145 15.4316 32.799 15.8483 33.8341Z" transform="translate(2373.09 248.853)" fill="black"/>
<path d="M0.961462 -1.84903e-05L3.54139 2.80226L2.73857e-05 3.25666C0.336543 2.13324 0.560848 1.35061 0.961462 -1.84903e-05Z" transform="translate(2464.9 290.387)" fill="white" stroke="black" stroke-miterlimit="10"/>
<path d="M3.1298e-05 3.69805e-05C1.26597 0.908871 2.75621 1.75452 2.25945 3.00417L1.20187 3.20617L3.1298e-05 3.69805e-05Z" transform="translate(2464 270.089)" fill="white" stroke="black" stroke-miterlimit="10"/>
<path d="M56.3562 95.9385C53.2709 107.631 46.9288 117.977 35.8975 123.719C14.9124 134.738 -5.50955 120.474 4.06476 97.4077L2.9891e-05 96.7099C3.86893 94.2612 4.23621 88.8251 4.18724 84.2339C4.00359 64.3874 3.86892 44.5409 3.96687 24.7066C3.96687 21.1928 4.65246 17.887 4.7749 14.4099C4.64404 13.2472 4.34721 12.1092 3.89341 11.0307C5.33813 10.2472 4.95858 8.88814 4.72595 7.19856C4.49333 5.50897 4.72595 3.23177 5.79112 2.21557C8.05614 -0.0494501 11.0802 -0.869824 14.0921 1.15033C14.3005 1.4343 14.4315 1.7676 14.4723 2.11746C14.5131 2.46731 14.4622 2.82172 14.3247 3.14601C10.468 8.81468 14.2146 28.1837 14.2268 35.3583C14.2268 48.2995 11.1904 66.1627 14.9736 78.3448C26.1274 72.1129 31.9919 38.811 47.6144 42.2391C52.4138 43.2921 54.7523 48.6791 55.9522 53.4418C59.0865 66.1504 60.017 82.0423 56.3562 95.9385ZM16.1245 104.925C13.9819 106.749 12.0108 108.39 10.1008 110.092C10.0049 110.25 9.94627 110.429 9.92931 110.613C9.91234 110.798 9.9375 110.984 10.0028 111.157C10.7742 112.712 11.0803 114.622 12.9902 115.393C13.9575 115.785 14.9002 116.238 15.8919 116.618C17.7651 117.242 19.7485 118.454 21.5361 118.234C24.7888 117.732 27.97 116.844 31.0124 115.589C32.7755 114.928 34.1835 113.398 35.9098 112.577C38.6618 111.147 40.8273 108.8 42.0315 105.941C43.366 103.138 44.3699 100.187 45.5453 97.371C45.6555 97.0894 45.9371 96.8812 46.0596 96.5996C46.4262 95.8564 46.7372 95.0871 46.9901 94.2979C47.1248 93.8204 46.8187 93.1715 46.9901 92.7797C49.047 89.1067 48.0675 85.0664 48.5082 81.1975C48.4442 80.5969 48.3128 80.0055 48.1164 79.4344C47.8588 78.0479 47.7033 76.6443 47.6512 75.235C47.6512 73.4352 48.1042 71.6354 48.0797 69.8357C48.0797 66.028 47.7736 62.208 47.5777 58.4003C47.5824 58.0298 47.4468 57.6712 47.1982 57.3964C46.3656 56.6985 45.4719 56.0864 44.5903 55.4497L45.1658 55.2416C45.0678 54.2989 45.3127 53.0623 44.8107 52.4746C43.7211 51.2502 42.8395 52.6215 42.1784 53.2704C40.954 54.4947 39.9624 55.9149 38.8605 57.2494C38.4128 57.731 38.0034 58.2468 37.6361 58.7921C36.02 61.5591 34.4039 64.3261 32.898 67.1421C31.9675 68.8807 30.2534 70.1173 29.8494 72.1986C29.7438 73.3179 29.347 74.39 28.6985 75.3084C27.3762 76.7042 26.2498 77.9163 26.2498 80.0588C26.2573 80.8074 26.1161 81.55 25.8345 82.2435C25.5529 82.9371 25.1364 83.5677 24.6092 84.0991C23.042 85.25 23.2624 86.6581 22.9563 88.0661C22.8754 88.6796 22.6058 89.2529 22.185 89.7066C19.9567 91.4085 20.2015 94.2367 19.1486 96.465C18.2793 98.277 18.1691 100.493 17.0795 102.366C16.6733 103.184 16.3532 104.041 16.1245 104.925V104.925Z" transform="translate(950.435 1008.8)" fill="black"/>
<path d="M0.132133 47.5153C-0.0145008 46.1981 -0.0391638 44.8702 0.058601 43.5485C0.989097 31.5745 8.51877 21.1187 16.1341 12.5605C20.2724 7.92031 27.949 -2.60903 35.895 1.72512C39.3353 3.59835 40.5964 7.84679 41.2208 11.7402C41.5749 13.108 41.4849 14.553 40.9637 15.8663C40.5233 16.6471 39.8065 17.2347 38.9545 17.5134C38.1024 17.7921 37.1769 17.7418 36.3602 17.3722C34.6217 16.5151 33.9115 14.397 32.3444 13.2339C26.3941 8.78957 12.8652 38.0512 12.2286 41.4794C11.3593 46.0829 11.9225 51.9352 16.2077 53.8451C19.7215 55.4123 23.774 53.331 26.8226 50.968C34.2689 45.1594 39.9258 37.3681 43.1431 28.4892C46.0937 20.2861 46.914 11.3484 51.1013 3.63508C51.7261 2.22586 52.8269 1.08162 54.211 0.40289C63.2343 -2.92731 60.3327 15.3765 59.4144 19.025C57.884 25.2814 50.9666 40.0836 59.6471 44.1851C61.1531 44.8952 62.9896 45.1891 63.9568 46.5359C65.1811 48.2867 64.2383 50.7476 62.9773 52.4739C60.7245 55.5592 56.8556 58.0936 53.1826 56.857C47.771 55.0083 47.9669 47.3195 45.0407 42.3976C40.0209 50.8088 34.4258 57.8977 25.2188 61.987C21.3744 63.7133 17.0525 64.8152 12.9754 63.9704C5.60491 62.5135 0.927952 55.1062 0.132133 47.5153Z" transform="translate(1081.65 1164.42)" fill="black"/>
<path d="M16.3056 5.4979C17.9585 7.19973 17.8483 9.93001 17.3096 12.244C14.4814 24.4874 9.4616 33.9515 12.4122 47.1009C12.9142 49.4149 14.4691 52.2553 16.7831 51.7289C18.1054 51.435 18.9012 50.1127 19.5379 48.9007C23.0232 42.2892 26.288 35.5717 29.3325 28.748C31.1935 24.5975 35.8582 -0.146281 40.3515 0.000639628C42.2615 0.000639628 44.1838 0.196516 46.0815 0.441383C46.4488 0.441383 47.0855 1.35968 47.012 1.48211C45.6775 3.64919 47.6242 10.3463 47.6364 13.15C47.6364 22.3448 45.1877 32.4823 47.4037 41.5546C48.3832 45.4848 50.783 49.2802 54.4927 50.9086C57.3454 52.1329 61.2144 52.4512 62.3775 55.3407C63.4427 57.9852 61.1531 60.9482 58.4963 61.9399C54.7131 63.3601 50.3421 62.148 47.0977 59.7483C43.8532 57.3486 41.5147 53.945 39.3477 50.5413C37.0214 46.8683 34.7564 42.9382 34.3402 38.604L28.7571 49.4883C27.3059 52.6902 25.3963 55.6639 23.0884 58.3158C21.9239 59.6345 20.4889 60.6867 18.8811 61.4009C17.2733 62.115 15.5304 62.4742 13.7712 62.4541C10.3064 62.2092 7.25783 60.0054 5.10299 57.2506C1.22185 52.3533 -0.198415 45.8398 0.021966 39.5835C0.32805 31.0131 3.10728 23.7405 6.81702 16.2108C6.91497 16.0272 6.70683 15.7089 6.81702 15.5008C8.32295 10.8605 12.5714 8.53425 16.3056 5.4979Z" transform="translate(1014.36 1054.36)" fill="black"/>
<path d="M50.4801 53.7647C49.9018 54.5033 49.1367 55.0738 48.264 55.4175L35.078 62.029C30.952 64.0981 26.5076 64.9062 22.051 66.057C21.3584 66.1079 20.662 66.0626 19.9818 65.9224C15.2852 65.7331 10.7721 64.0472 7.10178 61.1107C3.57569 58.3315 2.2045 54.7074 0.894463 50.814C-0.648201 46.3085 0.0374278 41.9499 1.20055 37.53C1.89842 34.9344 2.24121 32.2408 3.01254 29.682C4.16342 25.8988 6.36722 22.0543 7.90989 18.3446C7.95835 18.1899 8.05216 18.0535 8.17921 17.9529C8.42407 17.7692 8.75476 17.9529 9.06084 17.9529C9.74647 17.9529 10.2851 17.3285 10.6524 16.7285C12.7746 13.7738 15.0437 10.917 17.4598 8.15818C18.1834 7.23107 19.0768 6.44995 20.0921 5.85643C20.7052 5.60817 21.3022 5.32192 21.8796 4.99938C22.5652 4.53413 22.5652 3.6893 23.1039 3.19956C24.167 2.53297 25.3219 2.02563 26.532 1.69365C28.5938 0.827781 30.7721 0.270863 32.9965 0.0408263C36.6695 -0.253015 40.8201 1.03252 42.877 4.15458C45.5338 8.20713 43.9667 13.6554 41.6527 17.9039C36.0479 27.7059 27.1444 35.1993 16.5293 39.0482C15.3136 39.2537 14.072 39.2537 12.8563 39.0482C12.4033 40.5051 11.9135 41.8519 11.6319 43.2354C10.5667 47.5818 11.8523 52.0629 16.1864 53.9606C24.365 57.5601 32.1027 54.5483 39.7059 50.8875C41.5056 50.0182 43.3054 49.149 45.0685 48.2307C49.8272 45.7537 54.3729 42.8871 58.6587 39.6603C58.96 39.4051 59.3098 39.2135 59.6871 39.0971C59.9506 39.0537 60.2195 39.0537 60.483 39.0971C62.3195 39.3297 64.2783 40.4806 64.5109 42.3171C64.7436 44.1536 63.2867 45.6596 61.8052 46.786C58.3341 49.5727 54.5298 51.917 50.4801 53.7647V53.7647ZM20.9981 27.7598C21.5858 27.0496 22.0142 26.1314 22.7121 25.7886C24.4261 24.956 26.1892 24.3806 27.4993 22.8135C29.0419 20.977 32.1395 20.3648 31.8212 17.0591C31.8212 16.8509 32.3233 16.5326 32.6416 16.3734C34.6128 15.4307 36.0941 12.3086 35.3351 10.3864C35.1704 10.1609 34.952 9.98013 34.6997 9.8604C34.4474 9.74067 34.1691 9.68577 33.8903 9.70079C30.7971 10.4721 27.9996 12.1371 25.8465 14.488C25.2343 15.1491 24.6955 15.8959 23.9487 16.8142C22.7243 16.4959 21.5858 17.157 21.096 18.7487C20.8115 19.5942 20.6227 20.4689 20.5329 21.3565C20.4104 22.7033 20.141 23.6827 18.4392 23.0338C18.182 22.9359 17.8515 23.0338 17.2148 23.1073C18.6473 24.6744 18.072 25.556 16.5783 26.2906C15.9416 26.6212 15.5865 27.5149 15.0967 28.1271L15.2927 28.7637C16.2844 28.7637 17.7413 29.1677 18.1698 28.678C18.9044 27.9312 18.9902 26.5599 19.4677 25.103L20.9981 27.7598Z" transform="translate(1083.42 1044.41)" fill="black"/>
<path d="M16.6044 35.5054C16.2834 35.5481 15.9581 35.5481 15.6371 35.5054C15.2118 35.4068 14.7759 35.3615 14.3394 35.3708C9.07477 36.0197 11.7927 51.3851 16.2493 52.5972C17.7976 52.874 19.3933 52.6777 20.8283 52.034C28.8552 49.1701 35.8662 44.0151 40.9933 37.2073C44.5806 32.4201 48.3392 26.1882 54.3629 26.4698L54.1549 31.3672C53.3958 50.0261 9.71145 77.6838 1.5084 50.8341C-1.60142 40.5987 0.455474 28.7961 4.42232 19.1238C7.74011 13.8963 11.8736 9.23379 16.6657 5.31332C19.4132 2.82174 22.7436 1.06178 26.3501 0.195598C30.0231 -0.477787 34.1124 0.575131 36.2917 3.55027C38.471 6.52541 38.2751 10.2474 37.516 13.651C35.251 23.2254 28.2601 30.1306 19.6898 34.4648C18.7343 34.9989 17.6882 35.3517 16.6044 35.5054V35.5054ZM15.025 25.2945C16.7023 24.7435 18.0124 24.4007 19.2368 23.862C20.4059 23.4028 21.4932 22.7578 22.4568 21.952C23.79 20.6489 25.0529 19.2758 26.2399 17.8383C26.6766 17.4635 27.0345 17.0057 27.2929 16.4915C27.63 15.4931 27.8078 14.4477 27.8194 13.3939C27.8194 13.149 26.6929 13.0144 26.2032 12.6593C24.6238 11.5574 24.0117 13.2225 23.2036 13.8102C20.0938 16.0263 16.7146 18.1934 17.841 22.9315C17.841 23.0172 17.7063 23.1397 17.6451 23.2376L17.3635 22.8458C16.6365 23.1947 15.9403 23.6042 15.2822 24.0702C15.0128 24.3395 15.0862 24.9517 15.025 25.3434V25.2945Z" transform="translate(1240.5 1149.32)" fill="black"/>
<path d="M11.821 9.18744C11.821 9.27315 11.821 9.35888 11.821 9.44458C11.6087 13.591 11.3721 17.7375 11.1109 21.8839C16.902 19.9617 22.3012 6.39602 27.6761 2.2945C28.8727 1.26072 30.3004 0.52998 31.8388 0.164087C49.151 -2.92124 46.1024 38.4124 46.7268 47.0929C46.8983 48.9364 46.9597 50.7885 46.9105 52.6392C46.9474 53.9231 46.6342 55.1928 46.0045 56.3122C44.168 59.0792 39.5278 58.3813 37.4341 55.7735C35.3405 53.1657 35.2915 49.5416 35.5854 46.2359C36.4886 34.2634 35.177 22.2271 31.7164 10.7301C30.9515 10.8489 30.2501 11.2257 29.729 11.7981C29.2078 12.3705 28.8983 13.104 28.8515 13.8767C23.8195 19.9984 11.0497 36.2086 15.8613 44.73C13.9881 46.089 13.2534 48.5132 12.8371 50.7905C12.4208 53.0677 12.2005 55.4796 10.9272 57.4263C9.65391 59.373 6.91141 60.5851 4.97696 59.324C3.49551 58.3568 3.06692 56.4224 2.76084 54.6838C-0.055137 38.5471 -2.65074 20.9044 5.35643 6.60411C6.20122 5.07369 7.57259 3.40857 9.2989 3.67793C11.5517 4.02074 11.9801 6.91018 11.821 9.18744Z" transform="translate(1148.39 1042.32)" fill="black"/>
<path d="M18.346 6.74378C23.1699 4.44203 33.038 -1.65514 38.9516 0.426236C45.3793 2.66677 47.8648 6.62132 46.8241 13.5266C44.5836 28.3655 34.7154 59.2066 13.8527 54.297C8.14727 52.9503 3.70303 48.0896 1.71961 42.5679C-3.78991 27.1535 4.52329 13.3552 18.346 6.74378ZM11.2082 32.9201C11.4041 33.6792 11.857 34.4138 11.6856 34.9403C10.8775 37.389 12.0162 39.556 12.8365 41.7353C13.0447 42.2863 13.7671 42.6658 13.9385 43.229C14.028 43.635 14.1972 44.0191 14.4366 44.359C14.676 44.6989 14.9807 44.9878 15.3327 45.2088C15.6848 45.4299 16.0773 45.5786 16.4874 45.6465C16.8976 45.7144 17.3171 45.7 17.7216 45.6042C18.5932 45.5246 19.4702 45.5246 20.3417 45.6042H22.1905V45.2124L21.1742 44.6982L24.8472 42.6536C25.3019 42.447 25.7399 42.2055 26.1573 41.9312C26.8213 41.3997 27.4322 40.8052 27.9816 40.1559C28.6305 39.3356 28.9732 38.1725 29.7568 37.5848C30.5421 37.0913 31.1413 36.351 31.4604 35.4802C31.7795 34.6093 31.8004 33.6572 31.5199 32.7732C32.0847 31.916 32.5958 31.0246 33.0503 30.1041C33.5278 28.8798 33.7727 27.5208 34.2747 26.2597C35.2419 23.7131 36.3071 21.2032 37.3233 18.6811C37.9025 17.3936 38.4053 16.0731 38.8292 14.7265C39.1475 13.5756 39.7108 11.9839 39.2088 11.2371C38.7796 10.742 38.252 10.3416 37.6597 10.0612C37.0674 9.78091 36.4233 9.62684 35.7683 9.60876C33.4054 9.60876 31.5199 11.8493 28.9366 11.5065C28.7897 11.5065 28.6059 11.9962 28.3855 12.1921C28.1652 12.388 27.6878 12.9512 27.4184 12.9022C25.7533 12.5594 24.529 13.7592 23.121 13.9918C19.448 14.5918 17.8563 18.1179 14.673 19.2565C14.5847 19.2964 14.5055 19.3538 14.4402 19.4254C14.3749 19.497 14.3249 19.5812 14.2934 19.6728C13.4417 21.7228 12.7339 23.8297 12.1753 25.9781C11.9748 27.8572 11.9503 29.7509 12.102 31.6346L11.2082 32.9201Z" transform="translate(1211.98 1034.99)" fill="black"/>
<path d="M9.2625 72.4076C8.69039 72.54 8.10924 72.63 7.52388 72.6769C4.8181 72.8851 1.843 71.8566 0.520714 69.4937C0.125872 68.9033 -0.0531531 68.1948 0.013762 67.4878C0.0806771 66.7807 0.389494 66.1184 0.888075 65.6126C1.26342 65.3605 1.67679 65.1703 2.11241 65.0493C7.14444 63.3475 30.7252 57.0911 30.7252 49.133C32.9445 47.2485 34.7958 44.9696 36.1856 42.4114C36.5348 41.3308 37.1109 40.3373 37.8752 39.4974C38.4384 38.9954 39.1731 38.7261 39.7608 38.2731C41.5238 36.8651 41.3768 33.9022 39.8709 32.2249C39.054 31.4395 38.0748 30.8427 37.0023 30.4768C35.9298 30.1108 34.7902 29.9845 33.6636 30.1068C31.4198 30.3756 29.2009 30.8218 27.0276 31.4413C22.62 32.4207 17.4777 32.2739 14.2455 29.1151C10.7561 25.6869 10.8419 19.8101 13.1314 15.5005C18.5063 5.42417 30.8109 -0.0486596 41.9279 0.00031389C43.948 0.00031389 46.2253 0.992006 46.6783 2.96319C47.1313 4.93437 45.4539 6.91785 43.5194 7.76264C39.0261 9.72158 34.2022 10.2113 29.9293 12.8558C28.8152 13.5537 19.9265 23.7035 21.4936 23.8749C25.6196 24.4748 29.7701 23.3239 33.8839 22.6505C37.9977 21.9772 42.5399 21.9037 45.9558 24.3034C50.5471 27.5357 51.3429 34.343 49.286 39.5709C43.1643 55.0587 29.1824 63.0781 15.1637 70.0079C13.2955 71.0322 11.3154 71.8375 9.2625 72.4076V72.4076Z" transform="translate(1265.44 1023.45)" fill="black"/>
<path d="M2.38336 25.3562C-4.65657 9.4398 27.6537 -7.44379 38.8687 3.47729C40.95 5.49744 41.1459 9.59896 38.5381 10.8845C36.8852 11.6803 34.9385 11.0559 33.1509 10.6519C28.0915 9.54397 22.8003 10.3879 18.3365 13.0148C16.4071 14.0349 14.8574 15.6491 13.9167 17.6184C12.4107 21.2914 14.6146 25.7112 17.908 27.9885C25.5356 33.2531 51.2834 34.3306 38.5013 50.602C35.9649 53.5107 32.9758 55.9913 29.6494 57.948C22.7563 62.4536 15.6306 67.0815 7.52551 68.5507C4.61159 69.0772 0.681515 68.5507 0.0693467 65.6246C-0.542822 62.6984 3.02002 60.5803 5.90946 59.5029C11.6726 57.2956 17.2182 54.5577 22.4748 51.3243C24.6663 49.9775 33.3958 44.3211 30.0779 41.7868C27.8985 40.1217 25.3642 39.7299 22.7931 39.2034C18.5638 38.4489 14.4836 37.0185 10.7089 34.9672C8.45452 33.7887 6.47312 32.1494 4.89331 30.1556C3.87615 28.6569 3.03397 27.0466 2.38336 25.3562V25.3562Z" transform="translate(1298.03 1138.93)" fill="black"/>
<path d="M0.0134102 19.7813V19.4998C0.0991137 15.2758 1.97232 -2.30565 9.17142 0.253214C11.8405 1.2082 13.2974 4.23224 13.3097 7.0727C13.3097 12.4353 8.81632 19.4507 11.5711 24.2134L20.472 12.3618C22.4086 9.49511 24.77 6.93965 27.4752 4.7832C29.3607 3.42419 40.0981 0.0572991 42.4488 1.99175C42.7544 2.29377 42.9778 2.66887 43.0977 3.08143C45.8647 10.354 39.2901 10.4274 34.2581 12.1415C31.7359 13.0352 29.8995 15.1656 28.3078 17.296C21.4388 26.5417 17.0472 37.3899 15.5502 48.8104C15.5274 49.7735 15.216 50.7075 14.6564 51.4917C13.8484 52.3977 12.5016 52.5202 11.4487 53.1323C10.3957 53.7445 9.4897 55.03 8.20415 55.3728C5.60856 56.0707 3.85776 52.7895 3.3068 50.1694C0.969924 40.2129 -0.136094 30.0073 0.0134102 19.7813V19.7813Z" transform="translate(1192.25 1156.46)" fill="black"/>
<path d="M10.2123 53.4482C9.09817 53.289 7.98403 53.0442 6.85764 52.983C2.47452 52.7503 0.0871041 33.1609 0.0136439 30.0388C-0.172443 21.9945 1.5565 14.0212 5.05791 6.77643C9.84506 -2.69994 17.3869 -2.50399 14.4607 9.05375C11.204 21.8848 9.18381 36.185 15.5014 47.8285C15.9534 48.5063 16.2504 49.2755 16.3708 50.0813C16.4932 51.979 14.4486 53.3992 12.5508 53.5706C11.7692 53.6158 10.985 53.5747 10.2123 53.4482V53.4482Z" transform="translate(1159.51 1162.65)" fill="black"/>
<path d="M1.19564e-05 5.57174C0.159176 4.3474 0.208173 3.71075 0.330607 3.12306C0.563231 1.89873 0.575498 0.80907 2.19162 0.294849C4.17505 -0.329563 5.72991 0.172454 7.65212 0.564242C9.57432 0.956029 10.3089 2.86595 12.0352 3.26998C12.3413 3.34344 12.6229 4.07804 12.6719 4.49431C12.7208 4.91059 12.5005 5.54724 12.2189 5.71865C10.1987 6.52671 10.4191 9.68553 7.92143 9.88143C6.48771 10.1504 5.01056 10.0749 3.61175 9.66105C2.38741 9.08562 1.53039 7.64091 0.563159 6.53901C0.334412 6.2423 0.14515 5.91713 1.19564e-05 5.57174Z" transform="translate(1167.58 1129.35)" fill="black"/>
<path d="M565.16 139.393C565.319 139.977 565.789 140.505 566.486 140.884C567.472 141.362 569.316 141.024 569.278 140.225C566.537 144.204 566.752 148.826 568.344 153.068C569.936 157.31 572.627 161.306 574.762 165.474C575.874 167.624 576.822 169.93 576.101 172.155C573.473 180.26 555.052 175.384 547.193 174.873C520.66 173.143 494.126 172.402 467.53 172.196C414.173 171.875 360.892 174.066 307.686 176.265C247.759 178.737 187.845 181.208 127.955 183.926C128.625 185.107 128.588 186.409 127.853 187.574C127.118 188.738 125.738 189.68 123.988 190.212C108.561 181.216 102.736 167.352 97.1768 154.353C85.1905 126.301 71.1321 98.6829 55.0016 71.4986C52.0324 66.4901 48.0903 61.8441 40.3199 59.414C39.3356 59.0246 38.159 58.8978 37.0349 59.0597C35.6829 59.3563 35.0385 60.3366 34.5079 61.2098C26.6153 75.0655 18.5248 88.8746 10.2363 102.637C9.59224 104.057 8.3799 105.339 6.72383 106.352C4.92968 107.25 1.98577 107.341 0.659112 106.146C-0.465391 105.108 0.0652736 103.675 0.659112 102.48C9.90376 83.5101 20.8604 64.9128 33.4718 46.7856C35.1017 44.4296 37.2622 41.843 41.179 41.2993C44.8179 40.8298 48.2293 42.4526 51.0975 43.9848L116.799 78.9702C118.163 79.7033 119.642 80.56 119.793 81.7051C120.008 83.3526 117.089 84.6377 114.524 84.4812C111.96 84.3247 109.786 83.2373 107.777 82.1911L46.1446 50.0642C57.2254 55.8305 64.2251 73.8875 69.1274 82.3476C75.8366 93.8803 81.459 105.718 87.031 117.531C92.603 129.343 98.0992 141.239 104.505 152.911C109.559 162.228 112.996 177.707 131.657 177.336C175.576 176.479 219.478 175.359 263.363 173.975C305.829 172.632 348.901 169.206 391.367 169.206C393.106 169.302 394.827 169.504 396.509 169.807C398.468 168.645 403.661 168.324 405.72 169.354C407.028 169.149 408.359 169.014 409.7 168.95C414.426 168.95 419.164 169.082 423.889 169.082C425.431 169.082 426.959 168.72 428.501 168.703C431.419 168.703 434.351 168.703 437.345 168.794C440.038 168.801 442.726 168.925 445.394 169.164C448.767 169.543 452.002 168.604 455.312 168.917C456.87 169.113 458.409 169.366 459.924 169.675C460.201 169.754 460.495 169.807 460.796 169.832C465.167 169.683 469.564 169.692 473.873 169.296C477.663 168.958 481.125 170.293 485.004 169.626C487.089 169.263 489.616 170.153 491.941 170.128C494.847 170.128 497.74 169.51 500.646 169.502C504.525 169.502 508.404 169.807 512.636 170.005C514.405 168.662 525.36 168.448 529.934 170.005C530.982 168.571 532.284 168.406 533.876 169.716C534.318 169.955 534.817 170.144 535.354 170.276L536.289 168.909C536.175 168.909 536.39 168.835 536.478 168.909C540.269 170.334 544.388 169.296 548.33 169.634C551.985 169.869 555.667 169.869 559.322 169.634C561.849 169.527 563.239 168.324 563.29 166.644C563.207 165.59 563.207 164.534 563.29 163.48C563.421 163.238 563.633 163.018 563.91 162.836C564.188 162.653 564.524 162.513 564.894 162.426C565.898 162.284 566.925 162.226 567.952 162.253C567.952 162.072 568.04 161.891 568.091 161.709C554.988 157.772 554.71 130.11 552.929 121.172C552.461 118.84 552.853 115.694 556.378 115.208C551.779 115.059 549.72 111.443 548.797 108.502C538.386 75.5515 527.773 42.9386 522.757 9.33715C522.29 6.21508 522.34 2.41751 526.408 0.737027C529.87 -0.68809 534.368 0.242777 538.247 1.10773C558.463 5.58902 579.829 7.14596 601.03 8.59579C787.382 21.3312 974.769 27.839 1162.12 32.9463C1166.69 33.0699 1173.02 34.7668 1171.39 37.5594C958.976 32.6498 747.085 22.2154 535.72 6.25627C531.146 21.7184 535.354 37.65 539.713 53.1451C547.774 81.7298 556.378 110.24 564.983 138.767C565.008 138.965 565.071 139.179 565.16 139.393Z" transform="translate(970.028 1035.04) scale(1 -1) rotate(33.4639)" fill="black"/>
<path d="M7.32422e-06 1.29002L2.44001 -1.95312e-05C2.56001 0.35998 2.85001 0.99998 2.75001 0.99998C2.03388 1.48199 1.29282 1.92595 0.529976 2.33L7.32422e-06 1.29002Z" transform="translate(1298.49 1218.03)" fill="white"/>
</svg>
