<svg id="Layer_1" data-name="Layer 1" xmlns="http://www.w3.org/2000/svg" viewBox="0 0 334.77 1013.74"><title>arrow1</title><path d="M603.52,886.31c3.3,3.61,5.62,6.14,6.56,7.11a722.18,722.18,0,0,0,71.68,64.17c4.52,3.55,62.19,47.12,60.47,30.44-6.7-65.07-8.09-130.77-2.69-196a910.22,910.22,0,0,1,13.22-97c5.49-28.52,19.42-61.49,18.8-90.5-.1-4.53,2.18-8.34,1.79-12.64-.18-2-.63-4-1.06-6.69,2.88-.68,4.63,1.64,5.48,4.28a93.55,93.55,0,0,1,3,12.81c5,29.43-5,60.23-8.85,89.83-4.76,36.6-7.94,73.84-9.48,110.72q-2.19,52.57,0,105.21c1.33,32.38,13.15,73.4,8.73,105-7.7,55-91.36-17-108.06-30.29a681.89,681.89,0,0,1-87.28-83c-17-19.28-60.9-59.58-51.65-89C526.87,802.27,583.41,864.31,603.52,886.31Z" transform="translate(-447.41 -19.71)"/><path d="M676.66,801.74c-41.2-72.1-63.3-148.9-81.38-229.27-21.38-95-50.38-189-74-283.73-10.69-43.46-21.33-86.92-32.4-130.28C482,131.65,476.93,61.52,451.93,45c-5-3.31-6-8.28-2.31-13.08a56.12,56.12,0,0,0,6-9.76c1-2.17,2.19-2.79,4.31-2.28,29.2,6.92,36.36,74.15,42.33,99.57,9.83,41.93,20.16,83.79,30.57,125.41.33,1.19.76,2.35,1,3.56C554.55,364.44,591.5,479,621,593.09c19,73.45,36.8,140.14,70.17,209.32,5.12,10.61,10.53,22.47,7.06,33.72C690.53,824.87,683.43,813.58,676.66,801.74Z" transform="translate(-447.41 -19.71)"/></svg>