<svg id="Layer_1" data-name="Layer 1" xmlns="http://www.w3.org/2000/svg" viewBox="0 0 805.64 415.11"><title>milan</title><path d="M1142.74,711.21c-25.92,4.08-51.82,8.1-77.94,10.78-51,5.23-102.55,5.61-153.3,12.86q-122.09,15.49-243.07,38.41c-5.71,1.08-12.94,4.09-12.31,9.87-7.7-4.16-17.15-1.61-25.5,1-35.38,11.15-70.36,23.24-105.4,35.45l-23.7,8.26c-6.78,2.37-13.56,4.73-20.37,7-3.71,1.23-7.56,2.43-11.44,2s-7.84-2.79-8.81-6.57c-.58-2.25,0-4.62.48-6.88l7.88-33.64a17.45,17.45,0,0,0,19.67,2.71c2.93-1.56,5.35-3.94,8.19-5.65,3.74-2.25,8.06-3.28,12.3-4.27,24.06-5.64,48.17-11,71.93-17.84,3-.86,6.44-2.16,7.28-5.16,178.64-32.93,356.61-54,537-74.92,11.64-1.35,23.35-2.71,34.58-6,7.81-2.31,15.35-5.55,23.3-7.29,9.6-2.1,19.54-2,29.36-1.79,5.72.09,11.62.22,16.86,2.51s9.71,7.33,9.53,13c-.16,5.12-4,9.55-8.57,11.88s-9.77,3-14.86,3.58C1191.35,703.48,1167,707.37,1142.74,711.21Z" transform="translate(-433.64 -421.85)"/><path d="M565.15,578.27a4.83,4.83,0,0,0,2-.19c-1.46-6.45,1.36-13,4.11-19l11.48-25c3-6.53,6.06-13.18,10.87-18.53,7.66-8.52,23.41-13.67,32.3-3.83,3.34,3.71,5.18,9.15,9.79,11.06q5.05,34.39,8.9,68.95c1.86,16.71,9.72,44.82,4.05,60.88-3.12,8.81-14,15.49-22,10.81-6.42-3.73-7.94-12.18-8.79-19.55Q615,619.6,612.22,595.4c-.73-6.31.11-16.77-2.58-22.45-.53-1.12-8.49-11.17-8.49-9.43a546.14,546.14,0,0,1-26.43,80.35c-4.35,10.44-12.12,22.58-23.31,21-11.46-1.58-15.47-15.85-16.89-27.33l-5.69-46c-1.05-8.47-2.11-17-4.33-25.23a91.64,91.64,0,0,0-8.93-21.63c-6.72,7-10.87,19.26-14.69,28.17A181,181,0,0,0,489.7,609a26.79,26.79,0,0,1-1.82,6.48c-.54,1.11-1.24,2.14-1.77,3.26a23.65,23.65,0,0,0-1.57,5.57L478,657.87a84.78,84.78,0,0,1-3.49,13.71,42.26,42.26,0,0,1-11,16.22,13,13,0,0,0-8.37,3.38c-7.29-2.17-12.62-8.73-15.27-15.87s-3-14.88-3.38-22.49c-.83-17.84-5.28-37.66-.92-55.17.89-3.56,2.09-7.22,1.39-10.83-.41-2.13-1.48-4.11-1.73-6.27a17,17,0,0,1,.61-5.62q3.82-17.29,7.67-34.58c1.16-5.23,8.32-20.86,7.13-25.89-2.25-9.44,7.53-25.06,17.36-26.69,7.27-1.21,13.74,5.88,14.89,13.17s-1.42,14.56-3.5,21.64-3.69,14.87-.77,21.64l5-.71-1.82,6c3.24-2.22,4.58-6.27,5.85-10,3.25-9.53,7.62-19,15.12-25.77s18.73-10.08,27.93-6c7.69,3.43,12.47,11.1,16.57,18.45,7.36,13.22,8.43,25.89,10.48,40.73.39,2.77.81,5.64,2.32,8A7.33,7.33,0,0,0,565.15,578.27Z" transform="translate(-433.64 -421.85)"/><path d="M868,487.78a18.65,18.65,0,0,1,3.53-.49c2.58-.11,5.34.31,7.58-1,2.44-1.4,3.43-4.34,4.92-6.72,4.22-6.75,14-9.32,21-5.52,9.57,5.21,11.14,18.05,11.56,28.94,1.52,39.36,1.76,78.73,3,118.1.17,5.32.31,10.8-1.58,15.77-3,7.93-11.08,13.28-19.47,14.5a4.65,4.65,0,0,1-2.72-.18c-3-1.41-2.54-7.67-5.76-7.1,3.37-18.22-.61-36.51-1.63-54.76-.91-16.41,1.54-30.29-5.31-46.22-9.43,12.18-11.83,28.17-16.57,42.83a132.28,132.28,0,0,1-30.94,51.36c-4.74,4.86-10.44,9.61-17.22,9.89-4.92.21-9.73-2.08-13.34-5.42-6.69-6.2-9.55-15.72-9.43-24.84s2.91-18,6-26.55c11-30.45,27-56.72,44.91-83.36C852,498.89,858.76,490,868,487.78ZM834.77,594.13c2.77-.91,3.63-3,4.79-5.71,3.73-8.84,11.88-20.65,9.47-28.94-4,4.5-6.58,9.63-9.49,15C836,581,834,588,834.77,594.13Zm-.89,5.59c-4.44-1.76-5.14,1.88-6.72,4-.56.77-.36,2.11-.5,3.19,1.34-.3,3.24-.16,3.9-1C832,604.1,832.85,601.75,833.88,599.72Z" transform="translate(-433.64 -421.85)"/><path d="M1045.63,489a287.19,287.19,0,0,0-51.75,94.31c-2,6.28-3.91,12.76-7.78,18.1s-10.28,9.39-16.81,8.48c-16.69-2.33-10.45-32.09-10.85-43.38a81.53,81.53,0,0,1,.4-9.75c.25-3,1-5.86,1.09-8.8.36-12.94.73-25.89.75-38.83,0-9.79-3.61-22.36,1.07-31.3,3.31-6.31,11.79-10.22,17.93-6.61,3.75,2.21,5.73,6.47,7.21,10.56,5.07,14,5.55,28.24,6.22,42.78,13.42-18.55,22.33-39.68,38.68-56.51,7.2-7.41,17.06-14.39,27-11.79,6,1.57,10.67,6.38,14,11.63,6.35,10.11,8.74,22.18,10.22,34,4.88,39.11-1.39,73.37-10.48,110.77-1,4.27-4.75,7.46-9.06,6.79a20.16,20.16,0,0,1-6.37-1.82c-2.78-1.5-4.35-3.58-1.92-7,2-2.85-.29-28,.08-33.38a374.74,374.74,0,0,0-.48-57.74C1053.89,508.75,1052.28,497.46,1045.63,489Z" transform="translate(-433.64 -421.85)"/><path d="M762.57,447.11c3.55,54.73,5.42,108.3,4.9,163.11l-.43,46.3c-.09,8.82-2.07,20.11-10.72,21.87-5.48,1.11-11-2.8-13.55-7.76s-2.89-10.76-3.15-16.34c-1.06-22.81-5.26-48.44-3-70.85,1.08-10.9-1.29-21.78-.17-32.71.31-3-1.26-6.21-1.9-9.33-.32-1.54-1.17-3.45-.6-4.61,5.75-11.86-1.69-39-.2-52.61,1.7-15.59-2.74-31.6.27-47.24,1.62-8.39,9.15-17,17.4-14.74s10.44,12.85,11,21.44C762.42,444.79,762.5,446,762.57,447.11Z" transform="translate(-433.64 -421.85)"/><path d="M699.53,533.92c5.91,8.08,6.72,18.68,5.22,28.54-1.72,11.27-5.91,22.14-6.6,33.52-.51,8.54,1,17.32-1.44,25.53S686,637.25,677.82,634.57c-8.91-3-10.43-14.79-9.87-24.16.3-5,16.35-92.4,29.08-79.43A26.47,26.47,0,0,1,699.53,533.92Z" transform="translate(-433.64 -421.85)"/><path d="M694.35,456.06a16.21,16.21,0,0,1-9.17,15.76c-4.94,2.2-11.18,1.58-15.21-2-13-11.63,15.89-40.65,23.75-16.85A14,14,0,0,1,694.35,456.06Z" transform="translate(-433.64 -421.85)"/></svg>